<?xml version="1.0" encoding="utf-8"?>
<!-- Generator: Adobe Illustrator 27.5.0, SVG Export Plug-In . SVG Version: 6.00 Build 0)  -->
<svg version="1.1" id="_x2018_лой_x5F_1" xmlns="http://www.w3.org/2000/svg" xmlns:xlink="http://www.w3.org/1999/xlink"
	 x="0px" y="0px" viewBox="0 0 3000 2000" style="enable-background:new 0 0 3000 2000;" xml:space="preserve">
<rect style="fill:#FFFFFF;" width="3000" height="2000"/>
<g>
	<path style="fill:#1C468A;" d="M2806.467,1567.771c-2.389,31.248-7.655,60.051-14.572,86.203
		c-12.773,48.288-40.257,89.559-76.863,119.601c-40.303,33.068-91.662,52.497-146.605,52.565h-1.24
		c-51.484-0.205-114.743-0.478-186.92-0.796c-2.23-0.012-4.471-0.023-6.723-0.034c-46.878-0.205-97.419-0.433-150.85-0.683
		c-15.914-0.068-32.078-0.148-48.482-0.228c-39.188-0.182-79.718-0.364-121.318-0.558c-11.875-0.057-23.831-0.113-35.877-0.171
		c-60.449-0.284-122.923-0.58-186.625-0.887c-10.568-0.046-21.17-0.103-31.806-0.148c-41.235-0.204-82.915-0.397-124.833-0.603
		c-68.299-0.33-137.21-0.66-205.792-1.001c-2.719-0.012-5.426-0.022-8.145-0.034c-73.86-0.364-147.277-0.717-219.09-1.069
		c-35.57-0.171-70.743-0.341-105.382-0.512c-7.86-0.046-15.698-0.08-23.501-0.113c-0.012,0-0.012,0-0.012,0
		c-61.234-0.308-120.648-0.604-177.444-0.888c-12.104-0.057-24.093-0.114-35.946-0.171c-38.017-0.193-74.736-0.375-109.886-0.546
		c-19.737-0.091-38.972-0.193-57.685-0.284c-57.605-0.285-110.103-0.546-156.139-0.773c-4.095-0.023-8.133-0.046-12.126-0.057
		c-20.168-0.103-39.018-0.193-56.41-0.285c-41.1-0.204-79.912-12.66-112.435-34.33c-37.982-25.299-67.388-63.18-81.8-108.817
		c-0.341-1.092-0.683-2.195-1.013-3.299c-9.089-30.543-17.552-64.896-23.888-102.083c-2.775-16.244-5.13-33.022-6.961-50.256
		c-19.793-186.295-11.41-500.893,250.429-690.851c203.335-147.516,0.17-384.42,187.409-518.809
		c142.386-102.197,308.58-79.139,416.624-73.849c62.007,3.037,110.17-22.876,110.17-22.876
		c97.999,0.126,193.541,25.378,320.957,6.951c59.471-8.6,170.528-22.569,182.404-23.456
		c230.886-17.086,483.261,99.182,617.354,239.69c26.994,28.291,149.757,174.692,52.986,375.923
		c-61.097,127.04,194.86,248.382,285.818,393.463c74.145,118.281,101.127,224.255,103.471,313.813
		C2808.174,1534.896,2807.695,1551.664,2806.467,1567.771z"/>
	<polygon style="fill:#F9DDBF;" points="1202.363,471.973 980.245,1520.84 1982.882,1520.84 1797.942,471.973 1669.68,472.836 
		1515.826,925.889 1330.626,472.836 	"/>
	<g>
		<rect x="787.092" y="423.881" style="fill:#233862;" width="1672.846" height="13.927"/>
		<rect x="787.092" y="358.575" style="fill:#233862;" width="1761.308" height="13.927"/>
		
			<rect x="867.098" y="345.958" transform="matrix(0.6252 -0.7805 0.7805 0.6252 15.9152 829.522)" style="fill:#233862;" width="8.94" height="104.467"/>
		
			<rect x="964.997" y="345.959" transform="matrix(0.6252 -0.7805 0.7805 0.6252 52.6109 905.9297)" style="fill:#233862;" width="8.94" height="104.466"/>
		
			<rect x="1068.696" y="345.958" transform="matrix(0.6252 -0.7805 0.7805 0.6252 91.4837 986.8699)" style="fill:#233862;" width="8.94" height="104.467"/>
		
			<rect x="1166.595" y="345.958" transform="matrix(0.6252 -0.7805 0.7805 0.6252 128.1814 1063.281)" style="fill:#233862;" width="8.94" height="104.467"/>
		
			<rect x="1273.075" y="345.959" transform="matrix(0.6252 -0.7805 0.7805 0.6252 168.0925 1146.3851)" style="fill:#233862;" width="8.94" height="104.466"/>
		
			<rect x="1370.974" y="345.958" transform="matrix(0.6252 -0.7805 0.7805 0.6252 204.7925 1222.7996)" style="fill:#233862;" width="8.941" height="104.467"/>
		
			<rect x="1467.794" y="345.958" transform="matrix(0.6252 -0.7805 0.7805 0.6252 241.0845 1298.3667)" style="fill:#233862;" width="8.94" height="104.467"/>
		
			<rect x="1565.693" y="345.959" transform="matrix(0.6252 -0.7805 0.7805 0.6252 277.7787 1374.7731)" style="fill:#233862;" width="8.94" height="104.466"/>
		
			<rect x="1674.729" y="345.958" transform="matrix(0.6251 -0.7805 0.7805 0.6251 318.663 1459.8921)" style="fill:#233862;" width="8.94" height="104.467"/>
		
			<rect x="1772.628" y="345.959" transform="matrix(0.6252 -0.7805 0.7805 0.6252 355.3481 1536.2872)" style="fill:#233862;" width="8.94" height="104.466"/>
		
			<rect x="1875.914" y="345.959" transform="matrix(0.6252 -0.7805 0.7805 0.6252 394.0637 1616.9014)" style="fill:#233862;" width="8.94" height="104.466"/>
		
			<rect x="1973.813" y="345.958" transform="matrix(0.6252 -0.7805 0.7805 0.6252 430.7684 1693.3207)" style="fill:#233862;" width="8.94" height="104.467"/>
		
			<rect x="2094.198" y="345.958" transform="matrix(0.6252 -0.7805 0.7805 0.6252 475.8946 1787.2816)" style="fill:#233862;" width="8.94" height="104.467"/>
		
			<rect x="2192.097" y="345.959" transform="matrix(0.6252 -0.7805 0.7805 0.6252 512.5834 1863.6824)" style="fill:#233862;" width="8.941" height="104.466"/>
		
			<rect x="2316.561" y="345.959" transform="matrix(0.6252 -0.7805 0.7805 0.6252 559.2379 1960.8262)" style="fill:#233862;" width="8.94" height="104.466"/>
	</g>
	<g>
		<g>
			<path style="fill:#FFB27D;" d="M925.334,1067.465c0,0,2.874-20.614,9.772-21.399c6.898-0.786,15.19,6.064,15.521,11.687
				c0.331,5.623-15.521,19.033-15.521,19.033L925.334,1067.465z"/>
			<path style="fill:#8C9DF4;" d="M826.476,1010.055c0,0,44.823,83.215,62.643,80.307c17.82-2.907,36.215-22.896,36.215-22.896
				l9.772,9.32c0,0-22.993,48.037-46.562,50.335c-23.568,2.297-58.059-25.705-58.059-25.705L826.476,1010.055z"/>
			<path style="fill:#102B51;" d="M855.933,1519.772h-64.524c-4.623-3.135,1.247-33.786,1.247-33.786s17.61-6.682,20.652,6.906
				c3.051,13.578,22.43,17.896,32.686,19.553C853.013,1513.587,855.231,1517.442,855.933,1519.772z"/>
			<path style="fill:#102B51;" d="M760.238,1519.772h-64.523c-4.623-3.135,1.247-33.786,1.247-33.786s17.61-6.682,20.651,6.906
				c3.051,13.578,22.431,17.896,32.687,19.553C757.319,1513.587,759.537,1517.442,760.238,1519.772z"/>
			<path style="fill:#183768;" d="M838.573,1207.08c0,0-2.9,36.184-6.309,79.679c-4.633,59.084-17.129,205.575-17.129,205.575
				s-8.192,6.99-26.338,3.166c0,0-15.446-50.536-20.064-108.217c-0.072-0.945-0.143-1.898-0.215-2.851
				c-4.296-58.719-10.978-182.365-10.978-182.365L838.573,1207.08z"/>
			<path style="fill:#102B51;" d="M839.563,1194.577c0,0-3.89,48.687-7.299,92.182l-63.531,100.524
				c-0.072-0.945-0.143-1.898-0.215-2.851c-4.296-58.719-10.978-182.365-10.978-182.365L839.563,1194.577z"/>
			<path style="fill:#183768;" d="M821.045,1194.577c0,0-46.077,114.694-60.807,158.171
				c-10.492,30.969-40.083,139.609-40.083,139.609s-12.868,3.916-23.682-3.653c0,0-11.009-110.995,11.229-142.292
				c11.798-16.604,2.932-172.606,50.768-173.941C806.305,1171.135,821.045,1194.577,821.045,1194.577z"/>
			<path style="fill:#FFB27D;" d="M800.464,1025.497c-7.034,3.705-13.899,3.937-19.851,2.672
				c-5.444-1.145-10.119-3.548-13.448-5.676c-3.417-2.185-5.426-4.087-5.426-4.087s0.238-0.344,0.638-1.02
				c2.078-3.555,8.379-16.334,5.576-36.866c-0.038-0.269,1.996,0.112,5.069,0.838c9.143,2.166,27.523,7.378,28.336,7.61
				c0.019,0,0.031,0,0.031,0s0.225,4.318,0.983,12.06c0.063,0.682,0.131,1.396,0.206,2.134c0.094,0.907,0.188,1.871,0.301,2.86
				C803.731,1014.07,800.464,1025.497,800.464,1025.497z"/>
			<path style="fill:#ED975D;" d="M802.373,1001.028c-13.649,3.129-34.019-17.022-34.019-17.022
				c1.489-1.108,3.054-1.983,4.668-2.647c9.143,2.166,27.523,7.378,28.336,7.61c0.019,0,0.031,0,0.031,0
				S801.615,993.287,802.373,1001.028z"/>
			<path style="fill:#8C9DF4;" d="M846.233,1234.32c0,0-127.658,6.563-126.692-0.854c0.319-2.492,3.673-37.379,6.364-70.11
				c0.69-8.33,1.328-16.513,1.871-23.988c0.914-12.744,1.535-23.437,1.56-29.257c0.069-13.917,0.198-27.446,0.664-38.862
				c0,0-6.381-44.838,0.707-52.192c8.304-8.605,32.706-11.244,34.232-10.917c0.456-0.095,0.913-0.215,1.388-0.293
				c0,0,20.772,11.71,36.207,3.044c0,0,0.146,0.025,0.439,0.068c3.751,0.596,22.514,4.933,28.99,11.779
				c2.242,2.354,11.157,16.831,11.407,32.731C843.706,1077.621,852.321,1234.32,846.233,1234.32z"/>
			<polygon style="fill:#6980E2;" points="803.087,999.547 801.009,1098.311 823.322,1062.704 812.607,1053.213 826.476,1040.763 
				817.225,1002.19 			"/>
			<polygon style="fill:#FFFFFF;" points="767.661,1001.358 790.212,1014.014 805.302,1001.358 800.975,1098.311 			"/>
			<g>
				<path style="fill:#F99746;" d="M855.817,953.351c-12.955-8.51-30.8-5.078-43.318,7.219l-0.003-0.002
					c-2.333,2.293-4.485,4.895-6.383,7.785c-9.021,13.733-9.811,30.091-3.224,41.7l0.003,0.002c2.229,3.934,5.304,7.317,9.192,9.872
					c3.277,2.152,15.049,6.047,18.242,6.628c3.192,0.581,4.675,6.428,4.675,6.428l1.97-0.222c0,0-1.611-4.308,5.149-7.015
					c6.76-2.707,23.464,5.991,26.08,10.417c2.616,4.426-3.035,7.753-3.035,7.753l1.448,2.576c4.149-2.689,10.658,2.604,10.658,2.604
					l0.071-0.109c1.768,2.05,3.84,3.896,6.215,5.456c13.811,9.072,32.36,5.229,41.431-8.58c9.072-13.812,5.231-32.358-8.58-41.431
					c-2.706-1.777-5.594-3.051-8.554-3.86c-1.972-1.226-6.326-4.411-5.69-8.2l-2.939-0.306c0,0-0.809,6.508-5.91,5.865
					c-5.101-0.643-19.718-12.519-19.918-19.798c-0.2-7.279,4.393-7.511,4.393-7.511l-0.578-1.896c0,0-5.956,0.962-7.756-1.737
					S859.191,955.567,855.817,953.351z"/>
				
					<rect x="847.399" y="1003.436" transform="matrix(0.549 -0.8358 0.8358 0.549 -452.7963 1170.4158)" style="fill:#FFFFFF;" width="21.512" height="2.701"/>
				<polygon style="fill:#ED7D2B;" points="966.047,1070.43 961.873,1076.785 873.92,1025.148 883.103,1011.168 				"/>
				<path style="fill:#FFFFFF;" d="M865.65,1022.884c-0.094,0.092-1.055,2.253-5.526,1.422c-0.832-0.155-3.309-1.03-4.959-2.013
					c-4.56-2.714-11.615-7.848-15.717-7.515c-0.006,0-0.011,0-0.017,0.001c-0.028,0.002-0.054,0.008-0.081,0.011
					c-0.921,0.129-1.856,0.811-1.661,1.284c0.12,0.291,0.129,0.507,1.155,0.495c1.026-0.013,1.768,2.331,0.042,2.259
					c-1.725-0.072-1.896-1.167-1.896-1.167c-0.818-3.406,2.89-3.54,2.898-3.533c4.281-0.712,10.845,2.793,15.711,5.689
					c1.629,0.97,4.099,2.42,4.833,2.741c3.17,1.386,4.632-0.116,4.712-0.193c0.698-0.706,0.648-1.855,0.103-1.986
					c-0.307-0.073-0.486-0.193-1.078,0.646c-0.592,0.839-2.925,0.065-1.855-1.29c1.07-1.355,2.057-0.852,2.057-0.852
					C867.61,1020.219,865.65,1022.884,865.65,1022.884z"/>
				<path style="fill:#FFFFFF;" d="M879.722,1001.462c0.046-0.122,1.648-1.863-0.891-5.636c-0.473-0.703-2.259-2.628-3.816-3.753
					c-4.302-3.107-11.815-7.542-13.139-11.439c-0.002-0.005-0.004-0.011-0.006-0.016c-0.009-0.026-0.014-0.052-0.022-0.079
					c-0.247-0.897,0.006-2.025,0.519-2.034c0.315-0.005,0.517-0.083,0.913,0.864c0.396,0.947,2.842,0.696,2.09-0.858
					c-0.751-1.555-1.824-1.276-1.824-1.276c-3.451,0.602-2.102,4.058-2.092,4.062c1.046,4.212,6.87,8.844,11.461,12.16
					c1.536,1.11,3.849,2.8,4.435,3.346c2.531,2.359,1.734,4.297,1.695,4.402c-0.371,0.921-1.446,1.331-1.782,0.884
					c-0.189-0.253-0.371-0.37,0.164-1.247c0.535-0.876-1.103-2.71-1.921-1.189c-0.818,1.52,0.036,2.226,0.036,2.226
					C878.054,1004.319,879.722,1001.462,879.722,1001.462z"/>
				
					<rect x="967.842" y="1066.956" transform="matrix(0.549 -0.8358 0.8358 0.549 -463.0925 1299.1705)" style="fill:#ED7D2B;" width="9.052" height="23.534"/>
				<g>
					<g>
						<path style="fill:#FFFFFF;" d="M837.449,995.533c0.67,0.616,16.349,14.237,17.016,14.817l0.015,0.014l0.018,0.01
							l119.447,69.986l0.144-0.26l-119.43-69.977c-0.583-0.506-16.335-14.191-16.991-14.794L837.449,995.533z"/>
					</g>
					<g>
						<polygon style="fill:#FFFFFF;" points="838.551,993.893 856.37,1007.476 974.44,1079.6 974.591,1079.344 856.539,1007.232 
							838.739,993.662 						"/>
					</g>
					<g>
						<polygon style="fill:#FFFFFF;" points="841.521,989.362 841.404,989.636 861.592,999.555 975.167,1078.096 975.339,1077.855 
							861.736,999.297 						"/>
					</g>
					<g>
						<polygon style="fill:#FFFFFF;" points="840.728,990.59 859.396,1003.937 974.808,1078.857 974.969,1078.608 859.565,1003.693 
							840.905,990.352 						"/>
					</g>
				</g>
				<path style="fill:#ED7D2B;" d="M955.344,1084.361L955.344,1084.361c-1.134,1.727-0.649,4.067,1.077,5.202l0.757,0.497
					c1.727,1.134,4.067,0.649,5.202-1.077l0,0c1.134-1.728,0.65-4.068-1.077-5.202l-0.757-0.497
					C958.819,1082.149,956.478,1082.635,955.344,1084.361z"/>
				
					<rect x="956.903" y="1081.549" transform="matrix(0.549 -0.8358 0.8358 0.549 -471.1912 1292.1552)" style="fill:#ED7D2B;" width="9.859" height="2.353"/>
				<path style="fill:#ED7D2B;" d="M965.247,1087.612L965.247,1087.612c-0.821,1.251-0.47,2.945,0.78,3.767l0.548,0.36
					c1.25,0.821,2.945,0.47,3.767-0.78l0,0c0.821-1.25,0.47-2.945-0.78-3.767l-0.547-0.36
					C967.764,1086.011,966.068,1086.362,965.247,1087.612z"/>
				
					<rect x="966.377" y="1085.576" transform="matrix(0.5491 -0.8358 0.8358 0.5491 -470.6372 1300.5349)" style="fill:#ED7D2B;" width="7.138" height="1.704"/>
				<path style="fill:#ED7D2B;" d="M970.781,1060.859L970.781,1060.859c1.134-1.727,3.475-2.211,5.202-1.077l0.757,0.497
					c1.727,1.135,2.211,3.476,1.077,5.202l0,0c-1.134,1.727-3.475,2.212-5.202,1.077l-0.756-0.496
					C970.131,1064.928,969.646,1062.587,970.781,1060.859z"/>
				
					<rect x="966.928" y="1066.288" transform="matrix(-0.5491 0.8358 -0.8358 -0.5491 2397.6316 841.2888)" style="fill:#ED7D2B;" width="9.859" height="2.353"/>
				<path style="fill:#ED7D2B;" d="M977.698,1068.658L977.698,1068.658c0.822-1.251,2.517-1.602,3.767-0.78l0.548,0.359
					c1.25,0.821,1.601,2.517,0.78,3.767l0,0c-0.821,1.251-2.516,1.602-3.767,0.78l-0.548-0.359
					C977.227,1071.604,976.876,1069.908,977.698,1068.658z"/>
				
					<rect x="974.908" y="1072.588" transform="matrix(-0.549 0.8358 -0.8358 -0.549 2412.8582 844.872)" style="fill:#ED7D2B;" width="7.139" height="1.704"/>
				<path style="fill:#ED7D2B;" d="M838.942,1002.888c-1.059-0.695-34.697-31.039-34.697-31.039l3.201-4.873l41.335,20.933
					L838.942,1002.888z"/>
				<path style="fill:#ED7D2B;" d="M812.499,960.57l-0.003-0.002c-2.333,2.293-4.485,4.895-6.383,7.785
					c-9.021,13.733-9.811,30.091-3.224,41.7l0.003,0.002c0,0,13.192-2.555,16.064-12.467c2.865-9.888-13.283-20.508-13.355-20.556
					C805.602,977.032,816.931,966.756,812.499,960.57z"/>
			</g>
			<g>
				<path style="fill:#0B0755;" d="M791.446,1134.371l-2.854-2.2c-0.852-0.656,0.005-3.2,1.91-5.67l91.662-118.877
					c1.904-2.47,4.146-3.945,4.997-3.289l2.854,2.201l2.844-3.688l-2.854-2.201c-1.553-1.197-5.641,1.493-9.113,5.997
					l-91.662,118.877c-3.473,4.504-5.035,9.142-3.482,10.339l2.854,2.201L791.446,1134.371z"/>
				
					<rect x="755.013" y="1069.746" transform="matrix(0.6106 -0.7919 0.7919 0.6106 -520.2771 1082.2238)" style="fill:#0B0755;" width="170.74" height="0.879"/>
			</g>
			<path style="fill:#FFB27D;" d="M807.01,987.878c0,0-5.612,2.014-12.768,2.976c-10.464,1.413-24.223,0.58-28.545-12.081
				c-7.281-21.309-16.581-34.086,4.844-42.787c11.469-4.659,18.807-4.906,23.79-3.128c4.33,1.534,6.882,4.6,8.815,7.631
				C807.307,947.012,815.676,984.148,807.01,987.878z"/>
			<path style="fill:#102B51;" d="M795.352,918.879c6.606,0.597,11.311,6.831,9.646,13.252c-1.396,5.384-6.235,10.331-19.888,12.565
				c-5.753,0.941-6.285,11.305-6.381,14.141c-0.096,2.843-0.469,5.238-7.706,3.538c-1.186-0.277-2.04-0.195-2.627,0.157
				c-3.002,1.781,0.834,10.413,1.991,12.281c0,0,1.665,6.183-2.03,9.193c-0.447,0.36-7.706,3.533-25.197-23.236
				c-2.75-4.202-5.375-13.668-1.128-22.782c4.241-9.114,21.373-24.47,37-22.591C787.22,916.383,791.035,918.489,795.352,918.879z"/>
			<path style="fill:#FFFFFF;" d="M807.172,974.12c0,0,0.449,2.759-5.965,4.96c0,0-5.385,1.849-6.368-0.98
				C794.839,978.1,799.116,974.027,807.172,974.12z"/>
			<path style="fill:#FFB27D;" d="M766.169,1118.544c0,0,19.55-12.585,26.232-13.27c4.543-0.466,21.341,2.511,21.341,4.78
				c0,10.664-22.032,15.03-24.512,15.466c-2.48,0.437-9.978,0.813-13.093,2.228C773.022,1129.162,766.169,1118.544,766.169,1118.544
				z"/>
			<path style="fill:#A9453D;" d="M789.65,1013.454c0,0-8.656-4.138-9.377-2.956c-0.722,1.182-0.771,8.283,0.659,9.363
				c1.431,1.08,8.768-2.772,8.919-3.561C790.001,1015.514,789.65,1013.454,789.65,1013.454z"/>
			<path style="fill:#A9453D;" d="M791.778,1015.848c0,0,8.794,3.837,9.474,2.631c0.68-1.206,0.485-8.304-0.982-9.334
				c-1.467-1.031-8.667,3.072-8.79,3.865C791.357,1013.802,791.778,1015.848,791.778,1015.848z"/>
			<path style="fill:#A9453D;" d="M788.213,1014.682c-0.086-1.211,0.828-2.263,2.039-2.348c1.212-0.086,2.263,0.827,2.349,2.039
				c0.085,1.211-0.828,2.263-2.04,2.348C789.35,1016.807,788.298,1015.894,788.213,1014.682z"/>
			<polygon style="fill:#6980E2;" points="767.695,1001.358 801.009,1098.311 773.001,1067.465 779.301,1054.612 761.739,1048.371 
				755.625,1009.18 			"/>
			<path style="fill:#6980E2;" d="M776.14,1127.744c0,0-25.187,33.922-50.235,35.612c0.69-8.33,1.328-16.513,1.871-23.988
				L776.14,1127.744z"/>
			<path style="fill:#8C9DF4;" d="M730.709,1019.059c0,0-18.75,19.465-29.043,57.727c-10.294,38.261-11.551,66.429,0,71.027
				c11.551,4.599,51.659-4.526,74.471-20.064l-5.093-12.227c0,0-37.133-6.799-35.983-10.247
				c1.149-3.449,26.338-45.399,26.678-56.903C762.079,1036.867,735.81,1015.356,730.709,1019.059z"/>
			<path style="fill:#FFB27D;" d="M936.92,1046.03c0,0-9.019-0.985-7.59,2.951c1.429,3.936,7.104,6.2,11.42,6.329
				c4.316,0.129,6.114-2.418,6.114-2.418S944.181,1045.993,936.92,1046.03z"/>
		</g>
		<circle style="fill:#030333;" cx="801.628" cy="1159.907" r="3.737"/>
		<path style="fill:#030333;" d="M797.891,1190.84c0-2.064,1.673-3.738,3.737-3.738c2.064,0,3.737,1.674,3.737,3.738
			c0,2.063-1.673,3.737-3.737,3.737C799.564,1194.577,797.891,1192.903,797.891,1190.84z"/>
	</g>
	<g>
		<g>
			<path style="fill:#FFB27D;" d="M1126.14,1109.3c0,0-13.736,0.283-19.12,4.381s-4.296,12.726-12.88,16.339
				c-8.583,3.612-10.975,5.503-7.219,7.266c3.756,1.762,18.897,1.055,25.134-4.562s15.858-12.327,15.858-12.327L1126.14,1109.3z"/>
			<path style="fill:#FFB27D;" d="M1107.021,1113.681c0,0-10.488,3.784-12.11,4.88c-1.622,1.097,9.216,2.573,9.216,2.573
				L1107.021,1113.681z"/>
			<path style="fill:#FFB27D;" d="M1456.962,1109.3c0,0,13.736,0.283,19.12,4.381s4.296,12.726,12.88,16.339
				c8.583,3.612,10.975,5.503,7.219,7.266c-3.756,1.762-18.897,1.055-25.134-4.562s-15.858-12.327-15.858-12.327L1456.962,1109.3z"
				/>
			<path style="fill:#FFB27D;" d="M1476.082,1113.681c0,0,10.488,3.784,12.11,4.88c1.622,1.097-9.216,2.573-9.216,2.573
				L1476.082,1113.681z"/>
			<path style="fill:#8C9DF4;" d="M1466.636,1110.301l-9.295,16.173c0,0-25.006-5.236-46.756-12.248
				c-7.655-2.479-14.909-5.176-20.522-7.946c-13.074-6.439-25.759-18.554-33.73-27.096c0,0,0-0.013-0.012-0.024
				c-5.176-5.541-8.347-9.575-8.347-9.575l-19.551-92.892c0,0,18.81,4.739,30.049,14.155c11.239,9.417,36.756,74.423,57.412,87.182
				C1436.538,1090.787,1466.636,1110.301,1466.636,1110.301z"/>
			<path style="fill:#8C9DF4;" d="M1259.369,974.384l-21.13,92.673c0,0-6.452,8.202-15.93,17.267
				c-7.412,7.12-16.683,14.751-26.161,19.429c-6.853,3.378-16.1,6.805-25.516,9.915c-20.231,6.671-41.3,11.847-41.3,11.847
				l-7.995-16.209c0,0,28.335-21.045,48.992-33.803c20.656-12.759,47.291-80.098,58.53-89.515
				C1240.099,976.571,1259.369,974.384,1259.369,974.384z"/>
			<path style="fill:#133160;" d="M1378.058,1519.772h-68.921c-4.938-3.349,1.332-36.089,1.332-36.089s18.811-7.137,22.06,7.377
				c3.258,14.504,23.959,19.116,34.914,20.886C1374.939,1513.165,1377.309,1517.283,1378.058,1519.772z"/>
			<path style="fill:#133160;" d="M1275.841,1519.772h-68.921c-4.938-3.349,1.333-36.089,1.333-36.089s18.81-7.137,22.059,7.377
				c3.258,14.504,23.959,19.116,34.914,20.886C1272.723,1513.165,1275.092,1517.283,1275.841,1519.772z"/>
			<path style="fill:#213F7A;" d="M1359.515,1185.769c0,0-3.098,38.649-6.738,85.109c-4.949,63.11-18.297,219.586-18.297,219.586
				s-8.75,7.467-28.133,3.382c0,0-16.498-53.98-21.432-115.593c-0.077-1.01-0.153-2.026-0.229-3.044
				c-4.589-62.722-11.726-194.795-11.726-194.795L1359.515,1185.769z"/>
			<path style="fill:#233862;" d="M1360.572,1172.413c0,0-4.155,52.005-7.796,98.465l-67.861,107.375
				c-0.077-1.01-0.153-2.026-0.229-3.044c-4.589-62.722-11.726-194.795-11.726-194.795L1360.572,1172.413z"/>
			<path style="fill:#213F7A;" d="M1340.793,1172.413c0,0-49.218,122.512-64.952,168.951
				c-11.208,33.08-42.815,149.125-42.815,149.125s-13.745,4.183-25.296-3.902c0,0-11.759-118.56,11.994-151.99
				c12.602-17.736,3.131-184.37,54.228-185.797C1325.048,1147.373,1340.793,1172.413,1340.793,1172.413z"/>
			<path style="fill:#FFB27D;" d="M1307.264,991.81c-7.514,3.957-14.847,4.205-21.204,2.854c-5.815-1.223-10.809-3.79-14.365-6.063
				c-3.65-2.332-5.796-4.365-5.796-4.365s0.254-0.368,0.682-1.09c2.22-3.796,8.951-17.447,5.956-39.378
				c-0.04-0.288,2.132,0.12,5.415,0.896c9.766,2.313,29.399,7.881,30.268,8.128c0.02,0,0.033,0,0.033,0s0.241,4.612,1.049,12.881
				c0.067,0.729,0.141,1.491,0.221,2.279c0.1,0.969,0.201,1.999,0.321,3.055C1310.753,979.604,1307.264,991.81,1307.264,991.81z"/>
			<path style="fill:#ED975D;" d="M1309.302,965.673c-14.579,3.342-36.337-18.182-36.337-18.182
				c1.591-1.183,3.262-2.119,4.987-2.828c9.766,2.313,29.399,7.881,30.268,8.128c0.02,0,0.033,0,0.033,0
				S1308.494,957.404,1309.302,965.673z"/>
			<path style="fill:#8C9DF4;" d="M1362.419,1217.154c0,0-83.536,15.188-146.82-1.113c-1.907-0.492,16.17-65.182,19.171-109.92
				c1.088-16.224-9.825-56.475-9.371-63.615c0,0-0.217-49.72,7.354-57.576c8.87-9.192,34.935-12.01,36.565-11.66
				c0.488-0.101,0.976-0.23,1.482-0.313c0,0,22.188,12.508,38.674,3.251c0,0,0.157,0.027,0.47,0.074
				c4.006,0.635,24.048,5.268,30.965,12.581c2.395,2.515,11.918,17.979,12.185,34.962
				C1353.454,1047.486,1366.976,1217.154,1362.419,1217.154z"/>
			<polygon style="fill:#6980E2;" points="1310.716,969.54 1307.846,1069.585 1331.68,1031.553 1320.234,1021.415 
				1335.049,1008.115 1328.422,976.693 			"/>
			<polygon style="fill:#BDCAFF;" points="1272.225,966.025 1296.313,979.544 1309.523,967.952 1315.943,976.493 1307.809,1069.585 
				1266.935,972.956 			"/>
			<path style="fill:#FFB27D;" d="M1314.256,951.626c0,0-5.995,2.151-13.638,3.179c-11.177,1.509-25.874,0.619-30.491-12.904
				c-7.777-22.762-17.71-36.409,5.174-45.704c12.25-4.976,20.088-5.24,25.411-3.341c4.625,1.638,7.352,4.913,9.416,8.151
				C1314.573,907.976,1323.513,947.642,1314.256,951.626z"/>
			<path style="fill:#183768;" d="M1301.803,877.924c7.057,0.638,12.082,7.296,10.303,14.155
				c-1.491,5.751-6.66,11.036-21.243,13.422c-6.146,1.005-6.714,12.075-6.816,15.105c-0.103,3.036-0.501,5.596-8.231,3.779
				c-1.267-0.296-2.179-0.208-2.807,0.168c-3.207,1.902,0.891,11.123,2.126,13.118c0,0,1.779,6.605-2.168,9.82
				c-0.478,0.384-8.231,3.773-26.915-24.82c-2.937-4.488-5.74-14.599-1.205-24.335c4.529-9.735,22.829-26.138,39.522-24.131
				C1293.116,875.258,1297.192,877.508,1301.803,877.924z"/>
			<path style="fill:#030333;" d="M1295.713,978.945c0,0-9.246-4.419-10.016-3.157c-0.771,1.263-0.824,8.847,0.705,10.002
				c1.528,1.154,9.365-2.961,9.526-3.803S1295.713,978.945,1295.713,978.945z"/>
			<path style="fill:#030333;" d="M1297.986,981.503c0,0,9.393,4.098,10.119,2.81c0.727-1.289,0.518-8.871-1.049-9.971
				c-1.567-1.101-9.258,3.282-9.39,4.129C1297.536,979.317,1297.986,981.503,1297.986,981.503z"/>
			<path style="fill:#030333;" d="M1294.178,980.257c-0.091-1.294,0.884-2.417,2.178-2.508c1.294-0.091,2.417,0.884,2.509,2.178
				c0.091,1.294-0.884,2.417-2.179,2.509C1295.392,982.526,1294.269,981.551,1294.178,980.257z"/>
			<polygon style="fill:#6980E2;" points="1268.656,970.698 1307.846,1069.585 1277.929,1036.638 1284.658,1022.908 
				1265.899,1016.242 1259.369,974.38 			"/>
			<path style="fill:#FFFFFF;" d="M1314.24,937.364c0.451,2.325-0.752,4.513-2.688,4.888c-1.935,0.376-3.869-1.205-4.32-3.53
				c-0.451-2.325,0.753-4.514,2.688-4.889C1311.855,933.459,1313.789,935.039,1314.24,937.364z"/>
			<path style="fill:#030333;" d="M1308.104,1163.477c-1.27-1.27-1.27-3.328,0-4.598s3.328-1.27,4.598,0s1.27,3.328,0,4.598
				S1309.373,1164.746,1308.104,1163.477z"/>
			<path style="fill:#030333;" d="M1308.104,1114.85c-1.27-1.27-1.27-3.328,0-4.598s3.328-1.27,4.598,0s1.27,3.328,0,4.598
				S1309.373,1116.119,1308.104,1114.85z"/>
			<path style="fill:#030333;" d="M1305.547,1071.189c-1.27-1.27-1.27-3.328,0-4.598s3.328-1.27,4.598,0s1.27,3.328,0,4.598
				S1306.816,1072.459,1305.547,1071.189z"/>
			<path style="fill:#6980E2;" d="M1410.584,1114.226c-7.655-2.479-14.909-5.176-20.522-7.946
				c-13.074-6.439-25.759-18.554-33.73-27.096c0,0,0-0.013-0.012-0.024c-0.17-0.729-4.301-18.323,0.012-19.66
				c4.411-1.36,17.631,28.251,32.819,37.06C1398.495,1101.978,1406.125,1109.354,1410.584,1114.226z"/>
			<path style="fill:#6980E2;" d="M1231.159,1075.264c-7.412,7.12-17.761,21.357-35.01,28.488c-7.06,2.919-16.1,6.805-25.516,9.915
				c-0.462-5.407,5.432-10.851,25.528-17.108c24.703-7.691,19.842-38.882,26.148-39.283
				C1228.628,1056.862,1231.159,1075.264,1231.159,1075.264z"/>
		</g>
	</g>
	<g>
		<path style="fill:#FFB27D;" d="M1466.335,1040.941c0,0-8.251-7.969-13.847-8.746c-5.596-0.778-10.066,4.944-17.258,1.986
			c-7.191-2.959-9.718-3.262-8.552,0c1.166,3.261,10.496,11.813,17.493,12.202c6.998,0.389,16.634,2.138,16.634,2.138
			L1466.335,1040.941z"/>
		<path style="fill:#FFA561;" d="M1688.582,1123.273c0,0,100.463,61.983,134.604,215.222
			c34.142,153.237,84.754,178.963,84.754,178.963h-348.572c0,0,18.565-296.521,69.608-380.743
			C1628.976,1136.715,1675.981,1128.652,1688.582,1123.273z"/>
		<path style="fill:#233862;" d="M1618.245,935.71c0,0,36.465-30.858,48.318-4.913c0,0,4.752,1.509,9.171,11.961
			c1.816,4.295,9.308,7.994,8.447,18.404c-1.765,21.354-21.61,32.331-28.023,27.203c-4.114-3.289-8.963,4.069-8.963,4.069
			L1618.245,935.71z"/>
		<path style="fill:#FFB27D;" d="M1692.847,1060.014c0.383-25.581-3.694-38.054-14.87-42.204
			c-3.908-1.452-15.379-0.276-18.618-0.502c-3.505-0.444-10.874-11.907-13.43-31.622l-1.484,0.504l-24.946,8.489
			c0,0,1.658,7.986,2.688,15.58c0.861,6.329,1.003,10.245-1.427,12.166c-2.837,2.012-15.25,7.856-15.25,7.856
			s-3.684,26.489-1.803,54.323C1605.586,1112.438,1692.784,1064.4,1692.847,1060.014z"/>
		<path style="fill:#E8945B;" d="M1618.245,990.503c0,0,1.253,5.082,2.94,13.241c14.283-2.314,20.504-7.461,24.203-13.545
			L1618.245,990.503z"/>
		<path style="fill:#F77D48;" d="M1689.702,1055.896l-1.12,67.378c-2.527,2.167-5.329,4.242-8.267,6.207
			c-16.379,10.976-36.896,18.53-36.896,18.53c-9.119-0.144-19.038-15.042-19.038-15.042s-20.387-30.95-26.616-45.713
			c-5.41-12.834,4.664-46.444,7.391-55.008c0.415-1.287,1.455-2.491,1.455-2.491c40.901,3.429,68.202-10.271,71.115-11.815
			c0.163-0.086,0.25-0.132,0.25-0.132l0.438,1.416l1.066,3.471l0.002,0.017L1689.702,1055.896z"/>
		<path style="fill:#FFB27D;" d="M1642.259,1070.012c-9.388,0.281-35.647-40.255-35.647-40.255
			c40.771,0.181,68.202-10.271,71.115-11.815C1677.988,1018.383,1651.647,1069.73,1642.259,1070.012z"/>
		<g>
			<path style="fill:#FFFFFF;" d="M1655.747,1016.392c-0.148-1.116,0.603-2.139,1.679-2.282c1.076-0.143,2.069,0.647,2.218,1.763
				c0.149,1.117-0.603,2.139-1.679,2.282S1655.896,1017.509,1655.747,1016.392z"/>
			<path style="fill:#FFFFFF;" d="M1654.673,1020.299c-0.148-1.117,0.603-2.139,1.679-2.282s2.069,0.646,2.218,1.763
				c0.149,1.117-0.603,2.139-1.679,2.282C1655.814,1022.205,1654.822,1021.416,1654.673,1020.299z"/>
			<path style="fill:#FFFFFF;" d="M1653.191,1024.058c-0.149-1.117,0.603-2.139,1.679-2.282c1.075-0.144,2.068,0.646,2.218,1.763
				c0.148,1.117-0.604,2.139-1.679,2.282C1654.333,1025.963,1653.34,1025.174,1653.191,1024.058z"/>
			<path style="fill:#FFFFFF;" d="M1651.716,1027.868c-0.148-1.116,0.603-2.138,1.679-2.281s2.069,0.646,2.218,1.763
				c0.149,1.116-0.603,2.138-1.679,2.281S1651.865,1028.985,1651.716,1027.868z"/>
			<path style="fill:#FFFFFF;" d="M1649.424,1031.071c-0.148-1.117,0.604-2.139,1.679-2.282c1.076-0.144,2.069,0.646,2.218,1.763
				c0.149,1.116-0.603,2.138-1.679,2.281C1650.566,1032.977,1649.573,1032.188,1649.424,1031.071z"/>
			<path style="fill:#FFFFFF;" d="M1647.067,1034.332c-0.148-1.117,0.603-2.139,1.679-2.282c1.076-0.143,2.069,0.646,2.218,1.763
				c0.149,1.117-0.603,2.139-1.679,2.282S1647.217,1035.449,1647.067,1034.332z"/>
			<path style="fill:#FFFFFF;" d="M1643.915,1036.482c-0.149-1.116,0.603-2.138,1.679-2.281s2.069,0.646,2.218,1.763
				c0.149,1.116-0.603,2.138-1.679,2.281S1644.063,1037.6,1643.915,1036.482z"/>
			<path style="fill:#FFFFFF;" d="M1640.117,1037.741c-0.149-1.116,0.603-2.138,1.679-2.281s2.068,0.646,2.218,1.762
				c0.148,1.117-0.603,2.139-1.679,2.282S1640.266,1038.858,1640.117,1037.741z"/>
			<path style="fill:#FFFFFF;" d="M1636.082,1038.279c-0.149-1.117,0.603-2.139,1.679-2.282s2.069,0.646,2.218,1.763
				s-0.603,2.139-1.679,2.282S1636.23,1039.396,1636.082,1038.279z"/>
			<path style="fill:#FFFFFF;" d="M1632.086,1038.06c-0.148-1.117,0.604-2.139,1.68-2.282s2.068,0.646,2.218,1.763
				c0.148,1.116-0.603,2.139-1.679,2.282C1633.229,1039.965,1632.235,1039.176,1632.086,1038.06z"/>
			<path style="fill:#FFFFFF;" d="M1628.562,1036.471c-0.149-1.116,0.603-2.138,1.679-2.281s2.069,0.646,2.218,1.762
				c0.148,1.117-0.603,2.139-1.679,2.282S1628.71,1037.588,1628.562,1036.471z"/>
			<path style="fill:#FFFFFF;" d="M1625.44,1034.18c-0.148-1.117,0.603-2.139,1.679-2.282s2.069,0.646,2.218,1.763
				c0.149,1.117-0.603,2.139-1.679,2.282S1625.59,1035.297,1625.44,1034.18z"/>
			<path style="fill:#FFFFFF;" d="M1622.663,1031.312c-0.148-1.116,0.604-2.139,1.68-2.282c1.075-0.143,2.068,0.646,2.218,1.763
				c0.148,1.117-0.604,2.139-1.68,2.282C1623.806,1033.218,1622.813,1032.429,1622.663,1031.312z"/>
			<path style="fill:#FFFFFF;" d="M1620.271,1028.244c-0.148-1.117,0.604-2.139,1.679-2.282c1.076-0.144,2.069,0.646,2.218,1.763
				c0.149,1.117-0.603,2.139-1.679,2.282C1621.414,1030.15,1620.421,1029.361,1620.271,1028.244z"/>
			<path style="fill:#FFFFFF;" d="M1617.842,1024.889c-0.158-1.185,0.639-2.269,1.78-2.42c1.141-0.152,2.194,0.685,2.352,1.869
				c0.158,1.184-0.639,2.268-1.78,2.42C1619.053,1026.909,1617.999,1026.072,1617.842,1024.889z"/>
			<path style="fill:#FFFFFF;" d="M1620.427,1019.628c-0.157-1.185,0.64-2.268,1.78-2.42c1.142-0.152,2.194,0.685,2.353,1.869
				c0.157,1.185-0.64,2.268-1.78,2.42C1621.638,1021.648,1620.585,1020.813,1620.427,1019.628z"/>
			<path style="fill:#FFFFFF;" d="M1624.473,1020.066c-0.158-1.184,0.639-2.268,1.78-2.42c1.141-0.151,2.194,0.685,2.352,1.869
				c0.158,1.185-0.639,2.268-1.78,2.42C1625.684,1022.088,1624.63,1021.251,1624.473,1020.066z"/>
			<path style="fill:#FFFFFF;" d="M1628.478,1019.834c-0.157-1.185,0.64-2.268,1.78-2.42c1.142-0.152,2.194,0.684,2.353,1.869
				c0.157,1.185-0.64,2.268-1.78,2.42C1629.688,1021.856,1628.636,1021.019,1628.478,1019.834z"/>
			<path style="fill:#FFFFFF;" d="M1632.474,1019.618c-0.158-1.185,0.64-2.268,1.78-2.42c1.141-0.152,2.194,0.685,2.353,1.869
				c0.157,1.185-0.64,2.268-1.781,2.42C1633.685,1021.639,1632.632,1020.803,1632.474,1019.618z"/>
			<path style="fill:#FFFFFF;" d="M1636.516,1019.405c-0.158-1.185,0.639-2.268,1.779-2.42c1.142-0.151,2.194,0.685,2.353,1.869
				c0.157,1.185-0.64,2.268-1.78,2.42C1637.726,1021.427,1636.673,1020.59,1636.516,1019.405z"/>
			<path style="fill:#FFFFFF;" d="M1640.438,1018.557c-0.158-1.185,0.64-2.267,1.78-2.42c1.141-0.152,2.194,0.685,2.352,1.869
				c0.158,1.185-0.639,2.267-1.78,2.42C1641.649,1020.577,1640.597,1019.741,1640.438,1018.557z"/>
			<path style="fill:#FFFFFF;" d="M1644.243,1017.732c-0.157-1.185,0.64-2.268,1.78-2.42c1.142-0.151,2.194,0.685,2.353,1.869
				c0.157,1.185-0.64,2.268-1.78,2.42C1645.454,1019.754,1644.401,1018.917,1644.243,1017.732z"/>
			<path style="fill:#FFFFFF;" d="M1648.118,1016.652c-0.158-1.185,0.64-2.268,1.78-2.42c1.141-0.152,2.194,0.685,2.352,1.869
				c0.158,1.184-0.639,2.267-1.78,2.42C1649.329,1018.673,1648.276,1017.836,1648.118,1016.652z"/>
			<path style="fill:#FFFFFF;" d="M1651.479,1014.281c-0.203-1.521,0.82-2.913,2.287-3.108c1.466-0.195,2.818,0.88,3.021,2.401
				c0.203,1.521-0.821,2.913-2.286,3.108C1653.033,1016.878,1651.681,1015.803,1651.479,1014.281z"/>
		</g>
		<g>
			<path style="fill:#233862;" d="M1649.446,985.465c0,0,9.544-10.48,13.113-20.25c2.549-6.976,3.585-34.314-23.915-35.196
				c0,0-7.926-0.606-16.12,3.05c-6.517,2.907-16.418,9.917-11.125,34.865l1.055,8.298L1649.446,985.465z"/>
			<path style="fill:#FFB27D;" d="M1613.967,994.636c0,0,33.606,6.496,37.33-14.496c3.723-20.99,10.567-34.289-10.732-39.324
				c-21.299-5.035-26.9,2.234-29.847,8.938C1607.771,956.458,1605.321,992.405,1613.967,994.636z"/>
			<path style="fill:#233862;" d="M1625.305,937.598c0,0,4.888,26.257,18.408,32.394c13.521,6.138,20.332,3.426,20.332,3.426
				s-9.342-10.544-8.941-26.005C1655.104,947.413,1634.332,927.101,1625.305,937.598z"/>
			<path style="fill:#233862;" d="M1627.239,940c0,0-7.86,4.284-10.483,9.335c-2.622,5.05-5.317,15.923-8.459,14.983
				c0,0-4.002-17.967,5.48-26.061C1623.832,929.676,1627.239,940,1627.239,940z"/>
			<path style="fill:#FFFFFF;" d="M1618.533,982.567c-0.331,1.874-1.785,3.183-3.249,2.925c-1.464-0.258-2.383-1.986-2.053-3.86
				c0.33-1.874,1.784-3.183,3.248-2.925C1617.943,978.966,1618.863,980.693,1618.533,982.567z"/>
		</g>
		<path style="fill:#F77D48;" d="M1606.611,1029.757c0,0-13.586-22.971-19.984-19.499c-6.398,3.473-49.548,54.05-73.455,48.004
			c-23.907-6.047-31.864-24.032-46.837-22.328l-7.735,14.017c0,0-0.597,12.906,10.952,25.079
			c11.549,12.172,41.871,25.164,57.614,25.957c15.744,0.792,69.973-23.033,69.973-23.033L1606.611,1029.757z"/>
		<path style="fill:#FFB27D;" d="M1452.488,1032.195c0,0-8.414-3.985-10.018-4.301c-1.604-0.316,3.9,6.973,3.9,6.973
			L1452.488,1032.195z"/>
		<path style="fill:#FFB27D;" d="M1816.557,1100.304c0,0,11.447-0.738,16.218,2.289c4.77,3.027,4.477,10.282,11.874,12.68
			c7.397,2.396,9.521,3.8,6.521,5.532c-3,1.733-15.646,2.219-21.233-2.012s-14.067-9.131-14.067-9.131L1816.557,1100.304z"/>
		<path style="fill:#FFB27D;" d="M1832.774,1102.593c0,0,8.993,2.405,10.42,3.201c1.428,0.797-7.484,2.795-7.484,2.795
			L1832.774,1102.593z"/>
		<path style="fill:#F77D48;" d="M1677.727,1017.941c0,0,8.835-17.331,15.145-15.29c6.311,2.04,45.961,73.744,60.539,77.98
			c14.577,4.236,61.809,13.187,65.307,20.373c3.499,7.188-9.673,18.838-19.414,18.552c-9.74-0.285-53.336-7.282-65.649-12.53
			c-12.314-5.248-44.929-33.119-44.929-33.119L1677.727,1017.941z"/>
	</g>
	<path style="fill:#233862;" d="M2806.467,1567.771c-2.389,31.248-7.655,60.051-14.572,86.203
		c-26.947,101.844-119.361,172.587-224.709,172.166c-424.245-1.706-1649.181-7.792-2060.992-9.84
		c-90.241-0.455-169.505-59.948-195.248-146.446c-9.089-30.543-17.552-64.896-23.888-102.083H2806.467z"/>
	<path style="fill:#6980E2;" d="M2806.467,1567.771H287.058c-2.775-16.244-5.13-33.022-6.961-50.256h2527.623
		C2808.174,1534.896,2807.695,1551.664,2806.467,1567.771z"/>
	<g>
		<path style="fill:#F77D48;" d="M2802.429,1603.184c-78.877,1.319-68.115,18.246-143.193-4.505
			c-14.116-4.289-31.782-28.984-72.313-44.022c-58.879-21.853-111.968,1.547-111.968,1.547l40.747-530.469
			c-489.119-128.144-718.709-694.342-767.611-831.108c317.202-21.932,653.141-26.607,803.307,60.813
			c196.76,114.573,218.567,361.032,204.666,592.771c-2.479,41.475-6.108,82.472-10.078,122.16c-0.284,2.867-0.58,5.711-0.865,8.555
			C2718.331,1241.969,2845.416,1339.695,2802.429,1603.184z"/>
	</g>
	<g>
		<path style="fill:#F77D48;" d="M508.423,1022.8l34.069,528.057c0,0-30.168,19.759-66.569,4.971
			c-43.42-17.643-73.724,24.515-87.59,21.613c-48.027-10.033-28.416-25.925-104.074-27.221
			c-50.074-177.81,29.804-316.247,4.106-573.138c-0.057-0.592-0.114-1.172-0.182-1.763c-3.777-37.937-7.28-77.16-9.783-116.882
			C264,629.53,282.951,383.901,474.183,270.522c144.047-85.384,466.277-80.811,770.546-59.391
			C1197.828,344.701,977.589,897.659,508.423,1022.8z"/>
	</g>
	<g>
		<g>
			<path style="fill:#233862;" d="M1308.1,493.488l-108.916-0.733c-10.397-0.07-14.23-7.534-8.561-16.671l27.277-43.965
				c5.669-9.137,18.693-16.488,29.09-16.418l108.916,0.733c10.397,0.07,14.23,7.534,8.561,16.671l-27.277,43.965
				C1331.521,486.207,1318.497,493.558,1308.1,493.488z"/>
			<path style="fill:#FFE6CF;" d="M1305.867,486.81l-96.217-0.647c-8.849-0.06-12.111-6.413-7.286-14.189l22.101-35.622
				c4.825-7.777,15.911-14.033,24.76-13.974l96.217,0.648c8.849,0.059,12.111,6.412,7.286,14.189l-22.101,35.622
				C1325.801,480.614,1314.716,486.87,1305.867,486.81z"/>
		</g>
		<path style="fill:#233862;" d="M1246.991,415.7h-40.75c-8.261,0-14.984,6.645-15.082,14.905l-0.537,45.478L1229,422.378
			L1246.991,415.7z"/>
	</g>
	<g>
		<g>
			<path style="fill:#233862;" d="M1692.206,493.488l108.916-0.733c10.397-0.07,14.23-7.534,8.562-16.671l-27.278-43.965
				c-5.669-9.137-18.692-16.488-29.09-16.418l-108.916,0.733c-10.397,0.07-14.23,7.534-8.562,16.671l27.277,43.965
				C1668.785,486.207,1681.809,493.558,1692.206,493.488z"/>
			<path style="fill:#FFE6CF;" d="M1694.439,486.81l96.217-0.647c8.85-0.06,12.111-6.413,7.286-14.189l-22.101-35.622
				c-4.825-7.777-15.91-14.033-24.76-13.974l-96.217,0.648c-8.85,0.059-12.111,6.412-7.286,14.189l22.101,35.622
				C1674.505,480.614,1685.59,486.87,1694.439,486.81z"/>
		</g>
		<path style="fill:#233862;" d="M1753.315,415.7h40.749c8.261,0,14.984,6.645,15.082,14.905l0.537,45.478l-38.377-53.706
			L1753.315,415.7z"/>
	</g>
	<g>
		<g>
			<g>
				<path style="fill:#102B51;" d="M2278.918,1520.407l-0.262-0.005c-2.132-0.043-3.779-1.952-3.579-4.149l14.229-155.654
					l12.418,1.213l-20.434,156.492C2281.132,1519.526,2280.111,1520.432,2278.918,1520.407z"/>
			</g>
			<g>
				<path style="fill:#102B51;" d="M2415.938,1520.407l0.262-0.005c2.133-0.043,3.779-1.952,3.579-4.149l-14.229-155.654
					l-12.417,1.213l20.433,156.492C2413.724,1519.526,2414.744,1520.432,2415.938,1520.407z"/>
			</g>
			<path style="fill:#102B51;" d="M2411.7,1339.926l25.259-124.735c3.242-16.888-10.753-32.331-28.924-31.916l-48.713,1.112
				c-16.805,0.384-31.416,11.631-36.087,27.778l-36.954,127.761H2411.7z"/>
			<path style="fill:#102B51;" d="M2396.419,1339.926l25.259-124.735c3.242-16.888-10.753-32.331-28.923-31.916l-48.714,1.112
				c-16.805,0.384-31.416,11.631-36.087,27.778L2271,1339.926H2396.419z"/>
			<path style="fill:#102B51;" d="M2404.659,1362.676H2211.93c-3.872,0-7.041-3.168-7.041-7.04v-8.669
				c0-3.872,3.169-7.041,7.041-7.041H2411.7v15.71C2411.7,1359.508,2408.532,1362.676,2404.659,1362.676z"/>
			<path style="fill:#102B51;" d="M2314.217,1362.676h-122.861c-3.119,0-5.672-2.552-5.672-5.671v-11.407
				c0-3.119,2.553-5.672,5.672-5.672h122.861c3.119,0,5.671,2.553,5.671,5.672v11.407
				C2319.888,1360.124,2317.336,1362.676,2314.217,1362.676z"/>
		</g>
		<g>
			<path style="fill:#FFB27D;" d="M2340.992,1121.526c2.647-3.802,3.701-7.331,3.148-9.303c0,0,0,0-0.001,0
				c-4.803-0.961-8.661-4.609-9.749-9.385c-0.973-4.265-1.771-9.333-2.149-15.343l-1.631,0.436l-27.418,7.354
				c0,0,1.216,8.702,1.783,16.938c0.08,1.152,0.146,2.294,0.195,3.401c0.056,1.286-0.825,2.434-2.088,2.688
				c-0.008,0.001-0.016,0.003-0.023,0.005c-8.507,1.707-9.067,14.773,1.942,18.078c1.434,2.745,4.242,4.936,9.61,4.698
				c8.958-0.396,28.276-11.234,26.57-18.904C2341.138,1121.988,2341.071,1121.766,2340.992,1121.526z"/>
			<path style="fill:#102B51;" d="M2306.541,1034.263c0,0-4.169-16.132,11.762-18.255c15.93-2.122,31.799,11.088,37.412,31.898
				c3.701,13.719-1.981,32.688-14.405,31.287S2306.541,1034.263,2306.541,1034.263z"/>
			<path style="fill:#F4A269;" d="M2284.953,1128.821c0,0-5.247,10.233-22.346,38.337c-15.931,26.184-14.568,16.811-20.25,8.465
				c-4.516-6.633-19.645-31.714-19.645-31.714l-7.527,12.623c0,0,23.589,64.084,35.369,58.294
				c11.78-5.789,45.771-38.107,51.289-52.037C2307.36,1148.86,2284.953,1128.821,2284.953,1128.821z"/>
			<g>
				<path style="fill:#FFB27D;" d="M2264.168,1482.792c3.214,5.518-48.814,30.525-45.069,26.313
					c0.958-1.077,1.978-2.204,3.007-3.352c0.637-0.707,1.271-1.424,1.904-2.142c5.649-6.428,6.672-14.651,9.462-23.133
					c2.643-8.034-10.503-45.826-10.503-45.826l25.382,5.815c0,0,2.64,18.381,4.154,26.048c0.891,4.51,4.46,8.354,7.362,11.193
					C2261.439,1479.258,2263.039,1480.848,2264.168,1482.792z"/>
				<path style="fill:#102B51;" d="M2250.931,1498.23c-9.079,4.787-5.385,5.384-17.048,13.616
					c-11.664,8.231-18.39,7.121-20.112,5.829c-1.531-1.145,3.279-6.288,8.335-11.922l0.148,0.062c0,0,10.37-1.126,19.399-8.745
					c7.362-6.208,13.166-15.033,18.214-19.36c1.572,1.548,3.172,3.138,4.301,5.082
					C2267.382,1488.31,2260.009,1493.444,2250.931,1498.23z"/>
			</g>
			<path style="fill:#FFB27D;" d="M2337.523,1273.686c0,0-145.115,1.384-150.849,29.035
				c-12.383,59.724-34.905,180.344-34.905,180.344s-2.488,6.649,2.809,7.016c4.927,0.34,15.209-5.995,15.209-5.995
				s46.617-84.567,50.182-99.981c4.545-19.646,6.75-35.078,15.554-35.896c8.803-0.815,119.314,8.742,134.808-21.21
				C2385.822,1297.045,2337.523,1273.686,2337.523,1273.686z"/>
			<path style="fill:#F4A269;" d="M2303.192,1095.286c0,0,1.216,8.702,1.784,16.938c15.518-1.475,22.791-16.206,25.634-24.292
				L2303.192,1095.286z"/>
			<path style="fill:#8C9DF4;" d="M2369.962,1253.127c-8.522-26.403-1.185-94.717-1.425-96.159
				c-5.71-34.177-24.396-44.744-24.396-44.744s-10.701,20.772-27.889,20.772c-17.182,0-13.191-14.677-13.191-14.677
				s-15.682,1.845-19.386,5.835c-3.709,3.991-13.103,21.241-14.968,25.945c0,0-0.381,5.986,14.441,8.836
				c0,0-3.61,16.25-4.037,27.081c-0.318,8.003,5.46,33.047,7.122,48.624c0.589,5.518,4.716,18.272-4.309,21.249
				C2253.617,1265.229,2373.619,1264.456,2369.962,1253.127z"/>
			<path style="fill:#102B51;" d="M2333.278,1084.716c0,0,7.29-13.417,8.511-24.556c0.873-7.952-5.072-36.817-34.067-30.67
				c0,0-8.446,1.404-16.079,7.335c-6.069,4.717-14.625,14.596-2.674,39.333l3.237,8.41L2333.278,1084.716z"/>
			<path style="fill:#8C9DF4;" d="M2365.111,1239.573c0,0,14.686,35.612,16.888,73.795c1.544,26.766-39.597,33.345-71.013,34.504
				s-62.733,12.734-61.211,26.441c1.522,13.706,1.917,68.042,1.917,68.042s-23.401,9.515-38.577-4.054
				c-15.175-13.568-47.441,2.358-60.924-9.276s-23.76-31.216-23.76-31.216s52.767-102.485,71.575-117.974
				c18.738-15.43,88.739-24.965,88.739-24.965L2365.111,1239.573z"/>
			<path style="fill:#FFB27D;" d="M2298.521,1103.433c0,0,36.826-1.846,35.323-24.762c-1.502-22.916,2.239-38.588-21.337-38.378
				c-23.575,0.209-27.566,9.253-28.925,17.023C2282.223,1065.088,2288.902,1103.321,2298.521,1103.433z"/>
			<path style="fill:#102B51;" d="M2295.716,1040.849c0,0,11.864,26.211,27.586,29.155s22.151-1.645,22.151-1.645
				s-12.484-8.628-16.041-24.905C2329.412,1043.454,2302.46,1027.547,2295.716,1040.849z"/>
			<path style="fill:#102B51;" d="M2298.357,1042.864c0,0-7.121,6.504-8.566,12.461s-1.469,18.024-4.997,17.849
				c0,0-8.807-17.766-0.968-28.671C2292.139,1032.939,2298.357,1042.864,2298.357,1042.864z"/>
			<g>
				<path style="fill:#F99746;" d="M2224.379,1424.37c-0.804-7.187,10.73-14.096,10.73-14.096l-1.736-4.063
					c0,0-8.163,6.196-18.27-6.502c-10.106-12.697-2.231-53.925,5.542-62.343c7.772-8.418,18.493,1.516,18.493,1.516l4.572-4.741
					c-6.521-5.549-3.67-17.228-2.068-22.147c3.885-5.628,6.982-11.946,9.044-18.859c10.526-35.292-9.547-72.426-44.839-82.951
					c-35.283-10.523-72.426,9.547-82.951,44.839c-1.811,6.069-2.692,12.189-2.766,18.222l-0.278-0.083
					c0,0-3.498,18.366-14.433,19.736l1.228,6.471c0,0,14.411-2.438,16.304,8.862s-14.103,50.106-29.514,55.193
					c-15.41,5.087-18.847-4.568-18.847-4.568l-3.677,2.448c0,0,5.865,12.098,1.256,17.67s-19.09,29.108-21.587,37.483
					c-2.964,9.937-3.349,20.12-1.503,30.025l-0.002,0.008c5.432,29.247,30.258,56.002,65.349,66.468
					c7.385,2.202,14.788,3.552,22.057,4.111l0.002-0.008c38.994,2.999,74.343-16.764,84.216-49.867
					C2223.272,1458.572,2225.184,1431.557,2224.379,1424.37z"/>
				
					<rect x="2126.888" y="1373.135" transform="matrix(0.9583 0.2858 -0.2858 0.9583 483.0399 -557.3359)" style="fill:#FFFFFF;" width="47.941" height="6.021"/>
				<polygon style="fill:#ED7D2B;" points="2240.586,1109.365 2224.347,1104.522 2148.51,1318.801 2184.234,1329.455 				"/>
				<path style="fill:#FFFFFF;" d="M2137.662,1334.53c-0.291-0.021-5.033-2.325-11.463,5.509c-1.196,1.459-4.162,6.506-5.566,10.55
					c-3.879,11.173-8.538,30.052-16.01,35.372c-0.01,0.007-0.02,0.016-0.031,0.022c-0.05,0.036-0.103,0.063-0.153,0.097
					c-1.755,1.103-4.327,1.284-4.674,0.196c-0.214-0.67-0.509-1.051,1.259-2.503c1.768-1.451-0.333-6.512-3.17-3.912
					c-2.837,2.599-1.557,4.71-1.557,4.71c3.494,6.98,10.008,1.888,10.011,1.865c8.321-4.931,14.481-20.327,18.62-32.251
					c1.387-3.99,3.514-10.009,4.305-11.61c3.416-6.912,8.064-6.452,8.313-6.435c2.203,0.202,3.768,2.233,3.026,3.238
					c-0.417,0.565-0.552,1.028-2.765,0.447c-2.213-0.58-5.08,4.09-1.311,4.863c3.77,0.772,4.729-1.502,4.729-1.502
					C2144.828,1336.262,2137.662,1334.53,2137.662,1334.53z"/>
				<path style="fill:#FFFFFF;" d="M2192.4,1350.856c0.256,0.142,5.484,0.811,6.572,10.887c0.202,1.877-0.081,7.724-1.121,11.876
					c-2.875,11.473-9.318,29.818-5.981,38.363c0.005,0.012,0.009,0.023,0.013,0.035c0.023,0.058,0.053,0.108,0.076,0.165
					c0.865,1.884,2.918,3.444,3.804,2.725c0.545-0.443,1.001-0.601,0.317-2.783c-0.685-2.183,3.845-5.266,4.795-1.537
					s-1.277,4.793-1.277,4.793c-6.748,3.927-9.408-3.902-9.397-3.923c-4.261-8.683-0.98-24.938,2.088-37.182
					c1.026-4.098,2.543-10.299,2.758-12.071c0.929-7.654-3.213-9.815-3.429-9.937c-1.955-1.038-4.376-0.195-4.307,1.051
					c0.04,0.702-0.102,1.163,2.068,1.89c2.169,0.727,2.009,6.203-1.568,4.785c-3.576-1.417-3.133-3.846-3.133-3.846
					C2185.456,1348.379,2192.4,1350.856,2192.4,1350.856z"/>
				
					<rect x="2229.372" y="1059.928" transform="matrix(0.9583 0.2858 -0.2858 0.9583 403.8662 -594.7703)" style="fill:#ED7D2B;" width="20.173" height="52.451"/>
				<g>
					<g>
						<path style="fill:#FFFFFF;" d="M2128.84,1421.554c0.254-2.048,7.353-48.622,7.654-50.604l0.007-0.046l0.016-0.044
							l102.005-296.15l0.611,0.241l-101.99,296.106c-0.264,1.733-7.395,48.523-7.644,50.53L2128.84,1421.554z"/>
					</g>
					<g>
						<polygon style="fill:#FFFFFF;" points="2133.023,1422.792 2143.781,1373.156 2240.433,1075.307 2241.05,1075.53 
							2144.412,1373.33 2133.666,1422.917 						"/>
					</g>
					<g>
						<polygon style="fill:#FFFFFF;" points="2144.456,1426.316 2143.871,1426.011 2163.82,1379.276 2243.791,1076.856 
							2244.424,1077.021 2164.43,1379.512 						"/>
					</g>
					<g>
						<polygon style="fill:#FFFFFF;" points="2141.377,1425.344 2153.903,1374.876 2242.107,1076.058 2242.731,1076.256 
							2154.533,1375.052 2142.014,1425.498 						"/>
					</g>
				</g>
				<path style="fill:#ED7D2B;" d="M2202.341,1100.977L2202.341,1100.977c-4.412-1.316-6.945-6.003-5.63-10.415l0.576-1.934
					c1.316-4.412,6.004-6.945,10.416-5.63l0,0c4.412,1.316,6.946,6.003,5.63,10.415l-0.577,1.934
					C2211.44,1099.759,2206.754,1102.293,2202.341,1100.977z"/>
				
					<rect x="2204.766" y="1091.828" transform="matrix(0.9583 0.2858 -0.2858 0.9583 405.211 -587.6076)" style="fill:#ED7D2B;" width="21.972" height="5.245"/>
				<path style="fill:#ED7D2B;" d="M2214.56,1081.219L2214.56,1081.219c-3.195-0.953-5.029-4.347-4.076-7.542l0.417-1.399
					c0.953-3.195,4.347-5.029,7.542-4.077v0.001c3.194,0.952,5.029,4.346,4.076,7.541l-0.417,1.4
					C2221.148,1080.337,2217.755,1082.172,2214.56,1081.219z"/>
				
					<rect x="2216.315" y="1074.595" transform="matrix(0.9583 0.2858 -0.2858 0.9583 400.5187 -590.8836)" style="fill:#ED7D2B;" width="15.91" height="3.797"/>
				<path style="fill:#ED7D2B;" d="M2262.393,1118.887L2262.393,1118.887c4.413,1.316,9.1-1.217,10.416-5.63l0.576-1.933
					c1.316-4.413-1.217-9.1-5.63-10.416l0,0c-4.412-1.315-9.099,1.218-10.415,5.63l-0.576,1.934
					C2255.447,1112.884,2257.98,1117.571,2262.393,1118.887z"/>
				
					<rect x="2243.762" y="1103.459" transform="matrix(-0.9583 -0.2858 0.2858 -0.9583 4099.2822 2810.4866)" style="fill:#ED7D2B;" width="21.972" height="5.245"/>
				<path style="fill:#ED7D2B;" d="M2262.993,1095.664L2262.993,1095.664c3.195,0.953,6.589-0.882,7.542-4.077l0.418-1.399
					c0.952-3.195-0.882-6.589-4.077-7.542l0,0c-3.195-0.952-6.589,0.882-7.542,4.077l-0.417,1.399
					C2257.964,1091.317,2259.799,1094.711,2262.993,1095.664z"/>
				
					<rect x="2249.503" y="1084.493" transform="matrix(-0.9583 -0.2858 0.2858 -0.9583 4110.2739 2772.6394)" style="fill:#ED7D2B;" width="15.91" height="3.797"/>
				<path style="fill:#ED7D2B;" d="M2120.827,1406.959c-0.807,2.706-14.604,102.721-14.604,102.721l12.453,3.714l40.427-95.019
					L2120.827,1406.959z"/>
				<polygon style="fill:#F99746;" points="2251.218,1072.498 2249.351,1079.22 2235.348,1075.307 2237.561,1068.661 				"/>
			</g>
			<path style="fill:#FFB27D;" d="M2357.439,1129.852c0,0,15.305-0.182,18.524,19.229s-70.236,101.146-89.188,96.371
				c-21.05-5.302-69.193-42.048-69.193-42.048l5.78-7.501c0,0,61.362,22.014,65.394,20.423S2350.828,1127.963,2357.439,1129.852z"/>
			<path style="fill:#8C9DF4;" d="M2344.141,1112.224c0,0,23.724,4.175,31.926,16.597c6.496,9.838,0,44.188,0,44.188
				s-23.805,3.974-52.313-3.438L2344.141,1112.224z"/>
			<g>
				<path style="fill:#FFB27D;" d="M2226.287,1196.945c0,0-24.887-10.494-29.154-9.064s-15.162,7.48-16.84,9.97
					s9.012-0.485,12.363-0.762c2.17-0.18,7.275,2.702,9.81,4.091c6.384,3.498,11.138,3.037,14.269,3.404
					c2.099,0.246,5.561,2.344,5.561,2.344L2226.287,1196.945z"/>
				<path style="fill:#FFB27D;" d="M2194.754,1194.363c0,0-6.219,5.585-8.012,6.061c-1.792,0.477-2.824,0.089-2.824,0.089
					l4.505-5.495L2194.754,1194.363z"/>
				<path style="fill:#FFB27D;" d="M2197.133,1187.881l-15.941,4.455c0,0,0.438,1.133,2.258,1.378
					c1.818,0.245,6.67-0.593,6.67-0.593L2197.133,1187.881z"/>
				<path style="fill:#FFB27D;" d="M2216.734,1204.584c0,0-5.114,2.911-9.841,1.697c-4.728-1.214-9.119-0.925-9.037-2.197
					c0.081-1.273,6.729-3.118,6.729-3.118L2216.734,1204.584z"/>
			</g>
			<path style="fill:#F4A269;" d="M2212.756,1131.497c0,0,11.653-2.542,11.141,1.757c-0.513,4.298-10.705,13.319-13.567,10.808
				C2207.466,1141.55,2210.205,1132.976,2212.756,1131.497z"/>
		</g>
	</g>
	<g>
		<path style="fill:#1B2E4C;" d="M1237.46,1772.039c-0.523-5.187-3.06-9.965-7.075-13.309
			c-15.494-12.923-54.67-46.457-58.049-57.765c-0.944-3.14-1.911-6.006-2.935-8.634c-6.461-16.836-14.276-23.479-22.125-26.288
			c-13.412-4.778-28.814-7.94-44.455-9.59c-0.011-0.079-0.011-0.159-0.022-0.239c6.95,0.797,11.022,1.649,11.022,1.649
			s-2.889-4.812-11.489-8.485c-0.182-4.289-0.125-8.646,0.421-12.377v-0.011c5.938-4.517,11.705-11.455,15.015-22.114
			c3.128-3.436,5.835-8.884,5.005-11.228c-0.262-0.762-0.614-1.274-1.024-1.593c0.478-0.784,0.921-1.615,1.32-2.491
			c3.355-2.729,2.855-9.532,4.868-12.513c2.435-3.629,5.426-12.979,2.958-15.937c-2.457-2.958-3.526-6.825-4.175-14.947
			c-0.637-8.134-6.507-4.437-11.433-5.518c-4.925-1.069-3.936-2.616-6.404-8.531c-2.468-5.915-7.883-5.426-16.267-3.697
			c-8.372,1.718-6.655-3.696-15.277-4.925c-8.622-1.24-12.069,6.893-19.657,6.973c-7.587,0.068-8.929,8.543-15.823,12.979
			c-6.905,4.437,0,19.156,0,19.156c-0.33,3.299,0,0-3.424,5.733c-3.424,5.732,2.435,9.202,0.353,16.596
			c-2.082,7.395,5.631,6.644,5.631,6.644c0.022,0.114,0.057,0.205,0.08,0.308c-1.286-0.512-2.992-0.626-3.822,1.763
			c-1.24,3.561,5.585,14.22,9.771,14.196c2.878,9.646,6.95,15.63,11.432,19.464c0.25,2.479,0.523,6.302,0.489,10.624
			c-10.375,3.367-15.3,8.851-15.596,9.191c-3.629,0.535-7.109,1.16-10.432,1.9c-11.193,2.468-20.441,6.074-26.481,10.749
			c-13.082,10.136-50.018,67.252-64.26,89.673c-3.743,5.903-6.029,12.592-6.7,19.543l-4.516,39.427
			c56.797,0.284,116.211,0.58,177.444,0.888c0,0,0,0,0.012,0c7.803,0.033,15.641,0.067,23.501,0.113
			c34.639,0.171,69.812,0.341,105.382,0.512C1240.156,1799.988,1237.881,1776.111,1237.46,1772.039z M1061.926,1655.431
			c0,0.045,0,0.091-0.011,0.125c-4.505,0.296-8.896,0.728-13.104,1.285C1053.304,1656.204,1057.683,1655.749,1061.926,1655.431z"/>
		<path style="fill:#1B2E4C;" d="M1653.177,1754.938L1653.177,1754.938c-0.624-6.122-3.619-11.754-8.345-15.695
			c-18.264-15.238-64.454-54.772-68.437-68.092c-8.213-27.475-18.842-37.357-29.551-41.172
			c-15.812-5.632-33.965-9.362-52.403-11.316c-0.705-7.395-1.083-16.067-0.074-22.92c0.001-0.007,0-0.014,0.001-0.021
			c6.999-5.328,13.792-13.502,17.69-26.076c3.694-4.038,6.879-10.462,5.91-13.232c-0.352-1.009-0.839-1.624-1.386-1.99
			c1.251-1.987,2.33-4.169,3.083-6.711c3.6-12.182,4.979-36.894-11.083-50.119c-13.989-11.521-31.505-19.026-48.894-14.154
			c-15.299,4.286-31.005,18.408-37.117,36.382c-4.251,12.502-1.693,25.708,1.898,34.19c-1.25-0.157-2.556,0.298-3.292,2.402
			c-1.464,4.189,6.564,16.731,11.499,16.737c3.397,11.39,8.216,18.436,13.495,22.955c0.461,4.583,1.013,13.04,0.047,21.509
			c-26.437,1.74-49.326,7.434-61.37,16.762c-15.424,11.945-58.964,79.282-75.75,105.718c-4.412,6.948-7.118,14.842-7.903,23.035
			l-2.262,23.595h337.095C1644.506,1786.288,1654.036,1763.382,1653.177,1754.938z"/>
		<path style="fill:#1B2E4C;" d="M1798.585,1748.026v74.61c-41.235-0.204-82.915-0.397-124.833-0.603
			c-68.299-0.33-137.21-0.66-205.792-1.001c-2.719-0.012-5.426-0.022-8.145-0.034l13.025-20.578
			c1.524-2.229,3.469-4.767,5.631-7.405c1.684-2.059,3.492-4.187,5.347-6.291c7.086-8.03,14.686-15.721,17.427-18.007
			c16.926-14.128,59.755-50.779,63.44-63.122c4.243-14.174,9.168-23.297,14.436-29.212c4.175-4.721,8.565-7.394,12.968-8.964
			c7.337-2.616,15.209-4.777,23.376-6.529c8.179-1.752,16.653-3.071,25.208-3.97c0.648-6.859,1.001-14.891,0.068-21.238
			c0,0-15.471,6.45-19.168-38.699c-1.069-0.568-2.036-1.342-2.81-2.445c-12.41-7.371-12.911-19.088-10.727-30.281
			c3.799-19.532,20.794-45.911,48.948-42.84c5.392,0.58,10.829,0.364,16.176-0.478c10.465-1.627,27.506-2.173,35.594,9.225
			c31.214,43.955-7.201,68.992-1.456,84.588c5.744,15.584,43.249,36.72,34.979,56.74c0,0.012,0,0.012,0,0.012
			c2.39,1.854,5.631,5.323,9.431,9.931C1764.437,1696.848,1783.501,1725.014,1798.585,1748.026z"/>
		<path style="fill:#1B2E4C;" d="M1482.429,1799.283c0.375,3.675-6.609,13.252-14.47,21.75c-2.719-0.012-5.426-0.022-8.145-0.034
			c-73.86-0.364-147.277-0.717-219.09-1.069c-35.57-0.171-70.743-0.341-105.382-0.512l-4.698-18.975l-0.887-3.571
			c-1.854-7.463-0.137-15.368,4.687-21.363c0.216-0.262,0.433-0.534,0.66-0.808c6.711-8.235,15.721-17.541,18.03-21.181
			c2.491-3.937,5.824-9.146,9.658-15.084c-3.458-2.479-5.506-6.245-5.631-11.592c-0.318-13.753,5.244-24.719,12.24-34.513
			c14.64-20.487,35.583-35.866,22.262-60.904c-9.305-17.506,31.544-45.422,36.799-59.687s7.883-31.737,23.331-43.101
			c15.448-11.376,40.633-6.7,40.633-6.7c29.781-8.236,47.743,18.508,51.52,37.892c1.979,10.112,1.524,20.691-9.419,27.448
			c-0.865,2.07-2.014,3.879-3.299,5.528c-1.65,12.593-6.245,21.295-11.706,27.313c0.637,7.041,3.344,12.638,8.486,13.4
			c23.536,3.458,30.566,12.615,32.534,21.511c1.445,0.648,2.89,1.444,4.323,2.435c6.859,4.732,13.4,13.82,18.735,31.68
			c3.378,11.296,42.566,44.831,58.06,57.753c4.004,3.345,19.35,19.281,25.993,29.008l6.837,10.817l3.981,6.291L1482.429,1799.283z"
			/>
		<path style="fill:#1B2E4C;" d="M910.394,1799.283c0.33,3.276-5.187,11.25-11.955,18.963c-38.017-0.193-74.736-0.375-109.886-0.546
			c-19.737-0.091-38.972-0.193-57.685-0.284c-57.605-0.285-110.103-0.546-156.139-0.773c-4.095-0.023-8.133-0.046-12.126-0.057
			l-4.891-19.714c-1.092-4.425-0.933-8.998,0.375-13.241c0.91-2.924,2.354-5.676,4.322-8.122
			c6.78-8.429,16.301-18.234,18.679-21.988c2.502-3.937,5.835-9.146,9.669-15.084c-3.458-2.479-5.506-6.245-5.631-11.592
			c-0.535-23.285,15.789-38.597,27.426-53.76c9.578-12.513,15.971-24.924,7.075-41.657c-9.305-17.506,31.544-45.422,36.799-59.687
			c5.256-14.265,7.883-31.737,23.331-43.101c15.448-11.376,40.622-6.7,40.622-6.7c29.792-8.236,47.754,18.508,51.531,37.892
			c1.979,10.112,1.524,20.691-9.419,27.448c-0.865,2.07-2.014,3.879-3.299,5.528c-1.649,12.593-6.257,21.295-11.706,27.313
			c0.637,7.041,3.344,12.638,8.486,13.4c23.536,3.458,30.565,12.615,32.533,21.511c8.395,3.754,16.608,12.524,23.058,34.114
			c1.035,3.47,5.449,9.044,11.535,15.471c13.685,14.481,35.775,33.33,46.514,42.282c4.015,3.345,19.349,19.281,26.004,29.008
			L910.394,1799.283z"/>
		<path style="fill:#1B2E4C;" d="M1130.645,1800.443c-5.926,7.281-13.354,14.834-18.803,18.861c-0.012,0-0.012,0-0.012,0
			c-61.234-0.308-120.648-0.604-177.444-0.888c-12.104-0.057-24.093-0.114-35.946-0.171c-38.017-0.193-74.736-0.375-109.886-0.546
			l-8.93-36.788c-1.9-7.814-0.137-16.085,4.8-22.353c6.939-8.827,16.676-19.1,19.122-23.023
			c4.482-7.235,11.535-18.485,19.554-30.919c17.973-27.926,40.758-61.757,50.018-69.094c10.454-8.281,30.327-13.344,53.271-14.879
			c0.136-1.274,0.25-2.548,0.318-3.8c-26.63-0.58-52.304-8.781-62.451-33.91c-7.747-19.167,10.989-22.705,16.369-37.641
			c5.38-14.925,8.065-33.205,23.877-45.115c15.8-11.898,41.565-7.007,41.565-7.007c30.486-8.611,48.869,19.372,52.736,39.654
			c2.014,10.591,1.559,21.659-9.646,28.734c-0.888,2.173-2.059,4.05-3.378,5.779c-1.149,8.997-3.708,16.096-6.985,21.692
			c0.773,0.796,1.695,1.468,2.833,1.934c8.702,3.538,14.549,13.616,8.452,15.698c-6.097,2.082-13.798,4.231-22.398,6.029
			c0.091,3.025,0.296,6.052,0.558,8.873c16.005,1.74,31.76,5.05,45.49,10.044c8.019,2.923,15.994,9.862,22.614,27.415
			c1.059,2.775,2.07,5.813,3.038,9.146c3.458,11.819,43.545,46.912,59.402,60.448c4.095,3.492,19.793,20.181,26.595,30.35
			l9.726,15.732l5.403,8.736C1140.803,1786.463,1136.435,1793.322,1130.645,1800.443z"/>
		<path style="fill:#1B2E4C;" d="M574.73,1816.643c-4.095-0.023-8.133-0.046-12.126-0.057c-20.168-0.103-39.018-0.193-56.41-0.285
			c-41.1-0.204-79.912-12.66-112.435-34.33c-37.982-25.299-67.388-63.18-81.8-108.817c1.138-1.172,2.173-2.116,3.071-2.81
			c10.227-7.918,29.633-12.74,52.065-14.22c0.136-1.217,0.239-2.435,0.307-3.629c-26.027-0.546-51.121-8.395-61.029-32.396
			c-7.564-18.314,10.738-21.704,15.994-35.97c5.256-14.265,7.883-31.726,23.331-43.101c15.448-11.364,40.633-6.7,40.633-6.7
			c29.781-8.225,47.743,18.508,51.531,37.892c1.968,10.124,1.513,20.691-9.43,27.448c-0.865,2.082-2.014,3.879-3.299,5.528
			c-1.115,8.601-3.618,15.38-6.826,20.737c0.751,0.751,1.65,1.388,2.776,1.832c8.498,3.378,14.219,13.024,8.247,15.004
			c-5.949,1.99-13.479,4.05-21.875,5.768c0.08,2.889,0.285,5.778,0.535,8.475c15.642,1.66,31.043,4.823,44.455,9.601
			c5.495,1.956,10.955,5.79,15.948,13.662c3.288,5.153,6.371,12.035,9.124,21.261c3.378,11.295,42.555,44.83,58.048,57.764
			c3.413,2.844,15.05,14.834,22.523,24.332c1.308,1.661,2.479,3.23,3.469,4.676l14.788,23.376
			C576.459,1812.832,575.856,1814.549,574.73,1816.643z"/>
		<path style="fill:#1B2E4C;" d="M2153.918,1720.611c-0.523-5.198-3.071-9.977-7.075-13.32c-9.794-8.168-29.042-24.56-42.737-38.381
			c-7.975-8.043-14.072-15.221-15.312-19.372c-6.974-23.309-15.982-31.692-25.071-34.923c-13.412-4.777-28.814-7.951-44.443-9.601
			c-0.012-0.08-0.023-0.159-0.023-0.239c6.951,0.797,11.023,1.649,11.023,1.649s-2.89-4.812-11.501-8.475
			c-0.182-4.3-0.113-8.656,0.433-12.376c0-0.012,0-0.012,0-0.023c5.938-4.516,11.705-11.454,15.004-22.113
			c3.14-3.424,5.836-8.873,5.017-11.228c-0.273-0.763-0.626-1.274-1.024-1.593c0.479-0.784,0.922-1.604,1.309-2.491
			c3.367-2.729,2.867-9.532,4.881-12.513c2.434-3.617,5.414-12.979,2.957-15.937c-2.469-2.958-3.538-6.814-4.175-14.947
			c-0.648-8.134-6.507-4.437-11.433-5.518c-4.926-1.069-3.947-2.616-6.404-8.531c-2.469-5.915-7.895-5.426-16.267-3.697
			c-8.384,1.729-6.654-3.696-15.277-4.925c-8.622-1.229-12.08,6.893-19.656,6.973c-7.588,0.068-8.93,8.555-15.835,12.979
			c-6.893,4.437,0,19.156,0,19.156c-0.33,3.31,0,0-3.424,5.733c-3.424,5.732,2.446,9.202,0.364,16.596
			c-2.082,7.395,5.619,6.644,5.619,6.644c0.034,0.114,0.068,0.205,0.091,0.318c-1.285-0.522-2.991-0.637-3.833,1.752
			c-1.24,3.561,5.597,14.22,9.771,14.196c2.89,9.646,6.962,15.63,11.432,19.464c0.251,2.479,0.535,6.313,0.489,10.624
			c-10.692,3.481-15.596,9.203-15.596,9.203c-15.846,2.32-29.075,6.575-36.912,12.638c-7.167,5.552-21.512,25.23-35.355,45.57
			c-11.398,16.767-22.455,33.978-28.894,44.113c-3.742,5.893-6.04,12.581-6.7,19.532l-24.969,95.234
			c63.702,0.307,126.176,0.603,186.625,0.887c12.046,0.058,24.002,0.114,35.877,0.171c41.601,0.193,82.131,0.376,121.318,0.558
			C2167.534,1784.814,2154.396,1725.354,2153.918,1720.611z M1978.385,1603.991c0,0.045-0.012,0.091-0.012,0.136
			c-5.153,0.33-10.146,0.842-14.902,1.536C1968.602,1604.89,1973.584,1604.354,1978.385,1603.991z"/>
		<path style="fill:#1B2E4C;" d="M2568.426,1826.141h-1.24c-51.484-0.205-114.743-0.478-186.92-0.796
			c-2.23-0.012-4.471-0.023-6.723-0.034c-46.878-0.205-97.419-0.433-150.85-0.683l1.32-13.741c0.784-8.19,3.492-16.085,7.905-23.035
			c14.572-22.944,49.278-76.67,68.274-98.283c2.901-3.3,5.438-5.848,7.475-7.429c12.046-9.328,34.934-15.026,61.37-16.767
			c0.967-8.464,0.409-16.928-0.046-21.512c-5.277-4.516-10.102-11.557-13.502-22.955c-4.926,0-12.957-12.547-11.489-16.733
			c0.728-2.104,2.036-2.56,3.287-2.4c-3.595-8.486-6.154-21.692-1.899-34.194c6.108-17.973,21.817-32.09,37.118-36.379
			c17.393-4.868,34.911,2.628,48.892,14.151c16.062,13.229,14.686,37.938,11.091,50.12c-0.763,2.548-1.832,4.721-3.083,6.712
			c0.546,0.363,1.035,0.978,1.376,1.99c0.979,2.775-2.206,9.191-5.903,13.229c-3.902,12.581-10.693,20.749-17.689,26.084v0.012
			c-1.012,6.859-0.637,15.527,0.068,22.921c18.44,1.956,36.596,5.688,52.406,11.318c5.757,2.048,11.49,5.858,16.848,13.219
			c4.596,6.313,8.907,15.254,12.706,27.96c3.981,13.31,50.165,52.851,68.435,68.082c4.721,3.947,7.724,9.578,8.338,15.698
			C2576.525,1807.906,2573.112,1818.599,2568.426,1826.141z"/>
		<path style="fill:#1B2E4C;" d="M730.869,1817.416c-57.605-0.285-110.103-0.546-156.139-0.773
			c-4.095-0.023-8.133-0.046-12.126-0.057c-20.168-0.103-39.018-0.193-56.41-0.285c-41.1-0.204-79.912-12.66-112.435-34.33
			c18.781-29.383,57.605-88.694,71.995-99.831c0.83-0.637,1.706-1.263,2.639-1.865c12.57-8.225,34.115-13.287,58.731-14.901
			c0.967-8.464,0.421-16.928-0.046-21.512c-5.278-4.516-10.101-11.557-13.491-22.955c-4.937,0-12.968-12.547-11.5-16.733
			c0.728-2.104,2.036-2.56,3.287-2.4c-3.583-8.486-6.143-21.692-1.899-34.194c6.12-17.973,21.818-32.09,37.118-36.379
			c17.393-4.868,34.911,2.628,48.903,14.151c16.051,13.229,14.674,37.938,11.08,50.12c-0.751,2.548-1.832,4.721-3.083,6.712
			c0.546,0.363,1.035,0.978,1.388,1.99c0.967,2.775-2.218,9.191-5.915,13.229c-3.902,12.581-10.693,20.749-17.689,26.084v0.012
			c-1.012,6.859-0.637,15.527,0.068,22.921c12.763,1.354,25.401,3.561,37.209,6.666c5.255,1.376,10.329,2.923,15.197,4.652
			c10.704,3.812,21.34,13.696,29.553,41.179c3.981,13.31,50.165,52.851,68.435,68.082c4.721,3.947,7.724,9.578,8.35,15.698
			C734.429,1806.074,733.109,1811.773,730.869,1817.416z"/>
		<path style="fill:#1B2E4C;" d="M2715.031,1748.026v25.549c-40.303,33.068-91.662,52.497-146.605,52.565h-1.24
			c-51.484-0.205-114.743-0.478-186.92-0.796c-2.23-0.012-4.471-0.023-6.723-0.034l15.743-24.89c1.524-2.229,3.47-4.767,5.631-7.405
			c8.122-9.931,19.315-21.408,22.773-24.298c16.938-14.128,59.755-50.779,63.452-63.122c1.684-5.643,3.48-10.477,5.369-14.64
			c6.62-14.618,14.299-20.783,22.022-23.536c14.675-5.221,31.499-8.69,48.585-10.499c0,0,0,0,0.011,0
			c0.648-6.859,1.001-14.891,0.058-21.238c0,0-15.46,6.45-19.156-38.699c-1.081-0.568-2.037-1.342-2.811-2.445
			c-12.41-7.371-12.922-19.088-10.738-30.281c3.811-19.532,20.806-45.911,48.96-42.84c5.381,0.58,10.817,0.364,16.176-0.478
			c10.466-1.627,27.494-2.173,35.593,9.225c31.215,43.955-7.199,68.992-1.455,84.588c5.744,15.584,43.237,36.72,34.968,56.74
			c0,0.012,0,0.012,0,0.012C2669.121,1679.558,2695.443,1718.131,2715.031,1748.026z"/>
		<path style="fill:#1B2E4C;" d="M2398.887,1799.283c0.444,4.323-9.271,16.768-18.621,26.062c-2.23-0.012-4.471-0.023-6.723-0.034
			c-46.878-0.205-97.419-0.433-150.85-0.683c-15.914-0.068-32.078-0.148-48.482-0.228c-39.188-0.182-79.718-0.364-121.318-0.558
			l-6.688-26.971c-1.854-7.463-0.124-15.368,4.687-21.363c6.78-8.429,16.313-18.234,18.69-21.988
			c2.503-3.937,5.835-9.146,9.669-15.084c-3.47-2.479-5.506-6.245-5.631-11.592c-0.592-25.424,18.929-41.338,30.486-57.935
			c7.758-11.147,11.922-22.614,4.016-37.482c-9.316-17.506,31.532-45.422,36.799-59.687c5.256-14.265,7.883-31.737,23.331-43.101
			c15.437-11.376,40.621-6.7,40.621-6.7c29.781-8.236,47.755,18.508,51.531,37.892c1.968,10.112,1.524,20.691-9.431,27.448
			c-0.864,2.07-2.002,3.879-3.287,5.528c-1.649,12.593-6.256,21.295-11.705,27.313c0.637,7.041,3.344,12.638,8.485,13.4
			c23.536,3.458,30.566,12.615,32.534,21.511c8.395,3.754,16.607,12.524,23.058,34.114c0.046,0.137,0.091,0.273,0.136,0.422
			c4.187,11.682,42.602,44.568,57.912,57.331c4.005,3.345,19.351,19.281,25.994,29.008l10.817,17.108L2398.887,1799.283z"/>
		<path style="fill:#1B2E4C;" d="M2017.016,1823.672c-60.449-0.284-122.923-0.58-186.625-0.887
			c-10.568-0.046-21.17-0.103-31.806-0.148c-41.235-0.204-82.915-0.397-124.833-0.603l-3.163-12.763
			c-1.854-7.475-0.125-15.38,4.698-21.363c6.78-8.43,16.301-18.246,18.679-22c11.5-18.099,40.212-62.645,57.741-84.474
			c4.187-5.222,7.735-9.135,10.261-11.091c10.215-7.918,29.633-12.74,52.054-14.22c0.137-1.217,0.239-2.435,0.318-3.629
			c-26.038-0.546-51.121-8.395-61.04-32.396c-7.564-18.314,10.749-21.704,16.005-35.97c5.256-14.265,7.883-31.726,23.331-43.101
			c15.448-11.364,40.621-6.7,40.621-6.7c29.792-8.225,47.754,18.508,51.531,37.892c1.968,10.124,1.524,20.691-9.431,27.448
			c-0.864,2.082-2.002,3.879-3.287,5.528c-1.126,8.601-3.629,15.38-6.837,20.737c0.763,0.751,1.661,1.388,2.775,1.832
			c8.497,3.378,14.22,13.024,8.259,15.004c-5.961,1.99-13.491,4.05-21.887,5.768c0.08,2.889,0.285,5.778,0.547,8.475
			c12.455,1.319,24.753,3.595,36.025,6.894c2.89,0.83,5.699,1.74,8.43,2.707c9.077,3.242,18.098,11.614,25.06,34.923
			c3.378,11.295,42.556,44.83,58.048,57.764c4.016,3.345,19.35,19.281,25.993,29.008l14.788,23.376
			C2023.499,1813.958,2020.905,1818.508,2017.016,1823.672z"/>
	</g>
	<path style="opacity:0.4;fill:#E56539;" d="M1042.417,301.122c0,0-89.718,461.984-703.494,684.87l101.539,47.737
		C440.462,1033.729,924.114,931.319,1042.417,301.122z"/>
	<path style="fill:#FFA561;" d="M287.16,964.865c0,0,113.918,54.366,221.262,57.936c0,0,20.011,28.422,2.752,63.303
		c0,0-103.098,11.556-219.301-27.672L287.16,964.865z"/>
	<path style="opacity:0.4;fill:#E56539;" d="M880.25,335.271c-1.172,3.367-127.12,362.784-568.405,640.287
		c0,0-10.192,1.274-23.661-0.239c-3.777-37.937-7.28-77.16-9.783-116.882C385.796,801.628,634.292,704.96,880.25,335.271z"/>
	<path style="opacity:0.4;fill:#E56539;" d="M1990.646,296.693c0,0,101.077,473.925,714.854,696.811l-112.898,35.796
		C2592.601,1029.3,2108.949,926.889,1990.646,296.693z"/>
	<path style="opacity:0.4;fill:#E56539;" d="M2756.063,848.21c-2.479,41.475-6.108,82.472-10.078,122.16
		c-13.366,1.547-21.716,7.588-21.716,7.588c-441.285-277.503-570.282-643.745-571.454-647.112
		C2394.348,693.892,2645.414,791.037,2756.063,848.21z"/>
	<path style="fill:#FFA561;" d="M2746.373,966.415c0,0-118.762,55.669-230.669,59.324c0,0-20.862,29.103-2.87,64.818
		c0,0,107.481,11.833,228.625-28.335L2746.373,966.415z"/>
</g>
</svg>
