<?xml version="1.0" encoding="utf-8"?>
<!-- Generator: Adobe Illustrator 27.5.0, SVG Export Plug-In . SVG Version: 6.00 Build 0)  -->
<svg version="1.1" id="PRINT" xmlns="http://www.w3.org/2000/svg" xmlns:xlink="http://www.w3.org/1999/xlink" x="0px" y="0px"
	 viewBox="0 0 841.89 595.276" style="enable-background:new 0 0 841.89 595.276;" xml:space="preserve">
<g>
	<rect x="-8.504" y="-8.504" style="fill-rule:evenodd;clip-rule:evenodd;fill:#ECE5F5;" width="858.898" height="612.283"/>
	<g>
		<path style="fill:#C9BADE;" d="M735.186,258.202c-0.039-0.04-0.076-0.084-0.109-0.132c-0.24-0.339-0.268-0.785-0.07-1.151
			l1.951-3.608l-1.867-3.651c-0.189-0.37-0.151-0.816,0.096-1.149c0.248-0.333,0.664-0.497,1.073-0.422l4.035,0.74l2.897-2.904
			c0.294-0.294,0.728-0.396,1.122-0.263c0.395,0.133,0.677,0.478,0.733,0.89l0.542,4.065l3.656,1.858
			c0.369,0.19,0.602,0.57,0.597,0.986s-0.245,0.792-0.62,0.972l-3.699,1.772l-0.637,4.052c-0.064,0.41-0.356,0.749-0.753,0.873
			c-0.397,0.123-0.843,0.018-1.116-0.289l-2.829-2.971l-4.049,0.646C735.786,258.574,735.431,258.453,735.186,258.202z
			 M738.041,250.636l1.122,2.193c0.163,0.32,0.159,0.7-0.012,1.016l-1.172,2.167l2.432-0.388c0.355-0.057,0.725,0.048,0.963,0.325
			l1.699,1.785l0.383-2.435c0.056-0.355,0.283-0.66,0.606-0.815l2.222-1.064l-2.197-1.116c-0.318-0.161-0.539-0.472-0.587-0.829
			l-0.326-2.441l-1.74,1.744c-0.254,0.254-0.616,0.367-0.97,0.303L738.041,250.636z"/>
		<path style="fill:#C9BADE;" d="M458.675,548.13c-0.04-0.04-0.076-0.084-0.109-0.132c-0.24-0.339-0.267-0.785-0.07-1.151
			l1.951-3.608l-1.867-3.651c-0.189-0.37-0.152-0.815,0.096-1.149c0.248-0.333,0.664-0.497,1.073-0.422l4.035,0.74l2.897-2.904
			c0.294-0.294,0.728-0.396,1.122-0.263c0.395,0.133,0.677,0.478,0.733,0.889l0.542,4.065l3.656,1.858
			c0.369,0.19,0.602,0.57,0.597,0.986c-0.005,0.416-0.245,0.793-0.62,0.972l-3.699,1.772l-0.637,4.052
			c-0.064,0.41-0.356,0.749-0.753,0.872c-0.397,0.123-0.843,0.018-1.116-0.289l-2.829-2.97l-4.049,0.646
			C459.275,548.502,458.92,548.381,458.675,548.13z M461.53,540.564l1.122,2.193c0.163,0.32,0.159,0.7-0.012,1.016l-1.172,2.167
			l2.432-0.388c0.355-0.057,0.725,0.047,0.963,0.325l1.699,1.785l0.383-2.434c0.056-0.355,0.283-0.66,0.606-0.815l2.222-1.064
			l-2.197-1.116c-0.318-0.161-0.539-0.472-0.587-0.828l-0.326-2.442l-1.74,1.744c-0.254,0.254-0.616,0.367-0.97,0.303
			L461.53,540.564z"/>
		<path style="fill:#C9BADE;" d="M97.699,310.099c-0.039-0.04-0.076-0.084-0.109-0.132c-0.24-0.339-0.268-0.785-0.07-1.151
			l1.951-3.608l-1.867-3.651c-0.189-0.37-0.151-0.816,0.097-1.149c0.248-0.333,0.664-0.497,1.073-0.422l4.035,0.74l2.897-2.904
			c0.294-0.294,0.728-0.396,1.122-0.263c0.395,0.133,0.677,0.478,0.733,0.89l0.542,4.065l3.656,1.858
			c0.369,0.19,0.602,0.571,0.597,0.986c-0.005,0.416-0.245,0.792-0.62,0.972l-3.699,1.772l-0.637,4.052
			c-0.064,0.411-0.356,0.749-0.753,0.873c-0.397,0.123-0.843,0.018-1.116-0.289l-2.829-2.97l-4.049,0.646
			C98.299,310.471,97.944,310.35,97.699,310.099z M100.554,302.533l1.122,2.193c0.163,0.32,0.159,0.7-0.012,1.016l-1.172,2.167
			l2.432-0.388c0.355-0.057,0.725,0.048,0.963,0.325l1.699,1.785l0.383-2.435c0.055-0.355,0.283-0.66,0.606-0.815l2.222-1.064
			l-2.197-1.116c-0.318-0.161-0.539-0.472-0.587-0.828l-0.326-2.442l-1.74,1.744c-0.254,0.254-0.616,0.367-0.97,0.303
			L100.554,302.533z"/>
		<path style="fill:#C9BADE;" d="M295.547,110.292c-0.039-0.04-0.076-0.084-0.109-0.132c-0.24-0.339-0.267-0.785-0.07-1.151
			l1.951-3.608l-1.867-3.651c-0.189-0.37-0.152-0.816,0.096-1.149c0.248-0.333,0.664-0.497,1.073-0.422l4.035,0.74l2.897-2.904
			c0.294-0.294,0.728-0.396,1.122-0.263c0.395,0.133,0.677,0.478,0.733,0.89l0.542,4.065l3.656,1.858
			c0.369,0.19,0.602,0.571,0.597,0.986c-0.005,0.416-0.245,0.792-0.62,0.972l-3.699,1.772l-0.637,4.052
			c-0.064,0.411-0.356,0.749-0.753,0.873c-0.397,0.123-0.843,0.018-1.116-0.289l-2.829-2.97l-4.049,0.646
			C296.147,110.663,295.792,110.543,295.547,110.292z M298.402,102.726l1.122,2.193c0.163,0.32,0.159,0.7-0.012,1.016l-1.172,2.168
			l2.432-0.388c0.355-0.057,0.725,0.048,0.963,0.325l1.699,1.785l0.383-2.434c0.055-0.355,0.283-0.66,0.606-0.815l2.222-1.064
			l-2.197-1.117c-0.319-0.161-0.539-0.472-0.587-0.828l-0.326-2.442l-1.74,1.744c-0.254,0.254-0.616,0.367-0.97,0.303
			L298.402,102.726z"/>
		<path style="fill:#C9BADE;" d="M217.614,471.51c-0.039-0.04-0.076-0.084-0.109-0.132c-0.24-0.339-0.268-0.785-0.07-1.151
			l1.951-3.608l-1.867-3.652c-0.189-0.37-0.151-0.815,0.097-1.149c0.248-0.333,0.664-0.497,1.073-0.422l4.035,0.74l2.897-2.904
			c0.294-0.295,0.728-0.396,1.122-0.263c0.395,0.133,0.677,0.478,0.733,0.889l0.542,4.065l3.657,1.858
			c0.369,0.19,0.602,0.57,0.597,0.986c-0.005,0.416-0.245,0.793-0.62,0.972l-3.699,1.772l-0.637,4.053
			c-0.064,0.41-0.356,0.749-0.753,0.872c-0.397,0.123-0.843,0.018-1.116-0.289l-2.829-2.97l-4.049,0.646
			C218.214,471.881,217.859,471.76,217.614,471.51z M220.469,463.944l1.122,2.193c0.163,0.32,0.159,0.7-0.012,1.016l-1.172,2.168
			l2.432-0.388c0.355-0.057,0.725,0.048,0.963,0.325l1.699,1.785l0.383-2.435c0.056-0.355,0.283-0.66,0.606-0.815l2.222-1.064
			l-2.197-1.116c-0.318-0.161-0.539-0.472-0.587-0.829l-0.326-2.442l-1.74,1.744c-0.254,0.254-0.616,0.367-0.97,0.303
			L220.469,463.944z"/>
		<path style="fill:#C9BADE;" d="M580.415,136.317c-0.039-0.04-0.076-0.084-0.109-0.132c-0.24-0.339-0.268-0.785-0.07-1.151
			l1.951-3.608l-1.867-3.651c-0.189-0.37-0.151-0.816,0.097-1.149c0.248-0.333,0.664-0.497,1.073-0.422l4.035,0.74l2.897-2.904
			c0.294-0.295,0.728-0.396,1.122-0.263c0.395,0.133,0.677,0.478,0.733,0.89l0.542,4.065l3.656,1.858
			c0.369,0.19,0.602,0.57,0.597,0.986c-0.005,0.416-0.245,0.792-0.62,0.972l-3.699,1.772l-0.637,4.053
			c-0.064,0.41-0.356,0.749-0.753,0.872c-0.397,0.123-0.843,0.018-1.116-0.289l-2.829-2.97l-4.049,0.646
			C581.015,136.688,580.66,136.568,580.415,136.317z M583.27,128.751l1.122,2.193c0.163,0.32,0.159,0.7-0.012,1.016l-1.172,2.168
			l2.432-0.388c0.355-0.057,0.725,0.048,0.963,0.325l1.699,1.785l0.383-2.434c0.055-0.355,0.282-0.66,0.606-0.815l2.222-1.064
			l-2.197-1.116c-0.318-0.161-0.539-0.472-0.587-0.829l-0.326-2.442l-1.74,1.744c-0.254,0.254-0.616,0.367-0.97,0.303
			L583.27,128.751z"/>
		<path style="fill:#C9BADE;" d="M337.808,521.854c-1.597,0-3.195-0.609-4.41-1.824c-1.178-1.178-1.827-2.744-1.827-4.412
			c0-1.666,0.649-3.232,1.827-4.41c2.432-2.433,6.39-2.429,8.821,0c1.178,1.178,1.827,2.744,1.827,4.41
			c0,1.668-0.649,3.233-1.827,4.412l0,0l0,0C341.002,521.246,339.405,521.854,337.808,521.854z M337.808,512.554
			c-0.785,0-1.57,0.299-2.168,0.896c-0.579,0.579-0.898,1.349-0.898,2.168c0,0.821,0.319,1.59,0.898,2.169
			c1.195,1.195,3.141,1.197,4.336,0l0,0c0.579-0.579,0.898-1.349,0.898-2.169c0-0.819-0.319-1.589-0.898-2.168
			C339.379,512.853,338.594,512.554,337.808,512.554z"/>
		<path style="fill:#C9BADE;" d="M569.059,502.958c-0.796,0-1.592-0.303-2.198-0.909c-0.587-0.587-0.911-1.367-0.911-2.199
			c0-0.83,0.323-1.611,0.911-2.198c1.212-1.212,3.185-1.211,4.396,0c0.587,0.587,0.911,1.367,0.911,2.198
			c0,0.831-0.323,1.611-0.911,2.199l0,0l0,0C570.651,502.655,569.855,502.958,569.059,502.958z M569.059,498.323
			c-0.391,0-0.782,0.149-1.08,0.447c-0.289,0.289-0.448,0.672-0.448,1.08c0,0.409,0.159,0.793,0.448,1.081
			c0.596,0.596,1.565,0.597,2.161,0l0,0c0.289-0.289,0.448-0.672,0.448-1.081c0-0.408-0.159-0.792-0.448-1.08
			C569.842,498.472,569.451,498.323,569.059,498.323z"/>
		<path style="fill:#C9BADE;" d="M696.882,345.128c-1.39,0-2.78-0.53-3.838-1.587c-1.026-1.026-1.59-2.388-1.59-3.84
			c0-1.45,0.565-2.813,1.59-3.838c2.117-2.117,5.561-2.115,7.677,0c1.026,1.025,1.59,2.388,1.59,3.838
			c0,1.452-0.565,2.814-1.59,3.84l0,0l0,0C699.662,344.598,698.272,345.128,696.882,345.128z M696.882,337.034
			c-0.683,0-1.367,0.26-1.887,0.78c-0.504,0.504-0.782,1.174-0.782,1.887c0,0.714,0.278,1.384,0.782,1.888
			c1.04,1.04,2.734,1.042,3.774,0l0,0c0.504-0.504,0.782-1.174,0.782-1.888c0-0.713-0.278-1.383-0.782-1.887
			C698.249,337.294,697.566,337.034,696.882,337.034z"/>
		<path style="fill:#C9BADE;" d="M116.933,195.514c-1.398,0-2.795-0.532-3.859-1.596c-1.031-1.031-1.599-2.401-1.599-3.86
			c0-1.458,0.568-2.828,1.599-3.859c2.129-2.129,5.591-2.126,7.719,0c1.031,1.031,1.599,2.401,1.599,3.859
			c0,1.459-0.568,2.829-1.599,3.86l0,0l0,0C119.728,194.982,118.33,195.514,116.933,195.514z M116.933,187.376
			c-0.687,0-1.374,0.261-1.897,0.784c-0.507,0.507-0.786,1.18-0.786,1.897c0,0.718,0.279,1.392,0.786,1.898
			c1.046,1.046,2.748,1.048,3.794,0l0,0c0.507-0.507,0.786-1.18,0.786-1.898c0-0.717-0.279-1.39-0.786-1.897
			C118.308,187.638,117.621,187.376,116.933,187.376z"/>
		<path style="fill:#C9BADE;" d="M790.351,384.147c-0.796,0-1.592-0.303-2.198-0.909c-0.587-0.587-0.911-1.367-0.911-2.199
			c0-0.83,0.323-1.611,0.911-2.198c1.212-1.212,3.185-1.211,4.396,0c0.587,0.587,0.911,1.367,0.911,2.198
			c0,0.831-0.323,1.611-0.911,2.199l0,0l0,0C791.943,383.844,791.147,384.147,790.351,384.147z M790.351,379.512
			c-0.391,0-0.783,0.149-1.08,0.447c-0.289,0.289-0.448,0.672-0.448,1.08c0,0.409,0.159,0.793,0.448,1.081
			c0.596,0.596,1.565,0.597,2.161,0l0,0c0.289-0.289,0.448-0.672,0.448-1.081c0-0.408-0.159-0.792-0.448-1.08
			C791.134,379.661,790.743,379.512,790.351,379.512z"/>
		<path style="fill:#C9BADE;" d="M691.453,164.156c-0.796,0-1.592-0.303-2.198-0.909c-0.587-0.587-0.911-1.367-0.911-2.199
			c0-0.83,0.323-1.611,0.911-2.198c1.212-1.212,3.185-1.211,4.396,0c0.587,0.587,0.911,1.367,0.911,2.198
			c0,0.831-0.323,1.611-0.911,2.199l0,0l0,0C693.044,163.853,692.248,164.156,691.453,164.156z M691.453,159.522
			c-0.391,0-0.783,0.149-1.081,0.447c-0.289,0.289-0.447,0.672-0.447,1.08c0,0.409,0.159,0.793,0.447,1.081
			c0.596,0.596,1.565,0.597,2.161,0l0,0c0.289-0.289,0.448-0.672,0.448-1.081c0-0.408-0.159-0.792-0.448-1.08
			C692.235,159.671,691.844,159.522,691.453,159.522z"/>
		<path style="fill:#C9BADE;" d="M479.605,112.931c-1.529,0-3.057-0.582-4.22-1.745c-1.128-1.128-1.749-2.626-1.749-4.222
			c0-1.595,0.621-3.093,1.749-4.22c2.328-2.328,6.115-2.325,8.441,0c1.128,1.127,1.749,2.625,1.749,4.22
			c0,1.596-0.621,3.094-1.749,4.222l0,0l0,0C482.661,112.349,481.133,112.931,479.605,112.931z M479.605,104.032
			c-0.751,0-1.503,0.286-2.074,0.858c-0.554,0.554-0.859,1.291-0.859,2.075c0,0.785,0.305,1.522,0.859,2.076
			c1.144,1.144,3.006,1.146,4.15,0l0,0c0.554-0.554,0.859-1.291,0.859-2.076c0-0.784-0.305-1.52-0.859-2.075
			C481.108,104.318,480.357,104.032,479.605,104.032z"/>
		<path style="fill:#C9BADE;" d="M198.711,150.091c-0.796,0-1.592-0.303-2.198-0.909c-0.587-0.587-0.911-1.368-0.911-2.199
			c0-0.831,0.323-1.611,0.911-2.198c1.212-1.212,3.184-1.211,4.396,0c0.587,0.587,0.911,1.367,0.911,2.198
			c0,0.831-0.323,1.611-0.911,2.199l0,0l0,0C200.303,149.788,199.507,150.091,198.711,150.091z M198.711,145.456
			c-0.391,0-0.783,0.149-1.08,0.447c-0.289,0.289-0.448,0.672-0.448,1.081c0,0.409,0.159,0.793,0.448,1.081
			c0.596,0.596,1.565,0.597,2.161,0l0,0c0.289-0.289,0.448-0.672,0.448-1.081c0-0.408-0.159-0.792-0.448-1.081
			C199.494,145.605,199.103,145.456,198.711,145.456z"/>
		<path style="fill:#C9BADE;" d="M131.86,403.869c-0.796,0-1.592-0.303-2.198-0.909c-0.587-0.587-0.911-1.367-0.911-2.199
			c0-0.831,0.323-1.611,0.911-2.198c1.212-1.212,3.185-1.211,4.396,0c0.587,0.587,0.911,1.367,0.911,2.198
			c0,0.831-0.323,1.611-0.911,2.199l0,0l0,0C133.452,403.565,132.656,403.869,131.86,403.869z M131.86,399.234
			c-0.391,0-0.783,0.149-1.08,0.447c-0.289,0.289-0.448,0.672-0.448,1.081c0,0.409,0.159,0.793,0.448,1.081
			c0.596,0.596,1.565,0.597,2.161,0l0,0c0.289-0.289,0.448-0.672,0.448-1.081c0-0.408-0.159-0.792-0.448-1.081
			C132.643,399.383,132.252,399.234,131.86,399.234z"/>
		<path style="fill:#C9BADE;" d="M430.228,19.777c-0.796,0-1.592-0.303-2.198-0.909c-0.587-0.587-0.911-1.368-0.911-2.199
			c0-0.831,0.323-1.611,0.911-2.198c1.212-1.212,3.185-1.211,4.396,0c0.587,0.587,0.911,1.367,0.911,2.198
			c0,0.831-0.323,1.611-0.911,2.199l0,0l0,0C431.819,19.474,431.023,19.777,430.228,19.777z M430.228,15.142
			c-0.391,0-0.783,0.149-1.081,0.447c-0.289,0.289-0.448,0.672-0.448,1.081c0,0.409,0.159,0.793,0.448,1.081
			c0.596,0.596,1.565,0.597,2.161,0l0,0c0.289-0.289,0.448-0.672,0.448-1.081c0-0.408-0.159-0.792-0.448-1.081
			C431.01,15.291,430.619,15.142,430.228,15.142z"/>
	</g>
	<g>
		<path style="fill:#DFD4EC;" d="M278.848,552.911c-22.897-5.913-47.855,1.316-70.43-5.723c-4.666-1.455-9.407-3.725-11.994-7.872
			c-3.69-5.915-1.914-13.51-1.722-20.478c0.533-19.4-14.089-38.146-33.036-42.352c-15.044-3.339-30.488,1.698-45.7,4.157
			c-15.212,2.459-33.092,1.314-42.733-10.707c-7.02-8.753-7.767-21.056-13.677-30.593c-8.485-13.694-26.379-19.122-42.387-17.317
			c-8.924,1.006-17.428,3.845-25.672,7.468v174.285h333.673C321.188,579.901,302.346,558.98,278.848,552.911z"/>
		<circle style="fill:#DFD4EC;" cx="104.872" cy="440.458" r="26.242"/>
		<ellipse style="fill:#DFD4EC;" cx="239.09" cy="518.747" rx="24.283" ry="18.896"/>
	</g>
	<g>
		<path style="fill:#DFD4EC;" d="M850.394,603.779V466.934c-10.481-2.247-20.579-6.143-29.688-11.786
			c-14.765-9.148-26.654-22.536-41.875-30.903c-15.222-8.367-36.524-10.189-48.184,2.686c-7.516,8.299-8.95,20.227-12.509,30.843
			c-5.269,15.713-16.784,30.122-32.601,35.068c-22.673,7.089-51.134-5.327-69.113,10.199c-14.678,12.676-12.42,36.005-21.242,53.277
			c-2.532,4.956-6.109,9.508-10.869,12.392c-13.513,8.188-30.934,0.807-46.619,2.716c-16.455,2.003-29.461,16.38-32.864,32.354
			H850.394z"/>
		
			<ellipse transform="matrix(0.7071 -0.7071 0.7071 0.7071 -217.4164 561.7525)" style="fill:#DFD4EC;" cx="569.387" cy="543.321" rx="17.548" ry="17.548"/>
		<circle style="fill:#DFD4EC;" cx="670.147" cy="457.966" r="24.415"/>
	</g>
</g>
<g>
	<path style="fill:none;stroke:#433137;stroke-width:1.5778;stroke-miterlimit:10;" d="M86.914,97.66
		c37.283-8.28,103.137-26.306,160.16-59.567"/>
	<path style="fill:#B0055B;" d="M119.308,114.164L119.308,114.164c-7.35,1.885-14.837-2.545-16.723-9.895l-3.054-11.908
		l26.618-6.827l3.054,11.908C131.088,104.792,126.658,112.279,119.308,114.164z"/>
	<path style="fill:#4C1D54;" d="M159.165,102.585L159.165,102.585c-7.169,2.488-14.997-1.307-17.485-8.475l-4.031-11.614
		l25.96-9.009l4.03,11.614C170.129,92.269,166.334,100.097,159.165,102.585z"/>
	<path style="fill:#B0055B;" d="M194.08,88.893L194.08,88.893c-7.169,2.488-14.997-1.307-17.485-8.475l-4.031-11.614l25.96-9.01
		l4.031,11.614C205.043,78.577,201.248,86.405,194.08,88.893z"/>
	<path style="fill:#4C1D54;" d="M232.928,72.225L232.928,72.225c-6.793,3.382-15.041,0.617-18.423-6.176l-5.479-11.005
		l24.599-12.247l5.479,11.005C242.486,60.595,239.721,68.843,232.928,72.225z"/>
</g>
<g>
	<path style="fill:none;stroke:#433137;stroke-width:1.5778;stroke-miterlimit:10;" d="M754.976,97.66
		c-37.283-8.28-103.137-26.306-160.16-59.567"/>
	<path style="fill:#B0055B;" d="M722.582,114.164L722.582,114.164c7.35,1.885,14.837-2.545,16.723-9.895l3.054-11.908l-26.618-6.827
		l-3.054,11.908C710.801,104.792,715.232,112.279,722.582,114.164z"/>
	<path style="fill:#4C1D54;" d="M682.724,102.585L682.724,102.585c7.169,2.488,14.997-1.307,17.485-8.475l4.031-11.614l-25.96-9.009
		L674.249,85.1C671.761,92.269,675.556,100.097,682.724,102.585z"/>
	<path style="fill:#B0055B;" d="M647.81,88.893L647.81,88.893c7.169,2.488,14.997-1.307,17.485-8.475l4.03-11.614l-25.96-9.01
		l-4.031,11.614C636.847,78.577,640.641,86.405,647.81,88.893z"/>
	<path style="fill:#4C1D54;" d="M608.961,72.225L608.961,72.225c6.793,3.382,15.041,0.617,18.423-6.176l5.479-11.005l-24.599-12.247
		l-5.479,11.005C599.403,60.595,602.169,68.843,608.961,72.225z"/>
</g>
<g>
	<path style="fill:#4C1D54;" d="M199.792,10.326c2.757,13.352,5.788,26.707,9.093,40.058c9.213-10.212,18.177-20.559,26.891-31.035
		C223.732,16.612,211.735,13.604,199.792,10.326z"/>
	<path style="fill:#B0055B;" d="M163.749-0.445c2.173,13.468,4.619,26.953,7.34,40.444c9.681-9.782,19.119-19.712,28.311-29.781
		C187.459,6.934,175.572,3.38,163.749-0.445z"/>
	<path style="fill:#B0055B;" d="M236.171,19.438c3.336,13.211,6.947,26.413,10.831,39.599c8.73-10.618,17.208-21.359,25.43-32.217
		C260.305,24.63,248.215,22.17,236.171,19.438z"/>
	<path style="fill:#4C1D54;" d="M272.83,26.892c3.911,13.046,8.095,26.071,12.553,39.068c8.234-10.999,16.212-22.111,23.93-33.326
		C297.121,30.991,284.957,29.077,272.83,26.892z"/>
	<path style="fill:#B0055B;" d="M309.713,32.688c4.479,12.856,9.231,25.681,14.256,38.465c7.726-11.357,15.191-22.815,22.394-34.364
		C334.125,35.693,321.905,34.326,309.713,32.688z"/>
	<path style="fill:#4C1D54;" d="M346.363,36.1c4.878,12.711,10.027,25.381,15.447,38.002c7.368-11.592,14.473-23.277,21.313-35.045
		C370.856,38.343,358.6,37.357,346.363,36.1z"/>
	<path style="fill:#B0055B;" d="M383.927,39.304c5.595,12.406,11.46,24.756,17.593,37.041c6.675-12,13.083-24.077,19.223-36.221
		C408.468,40.121,396.193,39.848,383.927,39.304z"/>
	<path style="fill:#4C1D54;" d="M421.146,40.124c6.141,12.144,12.549,24.221,19.223,36.221
		c6.133-12.286,11.998-24.636,17.593-37.041C445.696,39.848,433.421,40.121,421.146,40.124z"/>
	<path style="fill:#B0055B;" d="M458.365,39.286c6.677,11.859,13.619,23.638,20.824,35.329
		c5.583-12.547,10.895-25.146,15.936-37.789C482.887,37.916,470.63,38.736,458.365,39.286z"/>
	<path style="fill:#4C1D54;" d="M495.125,36.295c7.226,11.533,14.712,22.973,22.458,34.313c4.989-12.795,9.704-25.629,14.147-38.495
		C519.556,33.777,507.352,35.171,495.125,36.295z"/>
	<path style="fill:#B0055B;" d="M532.576,32.634c7.719,11.215,15.696,22.327,23.93,33.326c4.458-12.997,8.642-26.022,12.553-39.068
		C556.932,29.077,544.768,30.991,532.576,32.634z"/>
	<path style="fill:#4C1D54;" d="M569.457,26.821c8.222,10.857,16.7,21.599,25.43,32.217c3.885-13.186,7.495-26.388,10.831-39.599
		C593.674,22.17,581.584,24.63,569.457,26.821z"/>
	<path style="fill:#B0055B;" d="M606.114,19.349c8.713,10.475,17.678,20.823,26.891,31.035c3.306-13.35,6.336-26.706,9.093-40.058
		C630.154,13.604,618.157,16.612,606.114,19.349z"/>
	<path style="fill:#4C1D54;" d="M642.489,10.218c9.191,10.069,18.629,19.999,28.311,29.781c2.721-13.491,5.168-26.976,7.34-40.444
		C666.317,3.38,654.43,6.934,642.489,10.218z"/>
	<path style="fill:#4C1D54;" d="M420.945,40.33c-87.476,0-174.03-13.653-257.258-40.58c-0.54-0.174-0.835-0.753-0.66-1.292
		c0.174-0.54,0.754-0.836,1.292-0.661c167.886,54.315,345.366,54.316,513.253,0c0.543-0.175,1.118,0.12,1.292,0.661
		c0.174,0.539-0.121,1.118-0.661,1.292C594.975,26.677,508.42,40.33,420.945,40.33z"/>
</g>
<polygon style="fill-rule:evenodd;clip-rule:evenodd;fill:#4C1D54;" points="637.2,339.833 204.69,339.833 219.311,305.37 
	204.69,270.906 637.2,270.906 622.578,305.37 "/>
<g>
	<g>
		<defs>
			<rect id="SVGID_1_" x="575.882" y="-8.504" width="274.511" height="428.275"/>
		</defs>
		<clipPath id="SVGID_00000119808456034536368000000016657670824850993813_">
			<use xlink:href="#SVGID_1_"  style="overflow:visible;"/>
		</clipPath>
		<g style="clip-path:url(#SVGID_00000119808456034536368000000016657670824850993813_);">
			<path style="fill-rule:evenodd;clip-rule:evenodd;fill:#B0055B;" d="M719.372-7.518h134.911v403.44
				c0,1.764-1.888,3.195-4.216,3.195c-2.328,0-4.216-1.431-4.216-3.195c0,1.764-1.888,3.195-4.216,3.195
				c-2.329,0-4.216-1.431-4.216-3.195c0,1.764-1.887,3.195-4.216,3.195c-2.328,0-4.216-1.431-4.216-3.195
				c0,1.764-1.888,3.195-4.216,3.195c-2.328,0-3.79-1.499-4.216-3.195L719.372-7.518z"/>
			<g>
				<polygon style="fill:#80055B;" points="854.282,327.637 831.115,-7.518 825.015,-7.518 854.282,384.263 				"/>
				<path style="fill:#80055B;" d="M834.505,398.945c1.076-0.586,1.759-1.435,1.759-2.383c0,0.422,0.14,0.823,0.384,1.192
					c0.394-0.425,0.64-0.927,0.722-1.469L747.172-7.518h-7.449l94.43,406.547C834.273,399.007,834.388,398.974,834.505,398.945z"/>
				<path style="fill:#80055B;" d="M845.85,395.922c0,0.616,0.241,1.186,0.64,1.674c0.182-0.324,0.284-0.672,0.284-1.034
					c0,0.879,0.585,1.674,1.527,2.252c0.113,0.04,0.23,0.072,0.348,0.104L790.989-7.518h-6.911l60.618,405.626
					C845.407,397.535,845.85,396.77,845.85,395.922z"/>
			</g>
			<g>
				<path style="fill-rule:evenodd;clip-rule:evenodd;fill:#80055B;" d="M617.979-11.904c21.38,65.491,218.901,62.757,240.404,0
					H617.979z"/>
				<path style="fill-rule:evenodd;clip-rule:evenodd;fill:#B0055B;" d="M618.62-11.904c21.266,60.644,217.734,58.113,239.123,0
					H618.62z"/>
				<path style="fill-rule:evenodd;clip-rule:evenodd;fill:#80055B;" d="M617.979-11.904c21.38,45.805,218.901,43.893,240.404,0
					H617.979z"/>
				<path style="fill-rule:evenodd;clip-rule:evenodd;fill:#B0055B;" d="M618.305-11.904c21.322,41.347,218.308,39.621,239.753,0
					H618.305z"/>
				<path style="fill-rule:evenodd;clip-rule:evenodd;fill:#80055B;" d="M617.979-11.904c21.38,24.506,218.901,23.483,240.404,0
					H617.979z"/>
				<path style="fill-rule:evenodd;clip-rule:evenodd;fill:#B0055B;" d="M618.216-11.904c21.338,19.552,218.47,18.736,239.931,0
					H618.216z"/>
			</g>
		</g>
	</g>
</g>
<g>
	<g>
		<defs>
			<rect id="SVGID_00000166663717870533059530000004648159433380043685_" x="-8.504" y="-8.504" width="274.511" height="428.275"/>
		</defs>
		<clipPath id="SVGID_00000119821376602236560050000001507059237500649367_">
			<use xlink:href="#SVGID_00000166663717870533059530000004648159433380043685_"  style="overflow:visible;"/>
		</clipPath>
		<g style="clip-path:url(#SVGID_00000119821376602236560050000001507059237500649367_);">
			<path style="fill-rule:evenodd;clip-rule:evenodd;fill:#B0055B;" d="M122.518-7.518H-12.392v403.44
				c0,1.764,1.887,3.195,4.216,3.195c2.328,0,4.216-1.431,4.216-3.195c0,1.764,1.888,3.195,4.216,3.195
				c2.329,0,4.216-1.431,4.216-3.195c0,1.764,1.888,3.195,4.216,3.195c2.328,0,4.216-1.431,4.216-3.195
				c0,1.764,1.888,3.195,4.216,3.195c2.328,0,3.79-1.499,4.216-3.195L122.518-7.518z"/>
			<g>
				<polygon style="fill:#80055B;" points="-12.392,327.637 10.775,-7.518 16.875,-7.518 -12.392,384.263 				"/>
				<path style="fill:#80055B;" d="M7.385,398.945c-1.077-0.586-1.759-1.435-1.759-2.383c0,0.422-0.14,0.823-0.384,1.192
					c-0.394-0.425-0.64-0.927-0.722-1.469L94.718-7.518h7.449L7.738,399.029C7.616,399.007,7.502,398.974,7.385,398.945z"/>
				<path style="fill:#80055B;" d="M-3.961,395.922c0,0.616-0.241,1.186-0.64,1.674c-0.182-0.324-0.284-0.672-0.284-1.034
					c0,0.879-0.584,1.674-1.527,2.252c-0.113,0.04-0.23,0.072-0.348,0.104L50.901-7.518h6.911L-2.806,398.107
					C-3.517,397.535-3.961,396.77-3.961,395.922z"/>
			</g>
			<g>
				<path style="fill-rule:evenodd;clip-rule:evenodd;fill:#80055B;" d="M223.91-11.904c-21.38,65.491-218.901,62.757-240.404,0
					H223.91z"/>
				<path style="fill-rule:evenodd;clip-rule:evenodd;fill:#B0055B;" d="M223.27-11.904c-21.266,60.644-217.734,58.113-239.123,0
					H223.27z"/>
				<path style="fill-rule:evenodd;clip-rule:evenodd;fill:#80055B;" d="M223.91-11.904C202.53,33.9,5.01,31.988-16.494-11.904
					H223.91z"/>
				<path style="fill-rule:evenodd;clip-rule:evenodd;fill:#B0055B;" d="M223.585-11.904c-21.322,41.347-218.308,39.621-239.753,0
					H223.585z"/>
				<path style="fill-rule:evenodd;clip-rule:evenodd;fill:#80055B;" d="M223.91-11.904c-21.38,24.506-218.901,23.483-240.404,0
					H223.91z"/>
				<path style="fill-rule:evenodd;clip-rule:evenodd;fill:#B0055B;" d="M223.674-11.904c-21.338,19.552-218.47,18.736-239.931,0
					H223.674z"/>
			</g>
		</g>
	</g>
</g>
<g>
	<defs>
		<rect id="SVGID_00000027562355824536446210000002201457508563110571_" x="-8.504" y="395.922" width="316.815" height="207.858"/>
	</defs>
	<clipPath id="SVGID_00000096042118873641547850000001355338558149519257_">
		<use xlink:href="#SVGID_00000027562355824536446210000002201457508563110571_"  style="overflow:visible;"/>
	</clipPath>
	<g style="clip-path:url(#SVGID_00000096042118873641547850000001355338558149519257_);">
		<g>
			<path style="fill:none;stroke:#463774;stroke-width:1.3147;stroke-miterlimit:10;" d="M30.933,494.526
				c0.208,4.021-0.907,8.1-3.133,11.456c-2,3.017-4.954,5.668-5.441,9.255c-0.665,4.908,3.489,8.965,5.678,13.408
				c2.243,4.554,2.442,9.899,1.521,14.892c-0.921,4.992-2.892,9.721-4.85,14.405"/>
			<g>
				<g>
					<defs>
						<path id="SVGID_00000028322775502862478380000003189541085484659113_" d="M88.757,454.48
							c-1.083-5.672-35.42-9.776-35.42-9.776s-6.961-33.9-12.027-34.72c-5.065-0.82-20.243,30.665-20.243,30.665
							s-34.134-6.929-36.737,0.709c-2.604,7.638,22.909,28.728,22.909,28.728s-18.092,31.21-10.678,35.159
							c5.652,3.01,22.669-6.067,30.443-10.554c-2.159,3.218-5.118,8.224-2.896,8.597c3.292,0.552,6.668-5.168,6.668-5.168
							s-0.399,8.152,2.267,6.665c1.52-0.847,1.49-5.565,1.183-9.467c7.071,6.358,23.452,20.477,26.874,18.037
							c4.393-3.132-1.647-36.707-1.647-36.707S89.839,460.151,88.757,454.48z"/>
					</defs>
					<clipPath id="SVGID_00000108287328159331223080000004820448862479296670_">
						<use xlink:href="#SVGID_00000028322775502862478380000003189541085484659113_"  style="overflow:visible;"/>
					</clipPath>
					<path style="clip-path:url(#SVGID_00000108287328159331223080000004820448862479296670_);fill:#C52A7A;" d="M88.757,454.48
						c-1.083-5.672-35.42-9.776-35.42-9.776s-6.961-33.9-12.027-34.72c-5.065-0.82-20.243,30.665-20.243,30.665
						s-34.134-6.929-36.737,0.709c-2.604,7.638,22.909,28.728,22.909,28.728s-18.092,31.21-10.678,35.159
						c5.652,3.01,22.669-6.067,30.443-10.554c-2.159,3.218-5.118,8.224-2.896,8.597c3.292,0.552,6.668-5.168,6.668-5.168
						s-0.399,8.152,2.267,6.665c1.52-0.847,1.49-5.565,1.183-9.467c7.071,6.358,23.452,20.477,26.874,18.037
						c4.393-3.132-1.647-36.707-1.647-36.707S89.839,460.151,88.757,454.48z"/>
					<path style="opacity:0.15;clip-path:url(#SVGID_00000108287328159331223080000004820448862479296670_);fill:#007649;" d="
						M60.907,513.451c-7.113-4.537-11.317-13.922-16.414-20.942c-3.801-5.235-11.731-9.168-17.452-4.952
						c-5.664,4.174-10.761,9.033-18.217,5.987c-2.041-0.834-3.684-3.784-3.026-5.948c0.976-3.208,2.347-5.929,4.156-8.731
						c1.511-2.34,4.103-5.424,4.125-8.379c0.028-3.87-4.7-5.795-7.793-8.153c-3.424-2.611-7.211-5.97-7.402-10.599
						c-0.202-4.87,3.815-8.504,8.414-9.017c4.903-0.548,9.395,2.061,14.166,1.986c4.33-0.068,7.642-4.047,9.662-7.436
						c4.759-7.984,6.808-17.474,12.645-24.761c-0.845-1.471-1.676-2.397-2.463-2.524c-5.065-0.82-20.243,30.665-20.243,30.665
						s-34.134-6.929-36.737,0.709c-2.604,7.638,22.909,28.728,22.909,28.728s-18.092,31.21-10.678,35.159
						c5.652,3.01,22.669-6.067,30.443-10.554c-2.159,3.218-5.118,8.224-2.896,8.597c3.292,0.552,6.668-5.168,6.668-5.168
						s-0.399,8.152,2.267,6.665c1.52-0.847,1.49-5.565,1.183-9.467C41.178,501.568,57.12,515.31,60.907,513.451z"/>
					<g style="clip-path:url(#SVGID_00000108287328159331223080000004820448862479296670_);">
						<path style="opacity:0.91;fill:#FFFFFF;" d="M5.271,419.277c-5.493-1-7.785-3.845-9.83-6.379
							c-2.054-2.547-3.997-4.953-8.936-5.375l0.085-0.998c5.371,0.467,7.536,3.146,9.63,5.744c2.225,2.759,4.522,5.608,10.853,6.251
							c2.867,0.289,6.261-1.568,9.854-3.535c4.136-2.263,8.412-4.603,12.6-4.125c3.658,0.418,7.075,3.458,10.361,6.396
							c3.146,2.813,6.373,5.709,9.759,6.174c3.712,0.498,7.83-1.52,11.812-3.472c3.959-1.941,7.699-3.774,10.996-3.198
							c0.032,0.006,0.064,0.012,0.095,0.017c6.224,1.134,10.467,6.375,13.57,10.208c1.676,2.07,3.123,3.858,4.372,4.424
							l-0.413,0.913c-1.465-0.663-2.909-2.448-4.737-4.706c-3.171-3.917-7.113-8.786-12.97-9.853c-0.03-0.006-0.06-0.011-0.09-0.016
							c-2.977-0.52-6.575,1.243-10.384,3.112c-4.116,2.018-8.372,4.104-12.385,3.564c-3.653-0.467-7.034-3.504-10.294-6.419
							c-3.168-2.834-6.43-5.766-9.807-6.147c-3.872-0.443-8.007,1.82-12.006,4.009c-3.733,2.043-7.26,3.973-10.436,3.652
							C6.373,419.454,5.806,419.375,5.271,419.277z"/>
					</g>
					<g style="clip-path:url(#SVGID_00000108287328159331223080000004820448862479296670_);">
						<path style="opacity:0.91;fill:#FFFFFF;" d="M3.124,431.055c-5.492-1-7.784-3.843-9.828-6.379
							c-2.054-2.546-3.997-4.951-8.936-5.374l0.085-0.998c5.37,0.468,7.535,3.146,9.63,5.744c2.225,2.758,4.519,5.604,10.854,6.25
							c2.867,0.29,6.262-1.568,9.855-3.535c4.136-2.264,8.412-4.603,12.6-4.125c3.658,0.417,7.075,3.458,10.361,6.396
							c3.147,2.814,6.41,5.723,9.759,6.174c3.713,0.497,7.829-1.521,11.811-3.472c3.96-1.941,7.7-3.774,10.997-3.199
							c0.032,0.006,0.063,0.012,0.095,0.018c6.224,1.134,10.467,6.375,13.57,10.208c1.676,2.07,3.123,3.858,4.372,4.424
							l-0.413,0.913c-1.465-0.663-2.909-2.448-4.737-4.706c-3.171-3.917-7.113-8.786-12.97-9.853c-0.03-0.006-0.06-0.011-0.09-0.016
							c-2.977-0.52-6.575,1.243-10.384,3.111c-4.116,2.017-8.373,4.104-12.386,3.565c-3.654-0.459-7.033-3.505-10.293-6.419
							c-3.17-2.834-6.458-5.783-9.808-6.147c-3.872-0.443-8.006,1.82-12.005,4.008c-3.734,2.044-7.261,3.973-10.437,3.652
							C4.228,431.232,3.661,431.152,3.124,431.055z"/>
					</g>
					<g style="opacity:0.91;clip-path:url(#SVGID_00000108287328159331223080000004820448862479296670_);">
						<path style="fill:#FFFFFF;" d="M0.979,442.833c-5.492-1-7.784-3.844-9.829-6.379c-2.053-2.546-3.994-4.958-8.936-5.375
							l0.085-0.998c5.371,0.467,7.535,3.147,9.63,5.745c2.224,2.758,4.518,5.607,10.854,6.25c2.868,0.289,6.262-1.569,9.855-3.536
							c4.136-2.263,8.412-4.604,12.599-4.125c3.704,0.424,7.077,3.459,10.361,6.396c3.147,2.813,6.41,5.721,9.759,6.175
							c3.713,0.497,7.83-1.52,11.811-3.472c3.96-1.941,7.7-3.775,10.997-3.198c0.032,0.006,0.064,0.012,0.096,0.017
							c6.224,1.134,10.467,6.375,13.569,10.208c1.676,2.07,3.123,3.858,4.372,4.424l-0.413,0.912
							c-1.465-0.663-2.909-2.448-4.737-4.706c-3.17-3.917-7.112-8.786-12.968-9.853c-0.031-0.006-0.062-0.011-0.091-0.017
							c-2.977-0.52-6.575,1.243-10.385,3.111c-4.116,2.017-8.372,4.104-12.385,3.565c-3.653-0.466-7.033-3.504-10.293-6.42
							c-3.168-2.832-6.451-5.769-9.807-6.147c-3.872-0.442-8.006,1.82-12.005,4.009c-3.733,2.043-7.26,3.973-10.436,3.652
							C2.083,443.01,1.515,442.931,0.979,442.833z"/>
					</g>
					<g style="clip-path:url(#SVGID_00000108287328159331223080000004820448862479296670_);">
						<path style="opacity:0.91;fill:#FFFFFF;" d="M-1.166,454.612c-5.492-1-7.784-3.844-9.829-6.379
							c-2.053-2.547-3.994-4.955-8.936-5.375l0.085-0.998c5.371,0.465,7.535,3.147,9.63,5.745c2.224,2.758,4.519,5.605,10.854,6.25
							c2.868,0.289,6.262-1.569,9.855-3.536c4.136-2.263,8.412-4.603,12.599-4.125c3.703,0.429,7.077,3.459,10.361,6.396
							c3.147,2.813,6.411,5.718,9.759,6.175c3.713,0.497,7.83-1.52,11.811-3.473c3.96-1.941,7.7-3.775,10.997-3.198
							c0.032,0.006,0.065,0.012,0.096,0.018c6.224,1.134,10.467,6.374,13.569,10.208c1.676,2.07,3.124,3.857,4.372,4.422
							l-0.413,0.913c-1.465-0.663-2.909-2.447-4.737-4.705c-3.17-3.917-7.112-8.785-12.968-9.852
							c-0.031-0.006-0.062-0.011-0.091-0.017c-2.977-0.521-6.575,1.243-10.385,3.111c-4.116,2.017-8.372,4.104-12.384,3.565
							c-3.654-0.458-7.034-3.505-10.294-6.42c-3.168-2.832-6.45-5.774-9.807-6.147c-3.872-0.442-8.006,1.82-12.005,4.009
							c-3.733,2.043-7.26,3.973-10.436,3.652C-0.063,454.789-0.63,454.71-1.166,454.612z"/>
					</g>
					<g style="opacity:0.91;clip-path:url(#SVGID_00000108287328159331223080000004820448862479296670_);">
						<path style="opacity:0.91;fill:#FFFFFF;" d="M-3.31,466.391c-5.492-1-7.785-3.845-9.83-6.38
							c-2.054-2.546-3.997-4.953-8.936-5.375l0.085-0.998c5.371,0.467,7.536,3.146,9.63,5.744c2.225,2.758,4.521,5.609,10.853,6.251
							c2.867,0.289,6.261-1.568,9.854-3.535c4.136-2.263,8.412-4.603,12.6-4.125c3.657,0.425,7.075,3.457,10.361,6.396
							c3.145,2.813,6.374,5.699,9.759,6.174c3.712,0.498,7.83-1.52,11.812-3.472c3.959-1.941,7.699-3.774,10.996-3.198
							c0.032,0.006,0.063,0.011,0.095,0.017c6.224,1.133,10.467,6.375,13.57,10.208c1.676,2.07,3.123,3.858,4.372,4.424
							l-0.413,0.913c-1.465-0.663-2.909-2.448-4.737-4.706c-3.171-3.917-7.113-8.786-12.97-9.853
							c-0.03-0.006-0.06-0.011-0.089-0.016c-2.977-0.52-6.575,1.243-10.384,3.111c-4.116,2.018-8.372,4.104-12.385,3.565
							c-3.653-0.464-7.034-3.504-10.294-6.419c-3.168-2.833-6.428-5.775-9.806-6.147c-3.872-0.443-8.007,1.82-12.006,4.008
							c-3.733,2.043-7.26,3.973-10.436,3.652C-2.208,466.568-2.774,466.489-3.31,466.391z"/>
					</g>
					<g style="opacity:0.91;clip-path:url(#SVGID_00000108287328159331223080000004820448862479296670_);">
						<path style="opacity:0.91;fill:#FFFFFF;" d="M-5.457,478.169c-5.492-1-7.784-3.843-9.829-6.379
							c-2.054-2.545-3.997-4.952-8.936-5.374l0.086-0.998c5.371,0.464,7.535,3.146,9.63,5.744c2.224,2.758,4.518,5.606,10.853,6.25
							c2.868,0.29,6.262-1.568,9.855-3.535c4.136-2.264,8.412-4.603,12.599-4.125c3.676,0.417,7.077,3.458,10.361,6.396
							c3.148,2.814,6.412,5.712,9.759,6.174c3.712,0.497,7.829-1.52,11.811-3.472c3.96-1.941,7.7-3.774,10.997-3.198
							c0.032,0.006,0.063,0.012,0.095,0.017c6.224,1.133,10.467,6.375,13.57,10.208c1.676,2.07,3.123,3.858,4.372,4.423
							l-0.413,0.913c-1.465-0.663-2.909-2.448-4.737-4.706c-3.171-3.917-7.113-8.786-12.97-9.853
							c-0.03-0.005-0.059-0.011-0.089-0.016c-2.977-0.52-6.575,1.243-10.384,3.111c-4.116,2.017-8.373,4.104-12.386,3.565
							c-3.654-0.456-7.033-3.505-10.293-6.419c-3.168-2.834-6.43-5.769-9.808-6.147c-3.872-0.443-8.006,1.82-12.005,4.008
							c-3.734,2.044-7.261,3.974-10.437,3.652C-4.353,478.346-4.921,478.267-5.457,478.169z"/>
					</g>
					<g style="opacity:0.91;clip-path:url(#SVGID_00000108287328159331223080000004820448862479296670_);">
						<path style="opacity:0.91;fill:#FFFFFF;" d="M-7.602,489.948c-5.492-1-7.784-3.843-9.829-6.379
							c-2.053-2.546-3.993-4.96-8.936-5.375l0.085-0.998c5.37,0.468,7.535,3.147,9.63,5.745c2.224,2.758,4.519,5.603,10.854,6.25
							c2.868,0.289,6.262-1.568,9.855-3.536c4.136-2.263,8.412-4.603,12.599-4.125c3.704,0.425,7.076,3.459,10.361,6.396
							c3.146,2.814,6.412,5.71,9.759,6.175c3.713,0.497,7.83-1.52,11.811-3.472c3.96-1.941,7.699-3.775,10.997-3.198
							c6.321,1.121,10.547,6.373,13.665,10.225c1.676,2.07,3.123,3.858,4.372,4.423l-0.413,0.913
							c-1.465-0.663-2.909-2.448-4.737-4.706c-3.17-3.917-7.112-8.786-12.968-9.853c-0.031-0.005-0.062-0.011-0.091-0.017
							c-2.977-0.52-6.575,1.243-10.385,3.111c-4.116,2.017-8.372,4.104-12.385,3.565c-3.653-0.462-7.034-3.504-10.294-6.42
							c-3.168-2.832-6.45-5.777-9.807-6.147c-3.872-0.442-8.006,1.82-12.005,4.008c-3.733,2.043-7.26,3.973-10.436,3.652
							C-6.499,490.125-7.066,490.045-7.602,489.948z"/>
					</g>
					<g style="opacity:0.91;clip-path:url(#SVGID_00000108287328159331223080000004820448862479296670_);">
						<path style="opacity:0.91;fill:#FFFFFF;" d="M23.415,498.411c-2.828-2.478-5.746-4.736-8.904-5.103
							c-4.187-0.478-8.463,1.862-12.599,4.125c-3.594,1.967-6.988,3.824-9.855,3.536c-6.335-0.644-8.63-3.492-10.854-6.25
							c-2.094-2.597-4.259-5.279-9.63-5.745l-0.085,0.998c4.942,0.418,6.882,2.829,8.936,5.375c2.045,2.536,4.337,5.379,9.829,6.379
							c0.536,0.098,1.103,0.177,1.703,0.238c3.176,0.321,6.703-1.609,10.436-3.652c3.999-2.188,8.134-4.45,12.005-4.008
							c2.826,0.316,5.599,2.45,8.296,4.807C22.911,498.86,23.152,498.626,23.415,498.411z"/>
						<path style="opacity:0.91;fill:#FFFFFF;" d="M71.104,509.434c-3.118-3.853-7.34-9.13-13.665-10.225
							c-3.298-0.577-7.037,1.257-10.997,3.198c-1.567,0.768-3.154,1.544-4.73,2.175c0.146,0.302,0.263,0.616,0.354,0.938
							c1.612-0.645,3.225-1.434,4.817-2.214c3.809-1.868,7.408-3.632,10.385-3.111l0.091,0.017
							c5.856,1.066,9.798,5.936,12.968,9.852c1.827,2.259,3.272,4.042,4.737,4.706l0.413-0.913
							C74.227,513.291,72.78,511.504,71.104,509.434z"/>
					</g>
					<path style="opacity:0.44;clip-path:url(#SVGID_00000108287328159331223080000004820448862479296670_);fill:#FFFFFF;" d="
						M41.23,417.311c1.143,2.013,2.138,4.102,3.077,6.223c0.452,1.066,0.891,2.14,1.318,3.222c0.397,1.09,0.78,2.186,1.15,3.289
						c0.359,1.106,0.794,2.198,1.187,3.306c0.38,1.11,0.6,2.256,0.645,3.427c0.058,2.345-0.171,4.733-1.311,7.146l-0.498,0.052
						c-1.61-2.113-2.445-4.237-3.13-6.382c-0.332-1.073-0.516-2.165-0.569-3.289c-0.051-1.124-0.088-2.257-0.229-3.371
						c-0.141-1.114-0.297-2.228-0.467-3.342c-0.152-1.119-0.318-2.238-0.498-3.357c-0.337-2.246-0.751-4.486-1.146-6.756
						L41.23,417.311z"/>
					<path style="opacity:0.44;clip-path:url(#SVGID_00000108287328159331223080000004820448862479296670_);fill:#FFFFFF;" d="
						M56.176,450.101c2.179-0.321,4.372-0.487,6.576-0.6c1.1-0.036,2.203-0.066,3.308-0.072c1.103,0.012,2.205,0.049,3.31,0.092
						c1.103,0.056,2.222,0.028,3.339,0.053c1.116,0.027,2.207,0.224,3.26,0.586c0.529,0.19,1.037,0.387,1.569,0.627
						c0.536,0.244,1.102,0.531,1.648,0.9c0.548,0.359,1.076,0.837,1.517,1.378c0.423,0.564,0.753,1.225,0.784,1.915l-0.408,0.29
						c-1.183-0.373-2.047-0.268-3.015-0.229c-0.928,0.053-2.01,0.103-3.088,0.024c-1.067-0.06-2.099-0.273-3.115-0.61
						c-1.013-0.351-2.03-0.71-3.066-0.972c-1.036-0.26-2.076-0.516-3.121-0.749c-1.042-0.263-2.091-0.505-3.143-0.741
						c-2.104-0.493-4.228-0.923-6.37-1.392L56.176,450.101z"/>
					<path style="opacity:0.44;clip-path:url(#SVGID_00000108287328159331223080000004820448862479296670_);fill:#FFFFFF;" d="
						M55.534,477.786c0.817,1.974,1.446,4.021,1.985,6.103c0.25,1.044,0.48,2.096,0.688,3.156c0.176,1.063,0.33,2.131,0.464,3.206
						c0.119,1.075,0.31,2.155,0.449,3.245c0.123,1.089,0.075,2.18-0.156,3.249c-0.495,2.132-1.314,4.234-3.042,6.063l-0.493-0.087
						c-1.001-2.287-1.29-4.337-1.454-6.372c-0.074-1.014-0.005-2.01,0.192-3.011c0.197-1,0.405-2.009,0.5-3.025
						c0.093-1.015,0.166-2.035,0.218-3.059c0.069-1.025,0.118-2.055,0.146-3.09c0.079-2.073,0.051-4.158,0.012-6.277L55.534,477.786
						z"/>
				</g>
			</g>
		</g>
		<g>
			<path style="fill:none;stroke:#463774;stroke-width:1.1004;stroke-miterlimit:10;" d="M24.871,573.608
				c0.845,3.256,1.583,7.073-0.527,9.693c-2.746,3.409-8.602,2.596-11.528,5.853c-2.1,2.339-1.909,5.867-2.778,8.888
				c-1.707,5.933-8.378,9.956-14.422,8.697"/>
			<g>
				<g>
					<defs>
						<path id="SVGID_00000049904614045749685020000009252929295148640697_" d="M18.3,509.246
							c-13.729,2.372-22.509,17.897-19.61,34.677c2.46,14.239,12.539,24.8,23.923,26.225c-0.023,0.182-0.043,0.369-0.05,0.578
							c0,0-4.518,10.339-1.722,10.15c2.797-0.189,4.443-5.518,4.443-5.518s1.258,6.738,3.148,5.005
							c1.346-1.234-0.46-6.936-1.612-10.117c0.658-0.05,1.317-0.122,1.977-0.236c13.729-2.372,22.509-17.897,19.61-34.677
							C45.509,518.554,32.029,506.874,18.3,509.246z"/>
					</defs>
					<clipPath id="SVGID_00000150064813797243498160000005566040762486533272_">
						<use xlink:href="#SVGID_00000049904614045749685020000009252929295148640697_"  style="overflow:visible;"/>
					</clipPath>
					<path style="clip-path:url(#SVGID_00000150064813797243498160000005566040762486533272_);fill:#FFC03A;" d="M18.3,509.246
						c-13.729,2.372-22.509,17.897-19.61,34.677c2.46,14.239,12.539,24.8,23.923,26.225c-0.023,0.182-0.043,0.369-0.05,0.578
						c0,0-4.518,10.339-1.722,10.15c2.797-0.189,4.443-5.518,4.443-5.518s1.258,6.738,3.148,5.005
						c1.346-1.234-0.46-6.936-1.612-10.117c0.658-0.05,1.317-0.122,1.977-0.236c13.729-2.372,22.509-17.897,19.61-34.677
						C45.509,518.554,32.029,506.874,18.3,509.246z"/>
					<path style="opacity:0.15;clip-path:url(#SVGID_00000150064813797243498160000005566040762486533272_);fill:#007649;" d="
						M42.976,560.933c-0.66,0.504-1.358,0.973-2.109,1.386c-5.787,3.183-13.139,2.848-18.796-0.422
						C11.4,555.729,7.986,541.342,8.699,529.893c0.459-7.374,2.947-14.769,7.566-20.181C3.719,513.196-4.062,527.99-1.309,543.923
						c2.46,14.239,12.539,24.8,23.923,26.225c-0.023,0.182-0.043,0.369-0.05,0.578c0,0-4.518,10.339-1.722,10.15
						c2.797-0.189,4.443-5.518,4.443-5.518s1.258,6.738,3.148,5.005c1.346-1.234-0.46-6.936-1.612-10.117
						c0.658-0.05,1.317-0.122,1.977-0.236C34.566,569.015,39.455,565.691,42.976,560.933z"/>
					<path style="opacity:0.44;clip-path:url(#SVGID_00000150064813797243498160000005566040762486533272_);fill:#FFFFFF;" d="
						M27.395,511.18c1.991,1.687,3.853,3.512,5.67,5.393c0.892,0.953,1.773,1.919,2.644,2.899c0.842,1,1.673,2.011,2.492,3.035
						c0.808,1.031,1.693,2.018,2.539,3.038c0.832,1.028,1.511,2.155,2.012,3.377c0.971,2.459,1.655,5.075,1.384,8.072l-0.507,0.248
						c-2.523-1.612-4.231-3.536-5.787-5.54c-0.767-1.007-1.386-2.092-1.878-3.26c-0.49-1.169-0.968-2.355-1.55-3.479
						c-0.582-1.124-1.178-2.243-1.79-3.356c-0.594-1.125-1.204-2.246-1.829-3.36c-1.228-2.246-2.535-4.457-3.833-6.706
						L27.395,511.18z"/>
					<g style="opacity:0.47;clip-path:url(#SVGID_00000150064813797243498160000005566040762486533272_);">
						<path style="fill:#FFFFFF;" d="M15.39,509.583c-3.723-2.183-4.633-4.856-5.446-7.239c-0.816-2.394-1.589-4.656-5.063-6.273
							l0.327-0.702c3.776,1.763,4.637,4.283,5.47,6.725c0.884,2.593,1.796,5.272,6.223,7.417c2.005,0.97,4.963,0.521,8.093,0.046
							c3.603-0.546,7.329-1.112,10.243,0.346c2.546,1.274,4.22,4.387,5.827,7.392c1.538,2.877,3.113,5.836,5.449,7.071
							c2.563,1.346,6.089,0.973,9.498,0.611c3.39-0.36,6.592-0.699,8.833,0.593c0.021,0.013,0.043,0.025,0.064,0.038
							c4.219,2.474,5.91,7.405,7.146,11.011c0.668,1.948,1.245,3.63,2.002,4.372l-0.542,0.553c-0.888-0.87-1.463-2.549-2.192-4.673
							c-1.264-3.685-2.835-8.267-6.805-10.594c-0.02-0.012-0.04-0.024-0.061-0.035c-2.024-1.168-5.104-0.841-8.365-0.495
							c-3.524,0.374-7.168,0.76-9.939-0.696c-2.529-1.307-4.178-4.41-5.773-7.391c-1.549-2.898-3.14-5.892-5.491-7.064
							c-2.694-1.348-6.297-0.802-9.781-0.273c-3.252,0.494-6.325,0.96-8.546-0.115C16.144,510.004,15.753,509.796,15.39,509.583z"/>
					</g>
					<g style="opacity:0.47;clip-path:url(#SVGID_00000150064813797243498160000005566040762486533272_);">
						<path style="fill:#FFFFFF;" d="M10.708,517.566c-3.722-2.183-4.633-4.855-5.445-7.239c-0.816-2.393-1.589-4.656-5.064-6.272
							l0.327-0.702c3.776,1.764,4.637,4.283,5.47,6.725c0.884,2.593,1.795,5.267,6.224,7.417c2.005,0.971,4.963,0.522,8.093,0.047
							c3.604-0.547,7.329-1.112,10.243,0.346c2.546,1.273,4.221,4.388,5.827,7.392c1.539,2.878,3.137,5.855,5.449,7.071
							c2.564,1.346,6.089,0.973,9.498,0.611c3.39-0.359,6.592-0.698,8.834,0.594c0.022,0.013,0.043,0.025,0.065,0.038
							c4.219,2.474,5.91,7.405,7.147,11.011c0.668,1.948,1.245,3.63,2.002,4.372l-0.542,0.553c-0.888-0.87-1.463-2.549-2.192-4.673
							c-1.264-3.685-2.835-8.266-6.805-10.594c-0.02-0.012-0.04-0.024-0.061-0.035c-2.024-1.167-5.104-0.841-8.365-0.495
							c-3.524,0.373-7.168,0.76-9.939-0.696c-2.532-1.302-4.178-4.411-5.772-7.391c-1.55-2.898-3.156-5.912-5.492-7.065
							c-2.694-1.348-6.296-0.801-9.78-0.273c-3.253,0.494-6.326,0.96-8.547-0.116C11.462,517.987,11.071,517.779,10.708,517.566z"/>
					</g>
					<g style="opacity:0.47;clip-path:url(#SVGID_00000150064813797243498160000005566040762486533272_);">
						<path style="fill:#FFFFFF;" d="M6.026,525.55c-3.722-2.183-4.633-4.855-5.446-7.239c-0.816-2.393-1.585-4.659-5.063-6.273
							l0.327-0.702c3.776,1.764,4.637,4.284,5.469,6.725c0.884,2.593,1.794,5.27,6.224,7.417c2.006,0.97,4.963,0.521,8.094,0.046
							c3.603-0.546,7.329-1.112,10.243,0.346c2.577,1.29,4.221,4.388,5.827,7.392c1.539,2.877,3.138,5.854,5.449,7.072
							c2.564,1.346,6.089,0.972,9.498,0.611c3.39-0.359,6.592-0.699,8.834,0.594c0.022,0.013,0.044,0.026,0.065,0.038
							c4.219,2.474,5.91,7.405,7.146,11.011c0.668,1.948,1.245,3.63,2.002,4.371l-0.542,0.553c-0.888-0.87-1.463-2.549-2.192-4.673
							c-1.263-3.685-2.834-8.266-6.804-10.594c-0.021-0.012-0.042-0.024-0.062-0.036c-2.024-1.167-5.104-0.841-8.366-0.495
							c-3.523,0.373-7.167,0.76-9.938-0.696c-2.529-1.307-4.178-4.41-5.772-7.392c-1.549-2.896-3.155-5.9-5.491-7.064
							c-2.694-1.347-6.296-0.801-9.781-0.273c-3.253,0.494-6.326,0.96-8.547-0.115C6.781,525.971,6.39,525.763,6.026,525.55z"/>
					</g>
					<g style="opacity:0.47;clip-path:url(#SVGID_00000150064813797243498160000005566040762486533272_);">
						<path style="fill:#FFFFFF;" d="M1.345,533.534c-3.723-2.183-4.633-4.855-5.446-7.239c-0.816-2.394-1.586-4.657-5.063-6.273
							l0.327-0.702c3.777,1.762,4.637,4.284,5.469,6.725c0.884,2.593,1.795,5.268,6.224,7.417c2.006,0.97,4.963,0.522,8.094,0.046
							c3.603-0.546,7.329-1.112,10.243,0.346c2.575,1.293,4.221,4.389,5.827,7.392c1.539,2.877,3.139,5.852,5.449,7.072
							c2.564,1.346,6.088,0.972,9.497,0.611c3.39-0.359,6.592-0.7,8.834,0.594c0.021,0.013,0.044,0.025,0.065,0.038
							c4.219,2.474,5.91,7.404,7.146,11.011c0.668,1.948,1.245,3.629,2.002,4.371l-0.542,0.553c-0.888-0.87-1.464-2.548-2.192-4.673
							c-1.264-3.685-2.835-8.266-6.804-10.593c-0.021-0.012-0.042-0.024-0.062-0.036c-2.024-1.167-5.104-0.841-8.366-0.495
							c-3.524,0.373-7.167,0.76-9.938-0.696c-2.532-1.302-4.178-4.41-5.772-7.392c-1.549-2.897-3.153-5.903-5.491-7.064
							c-2.694-1.348-6.297-0.802-9.781-0.273c-3.253,0.493-6.326,0.96-8.547-0.115C2.099,533.956,1.708,533.747,1.345,533.534z"/>
					</g>
					<g style="opacity:0.47;clip-path:url(#SVGID_00000150064813797243498160000005566040762486533272_);">
						<path style="fill:#FFFFFF;" d="M-3.336,541.519c-3.723-2.183-4.633-4.856-5.446-7.239c-0.816-2.394-1.589-4.656-5.063-6.273
							l0.327-0.702c3.776,1.764,4.637,4.283,5.47,6.725c0.884,2.593,1.796,5.272,6.223,7.417c2.005,0.97,4.963,0.521,8.094,0.046
							c3.603-0.546,7.329-1.112,10.243,0.346c2.543,1.278,4.221,4.386,5.827,7.392c1.538,2.877,3.117,5.829,5.449,7.071
							c2.564,1.346,6.089,0.973,9.498,0.611c3.389-0.36,6.592-0.699,8.833,0.593c0.021,0.013,0.043,0.025,0.065,0.038
							c4.219,2.474,5.91,7.405,7.147,11.011c0.668,1.948,1.245,3.63,2.002,4.372l-0.542,0.553c-0.888-0.87-1.463-2.549-2.192-4.673
							c-1.264-3.685-2.835-8.266-6.805-10.594c-0.02-0.012-0.04-0.024-0.061-0.035c-2.023-1.167-5.104-0.841-8.365-0.495
							c-3.524,0.374-7.168,0.76-9.939-0.696c-2.53-1.305-4.178-4.41-5.773-7.391c-1.549-2.897-3.136-5.898-5.491-7.064
							c-2.694-1.348-6.297-0.802-9.781-0.273c-3.252,0.494-6.325,0.96-8.546-0.115C-2.582,541.94-2.973,541.732-3.336,541.519z"/>
					</g>
					<g style="opacity:0.47;clip-path:url(#SVGID_00000150064813797243498160000005566040762486533272_);">
						<path style="fill:#FFFFFF;" d="M-8.018,549.502c-3.723-2.183-4.633-4.855-5.445-7.239c-0.816-2.393-1.59-4.656-5.064-6.272
							l0.327-0.702c3.777,1.762,4.637,4.283,5.47,6.725c0.884,2.593,1.794,5.269,6.224,7.417c2.005,0.971,4.963,0.521,8.093,0.047
							c3.604-0.547,7.329-1.112,10.243,0.346c2.559,1.278,4.222,4.388,5.827,7.392c1.539,2.878,3.141,5.848,5.449,7.071
							c2.564,1.346,6.089,0.972,9.497,0.611c3.39-0.359,6.592-0.698,8.834,0.594c0.022,0.013,0.043,0.025,0.065,0.038
							c4.219,2.474,5.91,7.405,7.147,11.011c0.668,1.948,1.245,3.63,2.001,4.372l-0.542,0.553c-0.888-0.87-1.463-2.549-2.192-4.673
							c-1.264-3.685-2.835-8.266-6.805-10.594c-0.02-0.012-0.04-0.024-0.061-0.036c-2.024-1.167-5.104-0.841-8.365-0.495
							c-3.524,0.373-7.168,0.76-9.939-0.696c-2.533-1.3-4.178-4.41-5.772-7.391c-1.549-2.898-3.139-5.894-5.492-7.064
							c-2.694-1.348-6.296-0.801-9.78-0.273c-3.253,0.494-6.326,0.96-8.547-0.116C-7.263,549.923-7.654,549.715-8.018,549.502z"/>
					</g>
					<g style="opacity:0.47;clip-path:url(#SVGID_00000150064813797243498160000005566040762486533272_);">
						<path style="fill:#FFFFFF;" d="M-12.699,557.486c-3.722-2.183-4.633-4.855-5.446-7.239c-0.816-2.393-1.584-4.66-5.063-6.273
							l0.327-0.702c3.776,1.764,4.637,4.284,5.469,6.725c0.884,2.593,1.796,5.267,6.224,7.417c2.006,0.97,4.963,0.521,8.094,0.046
							c3.603-0.546,7.329-1.112,10.243,0.346c2.577,1.291,4.221,4.389,5.827,7.392c1.539,2.878,3.142,5.847,5.449,7.072
							c2.564,1.346,6.089,0.972,9.497,0.61c3.39-0.359,6.592-0.699,8.834,0.594c4.293,2.49,5.968,7.424,7.211,11.049
							c0.668,1.948,1.245,3.63,2.002,4.372l-0.542,0.553c-0.888-0.87-1.463-2.549-2.192-4.673
							c-1.263-3.685-2.834-8.266-6.804-10.594c-0.021-0.012-0.042-0.024-0.062-0.036c-2.024-1.167-5.105-0.841-8.366-0.495
							c-3.524,0.373-7.167,0.76-9.938-0.696c-2.53-1.305-4.178-4.41-5.772-7.392c-1.549-2.896-3.151-5.905-5.491-7.064
							c-2.694-1.348-6.297-0.801-9.781-0.273c-3.253,0.493-6.326,0.96-8.547-0.116C-11.945,557.907-12.336,557.699-12.699,557.486z"
							/>
					</g>
				</g>
			</g>
		</g>
		<g>
			<g>
				<path style="fill:#C52A7A;" d="M272.606,554.712c0.082,0.002,0.166,0.007,0.247,0.014c0.424,0.041,0.883,0.208,1.33,0.482
					c0.626,0.38,1.128,0.903,1.496,1.315c0.023,0.014,0.046,0.03,0.064,0.047c0.102,0.085,0.166,0.212,0.175,0.348
					c0.012,0.133-0.029,0.259-0.115,0.356c-1.825,2.115-4.116,4.037-6.809,5.712c-1.305,0.812-2.733,1.589-4.363,2.374
					c2.106-0.521,4.312-1.295,6.55-2.316c2.64-1.228,4.82-2.547,6.663-4.034c0.065-0.054,0.169-0.084,0.277-0.081
					c0.039,0.001,0.072,0.007,0.098,0.013c0.129,0.026,0.246,0.107,0.322,0.222c0.069,0.109,0.092,0.245,0.066,0.374
					c-0.015,0.067-0.035,0.114-0.063,0.154c-0.014,0.076-0.05,0.152-0.103,0.217c-1.031,1.224-2.251,2.352-3.628,3.353
					c-1.194,0.87-2.573,1.674-4.212,2.459c-2.582,1.237-5.335,2.142-7.934,2.963c1.163-0.24,2.042-0.423,2.844-0.608
					c2.479-0.575,4.929-1.31,7.281-2.185c2.37-0.881,4.751-1.944,7.079-3.16l0.204-0.11l0.465-0.246
					c0.104-0.057,0.194-0.095,0.301-0.092l0.116,0.026l0.065-0.008c0.052,0.001,0.085,0.008,0.119,0.017
					c0.13,0.038,0.219,0.11,0.308,0.243c0.792,1.221,1.213,2.738,1.251,4.509c0.019,0.75-0.053,1.549-0.224,2.444
					c-0.147,0.767-0.383,1.532-0.702,2.273c-0.447,1.038-1.094,2.024-1.978,3.016c-0.65,0.73-1.438,1.421-2.409,2.113
					c-1.671,1.188-3.687,2.127-6.163,2.868c-2.18,0.654-4.608,1.086-7.422,1.324c-1.783,0.15-3.659,0.203-5.575,0.155
					c-0.755-0.019-1.53-0.053-2.305-0.103c-2.519-0.156-5.105-0.482-7.687-0.968c-1.961-0.37-3.83-0.827-5.553-1.358
					c-1.415-0.433-2.671-0.899-3.838-1.426c-0.077,0.418-0.189,0.775-0.338,1.087c-0.201,0.429-0.44,0.739-0.729,0.951
					c-0.317,0.231-0.683,0.343-1.09,0.333l-0.085-0.004c-0.537-0.038-1.035-0.329-1.364-0.545c-0.326-0.214-0.586-0.52-0.795-0.932
					c-0.179-0.351-0.309-0.766-0.407-1.307c-0.084-0.464-0.123-0.978-0.117-1.569c0.006-0.521,0.06-1.042,0.161-1.55
					c0.238-1.185,0.654-2.029,1.274-2.581c0.324-0.288,0.751-0.476,1.171-0.515c0.095-0.008,0.189-0.011,0.282-0.009
					c0.132,0.003,0.262,0.017,0.392,0.043c0.215,0.047,0.377,0.101,0.525,0.174c0.224,0.112,0.402,0.262,0.56,0.407
					c0.221,0.201,0.381,0.474,0.495,0.69c0.473-0.151,0.956-0.296,1.437-0.44l0.577-0.174c1.872-0.559,3.994-1.193,5.983-1.953
					c2.67-1.016,5.425-2.261,8.188-3.701l0.09-0.033c3.44-1.823,6.804-3.895,10.011-6.165c0.717-0.508,1.532-1.082,2.264-1.678
					c0.375-0.304,0.737-0.621,1.099-0.939c0.267-0.234,0.516-0.45,0.766-0.662c0.653-0.554,1.22-0.947,1.786-1.237
					c0.267-0.138,0.565-0.247,0.89-0.32C272.101,554.728,272.342,554.706,272.606,554.712"/>
				<path style="fill:#96137B;" d="M282.711,567.07c0.02,0.75-0.053,1.549-0.223,2.442c-0.143,0.767-0.382,1.533-0.704,2.28
					c-0.449,1.039-1.096,2.027-1.979,3.021c-0.653,0.728-1.44,1.42-2.41,2.113c-1.682,1.195-3.698,2.132-6.167,2.866
					c-2.163,0.653-4.593,1.088-7.426,1.331c-1.799,0.149-3.674,0.202-5.577,0.156c-0.762-0.019-1.539-0.053-2.305-0.103
					c-2.504-0.156-5.089-0.483-7.688-0.967c-1.969-0.375-3.839-0.834-5.555-1.366c-1.43-0.436-2.685-0.902-3.84-1.425
					c-0.058,0.399-0.164,0.756-0.32,1.083c-0.197,0.426-0.437,0.738-0.732,0.956c-0.317,0.234-0.687,0.347-1.097,0.337l-0.087-0.002
					c-0.534-0.039-1.037-0.333-1.37-0.551c-0.326-0.212-0.589-0.519-0.798-0.937c-0.18-0.354-0.31-0.767-0.412-1.305
					c-0.028-0.159-0.051-0.323-0.07-0.493c0.327,0.434,0.718,0.82,1.19,1.095c0.145,0.082,0.301,0.16,0.464,0.207
					c0.152,0.048,0.309,0.085,0.47,0.089c0.155,0.006,0.306-0.005,0.458-0.045c0.138-0.035,0.268-0.091,0.389-0.164
					c0.313-0.186,0.565-0.473,0.744-0.787c0.119-0.214,0.227-0.436,0.309-0.668c0.076-0.216,0.139-0.437,0.196-0.659
					c1.038,0.52,2.122,0.949,3.23,1.291c1.066,0.33,2.15,0.596,3.243,0.81c1.155,0.224,2.318,0.401,3.485,0.545
					c1.159,0.143,2.318,0.258,3.481,0.336c2.021,0.131,4.047,0.166,6.071,0.094c2.034-0.072,4.068-0.242,6.084-0.536
					c0.78-0.113,1.562-0.242,2.333-0.414c0.677-0.152,1.352-0.324,2.015-0.527c1.39-0.419,2.749-0.944,4.052-1.588
					c1.288-0.636,2.53-1.378,3.673-2.25c1.12-0.854,2.158-1.823,3.043-2.92c0.871-1.083,1.606-2.283,2.117-3.579
					c0.256-0.651,0.466-1.325,0.614-2.009c0.112-0.523,0.191-1.051,0.237-1.583C282.391,564.332,282.681,565.616,282.711,567.07"/>
				<path style="fill:#96137B;" d="M276.74,570.694c0.179,0.071,0.326,0.212,0.401,0.39c0.072,0.173,0.073,0.369,0.004,0.543
					c-0.03,0.056-0.062,0.111-0.091,0.164c-0.079,0.105-0.18,0.184-0.301,0.237c-0.432,0.245-0.89,0.445-1.346,0.64
					c-0.492,0.215-0.992,0.417-1.491,0.616c-0.909,0.36-1.835,0.676-2.772,0.959c-1.919,0.58-3.88,1.011-5.859,1.334
					c-1.958,0.321-3.931,0.525-5.909,0.683c-0.983,0.078-1.966,0.132-2.951,0.179c-0.996,0.05-1.994,0.099-2.993,0.12
					c-2.296,0.05-4.596-0.035-6.882-0.267c-2.329-0.239-4.639-0.663-6.913-1.216c-0.119-0.028-0.211-0.118-0.195-0.25
					c0.012-0.112,0.13-0.226,0.249-0.195c3.254,0.789,6.616,1.04,9.959,1.023c-0.038-0.001-0.074,0.001-0.112,0
					c1.742-0.016,3.478-0.123,5.21-0.274c1.643-0.141,3.281-0.309,4.918-0.509c3.276-0.4,6.547-0.969,9.736-1.826
					c1.087-0.302,2.166-0.636,3.229-1.013c0.573-0.2,1.139-0.418,1.704-0.639c0.617-0.24,1.228-0.502,1.863-0.696
					c0.109-0.032,0.212-0.054,0.316-0.052C276.587,570.649,276.661,570.663,276.74,570.694"/>
				<path style="fill:#96137B;" d="M278.324,566.831c0.14,0.017,0.268,0.088,0.357,0.2c0.086,0.112,0.126,0.256,0.11,0.396
					c-0.016,0.129-0.089,0.283-0.203,0.357c-0.301,0.2-0.601,0.391-0.912,0.574c-0.331,0.193-0.669,0.369-1.013,0.539
					c-0.707,0.349-1.436,0.66-2.175,0.938c-0.736,0.275-1.484,0.517-2.236,0.735c-0.807,0.238-1.62,0.444-2.44,0.62
					c-0.781,0.169-1.566,0.336-2.357,0.462c-0.811,0.133-1.628,0.253-2.446,0.358c-1.537,0.194-3.085,0.311-4.632,0.38
					c-0.163,0.006-0.314-0.084-0.338-0.258c-0.022-0.151,0.092-0.329,0.255-0.338c1.512-0.082,3.02-0.247,4.517-0.469
					c0.816-0.12,1.628-0.266,2.435-0.432c0.82-0.168,1.638-0.355,2.446-0.57c-0.036,0.009-0.072,0.018-0.11,0.028
					c1.494-0.409,2.972-0.865,4.406-1.447c0.703-0.286,1.399-0.595,2.078-0.933c0.622-0.308,1.219-0.659,1.819-1.003
					c0.014-0.009,0.028-0.017,0.042-0.026c0.113-0.07,0.216-0.117,0.344-0.114C278.289,566.828,278.306,566.829,278.324,566.831"/>
				<path style="fill:#96137B;" d="M271.811,557.705c-0.078-0.063-0.176-0.098-0.275-0.101c-0.016,0-0.033,0-0.049,0.001
					c-0.122,0.012-0.218,0.071-0.3,0.158c-0.469,0.503-0.963,0.985-1.466,1.455c-1.519,1.398-3.16,2.659-4.877,3.803
					c-1.792,1.193-3.649,2.286-5.555,3.282c0.003-0.002,0.006-0.003,0.009-0.004c-0.973,0.503-1.963,0.977-2.959,1.428
					c-0.967,0.438-1.941,0.857-2.927,1.251c-1.854,0.745-3.735,1.427-5.639,2.025c-0.087,0.026-0.128,0.13-0.097,0.21
					c0.031,0.087,0.124,0.122,0.209,0.097c2.294-0.718,4.567-1.506,6.8-2.404c0.798-0.322,1.594-0.649,2.383-0.992
					c0.799-0.347,1.588-0.715,2.375-1.088c0.781-0.371,1.558-0.749,2.322-1.151c0.77-0.407,1.54-0.818,2.287-1.261
					c1.457-0.867,2.885-1.798,4.226-2.835c0.644-0.502,1.277-1.019,1.882-1.568c0.592-0.536,1.161-1.099,1.706-1.684
					C272.035,558.151,271.989,557.852,271.811,557.705 M269.727,559.214l0.005-0.004L269.727,559.214z"/>
			</g>
			<path style="fill:#341A4F;" d="M141.39,510.692c0.129-0.061,0.229-0.075,0.345-0.052c0.038,0.007,0.07,0.018,0.096,0.031
				c0.029-0.034,0.075-0.067,0.128-0.092c0.003-0.001,0.007-0.003,0.009-0.004c0.306-0.009,0.612-0.015,0.918-0.022
				c3.644,0.171,7.465,0.651,11.649,1.465c3.865,0.749,7.944,1.772,12.473,3.122c3.692,1.103,7.55,2.389,12.146,4.046
				c3.923,1.416,7.935,2.931,11.927,4.5c9.326,3.666,17.525,7.349,25.07,11.261c3.759,1.951,7.128,3.828,10.299,5.74
				c3.586,2.169,6.761,4.311,9.712,6.548c-0.323,0.817-0.679,1.622-1.079,2.402c0.005-0.014,0.014-0.026,0.018-0.039
				c-0.122,0.236-0.246,0.467-0.377,0.696c-1.469,1.61-3.124,3.169-5.016,4.721c-2.507,2.056-5.34,4.011-8.42,5.807
				c-1.66,0.971-3.383,1.881-5.122,2.708c-1.346,0.641-2.733,1.244-4.114,1.794c-2.417,0.964-4.816,1.747-7.129,2.333
				c-0.036,0.037-0.081,0.067-0.129,0.09c-0.063,0.03-0.131,0.045-0.2,0.049l-0.18,0.007l-0.105,0.005
				c-0.495,0.117-0.992,0.23-1.49,0.331c-0.555,0.115-1.114,0.216-1.676,0.306c-0.283,0.047-0.533-0.111-0.592-0.373
				c-0.014-0.058-0.015-0.125-0.005-0.187c-3.581,0.042-7.236-0.068-10.855-0.318c-4.522-0.31-9.374-0.855-14.841-1.668
				c-9.918-1.482-19.849-3.418-29.514-5.751c-10.046-2.429-19.826-5.311-29.07-8.568c-3.971-1.399-7.929-2.902-11.797-4.483
				c-0.281-0.506-0.531-1.031-0.75-1.571c-0.138-0.355-0.267-0.714-0.368-1.081c-0.043-0.157-0.081-0.314-0.12-0.471
				c4.074-5.261,8.691-10.37,13.736-15.207c2.764-2.65,5.671-5.208,8.641-7.603c2.988-2.41,6.036-4.63,9.059-6.597
				c1.042-0.676,2.095-1.329,3.132-1.944c0.523-0.311,1.05-0.616,1.583-0.914c0.557-0.311,1.143-0.598,1.71-0.873l0.275-0.134
				L141.39,510.692z"/>
			<path style="fill:#020202;" d="M103.717,545.515c-0.003-0.007-0.007-0.014-0.007-0.022
				C103.713,545.5,103.713,545.508,103.717,545.515"/>
			<path style="fill:#4B3776;" d="M103.725,545.528c-0.141-0.356-0.27-0.715-0.371-1.083c-0.046-0.162-0.087-0.325-0.124-0.491
				c4.073-5.263,8.688-10.369,13.73-15.196c2.759-2.648,5.666-5.205,8.641-7.603c2.983-2.41,6.03-4.63,9.062-6.604
				c1.026-0.663,2.078-1.316,3.129-1.943c0.524-0.311,1.05-0.616,1.585-0.915c0.552-0.305,1.14-0.593,1.71-0.873l0.275-0.134
				l0.02-0.01c0.071-0.034,0.136-0.053,0.201-0.058c0.05-0.016,0.093-0.025,0.135-0.025l0.209-0.011l0.005-0.002l0.008-0.004
				c0.385-0.012,0.772-0.02,1.158-0.026c3.583,0.18,7.337,0.657,11.441,1.455c3.849,0.745,7.929,1.768,12.474,3.122
				c3.672,1.098,7.533,2.383,12.148,4.045c3.852,1.393,7.866,2.907,11.926,4.5c9.339,3.677,17.542,7.361,25.072,11.263
				c3.775,1.961,7.144,3.84,10.3,5.745c3.587,2.165,6.766,4.305,9.71,6.543c-0.324,0.82-0.681,1.628-1.084,2.415
				c0.005-0.014,0.014-0.026,0.018-0.04c-0.131,0.252-0.268,0.503-0.41,0.751c-0.026,0.029-0.052,0.058-0.079,0.088
				c-4.202-2.681-8.413-5.349-12.682-7.915c-2.15-1.292-4.314-2.559-6.499-3.789c-2.158-1.212-4.334-2.389-6.542-3.506
				c-4.346-2.198-8.791-4.192-13.294-6.044c-4.505-1.856-9.062-3.574-13.643-5.23c-2.119-0.764-4.241-1.522-6.363-2.27
				c-2.123-0.749-4.247-1.485-6.383-2.191c-4.35-1.435-8.741-2.765-13.207-3.804c-3.395-0.787-6.838-1.413-10.309-1.746
				c-1.21-0.09-2.421-0.149-3.633-0.149c-0.387,0.221-0.774,0.443-1.157,0.675c-1.83,1.102-3.601,2.303-5.322,3.568
				c-1.682,1.232-3.331,2.513-4.952,3.829c-3.208,2.607-6.303,5.35-9.321,8.178c-5.816,5.454-11.342,11.208-16.905,16.915
				C104.149,546.497,103.923,546.017,103.725,545.528z"/>
			<path style="fill:#221A35;" d="M135.552,573.496c2.957-1.153,6.257-1.964,10.084-2.481c3.298-0.442,6.761-0.597,10.301-0.459
				c3.213,0.126,6.437,0.531,9.588,1.202c3.273,0.698,6.583,1.711,9.838,3.016c3.169,1.273,6.246,2.836,9.149,4.653
				c2.702,1.692,5.257,3.621,7.59,5.731c2.356,2.133,4.513,4.508,6.413,7.06c0.07,0.093,0.094,0.215,0.07,0.342
				c-0.03,0.145-0.116,0.273-0.23,0.341l-0.06,0.035c0.042,0.192-0.014,0.388-0.139,0.516c-0.228,0.084-0.456,0.169-0.683,0.257
				c-5.919,1.66-12.274,2.659-18.896,2.97c-6.863,0.324-13.707-0.128-20.348-1.341c-6.874-1.259-13.241-3.322-18.919-6.138
				c-2.312-1.141-4.49-2.408-6.476-3.764c-1.282-0.874-2.358-1.723-3.292-2.594c-1.107-1.035-1.979-2.113-2.597-3.21
				c-0.124-0.223-0.082-0.486,0.101-0.641c-0.005-0.125,0.042-0.251,0.132-0.351c0.157-0.17,0.314-0.338,0.479-0.501
				c0.115-0.114,0.24-0.219,0.367-0.324l0.087-0.073c0.318-0.268,0.65-0.527,0.983-0.775c0.594-0.444,1.244-0.874,1.988-1.322
				c0.701-0.415,1.444-0.811,2.212-1.177C134.007,574.129,134.748,573.811,135.552,573.496"/>
			<path style="fill:#341A4F;" d="M135.093,581.096c2.566,1.536,5.252,2.87,8.023,3.995c2.805,1.14,5.693,2.083,8.626,2.842
				c6.008,1.552,12.201,2.36,18.4,2.557c6.175,0.195,12.368-0.186,18.473-1.116c2.195-0.335,4.377-0.737,6.546-1.209
				c1.194,1.289,2.319,2.639,3.36,4.043c0.071,0.096,0.097,0.223,0.07,0.354c-0.03,0.149-0.118,0.281-0.235,0.349l-0.057,0.033
				c0.046,0.177-0.006,0.367-0.119,0.498c-0.283,0.104-0.565,0.21-0.846,0.319c-5.888,1.637-12.192,2.62-18.764,2.927
				c-6.864,0.325-13.71-0.127-20.348-1.34c-6.876-1.259-13.242-3.324-18.924-6.138c-2.32-1.145-4.5-2.415-6.475-3.767
				c-1.279-0.867-2.358-1.717-3.294-2.593c-1.111-1.041-1.986-2.121-2.602-3.214c-0.125-0.228-0.081-0.497,0.105-0.656
				c-0.01-0.117,0.038-0.247,0.131-0.348c0.157-0.174,0.315-0.342,0.48-0.505c0.104-0.106,0.223-0.202,0.338-0.298l0.117-0.098
				c0.319-0.267,0.649-0.529,0.982-0.777c0.015-0.01,0.027-0.021,0.039-0.03C131.007,578.454,133.008,579.847,135.093,581.096"/>
			<path style="fill:#4B3776;" d="M140.914,533.651c1.522-0.603,3.161-1.115,5.008-1.564c1.652-0.402,3.428-0.737,5.282-0.995
				c3.21-0.443,6.606-0.65,10.379-0.639c1.793,0.007,3.407,0.058,4.928,0.158c1.697,0.116,3.451,0.314,5.215,0.592
				c3.441,0.542,6.91,1.412,10.304,2.589c3.368,1.171,6.607,2.651,9.624,4.401c2.414,1.401,4.762,3.038,6.984,4.871
				c2.601,2.138,4.628,4.304,6.194,6.618c0.106,0.074,0.176,0.187,0.199,0.318c0.581,3.57,0.767,7.437,0.567,11.827
				c-0.159,3.499-0.568,7.265-1.292,11.848c-0.467,2.946-1.064,6.419-1.97,9.848c-0.425,1.616-0.928,3.199-1.498,4.706
				c-0.293,0.772-0.62,1.556-0.976,2.338c-0.397,0.863-0.833,1.715-1.21,2.447c-0.03,0.056-0.053,0.095-0.08,0.128
				c-0.037,0.065-0.086,0.122-0.147,0.166c-0.023,0.016-0.048,0.031-0.073,0.043c-0.212,0.101-0.473,0.033-0.617-0.164
				c-0.461-0.619-0.96-1.228-1.487-1.813c-2.045-2.241-4.576-4.308-7.965-6.507l0.071,0.031c-4.616-2.964-9.679-5.345-15.013-7.043
				l0.129,0.029c-5.574-1.748-11.426-2.765-17.396-3.01l0.129-0.008c-6.176-0.231-12.418,0.352-18.56,1.747
				c-3.447,0.793-6.878,1.853-10.196,3.149c-0.164,0.065-0.352,0.026-0.485-0.082l-0.076-0.159c-0.056-0.123-0.11-0.245-0.161-0.367
				c-0.067-0.211-0.131-0.424-0.188-0.639c-0.014-0.062-0.026-0.122-0.039-0.184c-0.325-3.239-0.35-6.732-0.066-10.638
				c0.258-3.615,0.784-7.452,1.609-11.734c0.498-2.596,1.102-5.302,1.842-8.277c0.314-1.27,0.685-2.742,1.106-4.17
				c0.458-1.553,0.969-3.047,1.409-4.3c0.012-0.099,0.05-0.185,0.114-0.246c1.119-1.131,2.416-2.16,3.847-3.055
				c0.79-0.494,1.657-0.966,2.58-1.405C139.577,534.205,140.24,533.918,140.914,533.651"/>
			<path style="fill:#341A4F;" d="M198.081,542.592c0.003-0.001,0.014,0.002,0.016,0.006l0.419,0.337l0.135,0.111
				c2.601,2.138,4.631,4.304,6.206,6.623c0.105,0.076,0.176,0.194,0.199,0.33c0.583,3.554,0.767,7.424,0.565,11.83
				c-0.157,3.521-0.567,7.286-1.292,11.849c-0.456,2.914-1.046,6.364-1.966,9.856c-0.422,1.609-0.926,3.193-1.498,4.707
				c-0.271,0.714-0.598,1.501-0.974,2.338c-0.387,0.836-0.79,1.627-1.204,2.43c-0.045,0.079-0.069,0.119-0.096,0.151
				c-0.031,0.06-0.082,0.121-0.148,0.173c-0.023,0.018-0.047,0.033-0.075,0.047c-0.221,0.105-0.496,0.032-0.655-0.174
				c-0.461-0.617-0.959-1.226-1.479-1.81c-2.045-2.24-4.575-4.306-7.964-6.506l0.09-0.014c-3.216-2.015-6.617-3.77-10.111-5.203
				c1.824-1.209,3.51-2.439,5.008-3.665c0.972-0.797,1.821-1.544,2.596-2.285c0.832-0.803,1.606-1.61,2.302-2.399
				c1.481-1.687,2.792-3.464,3.897-5.284c1.101-1.817,2.047-3.705,2.811-5.61c0.785-1.962,1.423-3.989,1.897-6.024
				c0.471-2.013,0.818-4.099,1.029-6.2c0.183-1.827,0.279-3.711,0.285-5.599L198.081,542.592z"/>
			<polyline style="fill:#FEFFFE;" points="194.827,586.079 194.831,586.083 194.826,586.078 194.827,586.079 			"/>
			<path style="fill:#FEFFFE;" d="M127.194,577.158c0.012-0.005,0.022-0.013,0.034-0.022
				C127.215,577.144,127.205,577.152,127.194,577.158"/>
			<path style="fill:#D8BE6C;" d="M135.348,573.624l-0.001-0.002L135.348,573.624z"/>
			<path style="fill:#D8BE6C;" d="M164.993,547.817c-0.001,0-0.002,0-0.004,0c-0.006-0.001-0.01-0.002-0.015-0.003
				c-0.001,0-0.002-0.001-0.003-0.001C164.98,547.814,164.986,547.814,164.993,547.817"/>
			<polyline style="fill:#D8BE6C;" points="135.345,573.609 135.345,573.607 135.345,573.609 			"/>
			<polyline style="fill:#D8BE6C;" points="135.348,573.624 135.348,573.628 135.348,573.623 135.348,573.624 			"/>
			<path style="fill:#C52A7A;" d="M174.319,517.475c5.223-4.669,14.056-9.064,21.366-5.989c7.563,3.182,11.201,11.466,12.921,17.855
				c1.092,4.056,1.661,8.266,2.211,12.336c0.417,3.088,0.849,6.281,1.505,9.36c1.818,8.536,5.273,14.639,10.272,18.141
				c5.128,3.593,11.593,4.345,18.897,4.901l-0.127,1.671c-7.556-0.574-14.256-1.362-19.732-5.199
				c-5.357-3.753-9.04-10.201-10.95-19.165c-0.669-3.141-1.105-6.366-1.526-9.485c-0.543-4.018-1.104-8.173-2.167-12.125
				c-1.624-6.028-5.015-13.825-11.953-16.745c-6.357-2.675-14.047,0.953-18.919,5.067L174.319,517.475z"/>
		</g>
		<g>
			<path style="fill:#4B3776;" d="M104.763,535.899c0.785-17.62,8.095-47.736,12.774-57.525c3.672-7.682,11.595-19.593,9.92-26.555
				l-8.765-3.902c-6.294,3.415-9.843,17.273-13.095,25.142c-4.143,10.028-21.63,35.614-34.198,47.988
				c-11.611,11.432-32.292,61.692-35.375,69.282c-0.154,0.201-0.288,0.414-0.39,0.645c-1.874,4.208,5.808,11.716,17.158,16.768
				c11.349,5.052,22.069,5.737,23.942,1.529c0.103-0.23,0.172-0.472,0.218-0.721C80.529,601.179,104.038,552.177,104.763,535.899z"
				/>
			<path style="fill:#C52A7A;" d="M107.498,516.564c2.643-15.234,7.003-31.432,10.204-38.117
				c3.677-7.679,11.659-19.564,9.877-26.574l-9.001-4.007c-6.402,3.367-9.892,17.252-13.137,25.123
				c-2.786,6.757-11.692,20.54-21.099,32.581l-7.584,9.264c0,0,5.267,26.442,29.072,12.153L107.498,516.564z"/>
			<path style="fill:#7D2A7A;" d="M121.196,471.354c3.612-6.775,7.482-14.465,6.262-19.536l-8.765-3.902
				c-4.549,2.468-7.662,10.389-10.267,17.564C110.935,468.944,116.714,470.757,121.196,471.354z"/>
			<path style="fill:#C52A7A;" d="M81.987,597.935c-6.916,0.681-14.113-1.143-20.437-3.86c-7.823-3.359-15.467-8.401-20.727-15.232
				c0.226-0.523,0.452-1.066,0.69-1.613c0.121-0.277,0.246-0.563,0.363-0.852c4.662-10.818,11.318-25.578,17.72-37.446
				c0.145-0.265,0.29-0.531,0.435-0.796c0.809-1.493,1.617-2.946,2.417-4.324c5.794,4.82,12.021,9.141,18.883,12.311
				c6.335,2.931,13.02,4.645,19.852,5.247c-0.418,1.273-0.86,2.573-1.322,3.914c-0.109,0.294-0.215,0.599-0.32,0.904
				c-4.637,13.044-11.42,28.427-16.421,39.302c-0.141,0.297-0.27,0.59-0.407,0.88C82.463,596.901,82.225,597.428,81.987,597.935z"/>
			<path style="fill:#FCD949;" d="M96.251,534.178c-2.188,4.916-7.948,7.128-12.865,4.939c-4.916-2.189-7.128-7.948-4.939-12.865
				c2.188-4.916,7.949-7.128,12.865-4.939C96.229,523.502,98.44,529.262,96.251,534.178z"/>
			<g>
				<path style="fill:#FFFFFF;" d="M83.656,538.512c-4.575-2.037-6.64-7.416-4.604-11.991c2.037-4.575,7.416-6.64,11.991-4.604
					c4.575,2.037,6.64,7.416,4.603,11.991C93.61,538.484,88.231,540.549,83.656,538.512z M90.682,522.729
					c-4.128-1.838-8.981,0.026-10.818,4.153c-1.837,4.127,0.026,8.981,4.153,10.818c4.128,1.838,8.981-0.026,10.818-4.153
					C96.672,529.42,94.81,524.567,90.682,522.729z"/>
			</g>
			<path style="fill:#FCD949;" d="M108.204,462.072c0,0,4.446-19.748,15.215-13.768c0,0,12.237,2.682,0.94,20.96
				C124.36,469.264,117.727,469.077,108.204,462.072z"/>
			<g>
				<path style="fill:#FFFFFF;" d="M99.541,556.188c-6.977,0.411-13.864-1.475-19.954-4.183c-9.435-4.208-16.96-10.386-19.99-13.073
					c0.145-0.265,0.29-0.531,0.435-0.796c4.713,4.2,22.029,18.396,39.83,17.147C99.752,555.578,99.646,555.883,99.541,556.188z"/>
			</g>
			<g>
				<path style="fill:#FFFFFF;" d="M82.713,596.37c-6.604-0.227-13.096-2.182-18.933-4.78c-10.924-4.866-19.548-11.981-22.267-14.36
					c0.121-0.277,0.246-0.563,0.363-0.852c3.667,3.24,22.127,18.655,41.243,19.112C82.979,595.787,82.85,596.081,82.713,596.37z"/>
			</g>
			<path style="opacity:0.24;fill:#007649;" d="M60.44,601.548c-13.126-14.249-6.505-37.33,0.164-53.008
				c7.606-17.881,20.315-33.24,29.559-50.262c-6.104,8.518-12.958,17.053-18.763,22.769c-11.611,11.431-32.292,61.692-35.375,69.282
				c-0.154,0.201-0.288,0.414-0.39,0.645c-1.873,4.208,5.808,11.716,17.158,16.768c9.46,4.211,18.477,5.385,22.304,3.223
				C69.651,609.665,64.502,605.956,60.44,601.548z"/>
			<path style="opacity:0.59;fill:#FFFFFF;" d="M114.827,474.263l-6.471,25.772c-1.012,4.294-2.074,8.575-2.843,12.87l-0.548,3.206
				c-0.132,1.075-0.269,2.077-0.388,3.208c-0.229,2.249-0.516,4.473-0.866,6.682c-0.735,4.414-1.61,8.791-2.624,13.137
				c-1.075,4.33-2.211,8.648-3.598,12.892c-1.34,4.257-2.936,8.44-4.732,12.531c-1.851,4.059-3.883,8.085-6.602,11.623
				c2.042-3.949,3.6-8.076,4.976-12.257c0.366-1.036,0.695-2.086,1.013-3.14c0.321-1.053,0.66-2.096,0.941-3.162l0.9-3.174
				l0.84-3.191c1.051-4.273,2.109-8.543,2.978-12.857c0.901-4.304,1.736-8.625,2.4-12.959c0.37-2.161,0.676-4.329,0.923-6.485
				c0.126-1.07,0.298-2.262,0.453-3.383c0.211-1.111,0.395-2.232,0.643-3.331c0.985-4.39,2.132-8.696,3.469-12.944
				C108.317,490.799,111.325,482.437,114.827,474.263z"/>
		</g>
	</g>
</g>
<g>
	<defs>
		<rect id="SVGID_00000176735535429015512410000011573901920433018035_" x="584.154" y="370.599" width="266.24" height="233.18"/>
	</defs>
	<clipPath id="SVGID_00000178910206748175951010000013576172887074469788_">
		<use xlink:href="#SVGID_00000176735535429015512410000011573901920433018035_"  style="overflow:visible;"/>
	</clipPath>
	<g style="clip-path:url(#SVGID_00000178910206748175951010000013576172887074469788_);">
		<g>
			<path style="fill:#4B3776;" d="M862.188,584.785c-1.564,8.278-31.547,9.565-66.969,2.875
				c-35.422-6.69-62.871-18.825-61.307-27.103c1.563-8.278,31.547-9.565,66.969-2.875
				C836.303,564.373,863.751,576.507,862.188,584.785z"/>
			<path style="fill:#4B3776;" d="M858.104,505.675l-87.693-15.841l-2.693-1.231l-11.887,70.679l0.065,0.013
				c-0.001,0.005-0.005,0.01-0.006,0.016c-0.727,3.85,18.068,10.633,41.98,15.149c23.912,4.516,43.886,5.056,44.613,1.206
				c0.001-0.005-0.001-0.012,0-0.017l0.202,0.038L858.104,505.675z"/>
			<path style="fill:#2F2263;" d="M858.403,504.434c-0.727,3.85-21.556,3.149-46.522-1.566
				c-24.966-4.716-44.616-11.659-43.889-15.509c0.727-3.851,21.556-3.149,46.522,1.566
				C839.48,493.64,859.13,500.583,858.403,504.434z"/>
			<path style="fill:#C52A7A;" d="M756.868,553.378l1.77-11.624c0,0,38.927,23.699,87.873,14.866l-2.318,14.115
				C844.193,570.735,784.042,579.456,756.868,553.378z"/>
			<path style="opacity:0.34;fill:#FFFFFF;" d="M777.162,550.147c-1.494-0.54-2.916-1.081-4.249-1.612
				c-1.441,0.733-2.888,1.451-4.352,2.134c-3.104,1.448-6.628,2.641-9.342,4.805c1.386,1.158,2.844,2.236,4.359,3.244
				C768.266,556.194,772.724,553.173,777.162,550.147z"/>
			<path style="opacity:0.34;fill:#FFFFFF;" d="M799.685,556.275c-2.348-0.438-4.63-0.918-6.819-1.438
				c-5.498,3.33-10.767,7.028-16.174,10.465c1.916,0.718,3.872,1.361,5.851,1.944C788.396,563.85,794.056,560.081,799.685,556.275z"
				/>
			<path style="opacity:0.34;fill:#FFFFFF;" d="M846.064,559.344l0.411-2.502c-7.634,4.915-15.088,10.097-22.551,15.266
				c1.017-0.014,1.998-0.038,2.96-0.066C833.351,567.924,839.713,563.643,846.064,559.344z"/>
			<path style="opacity:0.34;fill:#FFFFFF;" d="M821.483,558.544c-0.823-0.018-1.646-0.037-2.458-0.07
				c-6.374,4.038-12.605,8.277-18.914,12.369c0.959,0.124,1.913,0.233,2.865,0.336C809.21,567.064,815.343,562.798,821.483,558.544z
				"/>
			<polygon style="fill:#FFFFFF;" points="775.731,501.419 778.734,504.942 783.339,504.466 780.916,508.411 782.792,512.643 
				778.292,511.558 774.846,514.65 774.487,510.034 770.482,507.713 774.761,505.945 			"/>
			<polygon style="fill:#FFFFFF;" points="778.773,532.753 776.07,536.512 777.634,540.869 773.224,539.46 769.563,542.294 
				769.541,537.664 765.714,535.058 770.11,533.606 771.406,529.161 774.146,532.894 			"/>
			<polygon style="fill:#FFFFFF;" points="831.454,511.223 829.794,515.545 832.413,519.363 827.79,519.119 824.968,522.79 
				823.771,518.318 819.408,516.768 823.292,514.248 823.417,509.62 827.014,512.534 			"/>
			<polygon style="fill:#FFFFFF;" points="818.975,546.276 814.851,548.379 814.246,552.969 810.971,549.697 806.419,550.539 
				808.519,546.414 806.311,542.344 810.883,543.067 814.071,539.709 814.797,544.282 			"/>
			<polygon style="fill:#FFFFFF;" points="800.609,519.849 799.55,524.356 802.662,527.783 798.049,528.169 795.751,532.188 
				793.958,527.92 789.426,526.976 792.932,523.953 792.428,519.35 796.387,521.75 			"/>
			<polygon style="fill:#FFFFFF;" points="845.343,541.498 840.816,540.529 837.451,543.708 836.974,539.104 832.909,536.886 
				837.141,535.009 837.995,530.459 841.087,533.904 845.679,533.309 843.358,537.315 			"/>
		</g>
		<g>
			<path style="fill:#4B3776;" d="M722.375,520.029c-13.058-12.569-31.323-38.657-35.697-48.913
				c-3.432-8.048-7.24-22.247-13.747-25.683l-8.961,4.111c-1.64,7.174,6.639,19.321,10.501,27.172
				c4.921,10.005,12.782,40.866,13.793,58.962c0.934,16.718,25.658,66.797,29.419,74.329c0.05,0.256,0.124,0.504,0.232,0.739
				c1.974,4.303,12.98,3.475,24.584-1.848c11.603-5.323,19.41-13.127,17.436-17.429c-0.108-0.236-0.248-0.453-0.409-0.658
				C756.272,583.047,734.438,531.641,722.375,520.029z"/>
			<path style="fill:#FCD949;" d="M709.318,504.791c-9.956-12.383-19.489-26.745-22.472-33.752
				c-3.426-8.051-7.173-22.277-13.79-25.663l-9.202,4.222c-1.749,7.224,6.59,19.344,10.458,27.192
				c3.32,6.737,7.904,22.966,10.804,38.397l1.996,12.14c0,0,23.971,13.892,29.114-14.172L709.318,504.791z"/>
			<path style="fill:#FEB847;" d="M683.748,463.528c-2.773-7.386-6.078-15.593-10.816-18.095l-8.961,4.111
				c-1.185,5.185,2.811,12.964,6.576,19.845C674.921,469.805,680.244,466.578,683.748,463.528z"/>
			<path style="fill:#FCD949;" d="M754.759,579.719c-4.17,5.797-10.464,10.109-16.854,13.143
				c-7.902,3.753-16.982,6.226-25.823,5.645c-0.25-0.529-0.515-1.073-0.775-1.628c-0.132-0.282-0.267-0.572-0.411-0.859
				c-5.179-10.942-12.044-26.097-16.851-39.094c-0.106-0.292-0.213-0.584-0.319-0.876c-0.602-1.637-1.174-3.248-1.694-4.8
				c7.651-1.197,15.213-3.065,22.317-6.206c6.563-2.896,12.424-6.889,17.527-11.749c0.698,1.187,1.401,2.411,2.121,3.677
				c0.152,0.284,0.316,0.572,0.48,0.861c6.912,12.434,14.172,28.111,19.165,39.352c0.133,0.31,0.272,0.609,0.402,0.911
				C754.285,578.65,754.53,579.192,754.759,579.719z"/>
			<path style="fill:#C52A7A;" d="M716.698,524.769c2.669,5.816,0.116,12.695-5.7,15.363c-5.817,2.669-12.695,0.116-15.363-5.7
				c-2.669-5.816-0.116-12.695,5.7-15.363C707.151,516.401,714.03,518.953,716.698,524.769z"/>
			<g>
				<path style="fill:#FFFFFF;" d="M710.058,538.084c-4.678,2.146-10.229,0.086-12.375-4.591
					c-2.146-4.678-0.086-10.229,4.591-12.375c4.678-2.146,10.229-0.086,12.375,4.591
					C716.795,530.386,714.736,535.938,710.058,538.084z M702.656,521.948c-4.22,1.936-6.078,6.945-4.142,11.164
					c1.936,4.22,6.944,6.078,11.164,4.142c4.22-1.936,6.078-6.945,4.142-11.164C711.884,521.87,706.876,520.011,702.656,521.948z"/>
			</g>
			<path style="fill:#4B3776;" d="M667.767,467.245c0,0-12.213-16.838-0.288-21.085c0,0,10.378-7.617,16.805,13.507
				C684.284,459.668,679.636,464.656,667.767,467.245z"/>
			<g>
				<path style="fill:#FFFFFF;" d="M734.478,537.833c-4.421,5.661-10.552,9.692-16.775,12.551
					c-9.652,4.42-19.527,6.029-23.657,6.542c-0.106-0.292-0.213-0.584-0.319-0.876c6.44-0.783,29.147-4.501,40.271-19.078
					C734.15,537.256,734.314,537.545,734.478,537.833z"/>
			</g>
			<g>
				<path style="fill:#FFFFFF;" d="M754.045,578.097c-4.659,4.94-10.575,8.62-16.542,11.358
					c-11.171,5.122-22.515,6.943-26.195,7.424c-0.132-0.282-0.267-0.572-0.411-0.859c4.988-0.628,29.414-4.4,42.747-18.835
					C753.776,577.496,753.915,577.795,754.045,578.097z"/>
			</g>
			<path style="opacity:0.24;fill:#007649;" d="M742.916,598.792c-19.904,0.45-33.21-20.33-40.775-36.12
				c-8.628-18.008-11.845-38.239-18.697-56.928c2.425,10.492,4.355,21.574,4.822,29.933c0.934,16.718,25.658,66.797,29.419,74.329
				c0.05,0.256,0.124,0.504,0.232,0.739c1.974,4.303,12.98,3.475,24.584-1.848c9.672-4.437,16.7-10.595,17.63-15.015
				C755.431,597.199,749.074,598.653,742.916,598.792z"/>
			<path style="opacity:0.59;fill:#FFFFFF;" d="M681.667,470.415l15.485,22.49c2.625,3.696,5.206,7.422,7.996,10.932l2.101,2.6
				c0.74,0.832,1.419,1.618,2.211,2.478c1.579,1.703,3.1,3.435,4.567,5.205c2.906,3.565,5.688,7.211,8.351,10.943
				c2.61,3.77,5.169,7.577,7.501,11.529c2.374,3.924,4.517,7.995,6.452,12.159c1.873,4.184,3.6,8.485,4.482,12.984
				c-1.659-4.257-3.785-8.261-6.075-12.161c-0.55-0.986-1.137-1.953-1.734-2.914c-0.594-0.962-1.168-1.933-1.8-2.873l-1.836-2.85
				l-1.891-2.815c-2.582-3.712-5.157-7.428-7.895-11.027c-2.709-3.617-5.474-7.195-8.366-10.651
				c-1.416-1.753-2.88-3.461-4.375-5.115c-0.74-0.824-1.543-1.766-2.302-2.646c-0.714-0.917-1.453-1.821-2.132-2.758
				c-2.717-3.741-5.26-7.549-7.628-11.465C690.001,486.664,685.594,478.666,681.667,470.415z"/>
		</g>
		<g>
			<path style="fill:#4B3776;" d="M767.092,449.978c0,0-12.256-17.68-41.834-19.366c0,0-5.088,1.997-14.242-6.93
				c-9.153-8.927,2.397,17.117,11.437,17.004C731.494,440.572,761.891,442.934,767.092,449.978z"/>
			<path style="fill:#4B3776;" d="M778.224,448.876c0,0,5.834-20.707,33.252-31.928c0,0,5.461,0.232,11.211-11.188
				c5.749-11.42,3.305,16.966-5.28,19.801C808.822,428.396,780.85,440.524,778.224,448.876z"/>
			<path style="fill:#C52A7A;" d="M831.938,455.614c12.516-12.663,7.758-31.379,7.758-31.379l-9.223,8.047
				c10.802-13.189,3.281-24.126,3.281-24.126c-4.604,16.217-13.833,14.509-13.833,14.509c-21.705,2.727-32.383,12.665-37.592,20.95
				c-7.315,5.88-16.237,4.321-20.488,3.066c-7.375-6.48-20.982-13.371-43.62-8.627c0,0-8.17,4.619-17.802-9.217
				c0,0-3.551,12.789,10.955,21.744l-11.34-4.607c0,0,1.594,19.245,17.549,27.145l-15.956-7.9c0,0,22.974,38.06,60.011,18.984
				l0.34-0.104c0.185-0.13,0.367-0.245,0.552-0.37c0.224-0.12,0.446-0.232,0.671-0.357c0,0,1.313-0.621,3.004-1.873
				c7.669-4.094,14.393-4.291,19.07-3.533c3.574,1.831,6.867,2.19,6.867,2.19c42.716,7.488,52.311-37.207,52.311-37.207
				L831.938,455.614z M723.034,452.05c25.574-12.858,40.729,15.541,40.729,15.541C744.081,493.979,723.034,452.05,723.034,452.05z
				 M783.404,464.305c0,0,5.086-31.785,33.453-27.952C816.857,436.353,810.604,482.849,783.404,464.305z"/>
			<path style="opacity:0.39;fill:#FFFFFF;" d="M700.7,437.248c11.688,5.482,25.456,1.925,38.176,2.764
				c7.805,0.515,15.063,2.735,21.966,6.356c4.33,2.271,9.655,6.565,14.808,6.324c6.888-0.323,12.989-8.409,17.808-12.616
				c5.368-4.687,11.255-8.791,17.901-11.456c7.056-2.829,15.526-3.427,21.331-8.788c1.495-1.381,2.594-2.967,3.456-4.675
				c-0.549-4.313-2.393-7-2.393-7c-4.604,16.217-13.833,14.509-13.833,14.509c-21.705,2.727-32.383,12.665-37.592,20.95
				c-7.315,5.88-16.237,4.321-20.488,3.066c-7.375-6.48-20.982-13.371-43.62-8.627c0,0-8.17,4.619-17.802-9.217
				c0,0-0.992,3.579,0.219,8.275C700.658,437.159,700.68,437.203,700.7,437.248z"/>
			<path style="opacity:0.34;fill:#007649;" d="M810.411,474.425c-10.301,1.551-20.645-0.197-30.907,1.79
				c-10.057,1.948-19.74,4.982-30.069,5.149c-8.5,0.137-17.051-1.338-25.018-4.324c-5.282-1.98-10.228-4.628-14.742-7.836
				l-8.048-3.985c0,0,22.974,38.06,60.011,18.984l0.34-0.104c0.185-0.13,0.367-0.245,0.552-0.37c0.224-0.12,0.446-0.232,0.671-0.357
				c0,0,1.313-0.621,3.004-1.873c7.669-4.094,14.393-4.291,19.07-3.533c3.574,1.831,6.867,2.19,6.867,2.19
				c22.527,3.949,35.84-6.616,43.395-17.484C828.322,468.919,819.963,472.987,810.411,474.425z"/>
			<path style="fill:#4B3776;" d="M774.899,452.683c0.308,1.84-0.934,3.582-2.775,3.89c-1.84,0.308-3.582-0.934-3.89-2.775
				c-0.308-1.84,0.934-3.582,2.775-3.89C772.85,449.601,774.592,450.843,774.899,452.683z"/>
			<path style="fill:#FFFFFF;" d="M776.634,463.05c0.308,1.84-0.934,3.582-2.775,3.89c-1.84,0.308-3.582-0.935-3.89-2.775
				c-0.308-1.84,0.935-3.582,2.775-3.89C774.585,459.967,776.326,461.21,776.634,463.05z"/>
			<path style="fill:#4B3776;" d="M778.121,471.936c0.308,1.84-0.935,3.582-2.775,3.89c-1.841,0.308-3.582-0.934-3.89-2.775
				c-0.308-1.841,0.934-3.582,2.775-3.89C776.071,468.853,777.813,470.096,778.121,471.936z"/>
			<polygon style="fill:#FFFFFF;" points="822.017,424.659 824.468,428.062 828.661,427.972 826.182,431.355 827.563,435.315 
				823.58,434.003 820.24,436.54 820.258,432.346 816.812,429.954 820.807,428.675 			"/>
			<polygon style="fill:#FFFFFF;" points="716.451,440.027 718.903,443.431 723.096,443.341 720.617,446.724 721.998,450.684 
				718.015,449.371 714.675,451.909 714.692,447.715 711.247,445.323 715.241,444.043 			"/>
			<polygon style="fill:#FFFFFF;" points="825.442,445.332 826.942,447.415 829.509,447.36 827.991,449.431 828.837,451.855 
				826.399,451.052 824.354,452.605 824.365,450.038 822.256,448.573 824.701,447.79 			"/>
			<polygon style="fill:#FFFFFF;" points="783.844,444.49 785.345,446.573 787.912,446.518 786.394,448.589 787.24,451.013 
				784.801,450.209 782.757,451.763 782.768,449.195 780.659,447.731 783.104,446.948 			"/>
			<polygon style="fill:#FFFFFF;" points="800.436,430.203 801.936,432.286 804.503,432.231 802.985,434.302 803.831,436.726 
				801.392,435.923 799.348,437.476 799.359,434.909 797.25,433.444 799.695,432.661 			"/>
			<polygon style="fill:#FFFFFF;" points="727.022,473.696 728.523,475.779 731.089,475.724 729.572,477.794 730.417,480.219 
				727.979,479.415 725.935,480.969 725.945,478.401 723.836,476.937 726.281,476.154 			"/>
			<polygon style="fill:#FFFFFF;" points="738.192,438.144 739.692,440.227 742.259,440.172 740.741,442.242 741.587,444.667 
				739.148,443.863 737.104,445.417 737.115,442.849 735.006,441.385 737.451,440.602 			"/>
			<polygon style="fill:#FFFFFF;" points="789.538,469.419 791.038,471.502 793.605,471.447 792.087,473.518 792.933,475.942 
				790.495,475.138 788.45,476.692 788.461,474.125 786.352,472.66 788.797,471.877 			"/>
			<polygon style="fill:#FFFFFF;" points="807.681,468.667 809.182,470.75 811.749,470.695 810.231,472.766 811.076,475.19 
				808.638,474.387 806.594,475.94 806.604,473.373 804.496,471.909 806.94,471.125 			"/>
			<polygon style="fill:#FFFFFF;" points="755.086,445.495 756.586,447.578 759.153,447.523 757.636,449.594 758.481,452.018 
				756.043,451.215 753.999,452.768 754.009,450.201 751.9,448.736 754.345,447.953 			"/>
			<polygon style="fill:#FFFFFF;" points="718.128,461.482 719.628,463.565 722.195,463.51 720.677,465.581 721.523,468.005 
				719.084,467.201 717.04,468.754 717.051,466.187 714.942,464.723 717.387,463.94 			"/>
			<polygon style="fill:#FFFFFF;" points="819.787,459.842 821.343,461.884 823.907,461.761 822.445,463.871 823.355,466.272 
				820.896,465.534 818.894,467.141 818.836,464.574 816.689,463.167 819.112,462.319 			"/>
			<polygon style="fill:#FFFFFF;" points="740.048,478.46 741.549,480.543 744.115,480.488 742.598,482.559 743.443,484.983 
				741.005,484.179 738.961,485.733 738.971,483.165 736.862,481.701 739.307,480.918 			"/>
			<polygon style="fill:#FFFFFF;" points="757.757,475.405 759.258,477.488 761.824,477.433 760.307,479.503 761.152,481.928 
				758.714,481.124 756.67,482.678 756.68,480.11 754.571,478.646 757.016,477.863 			"/>
		</g>
		<g>
			<path style="fill:none;stroke:#463774;stroke-width:1.3322;stroke-miterlimit:10;" d="M631.898,583.105
				c-0.235,4.073-1.81,8.058-4.423,11.192c-2.349,2.817-5.617,5.161-6.504,8.72c-1.213,4.87,2.522,9.416,4.235,14.133
				c1.756,4.835,1.365,10.241-0.116,15.168c-1.48,4.927-3.989,9.471-6.479,13.972"/>
			<g>
				<g>
					<defs>
						<path id="SVGID_00000132079913830552382450000014592112385160129470_" d="M694.572,549.168
							c-0.463-5.833-34.594-13.767-34.594-13.767s-3.26-34.916-8.272-36.302c-5.011-1.387-23.783,28.647-23.783,28.647
							s-33.614-10.756-37.081-3.351c-3.468,7.405,19.896,31.471,19.896,31.471s-21.677,29.434-14.646,34.231
							c5.36,3.657,23.505-3.603,31.831-7.261c-2.531,3.002-6.065,7.717-3.868,8.339c3.255,0.92,7.288-4.468,7.288-4.468
							s-1.304,8.167,1.546,6.965c1.625-0.685,2.116-5.44,2.239-9.405c6.418,7.186,21.355,23.22,25.073,21.141
							c4.771-2.668,2.402-37.155,2.402-37.155S695.034,555,694.572,549.168z"/>
					</defs>
					<clipPath id="SVGID_00000126286889089856024220000007280053259984845719_">
						<use xlink:href="#SVGID_00000132079913830552382450000014592112385160129470_"  style="overflow:visible;"/>
					</clipPath>
					<path style="clip-path:url(#SVGID_00000126286889089856024220000007280053259984845719_);fill:#C52A7A;" d="M694.572,549.168
						c-0.463-5.833-34.594-13.767-34.594-13.767s-3.26-34.916-8.272-36.302c-5.011-1.387-23.783,28.647-23.783,28.647
						s-33.614-10.756-37.081-3.351c-3.468,7.405,19.896,31.471,19.896,31.471s-21.677,29.434-14.646,34.231
						c5.36,3.657,23.505-3.603,31.831-7.261c-2.531,3.002-6.065,7.717-3.868,8.339c3.255,0.92,7.288-4.468,7.288-4.468
						s-1.304,8.167,1.546,6.965c1.625-0.685,2.116-5.44,2.239-9.405c6.418,7.186,21.355,23.22,25.073,21.141
						c4.771-2.668,2.402-37.155,2.402-37.155S695.034,555,694.572,549.168z"/>
					<path style="opacity:0.15;clip-path:url(#SVGID_00000126286889089856024220000007280053259984845719_);fill:#007649;" d="
						M659.995,605.484c-6.662-5.357-9.858-15.275-14.215-22.909c-3.249-5.693-10.802-10.532-17.03-6.919
						c-6.167,3.577-11.838,7.907-19.011,4.015c-1.964-1.066-3.292-4.219-2.389-6.326c1.338-3.124,3.02-5.712,5.153-8.334
						c1.781-2.19,4.733-5.01,5.082-7.983c0.457-3.895-4.093-6.357-6.946-9.074c-3.16-3.009-6.602-6.811-6.283-11.495
						c0.336-4.927,4.784-8.143,9.473-8.152c4.999-0.009,9.235,3.115,14.049,3.568c4.369,0.411,8.145-3.23,10.555-6.42
						c5.677-7.515,8.791-16.847,15.476-23.541c-0.688-1.575-1.423-2.6-2.201-2.815c-5.011-1.387-23.783,28.647-23.783,28.647
						s-33.614-10.756-37.081-3.351c-3.468,7.405,19.896,31.471,19.896,31.471s-21.677,29.434-14.646,34.231
						c5.36,3.657,23.505-3.603,31.831-7.261c-2.531,3.002-6.065,7.717-3.868,8.339c3.255,0.92,7.288-4.468,7.288-4.468
						s-1.304,8.167,1.546,6.965c1.625-0.685,2.116-5.44,2.239-9.405C641.438,591.331,655.975,606.937,659.995,605.484z"/>
					<g style="clip-path:url(#SVGID_00000126286889089856024220000007280053259984845719_);">
						<path style="opacity:0.91;fill:#FFFFFF;" d="M614.377,504.472c-5.422-1.615-7.416-4.734-9.195-7.513
							c-1.787-2.792-3.478-5.431-8.406-6.403l0.197-0.996c5.358,1.064,7.242,4.003,9.064,6.851c1.936,3.025,3.934,6.15,10.24,7.497
							c2.856,0.608,6.48-0.887,10.317-2.47c4.416-1.821,8.983-3.706,13.148-2.76c3.638,0.826,6.743,4.266,9.728,7.589
							c2.857,3.181,5.787,6.455,9.146,7.298c3.684,0.913,8.055-0.665,12.282-2.19c4.202-1.517,8.173-2.949,11.43-2.005
							c0.031,0.009,0.063,0.019,0.094,0.028c6.144,1.831,9.837,7.58,12.538,11.783c1.459,2.271,2.719,4.232,3.914,4.939
							l-0.517,0.874c-1.403-0.83-2.659-2.787-4.25-5.264c-2.761-4.296-6.192-9.637-11.973-11.36
							c-0.029-0.009-0.059-0.018-0.088-0.026c-2.941-0.854-6.76,0.525-10.803,1.985c-4.369,1.577-8.887,3.207-12.87,2.22
							c-3.627-0.874-6.697-4.308-9.658-7.605c-2.877-3.205-5.838-6.52-9.197-7.276c-3.851-0.875-8.266,0.947-12.536,2.709
							c-3.986,1.645-7.752,3.199-10.915,2.524C615.468,504.773,614.906,504.63,614.377,504.472z"/>
					</g>
					<g style="clip-path:url(#SVGID_00000126286889089856024220000007280053259984845719_);">
						<path style="opacity:0.91;fill:#FFFFFF;" d="M610.912,516.097c-5.421-1.615-7.415-4.733-9.194-7.513
							c-1.787-2.791-3.478-5.43-8.406-6.402l0.196-0.996c5.357,1.066,7.241,4.003,9.064,6.851c1.935,3.025,3.931,6.144,10.24,7.496
							c2.856,0.609,6.48-0.887,10.317-2.47c4.416-1.822,8.982-3.706,13.147-2.76c3.639,0.825,6.744,4.266,9.728,7.589
							c2.859,3.183,5.823,6.473,9.147,7.298c3.684,0.912,8.054-0.665,12.281-2.19c4.203-1.517,8.174-2.949,11.43-2.005
							c0.031,0.01,0.063,0.019,0.094,0.028c6.144,1.831,9.837,7.58,12.538,11.783c1.459,2.271,2.719,4.232,3.914,4.94l-0.517,0.873
							c-1.402-0.83-2.659-2.788-4.25-5.264c-2.761-4.296-6.192-9.637-11.973-11.359c-0.029-0.009-0.059-0.018-0.088-0.026
							c-2.941-0.854-6.76,0.525-10.803,1.985c-4.369,1.576-8.887,3.207-12.87,2.22c-3.63-0.866-6.696-4.309-9.657-7.604
							c-2.879-3.205-5.865-6.54-9.198-7.277c-3.851-0.874-8.266,0.948-12.535,2.708c-3.987,1.645-7.753,3.198-10.917,2.524
							C612.004,516.398,611.441,516.255,610.912,516.097z"/>
					</g>
					<g style="opacity:0.91;clip-path:url(#SVGID_00000126286889089856024220000007280053259984845719_);">
						<path style="fill:#FFFFFF;" d="M607.448,527.724c-5.421-1.615-7.415-4.733-9.194-7.513c-1.786-2.792-3.474-5.436-8.405-6.403
							l0.196-0.996c5.358,1.065,7.242,4.004,9.064,6.852c1.935,3.024,3.931,6.147,10.24,7.496c2.856,0.608,6.481-0.887,10.318-2.471
							c4.416-1.821,8.982-3.706,13.147-2.76c3.684,0.837,6.745,4.267,9.728,7.589c2.858,3.181,5.823,6.471,9.146,7.299
							c3.684,0.912,8.054-0.665,12.281-2.19c4.203-1.517,8.173-2.951,11.43-2.005c0.031,0.009,0.064,0.019,0.095,0.028
							c6.144,1.831,9.837,7.58,12.537,11.783c1.459,2.271,2.719,4.232,3.914,4.939l-0.517,0.873c-1.402-0.83-2.659-2.787-4.25-5.264
							c-2.76-4.297-6.191-9.637-11.971-11.359c-0.03-0.009-0.061-0.018-0.09-0.027c-2.941-0.854-6.76,0.524-10.804,1.984
							c-4.369,1.576-8.886,3.207-12.869,2.22c-3.628-0.873-6.697-4.308-9.657-7.606c-2.878-3.203-5.859-6.525-9.198-7.276
							c-3.851-0.874-8.266,0.947-12.535,2.709c-3.986,1.644-7.752,3.199-10.916,2.524
							C608.54,528.024,607.977,527.882,607.448,527.724z"/>
					</g>
					<g style="clip-path:url(#SVGID_00000126286889089856024220000007280053259984845719_);">
						<path style="opacity:0.91;fill:#FFFFFF;" d="M603.983,539.351c-5.42-1.615-7.415-4.733-9.194-7.513
							c-1.786-2.792-3.475-5.433-8.406-6.403l0.196-0.996c5.359,1.062,7.242,4.004,9.064,6.852
							c1.935,3.024,3.931,6.146,10.241,7.496c2.856,0.608,6.481-0.887,10.318-2.471c4.416-1.822,8.982-3.706,13.147-2.76
							c3.683,0.842,6.745,4.267,9.728,7.589c2.858,3.181,5.825,6.469,9.146,7.299c3.684,0.912,8.054-0.665,12.281-2.191
							c4.203-1.517,8.173-2.951,11.43-2.005c0.031,0.009,0.064,0.019,0.095,0.028c6.144,1.831,9.837,7.579,12.537,11.783
							c1.459,2.271,2.719,4.231,3.914,4.938l-0.517,0.874c-1.402-0.83-2.659-2.786-4.25-5.264
							c-2.76-4.296-6.191-9.636-11.971-11.358c-0.03-0.009-0.061-0.018-0.09-0.027c-2.941-0.854-6.761,0.524-10.804,1.984
							c-4.369,1.576-8.886,3.207-12.868,2.22c-3.63-0.866-6.696-4.309-9.657-7.606c-2.878-3.203-5.858-6.529-9.198-7.276
							c-3.851-0.874-8.266,0.947-12.536,2.709c-3.987,1.644-7.752,3.199-10.916,2.524
							C605.076,539.651,604.513,539.508,603.983,539.351z"/>
					</g>
					<g style="opacity:0.91;clip-path:url(#SVGID_00000126286889089856024220000007280053259984845719_);">
						<path style="opacity:0.91;fill:#FFFFFF;" d="M600.521,550.978c-5.421-1.615-7.416-4.734-9.195-7.513
							c-1.787-2.792-3.478-5.431-8.406-6.403l0.197-0.996c5.358,1.065,7.242,4.003,9.064,6.851c1.936,3.025,3.934,6.149,10.24,7.497
							c2.856,0.608,6.48-0.887,10.317-2.471c4.416-1.821,8.982-3.706,13.147-2.76c3.637,0.832,6.744,4.265,9.728,7.589
							c2.857,3.181,5.789,6.446,9.146,7.298c3.684,0.913,8.055-0.665,12.282-2.19c4.202-1.517,8.173-2.949,11.43-2.005
							c0.031,0.009,0.063,0.018,0.094,0.028c6.144,1.83,9.837,7.579,12.538,11.783c1.459,2.271,2.719,4.232,3.914,4.939
							l-0.517,0.874c-1.402-0.83-2.659-2.787-4.25-5.264c-2.761-4.296-6.192-9.637-11.973-11.359
							c-0.029-0.009-0.059-0.018-0.088-0.026c-2.941-0.854-6.76,0.525-10.803,1.985c-4.369,1.577-8.887,3.207-12.869,2.22
							c-3.628-0.871-6.697-4.307-9.658-7.605c-2.877-3.204-5.836-6.528-9.197-7.276c-3.851-0.875-8.266,0.947-12.536,2.709
							c-3.986,1.645-7.752,3.199-10.915,2.524C601.612,551.278,601.049,551.135,600.521,550.978z"/>
					</g>
					<g style="opacity:0.91;clip-path:url(#SVGID_00000126286889089856024220000007280053259984845719_);">
						<path style="opacity:0.91;fill:#FFFFFF;" d="M597.055,562.603c-5.421-1.615-7.415-4.733-9.194-7.513
							c-1.787-2.791-3.478-5.43-8.406-6.402l0.197-0.996c5.358,1.062,7.241,4.003,9.064,6.851c1.935,3.025,3.931,6.146,10.24,7.496
							c2.856,0.609,6.481-0.887,10.317-2.47c4.416-1.822,8.982-3.706,13.147-2.76c3.657,0.827,6.745,4.266,9.728,7.589
							c2.859,3.183,5.826,6.463,9.147,7.298c3.684,0.912,8.054-0.665,12.281-2.19c4.203-1.517,8.174-2.949,11.43-2.005
							c0.031,0.009,0.063,0.019,0.094,0.028c6.143,1.83,9.837,7.579,12.538,11.783c1.459,2.271,2.719,4.232,3.914,4.939
							l-0.517,0.874c-1.402-0.83-2.659-2.787-4.25-5.264c-2.761-4.296-6.192-9.637-11.973-11.359
							c-0.029-0.009-0.059-0.018-0.088-0.026c-2.941-0.853-6.759,0.525-10.803,1.985c-4.369,1.576-8.887,3.207-12.87,2.22
							c-3.63-0.864-6.696-4.309-9.657-7.605c-2.877-3.205-5.839-6.522-9.199-7.277c-3.85-0.874-8.266,0.947-12.535,2.708
							c-3.987,1.645-7.753,3.199-10.916,2.524C598.147,562.903,597.584,562.76,597.055,562.603z"/>
					</g>
					<g style="opacity:0.91;clip-path:url(#SVGID_00000126286889089856024220000007280053259984845719_);">
						<path style="opacity:0.91;fill:#FFFFFF;" d="M593.591,574.229c-5.421-1.615-7.415-4.733-9.194-7.513
							c-1.786-2.792-3.473-5.438-8.406-6.403l0.196-0.996c5.357,1.066,7.241,4.004,9.063,6.852
							c1.935,3.024,3.932,6.144,10.241,7.496c2.856,0.608,6.481-0.887,10.318-2.471c4.416-1.821,8.982-3.706,13.147-2.76
							c3.683,0.838,6.745,4.267,9.728,7.588c2.858,3.183,5.827,6.461,9.146,7.299c3.685,0.912,8.054-0.665,12.281-2.19
							c4.203-1.517,8.173-2.951,11.43-2.005c6.242,1.829,9.918,7.586,12.632,11.811c1.459,2.271,2.719,4.232,3.914,4.939
							l-0.517,0.873c-1.402-0.83-2.659-2.787-4.25-5.263c-2.76-4.297-6.191-9.637-11.971-11.359c-0.03-0.009-0.061-0.018-0.09-0.027
							c-2.941-0.854-6.761,0.524-10.804,1.984c-4.369,1.576-8.886,3.207-12.868,2.22c-3.629-0.87-6.697-4.308-9.658-7.606
							c-2.878-3.203-5.857-6.532-9.198-7.276c-3.851-0.874-8.266,0.947-12.536,2.709c-3.987,1.644-7.752,3.199-10.916,2.524
							C594.683,574.53,594.12,574.387,593.591,574.229z"/>
					</g>
					<g style="opacity:0.91;clip-path:url(#SVGID_00000126286889089856024220000007280053259984845719_);">
						<path style="opacity:0.91;fill:#FFFFFF;" d="M623.896,586.186c-2.574-2.809-5.263-5.406-8.404-6.125
							c-4.165-0.945-8.731,0.939-13.147,2.761c-3.837,1.584-7.461,3.079-10.318,2.471c-6.31-1.35-8.305-4.472-10.241-7.496
							c-1.822-2.848-3.705-5.789-9.064-6.852l-0.196,0.996c4.931,0.968,6.619,3.611,8.405,6.403
							c1.779,2.781,3.773,5.898,9.194,7.513c0.529,0.158,1.092,0.301,1.689,0.428c3.164,0.675,6.93-0.879,10.916-2.524
							c4.27-1.762,8.685-3.583,12.536-2.709c2.811,0.631,5.368,3.088,7.824,5.76C623.338,586.583,623.607,586.374,623.896,586.186z"
							/>
						<path style="opacity:0.91;fill:#FFFFFF;" d="M670.71,602.565c-2.714-4.226-6.383-10.008-12.632-11.811
							c-3.258-0.946-7.227,0.488-11.431,2.004c-1.663,0.6-3.348,1.206-5.005,1.668c0.114,0.32,0.197,0.65,0.252,0.984
							c1.695-0.471,3.407-1.087,5.097-1.697c4.044-1.46,7.863-2.838,10.804-1.984l0.09,0.027c5.78,1.722,9.212,7.063,11.971,11.358
							c1.591,2.477,2.848,4.433,4.25,5.264l0.517-0.874C673.429,606.796,672.169,604.836,670.71,602.565z"/>
					</g>
					<path style="opacity:0.44;clip-path:url(#SVGID_00000126286889089856024220000007280053259984845719_);fill:#FFFFFF;" d="
						M650.814,506.471c0.929,2.154,1.699,4.368,2.411,6.609c0.337,1.124,0.661,2.254,0.971,3.391
						c0.279,1.141,0.544,2.288,0.794,3.44c0.239,1.153,0.557,2.302,0.83,3.461c0.26,1.16,0.355,2.339,0.271,3.524
						c-0.201,2.368-0.696,4.748-2.112,7.053l-0.507-0.003c-1.388-2.306-1.994-4.538-2.446-6.774
						c-0.215-1.117-0.28-2.238-0.209-3.375c0.073-1.138,0.161-2.283,0.142-3.421c-0.019-1.138-0.053-2.277-0.101-3.418
						c-0.029-1.144-0.072-2.289-0.13-3.437c-0.091-2.3-0.26-4.602-0.407-6.932L650.814,506.471z"/>
					<path style="opacity:0.44;clip-path:url(#SVGID_00000126286889089856024220000007280053259984845719_);fill:#FFFFFF;" d="
						M662.239,541.152c2.23-0.082,4.458-0.006,6.69,0.123c1.112,0.085,2.227,0.177,3.34,0.293c1.109,0.134,2.215,0.294,3.323,0.459
						c1.105,0.178,2.235,0.274,3.357,0.422c1.121,0.15,2.198,0.47,3.219,0.951c0.512,0.25,1.002,0.505,1.511,0.805
						c0.513,0.305,1.051,0.657,1.56,1.089c0.512,0.423,0.991,0.962,1.375,1.556c0.364,0.615,0.623,1.317,0.578,2.016l-0.443,0.247
						c-1.15-0.507-2.032-0.496-3.012-0.564c-0.941-0.049-2.036-0.118-3.113-0.318c-1.068-0.178-2.084-0.508-3.069-0.959
						c-0.981-0.465-1.966-0.94-2.98-1.318c-1.015-0.377-2.033-0.75-3.061-1.1c-1.021-0.381-2.05-0.74-3.084-1.094
						c-2.064-0.73-4.156-1.398-6.262-2.107L662.239,541.152z"/>
					<path style="opacity:0.44;clip-path:url(#SVGID_00000126286889089856024220000007280053259984845719_);fill:#FFFFFF;" d="
						M658.529,568.966c0.604,2.078,1.012,4.21,1.324,6.367c0.137,1.079,0.251,2.164,0.344,3.255c0.06,1.09,0.097,2.183,0.112,3.281
						c0.001,1.096,0.074,2.205,0.093,3.318c0.003,1.11-0.165,2.203-0.516,3.256c-0.735,2.093-1.792,4.119-3.735,5.77l-0.487-0.142
						c-0.755-2.414-0.82-4.512-0.76-6.58c0.038-1.03,0.218-2.025,0.527-3.011c0.309-0.985,0.63-1.979,0.838-2.991
						c0.206-1.012,0.392-2.031,0.558-3.057c0.183-1.025,0.347-2.057,0.489-3.096c0.309-2.079,0.511-4.183,0.707-6.321
						L658.529,568.966z"/>
				</g>
			</g>
		</g>
	</g>
</g>
<g>
	<rect x="520.501" y="165.859" style="fill:#4C1D54;" width="20.855" height="1.49"/>
	<rect x="300.534" y="165.859" style="fill:#4C1D54;" width="20.855" height="1.49"/>
</g>
<g>
	<g>
		<text transform="matrix(1 0 0 1 202.0599 247.9585)" style="fill:#B0055B; font-family:'Raleway-Black'; font-size:68.0409px;">PROM NIGHT</text>
	</g>
	<g>
		
			<text transform="matrix(1 0 0 1 234.1712 323.7867)" style="fill:#FFC03A; font-family:'Raleway-Black'; font-size:50.1078px; letter-spacing:2;">DANCE PARTY</text>
	</g>
	<g>
		<text transform="matrix(1 0 0 1 219.2289 376.774)" style="fill:#4C1D54; font-family:'Raleway-SemiBold'; font-size:16.7054px;">VENUE NAME</text>
	</g>
	<g>
		<text transform="matrix(1 0 0 1 361.5131 376.774)" style="fill:#4C1D54; font-family:'Raleway-SemiBold'; font-size:16.7054px;">DATE&amp;TIME</text>
	</g>
	<g>
		<text transform="matrix(1 0 0 1 482.4203 376.774)" style="fill:#4C1D54; font-family:'Raleway-SemiBold'; font-size:16.7054px;">DANCE&amp;MUSIC</text>
	</g>
	<g>
		<rect x="243.72" y="397.217" style="fill:none;" width="354.449" height="49.62"/>
		<text transform="matrix(1 0 0 1 246.5502 403.8042)"><tspan x="0" y="0" style="fill:#4B3776; font-family:'Raleway-Medium'; font-size:9.0233px;">Lorem ipsum dolor sit amet, consectetuer adipiscing elit, sed diam nonum</tspan><tspan x="344.982" y="0" style="fill:#4B3776; font-family:'Raleway-Medium'; font-size:9.0233px;">-</tspan><tspan x="2.44" y="10.828" style="fill:#4B3776; font-family:'Raleway-Medium'; font-size:9.0233px;">my nibh euismod tincidunt ut laoreet dolore magna aliquam erat volutpat. </tspan><tspan x="12.475" y="21.656" style="fill:#4B3776; font-family:'Raleway-Medium'; font-size:9.0233px;">Ut wisi enim ad minim veniam, quis nostrud exerci tation ullamcorper.</tspan></text>
	</g>
	<text transform="matrix(1 0 0 1 350.224 453.9195)" style="fill:#B0055B; font-family:'Raleway-Bold'; font-size:14.9332px;">RSVP : +01 234 5567</text>
	<g>
		<g>
			<g>
				<text transform="matrix(1 0 0 1 328.514 174.5503)" style="fill:#4C1D54; font-family:'Raleway-Bold'; font-size:19.9185px;">YOU ARE INVITED</text>
			</g>
		</g>
	</g>
</g>
<g>
	<circle style="fill:#4C1D54;" cx="346.162" cy="370.599" r="3.264"/>
	<circle style="fill:#4C1D54;" cx="469.258" cy="370.599" r="3.264"/>
</g>
</svg>
