<?xml version="1.0" encoding="utf-8"?>
<!-- Generator: Adobe Illustrator 27.5.0, SVG Export Plug-In . SVG Version: 6.00 Build 0)  -->
<svg version="1.1" xmlns="http://www.w3.org/2000/svg" xmlns:xlink="http://www.w3.org/1999/xlink" x="0px" y="0px"
	 viewBox="0 0 820 312" style="enable-background:new 0 0 820 312;" xml:space="preserve">
<g id="BACKGROUND">
	<rect x="0.151" style="fill:#F4DBD2;" width="819.698" height="312"/>
</g>
<g id="OBJECTS">
	<g>
		<g>
			<defs>
				<rect id="SVGID_19_" x="0.151" width="819.698" height="312"/>
			</defs>
			<clipPath id="SVGID_00000134244537936450050840000009186751684956548776_">
				<use xlink:href="#SVGID_19_"  style="overflow:visible;"/>
			</clipPath>
			<g style="opacity:0.3;clip-path:url(#SVGID_00000134244537936450050840000009186751684956548776_);">
				<radialGradient id="SVGID_1_" cx="401.9044" cy="156" r="924.8601" gradientUnits="userSpaceOnUse">
					<stop  offset="0" style="stop-color:#FFFFFF"/>
					<stop  offset="1" style="stop-color:#FFFFFF;stop-opacity:0"/>
				</radialGradient>
				<polygon style="fill:url(#SVGID_1_);" points="852.671,169.885 412.248,157.078 840.384,52.981 819.513,-11.253 
					411.957,156.184 760.74,-113.051 715.546,-163.243 411.328,155.486 620.449,-232.336 558.748,-259.807 410.47,155.103 
					443.77,-284.246 376.23,-284.246 409.53,155.103 261.252,-259.807 199.551,-232.336 408.672,155.486 104.453,-163.243 
					59.26,-113.051 408.043,156.184 0.487,-11.253 -20.384,52.981 407.752,157.078 -32.671,169.885 -25.611,237.055 407.85,158.012 
					10.713,348.849 44.483,407.34 408.32,158.826 123.137,494.694 177.778,534.393 409.081,159.378 285.163,582.204 
					351.226,596.246 410,159.574 468.774,596.246 534.837,582.204 410.919,159.379 642.222,534.393 696.863,494.694 
					411.679,158.826 775.517,407.34 809.287,348.849 412.149,158.012 845.611,237.055 				"/>
			</g>
		</g>
		<g>
			<defs>
				<rect id="SVGID_00000059273893448367953800000009816959120453696174_" x="0.151" y="22.569" width="396.942" height="289.431"/>
			</defs>
			<clipPath id="SVGID_00000132060523441693888910000000762515092514177688_">
				<use xlink:href="#SVGID_00000059273893448367953800000009816959120453696174_"  style="overflow:visible;"/>
			</clipPath>
			<g style="clip-path:url(#SVGID_00000132060523441693888910000000762515092514177688_);">
				<g>
					<g>
						
							<linearGradient id="SVGID_00000049192209944252327100000008324310805373653434_" gradientUnits="userSpaceOnUse" x1="315.4933" y1="82.7878" x2="315.4933" y2="140.0599">
							<stop  offset="0" style="stop-color:#E59D7D"/>
							<stop  offset="1" style="stop-color:#E4BA9C"/>
						</linearGradient>
						<polygon style="fill:url(#SVGID_00000049192209944252327100000008324310805373653434_);" points="329.748,88.367 
							329.748,215.844 301.238,215.844 301.238,88.367 						"/>
						
							<linearGradient id="SVGID_00000096046417337166539950000006939311756010063286_" gradientUnits="userSpaceOnUse" x1="315.4933" y1="52.5292" x2="315.4933" y2="71.6203">
							<stop  offset="0" style="stop-color:#E59D7D"/>
							<stop  offset="1" style="stop-color:#E4BA9C"/>
						</linearGradient>
						<path style="fill:url(#SVGID_00000096046417337166539950000006939311756010063286_);" d="M339.742,68.549v14.174
							c0,7.819-5.892,14.16-13.158,14.16h-22.181c-7.266,0-13.158-6.34-13.158-14.16V68.549c0-7.819,5.892-14.16,13.158-14.16
							h22.181C333.85,54.389,339.742,60.729,339.742,68.549z"/>
						<g>
							<g>
								
									<linearGradient id="SVGID_00000030476373627332957930000011826003552616341931_" gradientUnits="userSpaceOnUse" x1="266.0522" y1="71.7173" x2="189.0911" y2="70.2429">
									<stop  offset="0" style="stop-color:#869ABF"/>
									<stop  offset="1" style="stop-color:#FFFEFC"/>
								</linearGradient>
								<path style="fill:url(#SVGID_00000030476373627332957930000011826003552616341931_);" d="M379.011,72.489
									c0,2.803-0.426,5.47-1.203,7.877c-2.194,6.963-7.222,11.839-13.073,11.839c-0.823,0-1.6-0.122-2.377-0.305
									c-37.116-4.693-74.857-5.302-108.439-0.168c-0.991,0.305-2.011,0.472-3.063,0.472c-7.892,0-14.277-8.837-14.277-19.716
									c0-10.879,6.384-19.716,14.277-19.716c1.051,0,2.072,0.168,3.063,0.472c0.031,0,0.046,0.015,0.076,0.015
									c1.021,0.153,2.057,0.305,3.093,0.442c14.475,2.057,29.681,3.063,45.253,3.139c1.95,0.015,3.915,0.015,5.881,0
									c18.528-0.107,37.513-1.432,56.314-3.764c0.442-0.107,0.884-0.183,1.341-0.229
									C373.222,53.641,379.011,62.143,379.011,72.489z"/>
								
									<linearGradient id="SVGID_00000100372645654337191320000014382366757460671921_" gradientUnits="userSpaceOnUse" x1="315.9622" y1="61.9931" x2="313.7507" y2="95.7557">
									<stop  offset="0" style="stop-color:#B8C9E6"/>
									<stop  offset="1" style="stop-color:#FFFEFC"/>
								</linearGradient>
								<path style="fill:url(#SVGID_00000100372645654337191320000014382366757460671921_);" d="M379.016,72.489
									c0,10.879-6.398,19.716-14.291,19.716c-0.8,0-1.6-0.122-2.373-0.305c-37.105-4.693-74.852-5.302-108.43-0.168
									c-0.983,0.305-2.006,0.472-3.068,0.472c-0.223,0-0.446,0-0.669-0.031c6.831-0.518,10.851-9.142,10.851-19.686
									c0-2.971-0.433-5.775-1.193-8.304h117.85C378.544,66.714,379.016,69.518,379.016,72.489z"/>
								
									<linearGradient id="SVGID_00000009559644662754238270000018211642738427190964_" gradientUnits="userSpaceOnUse" x1="310.5492" y1="108.4194" x2="315.4767" y2="78.0762">
									<stop  offset="0" style="stop-color:#CBFEFC"/>
									<stop  offset="1" style="stop-color:#FFFEFC"/>
								</linearGradient>
								<path style="fill:url(#SVGID_00000009559644662754238270000018211642738427190964_);" d="M381.541,72.489
									c0,3.047-0.503,5.927-1.417,8.517c-0.762-0.229-1.539-0.442-2.316-0.64c-43.242-11.824-100.927-4.51-112.934-2.773
									c0.32-1.63,0.503-3.337,0.503-5.104c0-9.386-4.861-17.263-11.382-19.229c1.021,0.153,2.057,0.305,3.093,0.442
									c14.475,2.011,29.681,3.017,45.253,3.139c1.95,0.015,3.915,0.015,5.881,0c18.528-0.107,37.513-1.432,56.314-3.764
									c0.442-0.107,0.884-0.183,1.341-0.229c0.366-0.046,0.716-0.076,1.082-0.076C375.02,52.773,381.541,61.61,381.541,72.489z"/>
							</g>
							<g>
								
									<linearGradient id="SVGID_00000176020971279296008050000014990882289883598725_" gradientUnits="userSpaceOnUse" x1="311.1516" y1="73.4279" x2="294.132" y2="50.4272">
									<stop  offset="0.0363" style="stop-color:#80002A"/>
									<stop  offset="1" style="stop-color:#A03659"/>
								</linearGradient>
								<path style="fill:url(#SVGID_00000176020971279296008050000014990882289883598725_);" d="M300.831,54.298
									c-2.751-1.048-3.941,3.369-1.215,4.408c11.443,4.36,14.814,17.617,13.838,28.65c-0.259,2.93,4.314,2.912,4.571,0
									C319.204,74.031,314.225,59.401,300.831,54.298z"/>
								
									<linearGradient id="SVGID_00000093174063258186957000000000304815245803693991_" gradientUnits="userSpaceOnUse" x1="-127.5673" y1="-2885.679" x2="-155.715" y2="-2907.6692" gradientTransform="matrix(0.6967 0.7173 -0.7173 0.6967 -1673.2451 2191.4104)">
									<stop  offset="0.0363" style="stop-color:#80002A"/>
									<stop  offset="1" style="stop-color:#A03659"/>
								</linearGradient>
								<path style="fill:url(#SVGID_00000093174063258186957000000000304815245803693991_);" d="M313.103,54.381
									c-1.165-2.704-5.163-0.48-4.008,2.2c4.845,11.246-2.317,22.901-10.911,29.888c-2.282,1.855,0.916,5.123,3.185,3.279
									C311.747,81.309,318.774,67.544,313.103,54.381z"/>
							</g>
							<g>
								<g>
									
										<linearGradient id="SVGID_00000035520110652236352910000001787023146122292871_" gradientUnits="userSpaceOnUse" x1="312.1484" y1="70.6328" x2="324.1431" y2="71.8971">
										<stop  offset="0.0363" style="stop-color:#A30032"/>
										<stop  offset="1" style="stop-color:#C4406C"/>
									</linearGradient>
									<path style="fill:url(#SVGID_00000035520110652236352910000001787023146122292871_);" d="M328.291,65.424
										c-0.195-1.329-0.695-2.608-1.722-3.519c-0.961-0.854-2.261-1.717-3.535-1.966c-1.622-0.317-3.124,0.28-4.499,1.099
										c-1.938,1.155-3.604,2.624-5.061,4.31c-0.316,0.106-0.61,0.277-0.846,0.534c-0.717,0.782-0.868,1.943-0.319,2.825
										c0.202,0.454,0.523,0.847,0.926,1.06c0.016,0.008,0.031,0.009,0.047,0.017c0.732,0.729,1.468,1.454,2.163,2.218
										c0.968,1.063,1.516,1.718,2.27,2.888c0.345,0.537,0.664,1.091,0.955,1.659c0.146,0.284,0.282,0.573,0.415,0.863
										c0.021,0.044,0.062,0.14,0.079,0.178c0.052,0.126,0.102,0.253,0.15,0.381c0.483,1.271,0.825,2.586,1.043,3.927
										c0.193,1.183,1.724,1.948,2.811,1.596c1.282-0.415,1.803-1.543,1.596-2.811c-0.427-2.623-1.384-5.186-2.747-7.476
										c2.636,0.053,5.582-1.203,6.297-3.915C328.654,68.01,328.481,66.713,328.291,65.424z M323.908,68.078
										c-0.002,0.008-0.001,0.009-0.003,0.016c-0.011,0.023-0.027,0.062-0.044,0.104c-0.023,0.016-0.043,0.031-0.052,0.036
										c0.001-0.001-0.218,0.108-0.294,0.151c-0.03,0.012-0.056,0.022-0.064,0.024c-0.097,0.03-0.194,0.063-0.292,0.091
										c-0.182,0.052-0.368,0.088-0.553,0.125c-0.025-0.002-0.236,0.025-0.346,0.029c-0.242,0.008-0.482-0.008-0.723-0.027
										c-0.154-0.044-0.316-0.067-0.47-0.109c-0.221-0.061-0.433-0.15-0.651-0.214c-0.01-0.003-0.007-0.002-0.015-0.004
										c-0.113-0.051-0.227-0.103-0.339-0.158c-0.207-0.101-0.412-0.207-0.615-0.316c-0.456-0.245-0.905-0.502-1.358-0.751
										c0.228-0.216,0.456-0.433,0.695-0.637c0.16-0.137,0.325-0.268,0.488-0.402c0.117-0.085,0.233-0.172,0.351-0.256
										c0.343-0.244,0.695-0.476,1.053-0.695c0.166-0.101,0.333-0.2,0.502-0.295c0.093-0.052,0.186-0.104,0.281-0.153
										c0.071-0.037,0.184-0.088,0.235-0.113c0.132-0.047,0.266-0.087,0.403-0.118c0.009,0.003,0.005,0.002,0.015,0.005
										c0.044,0.014,0.055,0.016,0.07,0.018c0.04,0.022,0.083,0.041,0.122,0.063c0.235,0.127,0.46,0.272,0.683,0.417
										c0.131,0.085,0.259,0.174,0.387,0.264c-0.039-0.015,0.086,0.102,0.19,0.186c0.023,0.04,0.049,0.083,0.071,0.118
										c0.004,0.011,0.011,0.027,0.013,0.033c0.034,0.123,0.07,0.245,0.1,0.37c0.051,0.219,0.087,0.442,0.121,0.665
										c0.005,0.033,0.008,0.067,0.014,0.1c0.001,0.01,0,0.004,0.001,0.018c0.033,0.442,0.066,0.871,0.048,1.314
										C323.927,67.997,323.919,68.028,323.908,68.078z"/>
									<g>
										
											<linearGradient id="SVGID_00000065779156974917005720000015077265682179344263_" gradientUnits="userSpaceOnUse" x1="310.0211" y1="72.6874" x2="301.2034" y2="71.7149">
											<stop  offset="0.0363" style="stop-color:#A30032"/>
											<stop  offset="1" style="stop-color:#C4406C"/>
										</linearGradient>
										<path style="fill:url(#SVGID_00000065779156974917005720000015077265682179344263_);" d="M295.2,69.294
											c0.715,2.712,3.66,3.967,6.297,3.915c-1.363,2.29-2.32,4.852-2.747,7.476c-0.207,1.268,0.314,2.396,1.596,2.811
											c1.087,0.352,2.619-0.413,2.811-1.596c0.218-1.341,0.56-2.656,1.044-3.927c0.048-0.127,0.098-0.254,0.15-0.381
											c0.017-0.038,0.058-0.134,0.079-0.178c0.133-0.29,0.27-0.579,0.415-0.863c0.291-0.568,0.61-1.122,0.955-1.659
											c0.753-1.171,1.302-1.825,2.27-2.888c0.696-0.764,1.431-1.489,2.164-2.218c0.016-0.008,0.031-0.008,0.046-0.017
											c0.403-0.213,0.724-0.606,0.926-1.06c0.548-0.882,0.398-2.044-0.319-2.825c-0.236-0.257-0.53-0.428-0.846-0.534
											c-1.457-1.686-3.123-3.155-5.06-4.31c-1.375-0.82-2.877-1.417-4.499-1.099c-1.274,0.249-2.574,1.112-3.535,1.966
											c-1.026,0.911-1.526,2.19-1.721,3.519C295.035,66.713,294.862,68.01,295.2,69.294z M299.583,67.976
											c-0.018-0.444,0.015-0.872,0.048-1.314c0.001-0.013,0-0.007,0.001-0.018c0.006-0.033,0.009-0.067,0.014-0.1
											c0.034-0.223,0.07-0.445,0.121-0.665c0.029-0.125,0.065-0.247,0.1-0.37c0.001-0.006,0.008-0.021,0.013-0.033
											c0.022-0.034,0.048-0.078,0.071-0.118c0.104-0.084,0.229-0.202,0.19-0.186c0.128-0.09,0.256-0.179,0.387-0.264
											c0.224-0.145,0.449-0.289,0.683-0.417c0.04-0.022,0.082-0.041,0.122-0.063c0.014-0.003,0.026-0.005,0.07-0.018
											c0.01-0.003,0.006-0.002,0.015-0.005c0.136,0.031,0.271,0.071,0.403,0.118c0.052,0.025,0.165,0.076,0.236,0.113
											c0.094,0.05,0.188,0.101,0.281,0.153c0.169,0.095,0.337,0.194,0.502,0.295c0.359,0.219,0.711,0.451,1.053,0.695
											c0.118,0.084,0.234,0.171,0.351,0.256c0.163,0.133,0.327,0.265,0.488,0.402c0.239,0.204,0.467,0.421,0.695,0.637
											c-0.453,0.249-0.902,0.507-1.358,0.751c-0.203,0.109-0.408,0.215-0.615,0.316c-0.112,0.055-0.225,0.106-0.339,0.158
											c-0.008,0.002-0.005,0.001-0.015,0.004c-0.219,0.064-0.43,0.153-0.651,0.214c-0.154,0.042-0.317,0.066-0.47,0.109
											c-0.241,0.019-0.481,0.034-0.723,0.027c-0.111-0.003-0.321-0.031-0.346-0.029c-0.185-0.036-0.371-0.072-0.553-0.125
											c-0.098-0.028-0.195-0.061-0.292-0.091c-0.008-0.002-0.034-0.012-0.064-0.024c-0.076-0.043-0.295-0.152-0.294-0.151
											c-0.009-0.005-0.03-0.02-0.052-0.036c-0.017-0.042-0.033-0.081-0.044-0.104c-0.001-0.007-0.001-0.008-0.003-0.016
											C299.597,68.028,299.589,67.997,299.583,67.976z"/>
									</g>
								</g>
								<g>
									
										<linearGradient id="SVGID_00000129890585086433052370000001412718321886829981_" gradientUnits="userSpaceOnUse" x1="315.5889" y1="81.5285" x2="311.6875" y2="68.9776">
										<stop  offset="0" style="stop-color:#C26D22"/>
										<stop  offset="1" style="stop-color:#D8C153"/>
									</linearGradient>
									<path style="fill:url(#SVGID_00000129890585086433052370000001412718321886829981_);" d="M312.654,60.966L312.654,60.966
										c0.383,0.528,1.083,0.715,1.679,0.45l0,0c0.857-0.382,1.837,0.184,1.935,1.117l0,0c0.068,0.648,0.581,1.161,1.229,1.229
										l0,0c0.933,0.098,1.499,1.078,1.117,1.935l0,0c-0.265,0.596-0.078,1.296,0.45,1.679l0,0c0.759,0.551,0.759,1.683,0,2.234
										l0,0c-0.528,0.383-0.715,1.083-0.45,1.679l0,0c0.382,0.857-0.184,1.837-1.117,1.935l0,0
										c-0.648,0.068-1.161,0.581-1.229,1.229l0,0c-0.098,0.933-1.078,1.499-1.935,1.117l0,0c-0.596-0.265-1.296-0.078-1.679,0.45
										l0,0c-0.551,0.759-1.683,0.759-2.234,0l0,0c-0.383-0.528-1.083-0.715-1.679-0.45l0,0c-0.857,0.382-1.837-0.184-1.935-1.117
										l0,0c-0.068-0.648-0.581-1.161-1.229-1.229l0,0c-0.933-0.098-1.499-1.078-1.117-1.935l0,0
										c0.265-0.596,0.078-1.296-0.45-1.679l0,0c-0.759-0.551-0.759-1.683,0-2.234l0,0c0.527-0.383,0.715-1.083,0.45-1.679l0,0
										c-0.382-0.857,0.184-1.837,1.117-1.935l0,0c0.648-0.068,1.161-0.581,1.229-1.229l0,0c0.098-0.933,1.078-1.499,1.935-1.117
										l0,0c0.596,0.265,1.296,0.078,1.679-0.45l0,0C310.971,60.207,312.103,60.207,312.654,60.966z"/>
									<g>
										
											<linearGradient id="SVGID_00000152949891767988168630000007813890265900069293_" gradientUnits="userSpaceOnUse" x1="305.7029" y1="56.5179" x2="313.356" y2="72.2271">
											<stop  offset="0" style="stop-color:#C26D22"/>
											<stop  offset="1" style="stop-color:#D8C153"/>
										</linearGradient>
										<path style="fill:url(#SVGID_00000152949891767988168630000007813890265900069293_);" d="M317.312,68.493
											c0,3.189-2.585,5.775-5.775,5.775c-3.189,0-5.775-2.585-5.775-5.775s2.585-5.775,5.775-5.775
											C314.726,62.718,317.312,65.304,317.312,68.493z"/>
										
											<linearGradient id="SVGID_00000140721755205920953340000010169439658179888041_" gradientUnits="userSpaceOnUse" x1="315.5889" y1="81.5286" x2="311.6875" y2="68.9777">
											<stop  offset="0" style="stop-color:#C26D22"/>
											<stop  offset="1" style="stop-color:#D8C153"/>
										</linearGradient>
										<path style="fill:url(#SVGID_00000140721755205920953340000010169439658179888041_);" d="M316.457,68.493
											c0,2.717-2.203,4.92-4.92,4.92c-2.717,0-4.92-2.203-4.92-4.92c0-2.717,2.203-4.92,4.92-4.92
											C314.254,63.573,316.457,65.776,316.457,68.493z"/>
									</g>
								</g>
							</g>
						</g>
						<g>
							
								<linearGradient id="SVGID_00000118391325825336505420000016960861198032163996_" gradientUnits="userSpaceOnUse" x1="-3272.0146" y1="-5082.207" x2="-3282.635" y2="-5064.0405" gradientTransform="matrix(0 1 -1 0 -4772.1689 3341.1479)">
								<stop  offset="0" style="stop-color:#E59D7D"/>
								<stop  offset="1" style="stop-color:#E4BA9C"/>
							</linearGradient>
							<path style="fill:url(#SVGID_00000118391325825336505420000016960861198032163996_);" d="M291.245,69.085V53.689
								c0-3.061,2.481-5.542,5.542-5.542l0,0c3.061,0,5.543,2.481,5.543,5.542v15.396c0,3.061-2.482,5.542-5.543,5.542l0,0
								C293.727,74.627,291.245,72.146,291.245,69.085z"/>
							
								<linearGradient id="SVGID_00000083790411242145029820000013618027099542871954_" gradientUnits="userSpaceOnUse" x1="-3272.0146" y1="-5093.292" x2="-3282.635" y2="-5075.1255" gradientTransform="matrix(0 1 -1 0 -4772.1689 3341.1479)">
								<stop  offset="0" style="stop-color:#E59D7D"/>
								<stop  offset="1" style="stop-color:#E4BA9C"/>
							</linearGradient>
							<path style="fill:url(#SVGID_00000083790411242145029820000013618027099542871954_);" d="M302.33,69.085V53.689
								c0-3.061,2.481-5.542,5.542-5.542h0c3.061,0,5.542,2.481,5.542,5.542v15.396c0,3.061-2.481,5.542-5.542,5.542h0
								C304.811,74.627,302.33,72.146,302.33,69.085z"/>
							
								<linearGradient id="SVGID_00000170978381500932192900000005979937555009792424_" gradientUnits="userSpaceOnUse" x1="-3272.0146" y1="-5104.377" x2="-3282.635" y2="-5086.2104" gradientTransform="matrix(0 1 -1 0 -4772.1689 3341.1479)">
								<stop  offset="0" style="stop-color:#E59D7D"/>
								<stop  offset="1" style="stop-color:#E4BA9C"/>
							</linearGradient>
							<path style="fill:url(#SVGID_00000170978381500932192900000005979937555009792424_);" d="M313.415,69.085V53.689
								c0-3.061,2.482-5.542,5.543-5.542l0,0c3.061,0,5.542,2.481,5.542,5.542v15.396c0,3.061-2.481,5.542-5.542,5.542l0,0
								C315.896,74.627,313.415,72.146,313.415,69.085z"/>
							
								<linearGradient id="SVGID_00000034778428516496109170000009963844350363709586_" gradientUnits="userSpaceOnUse" x1="-3272.0146" y1="-5115.4619" x2="-3282.635" y2="-5097.2954" gradientTransform="matrix(0 1 -1 0 -4772.1689 3341.1479)">
								<stop  offset="0" style="stop-color:#E59D7D"/>
								<stop  offset="1" style="stop-color:#E4BA9C"/>
							</linearGradient>
							<path style="fill:url(#SVGID_00000034778428516496109170000009963844350363709586_);" d="M324.5,69.085V53.689
								c0-3.061,2.482-5.542,5.543-5.542l0,0c3.061,0,5.542,2.481,5.542,5.542v15.396c0,3.061-2.482,5.542-5.542,5.542l0,0
								C326.981,74.627,324.5,72.146,324.5,69.085z"/>
							<g>
								
									<linearGradient id="SVGID_00000093157532795033464550000010474829133747473065_" gradientUnits="userSpaceOnUse" x1="302.5608" y1="53.7274" x2="302.5608" y2="68.1244">
									<stop  offset="0.0363" style="stop-color:#3C2E49"/>
									<stop  offset="1" style="stop-color:#413B6B"/>
								</linearGradient>
								<path style="fill:url(#SVGID_00000093157532795033464550000010474829133747473065_);" d="M301.882,54.383v13.086
									c0,0.873,1.357,0.874,1.357,0V54.383C303.239,53.51,301.882,53.508,301.882,54.383z"/>
								
									<linearGradient id="SVGID_00000150075401407810384880000010140034426415728777_" gradientUnits="userSpaceOnUse" x1="313.4149" y1="53.7274" x2="313.4149" y2="68.1244">
									<stop  offset="0.0363" style="stop-color:#3C2E49"/>
									<stop  offset="1" style="stop-color:#413B6B"/>
								</linearGradient>
								<path style="fill:url(#SVGID_00000150075401407810384880000010140034426415728777_);" d="M312.736,54.383v13.086
									c0,0.873,1.357,0.874,1.357,0V54.383C314.093,53.51,312.736,53.508,312.736,54.383z"/>
								
									<linearGradient id="SVGID_00000015347347140224973140000012813628911423004826_" gradientUnits="userSpaceOnUse" x1="324.269" y1="53.7274" x2="324.269" y2="68.1244">
									<stop  offset="0.0363" style="stop-color:#3C2E49"/>
									<stop  offset="1" style="stop-color:#413B6B"/>
								</linearGradient>
								<path style="fill:url(#SVGID_00000015347347140224973140000012813628911423004826_);" d="M323.591,54.383v13.086
									c0,0.873,1.357,0.874,1.357,0V54.383C324.947,53.51,323.591,53.508,323.591,54.383z"/>
							</g>
						</g>
						<g>
							
								<linearGradient id="SVGID_00000121256986187464383350000008293960341003428509_" gradientUnits="userSpaceOnUse" x1="311.9997" y1="72.4412" x2="300.299" y2="92.4557">
								<stop  offset="0" style="stop-color:#E59D7D"/>
								<stop  offset="1" style="stop-color:#E4BA9C"/>
							</linearGradient>
							<path style="fill:url(#SVGID_00000121256986187464383350000008293960341003428509_);" d="M319.034,96.882h-15.476
								c-7.819,0-14.16-6.34-14.16-14.16v-8.095h7.381C309.071,74.627,319.034,84.59,319.034,96.882z"/>
							
								<linearGradient id="SVGID_00000173845327426406770330000001416678964180419227_" gradientUnits="userSpaceOnUse" x1="312.0425" y1="60.6964" x2="299.5188" y2="82.1186">
								<stop  offset="0" style="stop-color:#E59D7D"/>
								<stop  offset="1" style="stop-color:#E4BA9C"/>
							</linearGradient>
							<path style="fill:url(#SVGID_00000173845327426406770330000001416678964180419227_);" d="M313.954,81.864h-22.092
								c-3.061,0-5.542-2.481-5.542-5.542l0,0c0-3.061,2.481-5.542,5.542-5.542h22.092c3.061,0,5.542,2.481,5.542,5.542l0,0
								C319.496,79.383,317.015,81.864,313.954,81.864z"/>
							
								<linearGradient id="SVGID_00000058569467422273743560000013698661252769236632_" gradientUnits="userSpaceOnUse" x1="313.8406" y1="69.5851" x2="304.8626" y2="84.9421">
								<stop  offset="0.0363" style="stop-color:#3C2E49"/>
								<stop  offset="1" style="stop-color:#413B6B"/>
							</linearGradient>
							<path style="fill:url(#SVGID_00000058569467422273743560000013698661252769236632_);" d="M320.051,75.153
								c-0.225-1.474-1.03-2.507-2.286-3.272c-2.79-1.7-6.116-1.688-9.278-1.801c-3.923-0.14-7.85-0.089-11.774-0.037
								c-0.872,0.011-0.875,1.368,0,1.357c3.11-0.041,6.222-0.081,9.332-0.027c1.554,0.027,3.109,0.078,4.661,0.165
								c1.466,0.082,2.941,0.147,4.351,0.595c1.159,0.368,2.672,0.997,3.312,2.106c0.319,0.553,0.382,1.227,0.442,1.851
								c0.065,0.677,0.11,1.392-0.101,2.049c-0.391,1.214-1.667,1.853-2.79,2.245c-1.343,0.468-2.758,0.654-4.169,0.771
								c-3.437,0.285-6.894,0.37-10.341,0.304c-0.874-0.017-0.874,1.34,0,1.357c3.447,0.066,6.904-0.019,10.341-0.304
								c0.215-0.018,0.43-0.037,0.645-0.058c0.047,0.032,0.097,0.06,0.156,0.083c1.548,0.589,2.47,2.115,3.086,3.567
								c0.671,1.581,1.443,3.452,1.187,5.2c-0.053,0.365,0.091,0.725,0.474,0.835c0.318,0.091,0.781-0.112,0.835-0.474
								c0.317-2.163-0.479-4.285-1.323-6.245c-0.54-1.254-1.284-2.413-2.313-3.257c0.605-0.117,1.203-0.267,1.785-0.47
								c1.257-0.438,2.536-1.088,3.291-2.229C320.406,78.2,320.268,76.577,320.051,75.153z"/>
						</g>
					</g>
					<g>
						<g>
							<g>
								<g>
									
										<linearGradient id="SVGID_00000090262697254077440290000003298109469515194797_" gradientUnits="userSpaceOnUse" x1="189.9054" y1="124.4808" x2="197.5238" y2="165.7962">
										<stop  offset="0" style="stop-color:#E59D7D"/>
										<stop  offset="1" style="stop-color:#E4BA9C"/>
									</linearGradient>
									<path style="fill:url(#SVGID_00000090262697254077440290000003298109469515194797_);" d="M205.315,136.11
										c-3.446-5.282-10.143-8.288-16.615-6.071c-1.212,0.415-2.282,1.152-3.272,1.965c-2.073,1.701-4.271,3.737-5.477,6.164
										c-0.005,0.011-0.006,0.025-0.012,0.036c-0.867,1.125-1.085,2.709-0.227,4.4c0.476,3.895,0.927,7.581,1.403,11.476
										c-0.077,1.563,0.76,3.021,2.333,3.569c4.173,1.453,9.002,2.221,13.305,0.848c4.616-1.473,8.308-4.846,10.009-9.419
										C208.314,144.902,207.747,139.839,205.315,136.11z"/>
									
										<linearGradient id="SVGID_00000024722840082172435830000002263570651782379152_" gradientUnits="userSpaceOnUse" x1="99.165" y1="141.2131" x2="106.7834" y2="182.5284">
										<stop  offset="0" style="stop-color:#E59D7D"/>
										<stop  offset="1" style="stop-color:#E4BA9C"/>
									</linearGradient>
									<path style="fill:url(#SVGID_00000024722840082172435830000002263570651782379152_);" d="M86.095,149.078
										c1.701,4.573,5.393,7.945,10.009,9.419c4.304,1.374,9.132,0.605,13.306-0.848c1.573-0.548,2.41-2.006,2.333-3.569
										c0.476-3.895,0.927-7.581,1.403-11.476c0.858-1.691,0.64-3.275-0.227-4.4c-0.005-0.011-0.006-0.025-0.012-0.036
										c-1.206-2.426-3.404-4.462-5.477-6.164c-0.99-0.813-2.06-1.55-3.272-1.965c-6.473-2.217-13.169,0.789-16.615,6.071
										C85.11,139.839,84.542,144.902,86.095,149.078z"/>
								</g>
							</g>
							
								<linearGradient id="SVGID_00000180342022826587654250000002064737439565596814_" gradientUnits="userSpaceOnUse" x1="174.6871" y1="360.7579" x2="111.6435" y2="246.9084">
								<stop  offset="0" style="stop-color:#CBFEFC"/>
								<stop  offset="1" style="stop-color:#FFFEFC"/>
							</linearGradient>
							<path style="fill:url(#SVGID_00000180342022826587654250000002064737439565596814_);" d="M275.936,345.962H16.973
								c-1.698-25.621,2.747-74.556,11.113-92.334c5.272-11.242,21.874-31.635,51.898-45.1
								c17.472-7.843,39.476-13.334,66.451-13.334c26.972,0,48.976,5.49,66.451,13.334c30.021,13.465,46.623,33.857,51.895,45.1
								C273.146,271.406,277.591,320.34,275.936,345.962z"/>
							
								<linearGradient id="SVGID_00000173840600361785678540000002571873703055458216_" gradientUnits="userSpaceOnUse" x1="146.4332" y1="222.8055" x2="146.4332" y2="252.9599">
								<stop  offset="0.0363" style="stop-color:#A30032"/>
								<stop  offset="1" style="stop-color:#C4406C"/>
							</linearGradient>
							<polygon style="fill:url(#SVGID_00000173840600361785678540000002571873703055458216_);" points="163.732,287.964 
								129.134,287.964 141.379,226.96 151.487,226.96 							"/>
							
								<linearGradient id="SVGID_00000070109430137643080710000014214162969182592685_" gradientUnits="userSpaceOnUse" x1="143.5231" y1="208.229" x2="148.599" y2="234.0954">
								<stop  offset="0.0363" style="stop-color:#A30032"/>
								<stop  offset="1" style="stop-color:#C4406C"/>
							</linearGradient>
							
								<circle style="fill:url(#SVGID_00000070109430137643080710000014214162969182592685_);" cx="146.434" cy="223.065" r="9.147"/>
							
								<linearGradient id="SVGID_00000091008398562781754860000000565420696307231654_" gradientUnits="userSpaceOnUse" x1="172.857" y1="312.3394" x2="128.3313" y2="124.8015">
								<stop  offset="0" style="stop-color:#B8C9E6"/>
								<stop  offset="0.2156" style="stop-color:#BDCDE8"/>
								<stop  offset="0.4756" style="stop-color:#CCD8EC"/>
								<stop  offset="0.7571" style="stop-color:#E4EAF4"/>
								<stop  offset="1" style="stop-color:#FFFEFC"/>
							</linearGradient>
							<path style="fill:url(#SVGID_00000091008398562781754860000000565420696307231654_);" d="M190.879,202.908l-13.334,40.105
								c-1.423,4.279-6.997,5.322-9.87,1.847l-21.241-25.689l-21.281,25.694c-2.876,3.472-8.449,2.425-9.868-1.855l-13.297-40.103
								c-1.047-3.137,0.698-6.536,3.834-7.451c6.494-1.917,19.042-4.357,40.613-4.357c21.568,0,34.117,2.44,40.566,4.357
								C190.181,196.371,191.926,199.77,190.879,202.908z"/>
							
								<linearGradient id="SVGID_00000134945199955054997860000012113790560842196662_" gradientUnits="userSpaceOnUse" x1="144.9071" y1="183.2745" x2="156.2179" y2="219.6173">
								<stop  offset="0" style="stop-color:#E59D7D"/>
								<stop  offset="1" style="stop-color:#E4BA9C"/>
							</linearGradient>
							<path style="fill:url(#SVGID_00000134945199955054997860000012113790560842196662_);" d="M146.428,214.901L146.428,214.901
								c-11.06,0-20.026-5.814-20.026-16.873v-22.523h40.051v22.523C166.454,209.087,157.488,214.901,146.428,214.901z"/>
							
								<linearGradient id="SVGID_00000049913432387950669830000015952612315672645259_" gradientUnits="userSpaceOnUse" x1="139.2337" y1="83.6791" x2="148.3172" y2="156.0541">
								<stop  offset="0" style="stop-color:#E59D7D"/>
								<stop  offset="1" style="stop-color:#E4BA9C"/>
							</linearGradient>
							<path style="fill:url(#SVGID_00000049913432387950669830000015952612315672645259_);" d="M193.155,141.015
								c0,4.777-0.714,9.391-2.049,13.729v0.009c-3.124,10.182-9.64,18.876-18.222,24.781c-7.523,5.182-16.638,8.211-26.459,8.211
								c-9.821,0-18.936-3.03-26.45-8.211c-8.582-5.905-15.097-14.607-18.222-24.789c-1.334-4.338-2.049-8.952-2.049-13.729
								c0-25.805,20.916-46.729,46.721-46.729C172.231,94.285,193.155,115.21,193.155,141.015z"/>
							<path style="fill:#FFFFFF;" d="M146.432,74.276v0.044c-0.566,0-1.134-0.044-1.743,0
								C145.255,74.276,145.866,74.276,146.432,74.276z"/>
							<path style="fill:#FFFFFF;" d="M144.689,74.32c-0.611-0.044-1.177,0-1.745,0v-0.044
								C143.513,74.276,144.121,74.276,144.689,74.32z"/>
							
								<linearGradient id="SVGID_00000070799437854813307530000017441220284429954727_" gradientUnits="userSpaceOnUse" x1="283.9501" y1="93.6342" x2="106.0059" y2="398.0126">
								<stop  offset="0.0363" style="stop-color:#3C2E49"/>
								<stop  offset="1" style="stop-color:#413B6B"/>
							</linearGradient>
							<path style="fill:url(#SVGID_00000070799437854813307530000017441220284429954727_);" d="M357.412,213.918
								c-0.148,76.451-81.474,132.045-81.474,132.045H16.974c-1.7-25.623,2.743-74.558,11.115-92.338
								c5.268-11.237,21.869-31.632,51.897-45.097c3.832,12.029,24.793,70.984,66.451,70.984c41.652,0,62.613-58.955,66.451-70.984
								c65.201-12.963,78.28-69.368,80.354-81.474c0.225-1.333,1.378-2.299,2.724-2.299h40.467c1.121,0,2.138,0.676,2.563,1.719
								C342.478,135.02,357.489,174.102,357.412,213.918z"/>
							
								<linearGradient id="SVGID_00000090266913320159026200000003681573495707943595_" gradientUnits="userSpaceOnUse" x1="179.8949" y1="312.2785" x2="135.6716" y2="175.1583">
								<stop  offset="0.0363" style="stop-color:#BF9C32"/>
								<stop  offset="1" style="stop-color:#E5C86D"/>
							</linearGradient>
							<path style="fill:url(#SVGID_00000090266913320159026200000003681573495707943595_);" d="M212.885,208.529
								c-3.836,12.026-24.796,70.982-66.451,70.982c-41.657,0-62.617-58.956-66.451-70.982c1.655-0.741,3.398-1.481,5.14-2.179
								c6.013,17.996,25.621,66.494,61.31,66.494c35.642,0,55.251-48.411,61.351-66.451
								C209.528,207.047,211.228,207.788,212.885,208.529z"/>
							<g>
								<g>
									
										<linearGradient id="SVGID_00000085241487427342302120000016284542969091769485_" gradientUnits="userSpaceOnUse" x1="152.4231" y1="170.3455" x2="135.1789" y2="125.6587">
										<stop  offset="0.0363" style="stop-color:#3C2E49"/>
										<stop  offset="1" style="stop-color:#413B6B"/>
									</linearGradient>
									<path style="fill:url(#SVGID_00000085241487427342302120000016284542969091769485_);" d="M146.07,141.67
										c1.468,3.965,2.73,8.003,3.766,12.103c0.126,0.5,0.249,1,0.369,1.502c0.06,0.251,0.12,0.501,0.177,0.753
										c0.018,0.077,0.017,0.497,0.148,0.337c-0.125,0.153-0.602,0.114-0.769,0.117c-0.522,0.009-1.047-0.012-1.569-0.032
										c-2.206-0.084-4.394-0.337-6.562-0.75c-1.37-0.261-1.957,1.839-0.579,2.101c2.51,0.478,5.056,0.773,7.612,0.842
										c1.007,0.027,2.15,0.119,3.042-0.446c0.933-0.59,1.014-1.611,0.812-2.598c-1.01-4.927-2.602-9.798-4.346-14.508
										C147.688,139.787,145.581,140.351,146.07,141.67L146.07,141.67z"/>
									<g>
										
											<linearGradient id="SVGID_00000161617492261790006620000004668987658037902498_" gradientUnits="userSpaceOnUse" x1="197.2263" y1="147.0267" x2="195.2391" y2="142.7614">
											<stop  offset="0.0363" style="stop-color:#3C2E49"/>
											<stop  offset="1" style="stop-color:#413B6B"/>
										</linearGradient>
										<path style="fill:url(#SVGID_00000161617492261790006620000004668987658037902498_);" d="M201.336,141.003
											c-0.319-0.545-0.953-0.639-1.487-0.39c-3.335,1.56-6.301,3.924-8.559,6.833c-0.359,0.463-0.451,1.085,0,1.537
											c0.375,0.375,1.175,0.466,1.537,0c2.163-2.788,4.923-4.999,8.119-6.493C201.478,142.241,201.613,141.477,201.336,141.003z
											"/>
										
											<linearGradient id="SVGID_00000041996619702283185270000017647262089464062390_" gradientUnits="userSpaceOnUse" x1="-6643.752" y1="147.0267" x2="-6645.7393" y2="142.7614" gradientTransform="matrix(-1 0 0 1 -6548.1182 0)">
											<stop  offset="0.0363" style="stop-color:#3C2E49"/>
											<stop  offset="1" style="stop-color:#413B6B"/>
										</linearGradient>
										<path style="fill:url(#SVGID_00000041996619702283185270000017647262089464062390_);" d="M91.524,141.003
											c0.319-0.545,0.953-0.639,1.487-0.39c3.335,1.56,6.301,3.924,8.559,6.833c0.359,0.463,0.451,1.085,0,1.537
											c-0.375,0.375-1.175,0.466-1.537,0c-2.163-2.788-4.923-4.999-8.119-6.493C91.382,142.241,91.247,141.477,91.524,141.003z"
											/>
									</g>
								</g>
								
									<linearGradient id="SVGID_00000081634929438142684210000015700901659267231641_" gradientUnits="userSpaceOnUse" x1="160.5357" y1="212.059" x2="146.3819" y2="166.9439">
									<stop  offset="0" style="stop-color:#CBFEFC"/>
									<stop  offset="1" style="stop-color:#FFFEFC"/>
								</linearGradient>
								<path style="fill:url(#SVGID_00000081634929438142684210000015700901659267231641_);" d="M155.024,165.193
									c-0.085-0.03-0.126-0.112-0.225-0.122c-5.57-0.565-11.226-0.591-16.796-0.033c-0.706,0.071-1.045,0.671-1.032,1.225
									c-0.091,2.487,0.749,4.922,2.353,6.826c1.717,2.039,5.011,2.714,7.621,2.414c4.934-0.567,9.021-3.923,8.943-9.343
									C155.879,165.573,155.471,165.288,155.024,165.193z"/>
								<g>
									<g>
										
											<linearGradient id="SVGID_00000054978216790253659710000009693346524471419574_" gradientUnits="userSpaceOnUse" x1="174.0637" y1="161.9948" x2="156.8193" y2="117.3076">
											<stop  offset="0.0363" style="stop-color:#3C2E49"/>
											<stop  offset="1" style="stop-color:#413B6B"/>
										</linearGradient>
										<path style="fill:url(#SVGID_00000054978216790253659710000009693346524471419574_);" d="M161.378,144.741
											c0.702-2.197,2.313-4.287,4.563-5.04c2.023-0.677,4.616-0.213,5.95,1.568c0.352,0.47,0.942,0.712,1.49,0.391
											c0.463-0.271,0.745-1.017,0.391-1.491c-1.881-2.512-5.24-3.538-8.243-2.623c-3.082,0.939-5.295,3.618-6.253,6.616
											C158.85,145.5,160.953,146.073,161.378,144.741L161.378,144.741z"/>
									</g>
									<g>
										
											<linearGradient id="SVGID_00000035508885659316818840000003616172699457648021_" gradientUnits="userSpaceOnUse" x1="181.3284" y1="159.1911" x2="164.0841" y2="114.5044">
											<stop  offset="0.0363" style="stop-color:#3C2E49"/>
											<stop  offset="1" style="stop-color:#413B6B"/>
										</linearGradient>
										<path style="fill:url(#SVGID_00000035508885659316818840000003616172699457648021_);" d="M162.911,127.025
											c1.408-1.277,3.804-1.393,5.602-1.339c2.102,0.063,4.169,0.614,6.031,1.589c1.241,0.65,2.343-1.23,1.1-1.881
											c-2.273-1.19-4.786-1.853-7.355-1.892c-2.373-0.036-5.095,0.329-6.917,1.982
											C160.329,126.429,161.874,127.966,162.911,127.025L162.911,127.025z"/>
									</g>
									<g>
										
											<linearGradient id="SVGID_00000118374886771408379880000014831464294214431913_" gradientUnits="userSpaceOnUse" x1="139.0317" y1="175.5133" x2="121.7873" y2="130.8263">
											<stop  offset="0.0363" style="stop-color:#3C2E49"/>
											<stop  offset="1" style="stop-color:#413B6B"/>
										</linearGradient>
										<path style="fill:url(#SVGID_00000118374886771408379880000014831464294214431913_);" d="M133.616,144.161
											c-0.958-2.998-3.17-5.677-6.252-6.616c-3.003-0.915-6.362,0.111-8.243,2.623c-0.353,0.471-0.076,1.217,0.391,1.491
											c0.557,0.326,1.137,0.082,1.49-0.391c1.334-1.781,3.927-2.245,5.95-1.568c2.251,0.753,3.861,2.843,4.563,5.04
											C131.94,146.071,134.045,145.503,133.616,144.161L133.616,144.161z"/>
									</g>
									<g>
										
											<linearGradient id="SVGID_00000091697987103607783050000013165558854118154935_" gradientUnits="userSpaceOnUse" x1="142.7468" y1="174.0792" x2="125.5026" y2="129.3926">
											<stop  offset="0.0363" style="stop-color:#3C2E49"/>
											<stop  offset="1" style="stop-color:#413B6B"/>
										</linearGradient>
										<path style="fill:url(#SVGID_00000091697987103607783050000013165558854118154935_);" d="M131.523,125.485
											c-1.822-1.652-4.544-2.018-6.917-1.982c-2.569,0.039-5.083,0.702-7.355,1.892c-1.243,0.651-0.143,2.532,1.1,1.881
											c1.862-0.975,3.928-1.526,6.03-1.589c1.799-0.054,4.194,0.061,5.602,1.339
											C131.019,127.965,132.564,126.429,131.523,125.485L131.523,125.485z"/>
									</g>
								</g>
							</g>
							
								<linearGradient id="SVGID_00000154387473805386996890000011115018086281867168_" gradientUnits="userSpaceOnUse" x1="105.5123" y1="119.2537" x2="111.1421" y2="140.6814">
								<stop  offset="0.0363" style="stop-color:#573524"/>
								<stop  offset="1" style="stop-color:#7A5D4E"/>
							</linearGradient>
							<path style="fill:url(#SVGID_00000154387473805386996890000011115018086281867168_);" d="M115.234,117.763
								c0,0-11.695,15.372-13.553,25.404c0,0-2.962-14.684,1.874-23.399L115.234,117.763z"/>
							
								<linearGradient id="SVGID_00000161621380785824369620000008861068486087044025_" gradientUnits="userSpaceOnUse" x1="-8671.9443" y1="119.2537" x2="-8666.3145" y2="140.6814" gradientTransform="matrix(-1 0 0 1 -8484.7148 0)">
								<stop  offset="0.0363" style="stop-color:#573524"/>
								<stop  offset="1" style="stop-color:#7A5D4E"/>
							</linearGradient>
							<path style="fill:url(#SVGID_00000161621380785824369620000008861068486087044025_);" d="M177.508,117.763
								c0,0,11.695,15.372,13.553,25.404c0,0,2.962-14.684-1.874-23.399L177.508,117.763z"/>
							
								<linearGradient id="SVGID_00000087370974029569079890000003199627048200634005_" gradientUnits="userSpaceOnUse" x1="149.6059" y1="141.8889" x2="143.1595" y2="100.4271">
								<stop  offset="0.0363" style="stop-color:#573524"/>
								<stop  offset="1" style="stop-color:#7A5D4E"/>
							</linearGradient>
							<path style="fill:url(#SVGID_00000087370974029569079890000003199627048200634005_);" d="M189.266,131.711
								c-0.043,0-0.087,0.052-0.13,0.052c-0.045,0-0.087,0.052-0.132,0.052c-0.828,0.208-1.523,0.26-2.092,0.26
								c-2.874,0.468-5.794-0.312-8.279-2.237c-2.745-2.133-4.794-5.151-6.623-8.377c-2.44,1.613-5.796,1.717-8.321,0.937
								c-2.311-0.676-4.489-2.497-5.796-4.943c-5.272,4.215-11.766,5.827-18.04,4.059c-4.27-1.197-8.149-3.954-11.198-7.753
								c-0.045,0.052-0.132,0.052-0.174,0.104c0.696,3.33,2.134,6.348,4.226,8.794c0.96,1.145-0.609,2.706-1.523,1.613
								c-2.179-2.55-3.749-5.775-4.577-9.314c-5.97,3.538-11.938,7.233-17.472,11.655c-1.308,0.989-2.615,2.081-3.879,3.226
								c-0.349,0.364-0.828,0.416-1.306,0.312c0,0-0.045,0.052-0.089,0.052c-0.085,0-0.172,0-0.26-0.052
								c-0.262-0.052-0.481-0.104-0.698-0.26c0,0-0.042,0-0.087,0c-4.445-2.133-4.968-9.314-1.613-15.402
								c1.438-2.602,3.487-4.215,5.492-5.151c0.653-0.884,1.438-1.665,2.221-2.445c0.174-0.468,0.436-0.884,0.915-1.145
								c14.947-8.117,31.417-9.678,47.54-6.712c8.191,1.509,16.689,3.954,24.402,7.753c0.957,0.468,1.785,1.145,2.57,1.873
								c2.57,0.885,5.666,2.654,7.625,6.244C195.76,121.877,194.845,129.994,189.266,131.711z"/>
							<g>
								<g>
									
										<linearGradient id="SVGID_00000018220685463198291650000005320030477316706698_" gradientUnits="userSpaceOnUse" x1="157.1866" y1="130.28" x2="139.6057" y2="42.3752">
										<stop  offset="0.0363" style="stop-color:#3C2E49"/>
										<stop  offset="1" style="stop-color:#413B6B"/>
									</linearGradient>
									<path style="fill:url(#SVGID_00000018220685463198291650000005320030477316706698_);" d="M229.171,79.529l-38.475,19.517
										l-13.54,6.864c-6.91-2.475-16.388-4.623-28.948-4.996c-0.561,0-1.167-0.047-1.774,0c-0.609-0.047-1.215,0-1.776,0
										c-12.56,0.374-22.085,2.522-28.995,4.996l-13.494-6.817L63.695,79.529c-2.474-1.261-2.474-4.763,0-6.023l81.198-41.229
										c0.98-0.467,2.1-0.467,3.035,0l81.243,41.229C231.647,74.766,231.647,78.268,229.171,79.529z"/>
								</g>
								<path style="opacity:0.3;fill:#272425;" d="M229.17,79.533l-0.129,0.06l-81.116-41.16c-0.93-0.473-2.049-0.473-3.03,0
									L63.823,79.601l-0.129-0.069c-2.47-1.265-2.47-4.769,0-6.025l81.202-41.229c0.981-0.465,2.1-0.465,3.03,0l81.245,41.229
									C231.649,74.764,231.649,78.267,229.17,79.533z"/>
								
									<linearGradient id="SVGID_00000049206247568290705400000005379798575068483492_" gradientUnits="userSpaceOnUse" x1="212.1157" y1="191.8928" x2="120.0427" y2="57.837">
									<stop  offset="0.0363" style="stop-color:#553F69"/>
									<stop  offset="1" style="stop-color:#534A8C"/>
								</linearGradient>
								<path style="fill:url(#SVGID_00000049206247568290705400000005379798575068483492_);" d="M191.651,110.271
									c0.116,1.368-1.379,2.261-2.518,1.495c-2.439-1.639-6.341-3.85-11.977-5.857c-6.91-2.475-16.388-4.623-28.948-4.996
									c-0.561,0-1.167-0.047-1.774,0c-0.609-0.047-1.215,0-1.776,0c-12.56,0.374-22.085,2.522-28.995,4.996
									c-5.602,2.013-9.49,4.227-11.914,5.867c-1.141,0.771-2.645-0.116-2.529-1.489l0.949-11.195l1.728-19.891
									c0.141-1.774,1.028-3.409,2.428-4.529c4.53-3.502,16.39-10.646,38.475-11.299c0.513,0,1.074-0.047,1.635,0
									c0.559-0.047,1.119,0,1.632,0c22.085,0.654,33.945,7.798,38.475,11.299c1.448,1.12,2.287,2.755,2.474,4.529l1.68,19.844
									L191.651,110.271z"/>
							</g>
						</g>
						<g>
							
								<linearGradient id="SVGID_00000067919342242006715350000002126327083418538667_" gradientUnits="userSpaceOnUse" x1="116.5411" y1="202.6191" x2="114.3434" y2="144.1624">
								<stop  offset="0" style="stop-color:#DF7B7D"/>
								<stop  offset="1" style="stop-color:#DFA29B"/>
							</linearGradient>
							<path style="fill:url(#SVGID_00000067919342242006715350000002126327083418538667_);" d="M128.135,165.856
								c0,5.913-3.305,11.052-8.16,13.677c-8.582-5.905-15.097-14.607-18.222-24.789c2.797-2.729,6.619-4.416,10.854-4.416
								C121.18,150.328,128.135,157.283,128.135,165.856z"/>
							
								<linearGradient id="SVGID_00000130613436555940729140000002065766235359993498_" gradientUnits="userSpaceOnUse" x1="179.4081" y1="200.2557" x2="177.2105" y2="141.799">
								<stop  offset="0" style="stop-color:#DF7B7D"/>
								<stop  offset="1" style="stop-color:#DFA29B"/>
							</linearGradient>
							<path style="fill:url(#SVGID_00000130613436555940729140000002065766235359993498_);" d="M191.107,154.744v0.009
								c-3.124,10.182-9.64,18.876-18.222,24.781c-4.863-2.625-8.168-7.764-8.168-13.677c0-8.573,6.955-15.528,15.536-15.528
								C184.479,150.328,188.309,152.015,191.107,154.744z"/>
						</g>
					</g>
				</g>
				<g>
					<g>
						<g>
							
								<linearGradient id="SVGID_00000147215398093884170730000007482100342487512979_" gradientUnits="userSpaceOnUse" x1="267.2768" y1="-543.2748" x2="278.9441" y2="-576.3321" gradientTransform="matrix(0.981 0.1939 -0.1939 0.981 -312.2227 780.9517)">
								<stop  offset="0.0363" style="stop-color:#A30032"/>
								<stop  offset="1" style="stop-color:#C4406C"/>
							</linearGradient>
							<polygon style="fill:url(#SVGID_00000147215398093884170730000007482100342487512979_);" points="72.233,273.474 
								67.26,298.636 62.542,292.95 56.015,296.414 60.988,271.252 							"/>
							
								<linearGradient id="SVGID_00000151541770810192547560000002231828428697086653_" gradientUnits="userSpaceOnUse" x1="266.8684" y1="-533.9984" x2="276.946" y2="-562.5514" gradientTransform="matrix(0.981 0.1939 -0.1939 0.981 -312.2227 780.9517)">
								<stop  offset="0.0363" style="stop-color:#A30032"/>
								<stop  offset="1" style="stop-color:#C4406C"/>
							</linearGradient>
							<polygon style="fill:url(#SVGID_00000151541770810192547560000002231828428697086653_);" points="72.233,273.474 
								67.26,298.636 62.542,292.95 66.61,272.363 							"/>
						</g>
						<g>
							
								<linearGradient id="SVGID_00000140731540751611870620000013142962120482212793_" gradientUnits="userSpaceOnUse" x1="-6589.1797" y1="825.1533" x2="-6577.5132" y2="792.0974" gradientTransform="matrix(-0.9803 0.1976 0.1976 0.9803 -6532.2383 792.8821)">
								<stop  offset="0.0363" style="stop-color:#A30032"/>
								<stop  offset="1" style="stop-color:#C4406C"/>
							</linearGradient>
							<polygon style="fill:url(#SVGID_00000140731540751611870620000013142962120482212793_);" points="73.169,273.473 
								78.238,298.615 82.934,292.911 89.474,296.35 84.406,271.207 							"/>
							
								<linearGradient id="SVGID_00000034787460089858006570000006906930680334609853_" gradientUnits="userSpaceOnUse" x1="-6589.5884" y1="834.4302" x2="-6579.5112" y2="805.8777" gradientTransform="matrix(-0.9803 0.1976 0.1976 0.9803 -6532.2383 792.8821)">
								<stop  offset="0.0363" style="stop-color:#A30032"/>
								<stop  offset="1" style="stop-color:#C4406C"/>
							</linearGradient>
							<polygon style="fill:url(#SVGID_00000034787460089858006570000006906930680334609853_);" points="73.169,273.473 
								78.238,298.615 82.934,292.911 78.788,272.34 							"/>
						</g>
					</g>
					<g>
						
							<linearGradient id="SVGID_00000172426676434317690210000002811637018809474232_" gradientUnits="userSpaceOnUse" x1="179.9742" y1="152.2964" x2="170.6462" y2="122.1748" gradientTransform="matrix(1 -0.0019 0.0019 1 -98.8436 138.1233)">
							<stop  offset="0" style="stop-color:#C26D22"/>
							<stop  offset="1" style="stop-color:#D8C153"/>
						</linearGradient>
						<path style="fill:url(#SVGID_00000172426676434317690210000002811637018809474232_);" d="M74.919,246.713L74.919,246.713
							c0.782,1.072,2.206,1.45,3.417,0.908l0,0c1.742-0.779,3.738,0.368,3.941,2.265l0,0c0.141,1.319,1.186,2.359,2.505,2.495l0,0
							c1.898,0.196,3.053,2.187,2.28,3.932l0,0c-0.537,1.213-0.153,2.636,0.922,3.413h0c1.546,1.119,1.55,3.421,0.009,4.545l0,0
							c-1.072,0.782-1.45,2.206-0.909,3.417l0,0c0.78,1.742-0.368,3.737-2.265,3.941l0,0c-1.319,0.141-2.359,1.185-2.495,2.505l0,0
							c-0.196,1.898-2.187,3.053-3.932,2.28l0,0c-1.213-0.537-2.636-0.153-3.413,0.922l0,0c-1.119,1.546-3.421,1.551-4.545,0.009
							l0,0c-0.782-1.072-2.206-1.45-3.417-0.909l0,0c-1.742,0.78-3.737-0.367-3.941-2.265l0,0c-0.141-1.319-1.185-2.359-2.505-2.495
							l0,0c-1.898-0.196-3.053-2.187-2.28-3.932l0,0c0.537-1.213,0.153-2.636-0.922-3.413l0,0c-1.546-1.119-1.55-3.421-0.009-4.545
							v0c1.072-0.782,1.45-2.206,0.909-3.417h0c-0.78-1.742,0.368-3.738,2.265-3.941l0,0c1.319-0.141,2.359-1.186,2.495-2.505l0,0
							c0.196-1.898,2.187-3.053,3.932-2.28l0,0c1.213,0.537,2.636,0.153,3.413-0.922l0,0
							C71.493,245.176,73.794,245.171,74.919,246.713z"/>
						
							<linearGradient id="SVGID_00000080203913776861373040000001693183620630726530_" gradientUnits="userSpaceOnUse" x1="147.2625" y1="88.8238" x2="175.3436" y2="130.2169" gradientTransform="matrix(1 -0.0019 0.0019 1 -98.8436 138.1233)">
							<stop  offset="0" style="stop-color:#C26D22"/>
							<stop  offset="1" style="stop-color:#D8C153"/>
						</linearGradient>
						<path style="fill:url(#SVGID_00000080203913776861373040000001693183620630726530_);" d="M85.137,262.006
							c0.013,6.882-5.555,12.472-12.438,12.485c-6.882,0.013-12.472-5.556-12.485-12.438c-0.013-6.882,5.555-12.472,12.438-12.485
							C79.534,249.555,85.124,255.123,85.137,262.006z"/>
						
							<linearGradient id="SVGID_00000182526904283877743310000006078155232106729907_" gradientUnits="userSpaceOnUse" x1="181.2663" y1="143.3234" x2="167.9544" y2="117.8657" gradientTransform="matrix(1 -0.0019 0.0019 1 -98.8436 138.1233)">
							<stop  offset="0" style="stop-color:#C26D22"/>
							<stop  offset="1" style="stop-color:#D8C153"/>
						</linearGradient>
						<path style="fill:url(#SVGID_00000182526904283877743310000006078155232106729907_);" d="M84.141,262.008
							c0.012,6.332-5.111,11.475-11.444,11.487c-6.332,0.012-11.475-5.111-11.488-11.444c-0.012-6.332,5.112-11.475,11.444-11.488
							C78.986,250.552,84.129,255.675,84.141,262.008z"/>
					</g>
				</g>
			</g>
		</g>
		<g>
			<path style="fill:#372C61;" d="M449.891,234.777h246.525c7.838,0,14.193,6.354,14.193,14.193v0
				c0,7.838-6.354,14.193-14.193,14.193H449.891c-7.838,0-14.193-6.354-14.193-14.193l0,0
				C435.698,241.131,442.053,234.777,449.891,234.777z"/>
		</g>
		<g>
			<path style="fill:#372C61;" d="M618.969,49.279h-91.631c-6.732,0-12.189,5.457-12.189,12.189v0
				c0,6.732,5.457,12.189,12.189,12.189h91.631c6.732,0,12.189-5.457,12.189-12.189v0C631.158,54.736,625.701,49.279,618.969,49.279
				z"/>
			<g>
				<path style="fill:#FFFFFF;" d="M555.912,60.802c0.001-0.004,0.002-0.008,0.002-0.013c0.002-0.013,0.003-0.026,0.004-0.039
					c0-0.006,0.001-0.011,0.001-0.017c0-0.012,0-0.024-0.001-0.037c0-0.007-0.001-0.014-0.001-0.02
					c-0.001-0.011-0.003-0.023-0.004-0.034c-0.001-0.008-0.003-0.015-0.004-0.023c-0.002-0.01-0.005-0.021-0.008-0.031
					c-0.002-0.008-0.005-0.017-0.008-0.025c-0.003-0.009-0.006-0.019-0.01-0.028c-0.004-0.009-0.008-0.018-0.012-0.026
					c-0.004-0.008-0.008-0.016-0.012-0.024c-0.005-0.01-0.011-0.019-0.018-0.028c-0.004-0.007-0.008-0.013-0.013-0.019
					c-0.008-0.01-0.016-0.02-0.025-0.029c-0.004-0.005-0.008-0.01-0.013-0.014c-0.011-0.011-0.023-0.021-0.035-0.031
					c-0.003-0.002-0.006-0.005-0.009-0.007c-0.016-0.012-0.033-0.023-0.051-0.034l-9.813-5.426c-0.001,0-0.001,0-0.002-0.001
					c-0.113-0.061-0.247-0.061-0.365,0.001l-9.807,5.426c-0.013,0.007-0.025,0.016-0.037,0.024
					c-0.004,0.003-0.008,0.005-0.012,0.008c-0.009,0.007-0.017,0.014-0.025,0.021c-0.007,0.006-0.014,0.012-0.02,0.018
					c-0.007,0.007-0.013,0.014-0.019,0.021c-0.007,0.008-0.013,0.015-0.019,0.023c-0.005,0.007-0.01,0.014-0.015,0.021
					c-0.006,0.009-0.012,0.018-0.017,0.027c-0.004,0.007-0.008,0.014-0.011,0.021c-0.005,0.01-0.01,0.02-0.014,0.03
					c-0.003,0.007-0.005,0.014-0.008,0.022c-0.004,0.011-0.007,0.021-0.01,0.032c-0.002,0.007-0.004,0.015-0.005,0.022
					c-0.002,0.011-0.004,0.022-0.006,0.033c-0.001,0.008-0.002,0.015-0.003,0.023c-0.001,0.011-0.002,0.022-0.002,0.033
					c0,0.008-0.001,0.016,0,0.024c0,0.01,0.001,0.021,0.002,0.031c0.001,0.009,0.001,0.018,0.003,0.026
					c0.001,0.009,0.003,0.018,0.005,0.027c0.002,0.01,0.004,0.02,0.006,0.03c0.002,0.006,0.004,0.013,0.006,0.019
					c0.025,0.081,0.071,0.155,0.139,0.211c0,0,0,0,0,0l0,0c0.019,0.016,0.04,0.031,0.063,0.044l4.647,2.575l0.043,0.024
					c-0.06,0.733-0.112,1.468-0.134,2.007c-0.003,0.073,0.003,0.144,0.018,0.214c0.021,0.096,0.059,0.188,0.111,0.271
					c0.716,1.119,2.733,1.776,5.48,1.859c0.026,0.001,0.052,0,0.078-0.002c2.797-0.211,4.725-0.913,5.153-2.076
					c0.011-0.031,0.02-0.062,0.026-0.094c0.019-0.083,0.023-0.169,0.016-0.254c-0.043-0.497-0.092-1.211-0.145-1.928l0.047-0.026
					l4.647-2.569c0.108-0.06,0.177-0.159,0.207-0.268c0-0.001,0.001-0.002,0.001-0.003C555.907,60.831,555.91,60.817,555.912,60.802
					z"/>
			</g>
		</g>
		<g>
			
				<linearGradient id="SVGID_00000033356658725864113570000016955130000142304908_" gradientUnits="userSpaceOnUse" x1="765.6168" y1="141.8052" x2="754.4884" y2="120.7408">
				<stop  offset="0" style="stop-color:#C26D22"/>
				<stop  offset="1" style="stop-color:#D8C153"/>
			</linearGradient>
			<path style="fill:url(#SVGID_00000033356658725864113570000016955130000142304908_);" d="M762.011,125.51
				c-2.203-0.338-4.201,0.795-5.486,2.491c-1.164-2.433-1.165-5.429-0.439-7.957c0.416-1.447-1.836-2.065-2.251-0.621
				c-0.978,3.405-0.776,7.373,1.061,10.47c0.12,0.202,0.255,0.398,0.397,0.591c-0.981,3.551,1.044,7.182,3.553,9.579
				c1.087,1.038,2.74-0.611,1.651-1.651c-1.602-1.531-3.113-3.702-3.125-5.99c1.751,1.104,3.918,1.434,5.768,0.134
				C765.872,130.637,765.724,126.08,762.011,125.51z M760.514,131.044c-0.961,0.031-1.837-0.394-2.538-1.019
				c0.37-0.686,0.89-1.296,1.543-1.712c0.869-0.554,2.847-1.025,3.206,0.363C763.06,129.975,761.662,131.008,760.514,131.044z"/>
			
				<linearGradient id="SVGID_00000072250986584255341550000008985175934820137864_" gradientUnits="userSpaceOnUse" x1="-2113.2605" y1="2929.1606" x2="-2127.3027" y2="2891.8032" gradientTransform="matrix(0.3672 -0.9302 0.9302 0.3672 -1190.2515 -2990.5149)">
				<stop  offset="0.0363" style="stop-color:#A30032"/>
				<stop  offset="1" style="stop-color:#C4406C"/>
			</linearGradient>
			<path style="fill:url(#SVGID_00000072250986584255341550000008985175934820137864_);" d="M736.8,40.092
				c-1.067,0.797-1.957,1.897-2.552,3.134c-4.189,0.255-8.106,3.93-8.604,8.067c-0.466,0.389-0.882,0.827-1.227,1.299
				c-2.024,2.765-2.036,6.681,0.149,9.336c0.953,1.159,2.617-0.481,1.666-1.637c-1.36-1.653-1.267-3.999-0.251-5.793
				c0.062,0.178,0.129,0.356,0.206,0.532c1.246,2.84,4.995,4.485,7.581,2.272c2.141-1.833,1.433-5.303-0.692-6.831
				c-1.385-0.996-3.037-1.12-4.584-0.69c0.989-2.034,3.026-3.745,5.022-4.15c-0.131,0.986-0.061,1.991,0.261,2.951
				c0.495,1.477,1.6,2.759,3.178,3.07c1.402,0.276,2.986-0.179,3.797-1.414c1.841-2.806-1.226-5.815-3.732-6.657
				c-0.088-0.03-0.176-0.051-0.264-0.076c0.374-0.573,0.83-1.082,1.334-1.479c1.826-1.439,4.418-1.554,6.438-0.472
				c1.32,0.707,2.52-1.298,1.19-2.01C742.893,38.033,739.395,38.153,736.8,40.092z M732.738,54.542
				c-0.221,2.142-3.002,1.524-3.954,0.319c-0.572-0.723-0.837-1.526-0.885-2.347c0.535-0.315,1.131-0.533,1.78-0.603
				C731.242,51.743,732.917,52.803,732.738,54.542z M738.721,47.685c0.318,0.66,0.307,1.422-0.502,1.659
				c-0.941,0.275-1.736-0.337-2.107-1.171c-0.352-0.791-0.407-1.654-0.251-2.495C737.063,45.951,738.197,46.598,738.721,47.685z"/>
			
				<linearGradient id="SVGID_00000067952277491319384110000003656733297643678369_" gradientUnits="userSpaceOnUse" x1="237.7868" y1="29.3686" x2="229.4405" y2="9.894">
				<stop  offset="0.0363" style="stop-color:#A30032"/>
				<stop  offset="1" style="stop-color:#C4406C"/>
			</linearGradient>
			<path style="fill:url(#SVGID_00000067952277491319384110000003656733297643678369_);" d="M237.246,22.386
				c-0.759-0.422-1.345-0.828-1.92-1.332c-0.308-0.27-0.603-0.555-0.883-0.853c-0.154-0.164-0.304-0.332-0.449-0.504
				c-0.053-0.063-0.105-0.126-0.157-0.189c0.003,0.004-0.104-0.135-0.134-0.172c-1.035-1.384-1.657-2.708-2.045-4.336
				c-0.146-0.613-0.844-0.978-1.436-0.815c-0.627,0.172-0.962,0.821-0.815,1.436c0.878,3.687,3.35,6.939,6.66,8.782
				c0.551,0.307,1.274,0.133,1.597-0.419C237.979,23.446,237.799,22.693,237.246,22.386z"/>
			
				<linearGradient id="SVGID_00000161617878346689604420000016542871401462183345_" gradientUnits="userSpaceOnUse" x1="746.5644" y1="263.2436" x2="733.8463" y2="241.7817">
				<stop  offset="0" style="stop-color:#C26D22"/>
				<stop  offset="1" style="stop-color:#D8C153"/>
			</linearGradient>
			<path style="fill:url(#SVGID_00000161617878346689604420000016542871401462183345_);" d="M742.656,249.252
				c-2.224-2.576-5.763-3.759-9.087-3.16c-0.621,0.112-0.972,0.868-0.816,1.436c0.18,0.654,0.814,0.928,1.436,0.815
				c2.567-0.463,5.315,0.687,6.933,2.699c2.04,2.538,1.743,6.126,1.541,9.165c-0.1,1.5,2.236,1.494,2.335,0
				C745.253,256.395,745.3,252.315,742.656,249.252z"/>
			
				<linearGradient id="SVGID_00000075853106291898568370000005323106514171276683_" gradientUnits="userSpaceOnUse" x1="39.4541" y1="50.1224" x2="24.8812" y2="16.4724">
				<stop  offset="0" style="stop-color:#C26D22"/>
				<stop  offset="1" style="stop-color:#D8C153"/>
			</linearGradient>
			<path style="fill:url(#SVGID_00000075853106291898568370000005323106514171276683_);" d="M42.746,32.775
				c-0.967-2.048-2.103-4.232-4.172-5.363c-0.864-0.472-1.798-0.719-2.757-0.817c-0.381-2.099-0.982-4.209-2.418-5.795
				c-1.827-2.019-4.635-2.697-7.192-3.232c-1.466-0.306-2.093,1.944-0.621,2.252c1.78,0.372,3.65,0.748,5.184,1.779
				c1.669,1.122,2.235,3.011,2.628,4.883c0.01,0.049,0.021,0.101,0.031,0.15c-0.739,0.084-1.471,0.217-2.174,0.385
				c-4.276,1.022-8.675,4.159-8.275,9.059c0.161,1.97,1.113,3.891,2.906,4.853c1.845,0.99,3.997,0.764,5.826-0.14
				c4.478-2.213,5.041-7.353,4.476-11.797c0.315,0.07,0.625,0.159,0.919,0.288c1.879,0.825,2.801,2.93,3.624,4.672
				C41.372,35.312,43.385,34.128,42.746,32.775z M32.241,37.541c-1.992,2.033-5.909,2.623-6.802-0.788
				c-0.937-3.579,2.225-6.183,5.279-7.162c0.955-0.306,2.042-0.591,3.133-0.702C34.33,31.924,34.402,35.336,32.241,37.541z"/>
			
				<linearGradient id="SVGID_00000152945875567987340020000012068730282268539571_" gradientUnits="userSpaceOnUse" x1="395.2845" y1="293.0728" x2="384.1561" y2="266.0468">
				<stop  offset="0" style="stop-color:#C26D22"/>
				<stop  offset="1" style="stop-color:#D8C153"/>
			</linearGradient>
			<path style="fill:url(#SVGID_00000152945875567987340020000012068730282268539571_);" d="M384.623,284.625
				c0.732,0.452,1.605,0.726,2.49,0.79c1.147,2.458,4.287,3.941,6.892,3.258c0.345,0.188,0.707,0.334,1.072,0.43
				c2.143,0.56,4.5-0.362,5.578-2.305c0.47-0.848-0.911-1.459-1.379-0.613c-0.671,1.21-2.104,1.711-3.423,1.526
				c0.092-0.079,0.183-0.162,0.271-0.25c1.412-1.423,1.511-4.068-0.433-5.097c-1.61-0.852-3.528,0.397-3.943,2.037
				c-0.271,1.069,0.048,2.092,0.673,2.92c-1.458-0.112-2.97-0.931-3.687-2.035c0.624-0.155,1.212-0.436,1.712-0.858
				c0.77-0.648,1.279-1.617,1.091-2.639c-0.167-0.908-0.816-1.753-1.751-1.947c-2.124-0.441-3.205,2.117-3.117,3.823
				c0.003,0.06,0.011,0.118,0.017,0.177c-0.433-0.089-0.848-0.242-1.206-0.451c-1.299-0.756-1.982-2.287-1.812-3.759
				c0.111-0.962-1.378-1.207-1.491-0.238C381.939,281.45,382.841,283.525,384.623,284.625z M394.275,283.638
				c1.34-0.375,1.629,1.443,1.13,2.301c-0.299,0.516-0.719,0.865-1.201,1.089c-0.317-0.247-0.589-0.553-0.785-0.927
				C392.947,285.202,393.187,283.942,394.275,283.638z M388.732,281.668c0.321-0.348,0.782-0.522,1.116-0.092
				c0.389,0.501,0.209,1.124-0.204,1.545c-0.392,0.399-0.898,0.637-1.441,0.743C388.083,283.076,388.203,282.241,388.732,281.668z"
				/>
			
				<linearGradient id="SVGID_00000124160967128888348750000012515845523015351964_" gradientUnits="userSpaceOnUse" x1="14.4689" y1="193.0347" x2="2.5457" y2="168.9233">
				<stop  offset="0" style="stop-color:#C26D22"/>
				<stop  offset="1" style="stop-color:#D8C153"/>
			</linearGradient>
			<path style="fill:url(#SVGID_00000124160967128888348750000012515845523015351964_);" d="M5.393,183.535
				c2.224,2.576,5.763,3.759,9.087,3.16c0.621-0.112,0.972-0.868,0.816-1.436c-0.18-0.654-0.813-0.928-1.436-0.815
				c-2.567,0.463-5.315-0.687-6.933-2.699c-2.04-2.538-1.743-6.126-1.541-9.165c0.1-1.5-2.236-1.494-2.335,0
				C2.796,176.392,2.749,180.471,5.393,183.535z"/>
			
				<linearGradient id="SVGID_00000096737945537850803670000012743502760243534736_" gradientUnits="userSpaceOnUse" x1="431.5646" y1="119.154" x2="416.1968" y2="86.5638">
				<stop  offset="0" style="stop-color:#C26D22"/>
				<stop  offset="1" style="stop-color:#D8C153"/>
			</linearGradient>
			<path style="fill:url(#SVGID_00000096737945537850803670000012743502760243534736_);" d="M410.124,96.827
				c0.967,2.048,2.103,4.232,4.172,5.363c0.864,0.472,1.798,0.719,2.757,0.817c0.381,2.099,0.982,4.209,2.418,5.795
				c1.827,2.019,4.635,2.697,7.192,3.232c1.466,0.307,2.093-1.944,0.621-2.252c-1.78-0.372-3.65-0.748-5.184-1.779
				c-1.669-1.122-2.235-3.011-2.628-4.883c-0.01-0.049-0.021-0.101-0.031-0.15c0.739-0.084,1.471-0.217,2.174-0.385
				c4.275-1.022,8.675-4.159,8.275-9.06c-0.161-1.97-1.113-3.891-2.906-4.853c-1.845-0.99-3.997-0.764-5.826,0.14
				c-4.478,2.213-5.041,7.353-4.477,11.797c-0.315-0.07-0.625-0.159-0.919-0.288c-1.879-0.825-2.801-2.93-3.624-4.672
				C411.498,94.291,409.485,95.475,410.124,96.827z M420.629,92.061c1.992-2.033,5.909-2.624,6.802,0.787
				c0.937,3.579-2.225,6.184-5.279,7.162c-0.955,0.306-2.042,0.591-3.133,0.702C418.54,97.679,418.468,94.267,420.629,92.061z"/>
			<g>
				
					<linearGradient id="SVGID_00000085218087243110338340000003524408722201751225_" gradientUnits="userSpaceOnUse" x1="385.8537" y1="39.6747" x2="382.5417" y2="33.5144">
					<stop  offset="0.0363" style="stop-color:#A30032"/>
					<stop  offset="1" style="stop-color:#C4406C"/>
				</linearGradient>
				<path style="fill:url(#SVGID_00000085218087243110338340000003524408722201751225_);" d="M386.565,36.882
					c0,1.222-0.99,2.213-2.212,2.213c-1.222,0-2.212-0.991-2.212-2.213c0-1.222,0.991-2.212,2.212-2.212
					C385.574,34.669,386.565,35.66,386.565,36.882z"/>
			</g>
			<g>
				
					<linearGradient id="SVGID_00000114796567329489924430000010546131741730101904_" gradientUnits="userSpaceOnUse" x1="244.9467" y1="152.8373" x2="239.3825" y2="142.5038">
					<stop  offset="0.0363" style="stop-color:#A30032"/>
					<stop  offset="1" style="stop-color:#C4406C"/>
				</linearGradient>
				<circle style="fill:url(#SVGID_00000114796567329489924430000010546131741730101904_);" cx="242.155" cy="147.652" r="2.212"/>
			</g>
			<g>
				
					<linearGradient id="SVGID_00000056418610125002979580000007509973159177729924_" gradientUnits="userSpaceOnUse" x1="453.5057" y1="283.9634" x2="447.9415" y2="273.6299">
					<stop  offset="0.0363" style="stop-color:#A30032"/>
					<stop  offset="1" style="stop-color:#C4406C"/>
				</linearGradient>
				<circle style="fill:url(#SVGID_00000056418610125002979580000007509973159177729924_);" cx="450.714" cy="278.778" r="2.212"/>
			</g>
			<g>
				
					<linearGradient id="SVGID_00000005240852807631281610000000743851928618529941_" gradientUnits="userSpaceOnUse" x1="81.6784" y1="189.8202" x2="76.1141" y2="179.4867">
					<stop  offset="0.0363" style="stop-color:#A30032"/>
					<stop  offset="1" style="stop-color:#C4406C"/>
				</linearGradient>
				<circle style="fill:url(#SVGID_00000005240852807631281610000000743851928618529941_);" cx="78.886" cy="184.635" r="2.212"/>
			</g>
			<g>
				
					<linearGradient id="SVGID_00000165951413738245259590000007944969942430074785_" gradientUnits="userSpaceOnUse" x1="72.9299" y1="54.1716" x2="67.3657" y2="43.8381">
					<stop  offset="0.0363" style="stop-color:#A30032"/>
					<stop  offset="1" style="stop-color:#C4406C"/>
				</linearGradient>
				<path style="fill:url(#SVGID_00000165951413738245259590000007944969942430074785_);" d="M72.35,48.986
					c0,1.222-0.991,2.212-2.212,2.212c-1.222,0-2.213-0.99-2.213-2.212c0-1.222,0.991-2.213,2.213-2.213
					C71.36,46.774,72.35,47.764,72.35,48.986z"/>
			</g>
			<g>
				
					<linearGradient id="SVGID_00000134972609317433626010000005265415322633909929_" gradientUnits="userSpaceOnUse" x1="784.4848" y1="112.5334" x2="788.9098" y2="112.5334">
					<stop  offset="0.0363" style="stop-color:#A30032"/>
					<stop  offset="1" style="stop-color:#C4406C"/>
				</linearGradient>
				<path style="fill:url(#SVGID_00000134972609317433626010000005265415322633909929_);" d="M788.91,112.533
					c0,1.222-0.991,2.213-2.212,2.213c-1.222,0-2.213-0.991-2.213-2.213c0-1.222,0.991-2.212,2.213-2.212
					C787.919,110.321,788.91,111.312,788.91,112.533z"/>
			</g>
			<g>
				
					<linearGradient id="SVGID_00000083072981206272483950000010561939326919716235_" gradientUnits="userSpaceOnUse" x1="172.4425" y1="27.7447" x2="176.8675" y2="27.7447">
					<stop  offset="0" style="stop-color:#C26D22"/>
					<stop  offset="1" style="stop-color:#D8C153"/>
				</linearGradient>
				<circle style="fill:url(#SVGID_00000083072981206272483950000010561939326919716235_);" cx="174.655" cy="27.745" r="2.213"/>
			</g>
			<g>
				
					<linearGradient id="SVGID_00000010270459879831698350000009995090095289812662_" gradientUnits="userSpaceOnUse" x1="324.4159" y1="29.1219" x2="322.9255" y2="22.5643">
					<stop  offset="0.0363" style="stop-color:#A30032"/>
					<stop  offset="1" style="stop-color:#C4406C"/>
				</linearGradient>
				<path style="fill:url(#SVGID_00000010270459879831698350000009995090095289812662_);" d="M325.813,25.532
					c0,1.222-0.991,2.212-2.212,2.212c-1.222,0-2.213-0.99-2.213-2.212c0-1.222,0.991-2.212,2.213-2.212
					C324.822,23.32,325.813,24.31,325.813,25.532z"/>
			</g>
			<g>
				
					<linearGradient id="SVGID_00000039102362626636951880000004038797742760547462_" gradientUnits="userSpaceOnUse" x1="382.9555" y1="163.5361" x2="381.4651" y2="156.9783">
					<stop  offset="0.0363" style="stop-color:#A30032"/>
					<stop  offset="1" style="stop-color:#C4406C"/>
				</linearGradient>
				<path style="fill:url(#SVGID_00000039102362626636951880000004038797742760547462_);" d="M384.352,159.946
					c0,1.222-0.991,2.212-2.212,2.212c-1.222,0-2.212-0.991-2.212-2.212c0-1.222,0.991-2.213,2.212-2.213
					C383.362,157.734,384.352,158.724,384.352,159.946z"/>
			</g>
			<g>
				
					<linearGradient id="SVGID_00000039121772201251700960000006910413793358068121_" gradientUnits="userSpaceOnUse" x1="530.2025" y1="17.2611" x2="522.8499" y2="9.9085">
					<stop  offset="0" style="stop-color:#C26D22"/>
					<stop  offset="1" style="stop-color:#D8C153"/>
				</linearGradient>
				<path style="fill:url(#SVGID_00000039121772201251700960000006910413793358068121_);" d="M527.469,11.262
					c0,1.803-1.462,3.265-3.265,3.265c-1.803,0-3.265-1.462-3.265-3.265s1.462-3.265,3.265-3.265
					C526.007,7.997,527.469,9.459,527.469,11.262z"/>
			</g>
			<g>
				
					<linearGradient id="SVGID_00000114069093778207291000000010575661333112847027_" gradientUnits="userSpaceOnUse" x1="468.603" y1="84.7063" x2="462.2439" y2="72.783">
					<stop  offset="0.0363" style="stop-color:#A30032"/>
					<stop  offset="1" style="stop-color:#C4406C"/>
				</linearGradient>
				<path style="fill:url(#SVGID_00000114069093778207291000000010575661333112847027_);" d="M467.717,76.922
					c0,1.803-1.462,3.265-3.265,3.265c-1.803,0-3.265-1.462-3.265-3.265s1.462-3.265,3.265-3.265
					C466.255,73.657,467.717,75.119,467.717,76.922z"/>
			</g>
			<g>
				
					<linearGradient id="SVGID_00000083086157104549069670000013223727310920458639_" gradientUnits="userSpaceOnUse" x1="140.9457" y1="26.1881" x2="134.5866" y2="14.2649">
					<stop  offset="0.0363" style="stop-color:#A30032"/>
					<stop  offset="1" style="stop-color:#C4406C"/>
				</linearGradient>
				<path style="fill:url(#SVGID_00000083086157104549069670000013223727310920458639_);" d="M140.059,18.404
					c0,1.803-1.462,3.265-3.265,3.265s-3.265-1.462-3.265-3.265c0-1.803,1.462-3.265,3.265-3.265S140.059,16.601,140.059,18.404z"/>
			</g>
			<g>
				
					<linearGradient id="SVGID_00000031911580979874183740000012105282821889832857_" gradientUnits="userSpaceOnUse" x1="796.3265" y1="219.1109" x2="789.9673" y2="207.1876">
					<stop  offset="0.0363" style="stop-color:#A30032"/>
					<stop  offset="1" style="stop-color:#C4406C"/>
				</linearGradient>
				<path style="fill:url(#SVGID_00000031911580979874183740000012105282821889832857_);" d="M795.44,211.327
					c0,1.803-1.462,3.265-3.265,3.265s-3.265-1.462-3.265-3.265s1.462-3.265,3.265-3.265S795.44,209.524,795.44,211.327z"/>
			</g>
			<g>
				
					<linearGradient id="SVGID_00000156583225691983357680000012392772233171679887_" gradientUnits="userSpaceOnUse" x1="12.1897" y1="107.4928" x2="22.8853" y2="107.4928">
					<stop  offset="0.0363" style="stop-color:#A30032"/>
					<stop  offset="1" style="stop-color:#C4406C"/>
				</linearGradient>
				
					<circle style="fill:none;stroke:url(#SVGID_00000156583225691983357680000012392772233171679887_);stroke-width:1.5567;stroke-miterlimit:10;" cx="17.537" cy="107.493" r="4.569"/>
			</g>
			<g>
				
					<linearGradient id="SVGID_00000093877826047323757510000000009972645817152404_" gradientUnits="userSpaceOnUse" x1="625.8104" y1="34.0398" x2="636.506" y2="34.0398">
					<stop  offset="0.0363" style="stop-color:#A30032"/>
					<stop  offset="1" style="stop-color:#C4406C"/>
				</linearGradient>
				
					<circle style="fill:none;stroke:url(#SVGID_00000093877826047323757510000000009972645817152404_);stroke-width:1.5567;stroke-miterlimit:10;" cx="631.158" cy="34.04" r="4.569"/>
			</g>
		</g>
	</g>
</g>
<g id="TEXTS">
	<g>
		<g>
			
				<text transform="matrix(1.005 0 0 1 451.9961 253.6348)" style="fill:#F8E5F0; font-family:'Montserrat-SemiBold'; font-size:12.8109px; letter-spacing:2.985;">WWW.YOURWEBSITE.COM</text>
		</g>
	</g>
	<g>
		
			<text transform="matrix(0.9984 0 0 1 559.0928 62.0527)" style="fill:#FFFFFF; font-family:'Montserrat-Bold'; font-size:9.6209px;">Your Logo</text>
		
			<text transform="matrix(0.9984 0 0 1 559.0928 68.0654)" style="fill:#FFFFFF; font-family:'Montserrat-Medium'; font-size:3.8377px;">YOUR TAGLINE HERE</text>
	</g>
	<g>
		<g>
			<text transform="matrix(1 0 0 1 465.2725 155.9995)"><tspan x="0" y="0" style="fill:#CA3A50; font-family:'Montserrat-Black'; font-size:49.3636px;">TIME TO</tspan><tspan x="-46.524" y="45.301" style="fill:#CA3A50; font-family:'Montserrat-Black'; font-size:49.3636px;">CELEBRATE</tspan></text>
		</g>
		
			<text transform="matrix(1.005 0 0 1 522.1416 112.5332)" style="fill:#372C61; font-family:'Montserrat-Medium'; font-size:15.3453px; letter-spacing:2.985;">TODAY IS</text>
	</g>
</g>
</svg>
