<?xml version="1.0" encoding="utf-8"?>
<!-- Generator: Adobe Illustrator 27.5.0, SVG Export Plug-In . SVG Version: 6.00 Build 0)  -->
<svg version="1.1" xmlns="http://www.w3.org/2000/svg" xmlns:xlink="http://www.w3.org/1999/xlink" x="0px" y="0px"
	 viewBox="0 0 820 312" style="enable-background:new 0 0 820 312;" xml:space="preserve">
<g id="BACKGROUND">
	<g>
		<rect style="fill:#FFCC3B;" width="820" height="312"/>
		<g>
			<defs>
				<rect id="SVGID_1_" width="820" height="312"/>
			</defs>
			<clipPath id="SVGID_00000003063266602023862340000009523549403669730473_">
				<use xlink:href="#SVGID_1_"  style="overflow:visible;"/>
			</clipPath>
			<g style="clip-path:url(#SVGID_00000003063266602023862340000009523549403669730473_);">
				<path style="fill:#6933EB;" d="M596.411-14.398c-22.14,15.585-43.478,32.161-63.897,49.674
					c-13.429,11.518-26.878,24.014-33.11,40.011c-6.233,15.996-3.124,36.414,11.821,46.173c12.063,7.877,28.755,7.271,40.829,15.133
					c22.326,14.539,14.984,49.079-5.284,66.041c-20.268,16.962-48.154,22.961-72.493,34.345
					c-24.339,11.385-47.634,33.468-43.237,58.54c1.957,11.159,9.125,20.81,14.815,30.881h393.431V-14.398H596.411z"/>
			</g>
		</g>
	</g>
</g>
<g id="OBJECTS">
	<g>
		<g>
			<path style="fill:#FC8D15;" d="M321.477,214.557c-4.672-8.707-16.381-8.13-24.604-7.503c-14.821,1.131-29.839,0.572-44.827,0.337
				c-14.804-0.233-29.606-0.048-44.436-0.012c-4.473,0.011-8.949,0.022-13.427,0.033c-3.858,0.009-7.88,0.056-11.126,1.773
				c-3.528,1.865-5.647,5.504-6.556,9.354c-0.906,3.839-0.744,7.921-0.578,11.937c0.225,5.435,0.876,11.677,5.499,15.249
				c3.552,2.744,8.3,2.951,12.63,3.016c35.153,0.533,70.151,1.063,104.996,1.591c6.866,0.104,14.486-0.071,19.172-4.663
				c3.261-3.195,4.39-7.911,5.088-12.459C324.257,227.031,324.567,220.314,321.477,214.557z"/>
		</g>
	</g>
	<g>
		<defs>
			<rect id="SVGID_00000062871104568685216530000012904193218216340376_" width="820" height="312"/>
		</defs>
		<clipPath id="SVGID_00000012456102666225154600000000761628035361506206_">
			<use xlink:href="#SVGID_00000062871104568685216530000012904193218216340376_"  style="overflow:visible;"/>
		</clipPath>
		<g style="clip-path:url(#SVGID_00000012456102666225154600000000761628035361506206_);">
			<g>
				<g>
					<g>
						<path style="fill:#B27056;" d="M533.414,108.704l-1.652-2.935c0,0-16.277,2.202-17.085,1.176
							c-0.808-1.026,9.581-3.321,9.581-3.321s-11.349,0.289-11.999-0.913c-0.65-1.202,9.979-1.633,9.979-1.633
							s-11.094,0.08-11.137-1.137c-0.043-1.216,10.869-0.79,10.869-0.79s-9.323-1.123-9.42-2.479
							c-0.097-1.355,12.365-0.742,12.365-0.742s-4.572-1.041-4.831-1.949c-0.259-0.909,6.567-2.595,9.17,0.279
							c8.07-0.151,13.446,2.778,16.681,8.152L533.414,108.704z"/>
						<g>
							
								<path style="fill:#B27056;stroke:#30172B;stroke-width:0.4949;stroke-linecap:round;stroke-linejoin:round;stroke-miterlimit:10;" d="
								M511.1,99.942c-0.043-1.217,10.869-0.79,10.869-0.79s-9.322-1.123-9.42-2.479c-0.097-1.355,12.365-0.742,12.365-0.742
								s-4.572-1.041-4.831-1.949c-0.259-0.909,6.567-2.595,9.17,0.279c8.07-0.15,13.446,2.778,16.681,8.152l31.039,20.468
								c0,0-4.979-46.75,0.979-53.598c4.623-5.314,13.054-8.895,13.054-8.895s37.031,65.282,3.961,86.354
								c-28.588,18.216-61.552-38.041-61.552-38.041l-1.652-2.935c0,0-16.278,2.202-17.085,1.176
								c-0.808-1.026,9.581-3.321,9.581-3.321s-11.349,0.289-11.999-0.913c-0.65-1.202,9.979-1.633,9.979-1.633
								S511.144,101.158,511.1,99.942z"/>
							
								<path style="fill:none;stroke:#30172B;stroke-width:0.4949;stroke-linecap:round;stroke-linejoin:round;stroke-miterlimit:10;" d="
								M525.1,102.619c1.109-1.387,2.727-2.358,4.472-2.685c1.746-0.326,3.605-0.005,5.14,0.889"/>
						</g>
					</g>
					<g>
						<path style="fill:#FFAD29;" d="M591.005,60.39c0,0-8.432,3.58-13.054,8.895c-5.957,6.848-0.978,53.598-0.978,53.598
							l-19.768-13.966c-0.456-0.322-1.086-0.097-1.247,0.437c-2.923,9.698-6.434,15.628-12.821,21.325
							c-0.315,0.281-0.369,0.744-0.117,1.084c3.557,4.794,28.751,36.459,55.204,19.603C631.292,130.294,591.005,60.39,591.005,60.39
							z"/>
						<path style="opacity:0.2;fill:#FFFFFF;" d="M582.74,127.63c-0.173-1.412-2.005-1.981-2.614-3.267
							c-0.887-1.873,1.138-3.697,2.452-5.299c2.786-3.4,2.697-8.256,2.294-12.633c-0.605-6.572-1.601-13.115-1.811-19.712
							c-0.21-6.597,0.398-13.327,2.882-19.441c0.96-2.363,2.21-4.351,3.647-6.233c-2.599,1.263-8.182,4.266-11.639,8.239
							c-5.957,6.848-0.979,53.598-0.979,53.598l-19.768-13.966c-0.456-0.322-1.086-0.097-1.248,0.437
							c-0.708,2.35-1.453,4.476-2.263,6.434c7.842,4.311,15.684,8.623,23.526,12.934c1.025,0.563,2.118,1.144,3.286,1.09
							C581.674,129.758,582.882,128.79,582.74,127.63z"/>
						<g>
							
								<path style="fill:none;stroke:#30172B;stroke-width:0.4949;stroke-linecap:round;stroke-linejoin:round;stroke-miterlimit:10;" d="
								M591.005,60.39c0,0-8.432,3.58-13.054,8.895c-5.957,6.848-0.978,53.598-0.978,53.598l-19.768-13.966
								c-0.456-0.322-1.086-0.097-1.247,0.437c-2.923,9.698-6.434,15.628-12.821,21.325c-0.315,0.281-0.369,0.744-0.117,1.084
								c3.557,4.794,28.751,36.459,55.204,19.603"/>
							
								<path style="fill:none;stroke:#30172B;stroke-width:0.4949;stroke-linecap:round;stroke-linejoin:round;stroke-miterlimit:10;" d="
								M576.972,122.882c0,0,3.066,2.09,4.519,3.039"/>
							
								<path style="fill:none;stroke:#30172B;stroke-width:0.2475;stroke-linecap:round;stroke-linejoin:round;stroke-miterlimit:10;" d="
								M546.71,136.277c7.494-6.1,12.871-14.774,14.967-24.211"/>
						</g>
					</g>
				</g>
				<g>
					<g>
						
							<path style="fill:#B27056;stroke:#30172B;stroke-width:0.4949;stroke-linecap:round;stroke-linejoin:round;stroke-miterlimit:10;" d="
							M656.617,334.241c-0.061,2.108,2.437,3.107,4.009,1.628c5.733-5.394,9.692-11.204,11.638-18.902
							c1.281-5.066,1.872-10.28,2.939-15.396c0.579-2.779,2.595-7.89,0.737-10.46c-1.03-1.424-3.031-1.612-4.718-2.139
							c-4.404-1.375-7.191-5.461-10.09-9.01c-3.263-3.992-7.869-7.867-13.332-5.962c-2.29,0.799-4.192,2.534-5.416,4.666
							c-2.594,4.516-2.071,9.721-0.379,14.187c1.883,4.97,4.855,9.408,7.128,14.195
							C653.067,315.336,656.888,324.909,656.617,334.241z"/>
						<path style="fill:#AA42BC;" d="M671.221,288.973c-0.888-0.277-1.707-0.669-2.478-1.139l-0.003,0
							c4.857,11.373-7.52,33.849-10.762,37.31c-0.708,0.756-1.481,0.641-2.257,0c0.636,3.023,0.983,6.073,0.895,9.098
							c-0.061,2.108,2.437,3.107,4.009,1.628c5.733-5.395,9.692-11.204,11.638-18.902c1.281-5.066,1.872-10.28,2.939-15.396
							c0.579-2.779,2.595-7.89,0.736-10.46C674.91,289.688,672.908,289.5,671.221,288.973z"/>
					</g>
					<g>
						
							<path style="fill:#B27056;stroke:#30172B;stroke-width:0.4949;stroke-linecap:round;stroke-linejoin:round;stroke-miterlimit:10;" d="
							M677.804,268.062c0.929,1.469,2.279,3.086,4.06,3.004c1.829-0.083,2.878-1.886,3.591-3.456
							c3.31-7.293,6.666-14.762,7.185-22.759c0.519-7.997-2.33-16.763-9.276-21.631c-2.125-1.489-4.698-2.592-7.288-2.403
							c-7.258,0.529-6.889,11.153-6.989,16.205c-0.137,6.946,1.066,13.958,3.537,20.587
							C673.975,261.234,675.707,264.746,677.804,268.062z"/>
						<path style="fill:#AA42BC;" d="M672.327,222.445c0.206,0.819,0.353,1.66,0.473,2.466c0.993,6.691,1.986,13.382,2.979,20.073
							c0.433,2.92,0.898,5.929,2.436,8.449c1.538,2.52,4.442,4.448,7.347,3.924c2.647-0.478,4.503-2.742,5.843-5.139
							c-1.383,5.29-3.678,10.382-5.952,15.392c-0.713,1.571-1.762,3.373-3.591,3.456c-1.782,0.081-3.132-1.536-4.06-3.004
							c-2.096-3.316-3.829-6.827-5.18-10.453c-2.471-6.628-3.674-13.641-3.536-20.587
							C669.165,233.073,668.956,225.721,672.327,222.445z"/>
					</g>
					<g>
						<g>
							<path style="fill:#AA42BC;" d="M662.644,279.738c0.732,1.552,1.089,3.343,0.641,4.999c-0.282,1.042-0.865,1.976-1.498,2.851
								c-3.115,4.305-7.663,7.554-12.746,9.104c-1.731,0.528-3.625,0.857-5.327,0.246c-1.334-0.48-2.402-1.483-3.429-2.46
								c-1.124-1.07-2.248-2.14-3.372-3.209c-1.041-0.991-2.165-2.18-2.076-3.615c0.086-1.397,1.292-2.432,2.433-3.242
								c3.205-2.277,6.686-4.164,10.338-5.619c3.567-1.422,7.597-2.759,11.452-3.05
								C660.728,275.614,662.012,278.397,662.644,279.738z"/>
							<g>
								
									<path style="fill:none;stroke:#30172B;stroke-width:0.4949;stroke-linecap:round;stroke-linejoin:round;stroke-miterlimit:10;" d="
									M662.081,287.172c-1.02-4.034-2.914-7.845-5.52-11.102"/>
								
									<path style="fill:none;stroke:#30172B;stroke-width:0.4949;stroke-linecap:round;stroke-linejoin:round;stroke-miterlimit:10;" d="
									M658.183,291.545c-2.066-4.86-4.604-9.514-7.582-13.876"/>
								
									<path style="fill:none;stroke:#30172B;stroke-width:0.4949;stroke-linecap:round;stroke-linejoin:round;stroke-miterlimit:10;" d="
									M653.623,294.757c-3.158-4.771-5.933-9.785-8.292-14.992"/>
								
									<path style="fill:none;stroke:#30172B;stroke-width:0.4949;stroke-linecap:round;stroke-linejoin:round;stroke-miterlimit:10;" d="
									M648.39,296.866c-3.088-4.579-5.739-9.46-7.885-14.556"/>
							</g>
						</g>
						<path style="fill:#6A1F75;stroke:#29112D;stroke-width:0.4949;stroke-miterlimit:10;" d="M566.57,198.197
							c-5.161-28.251,32.867-85.583,32.867-85.583l53.046-5.615c0,0,47.304,21.456,56.222,50.134
							c5.443,17.502,0.138,75.477-19.621,80.239c-13.951,3.362-27.587-12.464-30.347-18.702c-2.76-6.237,5.961-44.915,5.961-44.915
							c-8.919-10.838-19.666-20.101-30.984-26.48c-7.25,9.031-12.689,30.135-16.725,42.828c0,0,46.79,57.793,47.425,78.704
							c0.35,11.522-24.314,25.022-30.931,20.852C601.163,269.292,569.516,214.324,566.57,198.197z"/>
						<path style="opacity:0.2;fill:#FFFFFF;" d="M654.444,281.956c-3.442-11.861-15.469-18.784-26.634-24.063
							c-11.165-5.279-23.451-11.026-28.613-22.245c-3.631-7.892-3.049-17.308-7.144-24.97c-3.446-6.448-9.93-11.09-12.413-17.966
							c-3.192-8.84,1.1-18.464,5.381-26.831c3.984-7.785,8.042-15.533,12.173-23.241c3.769-7.032,7.574-14.048,11.489-20.999
							c1.798-3.192,4.664-6.834,5.984-10.638l-15.231,1.612c0,0-38.028,57.332-32.867,85.583
							c2.946,16.127,34.593,71.094,66.914,91.463c3.82,2.407,13.647-1.078,21.211-6.667
							C654.612,282.647,654.544,282.299,654.444,281.956z"/>
						<g>
							
								<path style="fill:none;stroke:#30172B;stroke-width:0.4949;stroke-linecap:round;stroke-linejoin:round;stroke-miterlimit:10;" d="
								M664.661,173.515c1.968-1.688,4.763-2.361,7.283-1.755"/>
							
								<path style="fill:none;stroke:#30172B;stroke-width:0.4949;stroke-linecap:round;stroke-linejoin:round;stroke-miterlimit:10;" d="
								M616.892,190.017c-1.697-0.945-3.746-1.239-5.64-0.811"/>
							
								<path style="fill:none;stroke:#30172B;stroke-width:0.4949;stroke-linecap:round;stroke-linejoin:round;stroke-miterlimit:10;" d="
								M586.608,195.809c0.351,1.094,0.543,2.239,0.567,3.388c0.01,0.483-0.063,1.058-0.492,1.279
								c-0.285,0.147-0.645,0.073-0.911-0.106c-0.266-0.179-0.456-0.449-0.631-0.718c-0.648-0.996-1.174-2.071-1.561-3.194"/>
							
								<path style="fill:none;stroke:#30172B;stroke-width:0.4949;stroke-linecap:round;stroke-linejoin:round;stroke-miterlimit:10;" d="
								M638.007,138.44c0,0-7.124-1.952-11.67,1.554"/>
						</g>
						<g>
							
								<path style="fill:none;stroke:#30172B;stroke-width:0.2475;stroke-linecap:round;stroke-linejoin:round;stroke-miterlimit:10;" d="
								M641.373,289.721c-25.487-20.005-49.866-45.602-62.273-74.576c-3.6-8.405-6.654-17.284-6.588-26.428
								c0.064-8.932,3.106-17.565,6.516-25.825c7.436-17.963,16.821-35.128,27.952-51.076"/>
							
								<path style="fill:none;stroke:#30172B;stroke-width:0.2475;stroke-linecap:round;stroke-linejoin:round;stroke-miterlimit:10;" d="
								M643.827,110.521c17.493,5.819,33.588,15.805,46.574,28.893c5.535,5.586,10.697,11.976,13.292,19.5
								c2.522,7.33,1.636,14.994,0.883,22.6c-1.792,18.358-5.853,39.469-15.893,55.947"/>
						</g>
					</g>
				</g>
				<path style="fill:#FFAD29;" d="M656.678,42.471c-23.61,3.984-45.705,9.722-65.673,17.919
					c6.439,18.496,8.239,30.958,8.432,52.225c20.378,7.789,40.223,4.47,59.763-5.202C661.209,85.82,660.4,64.981,656.678,42.471z"/>
				<path style="opacity:0.2;fill:#FFFFFF;" d="M626.033,116.846c-0.123-0.071-0.247-0.136-0.375-0.194
					c-1.073-0.487-2.268-0.607-3.414-0.876c-4.525-1.062-8.188-4.426-10.906-8.196c-2.718-3.77-4.693-8.021-7.229-11.915
					c-1.367-2.099-3.547-5.193-6.102-7.145c0.953,7.175,1.345,14.793,1.43,24.095C608.399,116.04,617.258,117.313,626.033,116.846z"
					/>
				<g>
					
						<path style="fill:none;stroke:#30172B;stroke-width:0.4949;stroke-linecap:round;stroke-linejoin:round;stroke-miterlimit:10;" d="
						M597.306,83.906c1.47,8.567,2.028,17.391,2.131,28.708c20.378,7.789,40.223,4.47,59.763-5.202
						c1.226-13.173,1.403-26.066,0.509-39.229"/>
					
						<path style="fill:none;stroke:#30172B;stroke-width:0.4949;stroke-linecap:round;stroke-linejoin:round;stroke-miterlimit:10;" d="
						M656.678,42.471c-23.61,3.984-45.705,9.722-65.673,17.919"/>
				</g>
				<g>
					
						<path style="fill:#B27056;stroke:#30172B;stroke-width:0.4949;stroke-linecap:round;stroke-linejoin:round;stroke-miterlimit:10;" d="
						M667.222,77.193c12.524-1.456,25.094-6.907,35.189-13.043c24.071-14.626-7.644-60.13-9.71-63.258
						c0.388-1.307,1.612-5.1,3.2-6.697c4.189-4.213,11.918-6.516,11.647-7.798c-0.241-1.142-3.482-0.447-6.897,0.778
						c0.769-0.603,1.506-1.142,2.174-1.57c0.708-0.453,0.376-1.514-0.464-1.505c-1.667,0.019-3.841,0.672-6.036,1.857
						c0.414-1.029,0.832-1.97,1.246-2.754c0.392-0.743-0.42-1.503-1.146-1.08c-1.45,0.845-3.029,2.503-4.359,4.638
						c-0.097-0.977-0.147-1.89-0.12-2.653c0.02-0.573-0.784-0.745-1.138-0.248c-0.888,1.249-1.483,3.329-1.505,5.586
						c-0.122-1.213-0.388-2.103-0.927-1.85c-1.444,0.677-3.904,9.013-3.904,9.013s-1.946,0.182-4.289,3.73
						c-2.343,3.548-0.037,7.02-0.037,7.02l0.055-0.027l-0.05,0.027l2.877,33.581c-8.877,0.611-11.5-0.036-18.26,0.598
						L667.222,77.193z"/>
					<g>
						
							<path style="fill:none;stroke:#30172B;stroke-width:0.4949;stroke-linecap:round;stroke-linejoin:round;stroke-miterlimit:10;" d="
							M689.318-10.401c0.181,2.029-0.01,4.837-0.01,4.837s1.804-2.303,4.172-3.905c1.422-0.962,4.159-2.252,6.845-3.239"/>
						
							<path style="fill:none;stroke:#30172B;stroke-width:0.4949;stroke-linecap:round;stroke-linejoin:round;stroke-miterlimit:10;" d="
							M696.325-14.042c-2.728,1.586-4.807,3.457-6.036,5.702"/>
						
							<path style="fill:none;stroke:#30172B;stroke-width:0.4949;stroke-linecap:round;stroke-linejoin:round;stroke-miterlimit:10;" d="
							M692.082-13.074c-0.746,1.064-1.27,2.201-1.562,3.412"/>
					</g>
				</g>
				<g>
					<path style="fill:#FFAD29;" d="M651.723,43.27c13.14-2.217,15.602-2.123,29.739-3.092l-2.024-19.501
						c-0.072-0.692,0.518-1.251,1.21-1.178c7.778,0.828,17.877-1.365,26.512-4.206c0.525-0.173,1.091,0.07,1.315,0.575
						c7.844,17.674,11.306,42.714-3.454,51.685c-17.261,10.491-53.269,10.901-53.269,10.901L651.723,43.27z"/>
					<g>
						
							<path style="fill:none;stroke:#30172B;stroke-width:0.4949;stroke-linecap:round;stroke-linejoin:round;stroke-miterlimit:10;" d="
							M650.926,43.482c13.14-2.217,16.399-2.335,30.537-3.303l-2.024-19.501c-0.072-0.692,0.518-1.251,1.21-1.178
							c7.778,0.828,17.877-1.365,26.512-4.206c0.525-0.173,1.091,0.07,1.315,0.575c7.844,17.674,11.306,42.714-3.454,51.685
							c-13.21,8.029-37.399,10.153-48.026,10.708"/>
						
							<line style="fill:none;stroke:#30172B;stroke-width:0.4949;stroke-linecap:round;stroke-linejoin:round;stroke-miterlimit:10;" x1="681.462" y1="40.178" x2="682.375" y2="48.714"/>
						
							<path style="fill:none;stroke:#30172B;stroke-width:0.2475;stroke-linecap:round;stroke-linejoin:round;stroke-miterlimit:10;" d="
							M679.894,25.014c10.293,1.367,20.973-0.328,30.373-4.73"/>
					</g>
				</g>
				<g>
					
						<path style="fill:#B27056;stroke:#30172B;stroke-width:0.4949;stroke-linecap:round;stroke-linejoin:round;stroke-miterlimit:10;" d="
						M604.355,55.182c10.923-3.852,22.777-6.852,34.787-9.357c0.611,4.488-0.68,11.748-11.699,15.426l-1.64,5.378l-3.635-4.099
						C612.486,64.036,607.308,59.718,604.355,55.182z"/>
					<g>
						
							<path style="fill:none;stroke:#30172B;stroke-width:0.2475;stroke-linecap:round;stroke-linejoin:round;stroke-miterlimit:10;" d="
							M626.331,64.889c3.457-0.781,6.755-2.224,9.637-4.241c2.794-1.942,5.229-4.445,6.723-7.448
							c1.289-2.596,1.834-5.594,1.277-8.393"/>
						
							<path style="fill:none;stroke:#30172B;stroke-width:0.2475;stroke-linecap:round;stroke-linejoin:round;stroke-miterlimit:10;" d="
							M600.117,56.869c3.935,4.374,9.451,7.416,15.398,8.411c2.986,0.495,6.057,0.467,9.051-0.044"/>
					</g>
				</g>
				<g>
					<path style="fill:#29112D;" d="M624.669,14.82c-1.732-0.925-3.874-1.369-5.655-0.541c-1.304,0.606-2.223,1.791-3.263,2.784
						c-1.04,0.993-2.423,1.862-3.832,1.577c-0.536-0.108-1.064-0.382-1.602-0.28c-0.679,0.128-1.124,0.849-1.142,1.54
						c-0.018,0.691,0.295,1.347,0.655,1.937c1.426,2.338,3.699,4.113,6.254,5.098c2.555,0.985,5.377,1.199,8.085,0.789
						c1.321-0.2,2.636-0.552,3.792-1.222c0.83-0.481,1.576-1.134,2.107-1.937c0.601-0.909,0.447-1.601,0.18-2.621
						c-0.502-1.919-1.524-3.698-2.911-5.115C626.554,16.031,625.655,15.347,624.669,14.82z"/>
					<path style="fill:#B27056;" d="M609.387,44.202c1.683,1.542,7.953,0.708,7.953,0.708l-3.611,9.922
						c7.611,1.938,13.534,1.146,18.065-1.195l-5.828-28.808l-9.81-0.819C616.155,24.01,604.807,40.019,609.387,44.202z"/>
					<g>
						
							<path style="fill:none;stroke:#30172B;stroke-width:0.4949;stroke-linecap:round;stroke-linejoin:round;stroke-miterlimit:10;" d="
							M615.453,32.533c-0.741,0.739-1.559,1.401-2.437,1.972c0.425,0.31,0.85,0.619,1.275,0.929"/>
						<path style="fill:#FFFFFF;" d="M613.934,37.034c0.198,0.016,0.409,0.037,0.563,0.162c0.166,0.136,0.226,0.371,0.196,0.583
							c-0.03,0.212-0.139,0.405-0.261,0.581c-0.255,0.365-0.593,0.687-1.012,0.838c-0.419,0.15-0.925,0.103-1.257-0.193
							c-0.309-0.275-0.412-0.694-0.467-1.088c-0.041-0.291-0.152-0.802,0.131-1.014c0.215-0.161,0.56-0.034,0.794,0.007
							C613.053,36.985,613.497,36.999,613.934,37.034z"/>
						
							<path style="fill:none;stroke:#30172B;stroke-width:0.4949;stroke-linecap:round;stroke-linejoin:round;stroke-miterlimit:10;" d="
							M613.716,32.094c-0.278-0.293-0.655-0.491-1.054-0.554c-0.399-0.062-0.818,0.011-1.172,0.206"/>
						
							<path style="fill:none;stroke:#30172B;stroke-width:0.4949;stroke-linecap:round;stroke-linejoin:round;stroke-miterlimit:10;" d="
							M619.689,32.656c-0.373-0.332-0.858-0.537-1.356-0.573c-0.498-0.036-1.007,0.096-1.425,0.37"/>
					</g>
					
						<path style="fill:none;stroke:#30172B;stroke-width:0.4949;stroke-linecap:round;stroke-linejoin:round;stroke-miterlimit:10;" d="
						M617.34,44.91c0,0,3.073-0.306,6.228-2.444"/>
					<path style="fill:#29112D;" d="M626.462,35.799c0.44,0.442,0.913,0.871,1.487,1.117c0.573,0.246,1.269,0.281,1.799-0.048
						c0.661-0.41,0.896-1.241,1.079-1.997c0.29-1.198,0.58-2.395,0.87-3.593c0.329-1.359,0.638-2.878-0.066-4.086
						c-0.395-0.678-1.056-1.151-1.705-1.591c-1.228-0.832-2.552-1.642-4.03-1.757c-1.478-0.115-3.133,0.697-3.484,2.137
						c-0.107,0.439-0.102,0.892-0.26,1.319c-0.105,0.283-0.338,0.536-0.361,0.845c-0.06,0.814,0.71,1.991,1.071,2.694
						C623.798,32.664,625.015,34.345,626.462,35.799z"/>
					<g>
						<path style="fill:#B27056;" d="M631.204,37.202c-0.141,1.386-1.378,2.396-2.764,2.256c-1.386-0.14-2.396-1.378-2.255-2.764
							c0.141-1.386,1.378-2.396,2.764-2.256C630.335,34.578,631.345,35.816,631.204,37.202z"/>
						
							<path style="fill:none;stroke:#30172B;stroke-width:0.4949;stroke-linecap:round;stroke-linejoin:round;stroke-miterlimit:10;" d="
							M627.303,36.513c0,0,1.268-1.248,2.61-0.195"/>
					</g>
					<g>
						
							<path style="fill:none;stroke:#30172B;stroke-width:0.4949;stroke-linecap:round;stroke-linejoin:round;stroke-miterlimit:10;" d="
							M613.939,54.255l3.401-9.345c0,0-6.27,0.834-7.953-0.708c-4.58-4.182,6.768-20.192,6.768-20.192l9.81,0.818l1.965,9.716
							c0.319-0.102,0.663-0.143,1.018-0.107c1.386,0.141,2.396,1.378,2.256,2.764c-0.124,1.222-1.1,2.149-2.279,2.256l2.211,10.93"
							/>
						<g>
							<path style="fill:#C91C5F;" d="M612.777,23.027c-0.591,1.354-0.79,2.788-0.732,4.275c0.023,0.598,0.419,1.119,0.999,1.268
								c4.81,1.238,10.997,2.353,17.811,3.414c0.495,0.077,0.997-0.129,1.3-0.528c1.175-1.55,1.441-3.523,0.871-5.884
								c-0.132-0.548-0.58-0.968-1.139-1.041c-6.685-0.279-12.877-0.867-17.689-2.32C613.596,22.131,613.02,22.47,612.777,23.027z"
								/>
							
								<path style="fill:none;stroke:#30172B;stroke-width:0.2475;stroke-linecap:round;stroke-linejoin:round;stroke-miterlimit:10;" d="
								M633.004,29.806c-7.106-0.161-14.2-1.369-20.956-3.583"/>
						</g>
					</g>
					<path style="fill:#29112D;" d="M633.648,21.441c1.537,0.762,2.462,2.597,2.159,4.286c-0.128,0.711-0.444,1.372-0.718,2.04
						c-0.274,0.669-0.51,1.377-0.464,2.098c0.046,0.721,0.433,1.461,1.101,1.737c-0.33,0.258-0.795,0.286-1.197,0.17
						c-0.402-0.116-0.755-0.357-1.094-0.603c-1.43-1.039-2.771-2.254-3.668-3.777c-0.731-1.241-1.681-3.828-0.74-5.177
						C629.953,20.889,632.346,20.795,633.648,21.441z"/>
				</g>
			</g>
			<g>
				<g>
					<path style="fill:#29112D;" d="M537.037,125.481c4.608-1.557,9.92-1.152,14.056,1.409c4.137,2.56,6.916,7.323,6.757,12.185
						c-0.108,3.313-1.478,6.431-2.608,9.547c-1.13,3.116-2.043,6.504-1.216,9.714c0.827,3.21,3.978,6.033,7.229,5.385
						c3.04-0.606,4.877-3.914,5.03-7.01c0.153-3.096-0.932-6.098-1.652-9.113c-0.72-3.015-1.036-6.371,0.51-9.058
						c1.562-2.714,4.689-4.135,7.744-4.822c10.643-2.39,22.284,2.618,28.743,11.408c6.458,8.79,7.89,20.764,4.737,31.206
						c-3.153,10.442-10.562,19.327-19.676,25.32c-5.534,3.639-11.968,6.341-18.585,6.047c-6.718-0.298-12.914-3.622-18.521-7.334
						c-5.247-3.474-10.307-7.45-13.845-12.654c-3.538-5.204-5.404-11.82-3.81-17.907c1.336-5.101,4.871-9.276,7.831-13.639
						c2.96-4.363,5.499-9.569,4.437-14.733c-0.548-2.661-2.174-5.202-4.644-6.335c-2.47-1.132-5.769-0.525-7.297,1.721
						c-0.911,1.339-1.114,3.019-1.661,4.543c-0.639,1.778-2.234,3.71-4.291,2.873c-1.982-0.806-2.028-2.594-1.589-4.392
						c1.01-4.138,2.987-7.915,6.197-10.766C532.693,127.493,534.777,126.245,537.037,125.481z"/>
					<path style="fill:#C91C5F;" d="M532.824,139.651c0.003,2.519-2.236,4.564-5.002,4.568c-2.765,0.003-5.009-2.036-5.012-4.556
						c-0.003-2.519,2.236-4.564,5.002-4.568C530.577,135.092,532.822,137.132,532.824,139.651z"/>
				</g>
				<g>
					<path style="fill:#FC8D15;" d="M517.492,197.685c-0.362-0.37-0.379-0.953-0.04-1.344c3.177-3.656,18.494-20.466,31.397-20.33
						c14.477,0.153,32.041,36.219,46.744,31.207c14.159-4.827,12.199-25.755,19.94-30.647c0.485-0.306,1.128-0.101,1.391,0.408
						c7.401,14.359,18.812,22.445,33.948,24.704c0.639,0.095,1.026,0.751,0.784,1.35c-2.777,6.857-17.912,41.334-41.719,41.831
						c-26.438,0.552-47.966-45.742-60.656-45.5c-10.569,0.202-18.173,6.475-20.42,8.567c-0.392,0.365-1.004,0.346-1.379-0.037
						L517.492,197.685z"/>
					
						<path style="fill:none;stroke:#30172B;stroke-width:0.2475;stroke-linecap:round;stroke-linejoin:round;stroke-miterlimit:10;" d="
						M619.694,181.767c-2.104,1.441-3.81,3.561-5.014,5.849c-1.909,3.598-2.803,7.618-3.967,11.536
						c-1.151,3.905-2.662,7.849-5.496,10.767c-4.81,4.962-12.757,5.96-19.258,3.618c-1.392-0.502-2.723-1.132-3.991-1.871"/>
				</g>
				<g>
					<g>
						<g>
							<path style="fill:#B27056;" d="M466.185,200.02c0,0-0.966,8.101,1.825,12.024c2.791,3.923,6.837,3.805,9.536,1.888
								l2.04-12.576L466.185,200.02z"/>
							<g>
								<path style="fill:#B27056;" d="M479.585,201.355c0,0-8.526-7.631-13.21-5.959c-4.685,1.672-1.376,9.013-1.376,9.013
									s0.951,1.158,2.315-0.915c0,0,2.818,9.657,10.34,6.428L479.585,201.355z"/>
								<g>
									
										<path style="fill:none;stroke:#30172B;stroke-width:0.4949;stroke-linecap:round;stroke-linejoin:round;stroke-miterlimit:10;" d="
										M463.865,199.505c0.011,2.411,1.134,4.904,1.134,4.904s0.951,1.158,2.315-0.915c0,0,2.36,8.086,8.524,6.986"/>
									
										<path style="fill:none;stroke:#30172B;stroke-width:0.4949;stroke-linecap:round;stroke-linejoin:round;stroke-miterlimit:10;" d="
										M467.314,203.494c0.751-1.384,0.92-2.911,0.507-4.581"/>
								</g>
							</g>
						</g>
					</g>
					<g>
						<path style="fill:#B27056;" d="M514.017,178.71c0,0-10.98,2.79-13.343,8.012c-2.363,5.222-7.669,40.637-7.669,40.637
							c-5.214-9.387-8.654-21.323-13.42-26.004l-9.406,11.847c0,0,8.519,56.065,34.93,54.296
							c26.411-1.769,24.241-74.427,24.241-74.427L514.017,178.71z"/>
						<path style="fill:#C91C5F;" d="M514.017,178.71c0,0-10.98,2.79-13.343,8.012c-1.377,3.043-3.752,16.333-5.495,26.899
							c6.052,5.519,25.866,5.161,33.753-1.616c0.659-10.844,0.419-18.935,0.419-18.935L514.017,178.71z"/>
					</g>
					<g>
						<g>
							<path style="fill:#B27056;" d="M468.93,207.856c0.496,0.727-0.26,1.908-1.765,2.934c-1.505,1.027-2.767,1.344-3.263,0.617
								c-0.496-0.727-0.657-1.757,0.849-2.783C466.256,207.597,468.434,207.129,468.93,207.856z"/>
							
								<path style="fill:none;stroke:#30172B;stroke-width:0.4949;stroke-linecap:round;stroke-linejoin:round;stroke-miterlimit:10;" d="
								M468.93,207.856c0.496,0.727-0.26,1.908-1.765,2.934c-0.993,0.678-1.88,1.046-2.512,1.01"/>
						</g>
						<g>
							<path style="fill:#B27056;" d="M468.487,206.204c0.27,1.093-1.164,2.171-3.428,2.729c-2.264,0.559-3.918,0.375-4.188-0.719
								s-0.002-2.399,2.261-2.958C465.396,204.698,468.218,205.11,468.487,206.204z"/>
							
								<path style="fill:none;stroke:#30172B;stroke-width:0.4949;stroke-linecap:round;stroke-linejoin:round;stroke-miterlimit:10;" d="
								M468.487,206.204c0.27,1.093-1.164,2.171-3.428,2.729c-1.494,0.369-2.722,0.414-3.463,0.088"/>
						</g>
						<g>
							<path style="fill:#B27056;" d="M467.674,203.258c0.251,1.018-1.129,2.033-3.3,2.569c-2.171,0.536-3.755,0.375-4.006-0.643
								c-0.251-1.018,0.013-2.239,2.185-2.774C464.723,201.873,467.422,202.239,467.674,203.258z"/>
							
								<path style="fill:none;stroke:#30172B;stroke-width:0.4949;stroke-linecap:round;stroke-linejoin:round;stroke-miterlimit:10;" d="
								M467.674,203.258c0.251,1.018-1.129,2.033-3.3,2.569c-1.433,0.354-2.61,0.404-3.317,0.105"/>
						</g>
						<g>
							<path style="fill:#B27056;" d="M467.255,200.157c0.227,0.919-1.066,1.846-3.091,2.346c-2.026,0.5-3.499,0.366-3.726-0.554
								c-0.227-0.919,0.028-2.024,2.054-2.524C464.518,198.925,467.028,199.238,467.255,200.157z"/>
							
								<path style="fill:none;stroke:#30172B;stroke-width:0.4949;stroke-linecap:round;stroke-linejoin:round;stroke-miterlimit:10;" d="
								M467.255,200.157c0.227,0.919-1.066,1.846-3.091,2.346c-1.337,0.33-2.433,0.384-3.089,0.118"/>
						</g>
						
							<path style="fill:none;stroke:#30172B;stroke-width:0.4949;stroke-linecap:round;stroke-linejoin:round;stroke-miterlimit:10;" d="
							M468.931,207.856c-0.16-0.234-0.505-0.333-0.935-0.341c0.41-0.411,0.603-0.859,0.492-1.311
							c-0.143-0.58-1.008-0.967-2.125-1.12c0.958-0.525,1.472-1.174,1.311-1.826c-0.152-0.615-1.2-0.991-2.483-1.075
							c1.412-0.524,2.249-1.276,2.064-2.026c-0.227-0.919-2.737-1.231-4.763-0.731c-2.026,0.5-2.281,1.605-2.054,2.524
							c0.112,0.453,0.529,0.713,1.163,0.803c-1.278,0.617-1.441,1.59-1.233,2.43c0.114,0.463,0.516,0.741,1.112,0.864
							c-0.715,0.632-0.786,1.444-0.608,2.167c0.233,0.942,1.497,1.206,3.289,0.904c-0.841,0.855-0.675,1.679-0.259,2.288
							c0.496,0.727,1.758,0.41,3.263-0.617C468.671,209.763,469.427,208.583,468.931,207.856z"/>
					</g>
					<path style="opacity:0.2;fill:#FFFFFF;" d="M506.025,181.845c-2.311,1.262-4.453,2.893-5.351,4.877
						c-0.081,0.178-0.166,0.399-0.253,0.645c-0.028,0.079-0.057,0.174-0.086,0.26c-0.061,0.182-0.122,0.37-0.186,0.581
						c-0.035,0.116-0.071,0.241-0.106,0.365c-0.06,0.21-0.122,0.429-0.184,0.662c-0.037,0.14-0.076,0.284-0.114,0.432
						c-0.064,0.248-0.129,0.507-0.195,0.776c-0.038,0.154-0.075,0.306-0.114,0.466c-0.073,0.306-0.148,0.628-0.223,0.956
						c-0.032,0.14-0.063,0.273-0.095,0.417c-0.218,0.971-0.442,2.027-0.671,3.149c-0.028,0.139-0.057,0.283-0.085,0.424
						c-0.087,0.433-0.175,0.872-0.264,1.322c-0.035,0.179-0.07,0.361-0.106,0.542c-0.082,0.422-0.164,0.848-0.247,1.281
						c-0.037,0.197-0.075,0.394-0.112,0.592c-0.084,0.444-0.167,0.893-0.252,1.346c-0.033,0.179-0.066,0.357-0.099,0.537
						c-0.099,0.535-0.197,1.074-0.295,1.618c-0.018,0.097-0.035,0.193-0.053,0.29c-0.364,2.027-0.724,4.095-1.069,6.13
						c-0.007,0.042-0.014,0.084-0.021,0.127c-1.572,9.259-2.84,17.72-2.84,17.72c-5.214-9.387-8.654-21.323-13.42-26.004
						c0,0-0.183-0.161-0.484-0.415c-0.076,0.78-0.143,1.561-0.197,2.341c-0.416,6.044-0.25,12.189,1.299,18.046
						c1.548,5.857,4.557,11.436,9.153,15.382c2.317,1.988,5.619,3.576,8.339,2.188c1.803-0.92,2.815-2.953,3.072-4.962
						c0.257-2.008-0.116-4.036-0.419-6.038c-0.665-4.4-0.984-8.853-0.963-13.303c0.037-7.736,1.099-15.466,3.151-22.925
						C503.443,188.374,505.111,185.133,506.025,181.845z"/>
					<g>
						
							<path style="fill:none;stroke:#30172B;stroke-width:0.4949;stroke-linecap:round;stroke-linejoin:round;stroke-miterlimit:10;" d="
							M514.017,178.71c0,0-10.98,2.79-13.343,8.012c-2.363,5.222-7.669,40.637-7.669,40.637c-5.214-9.387-8.654-21.323-13.42-26.004
							v0v0c0,0-8.526-7.631-13.21-5.959c-1.844,0.658-2.441,2.195-2.497,3.817c-0.466,0.033-0.938,0.102-1.386,0.213
							c-2.026,0.5-2.281,1.605-2.054,2.524c0.112,0.453,0.529,0.713,1.163,0.803c-1.278,0.617-1.441,1.59-1.233,2.43
							c0.114,0.463,0.516,0.741,1.112,0.864c-0.714,0.632-0.786,1.444-0.607,2.167c0.233,0.942,1.497,1.205,3.289,0.904
							c-0.841,0.855-0.675,1.679-0.259,2.288c0.496,0.727,1.758,0.41,3.263-0.617c0.039-0.026,0.071-0.054,0.108-0.08
							c0.212,0.477,0.45,0.931,0.736,1.334c0.73,1.027,1.547,1.77,2.403,2.284c1.657,7.685,10.553,54.788,34.697,53.171
							c26.411-1.769,24.241-74.427,24.241-74.427L514.017,178.71z"/>
						
							<path style="fill:none;stroke:#30172B;stroke-width:0.4949;stroke-linecap:round;stroke-linejoin:round;stroke-miterlimit:10;" d="
							M495.179,213.621c6.052,5.519,25.866,5.161,33.753-1.616"/>
					</g>
				</g>
				<g>
					<g>
						
							<path style="fill:#B27056;stroke:#30172B;stroke-width:0.4949;stroke-linecap:round;stroke-linejoin:round;stroke-miterlimit:10;" d="
							M434.929,473.466c-1.832,1.477-0.868,4.32,1.526,4.581c8.732,0.951,16.529,0.095,24.468-3.836
							c5.225-2.588,10.075-5.866,15.187-8.671c2.777-1.524,8.572-3.52,9.404-6.96c0.461-1.906-0.831-3.739-1.607-5.552
							c-2.027-4.732-0.582-10.058,0.324-15.089c1.02-5.662,0.966-12.377-4.611-15.628c-2.338-1.363-5.188-1.717-7.884-1.21
							c-5.711,1.074-9.745,5.292-12.306,9.965c-2.85,5.201-4.458,10.939-6.869,16.338
							C448.388,456.749,443.04,466.93,434.929,473.466z"/>
						<path style="fill:#C91C5F;" d="M483.907,453.028c-0.409-0.954-0.671-1.933-0.83-2.927l-0.002-0.002
							c-6.124,12.365-34.157,18.165-39.443,17.926c-1.154-0.052-1.617-0.792-1.637-1.914c-2.102,2.732-4.437,5.237-7.066,7.356
							c-1.832,1.477-0.868,4.32,1.526,4.581c8.732,0.951,16.529,0.095,24.468-3.836c5.225-2.588,10.075-5.866,15.187-8.671
							c2.777-1.524,8.572-3.52,9.404-6.96C485.976,456.674,484.684,454.841,483.907,453.028z"/>
					</g>
					<g>
						<path style="fill:#FFAD29;" d="M453.602,436.277c-0.264,2.332-0.241,4.954,1.233,6.699c1.376,1.628,3.603,2.004,5.65,2.19
							c4.808,0.439,9.656,0.385,14.454-0.162c2.485-0.283,5.028-0.724,7.175-2.089c2.216-1.408,3.84-3.711,4.918-6.211
							c1.078-2.5,1.655-5.209,2.162-7.908c0.379-2.018,0.689-4.261-0.325-6.012c-1.251-2.16-3.961-2.66-6.339-2.75
							c-4.926-0.186-9.876,0.499-14.605,1.977c-4.319,1.349-9.954,3.409-13.314,6.753c-0.849,0.845-0.721,1.395-0.664,2.595
							C454.026,433.018,453.787,434.636,453.602,436.277z"/>
						<g>
							
								<path style="fill:none;stroke:#30172B;stroke-width:0.4949;stroke-linecap:round;stroke-linejoin:round;stroke-miterlimit:10;" d="
								M459.279,445.022c-0.974-6.5-0.922-13.159,0.158-19.65"/>
							
								<path style="fill:none;stroke:#30172B;stroke-width:0.4949;stroke-linecap:round;stroke-linejoin:round;stroke-miterlimit:10;" d="
								M468.545,421.833c-1.888,7.736-3.003,15.653-3.332,23.605"/>
							
								<path style="fill:none;stroke:#30172B;stroke-width:0.4949;stroke-linecap:round;stroke-linejoin:round;stroke-miterlimit:10;" d="
								M477.703,420.143c-1.054,8.509-2.881,16.922-5.445,25.106"/>
							
								<path style="fill:none;stroke:#30172B;stroke-width:0.4949;stroke-linecap:round;stroke-linejoin:round;stroke-miterlimit:10;" d="
								M480.268,443.838c2.348-7.664,3.74-15.63,4.093-23.642"/>
						</g>
					</g>
					<g>
						<path style="fill:#FFAD29;stroke:#29112D;stroke-width:0.4949;stroke-miterlimit:10;" d="M526.84,230.185
							c0,0-21.292,13.444-38.14,45.411c-16.69,31.665-38.23,124.232-38.58,151.631c-0.05,3.941,2.58,7.551,6.671,8.917
							c8.09,2.701,16.408,2.862,25.05-0.598c0.937-0.375,1.683-1.04,2.57-1.504c43.855-22.957,31.587-142.207,80.723-190.894
							L526.84,230.185z"/>
						<path style="opacity:0.2;fill:#FFFFFF;" d="M474.797,344.641c7.818-27.527,19.547-53.94,34.714-78.205
							c7.402-11.841,15.669-23.049,24.568-33.8l-7.239-2.451c0,0-21.291,13.444-38.14,45.411
							c-16.69,31.665-38.23,124.232-38.579,151.631c-0.05,3.941,2.58,7.552,6.671,8.918c7.99,2.667,16.203,2.85,24.731-0.478
							c0.106-1.692-0.111-3.382-0.742-4.971c-1.973-4.969-7.257-7.682-10.697-11.774c-6.062-7.21-5.746-17.689-4.67-27.047
							C467.25,375.909,470.407,360.099,474.797,344.641z"/>
						
							<path style="fill:none;stroke:#30172B;stroke-width:0.2475;stroke-linecap:round;stroke-linejoin:round;stroke-miterlimit:10;" d="
							M515.645,239.391l-0.013,0.026c-21.5,29.47-35.88,64.838-45.455,101.164c-8.054,30.571-12.872,61.986-16.918,93.529"/>
					</g>
					<g>
						<g>
							
								<path style="fill:#B27056;stroke:#30172B;stroke-width:0.4949;stroke-linecap:round;stroke-linejoin:round;stroke-miterlimit:10;" d="
								M561.676,393.207c-1.19,1.371-2.838,2.83-4.666,2.466c-1.876-0.373-2.677-2.4-3.167-4.134
								c-2.274-8.053-4.569-16.295-3.849-24.637c0.719-8.342,5.039-16.95,12.978-20.888c2.428-1.205,5.26-1.94,7.905-1.338
								c7.415,1.686,5.366,12.602,4.676,17.837c-0.949,7.196-3.292,14.251-6.885,20.71
								C566.703,386.755,564.362,390.111,561.676,393.207z"/>
							<path style="fill:#C91C5F;" d="M574.494,346.946c-0.342,0.814-0.625,1.66-0.876,2.473
								c-2.076,6.756-4.152,13.511-6.229,20.267c-0.906,2.948-1.859,5.984-3.843,8.345c-1.984,2.362-5.287,3.898-8.205,2.9
								c-2.659-0.91-4.221-3.539-5.229-6.225c0.598,5.681,2.169,11.302,3.732,16.833c0.49,1.734,1.29,3.761,3.167,4.134
								c1.828,0.363,3.476-1.095,4.666-2.466c2.686-3.096,5.027-6.452,6.992-9.985c3.593-6.459,5.936-13.514,6.885-20.71
								C576.092,358.421,577.462,350.859,574.494,346.946z"/>
						</g>
						<g>
							<g>
								<path style="fill:#FFAD29;" d="M563.79,220.579c0,0,13.687,4.974,17.755,31.167s-13.557,116.659-34.868,131.03
									c-21.312,14.371-30.259-2.473-31.581-35.517c-1.718-42.965,26.499-118.564,26.499-118.564L563.79,220.579z"/>
								<path style="fill:#FFAD29;" d="M540.64,324.15c0,0,25.277-13.752,36.402-7.839c5.341,2.839,7.119,10.413,7.523,17.522
									c0.496,8.708-1.965,17.288-6.799,24.121c-8.94,12.635-23.194,28.931-42.333,29.971
									C512.172,389.188,540.64,324.15,540.64,324.15z"/>
							</g>
							<g>
								<g>
									
										<path style="fill:none;stroke:#30172B;stroke-width:0.4949;stroke-linecap:round;stroke-linejoin:round;stroke-miterlimit:10;" d="
										M575.038,315.504c-2.676,12.245-6,24.457-9.779,35.137"/>
								</g>
								
									<path style="fill:none;stroke:#30172B;stroke-width:0.4949;stroke-linecap:round;stroke-linejoin:round;stroke-miterlimit:10;" d="
									M525.968,278.156c-6.177,22.955-11.658,49.444-10.872,69.103c1.019,25.494,6.585,41.329,18.86,40.641
									c0.47,0.037,0.956,0.053,1.477,0.025c19.139-1.04,33.393-17.336,42.333-29.971c4.834-6.833,7.295-15.413,6.799-24.121
									c-0.405-7.109-2.182-14.683-7.523-17.522c-0.625-0.332-1.299-0.593-2.006-0.807c5.626-25.743,8.392-51.634,6.509-63.757"/>
							</g>
						</g>
					</g>
					
						<path style="fill:none;stroke:#30172B;stroke-width:0.4949;stroke-linecap:round;stroke-linejoin:round;stroke-miterlimit:10;" d="
						M519.609,274.798c4.126,3.643,10.467,4.537,15.439,2.176"/>
				</g>
				<g>
					<path style="fill:#C91C5F;" d="M557.223,163.664c-15.901,4.912-26.764,8.91-43.206,15.046
						c-13.984,15.368-16.474,37.421-3.941,36.502l6.374,19.64c12.85,5.508,29.875-0.072,45.998-8.107l3-17.531l-1.431-46.578
						L557.223,163.664z"/>
					
						<path style="fill:none;stroke:#30172B;stroke-width:0.4949;stroke-linecap:round;stroke-linejoin:round;stroke-miterlimit:10;" d="
						M504.868,192.97c-5.021,11.922-3.708,22.896,5.209,22.242l6.374,19.64c12.85,5.508,29.875-0.072,45.998-8.107l3-17.531
						l-1.431-46.578l-6.796,1.027c-15.901,4.912-26.764,8.91-43.206,15.046"/>
					
						<path style="fill:#B27056;stroke:#30172B;stroke-width:0.4949;stroke-linecap:round;stroke-linejoin:round;stroke-miterlimit:10;" d="
						M547.971,166.602c-10.097,3.299-18.786,6.461-29.781,10.553c-0.963,3.512-3.16,14.359,6.871,13.188
						C535.551,189.118,545.401,173.424,547.971,166.602z"/>
				</g>
				<g>
					<path style="fill:#B27056;" d="M522.672,178.166l-0.837-7.314c0,0-5.947,2.204-7.885-0.233
						c-3.7-4.672,1.319-24.347,1.319-24.347l12.054-2.409l3.584,11.183l9.557,15.329L522.672,178.166z"/>
					<g>
						<g>
							
								<path style="fill:none;stroke:#30172B;stroke-width:0.4949;stroke-linecap:round;stroke-linejoin:round;stroke-miterlimit:10;" d="
								M517.296,155.112c-0.549,0.957-1.197,1.856-1.931,2.679c0.518,0.197,1.036,0.394,1.553,0.591"/>
						</g>
						<path style="fill:#FFF5E4;" d="M517.951,159.451c0.316-0.112,0.681-0.259,0.963-0.078c0.27,0.173,0.301,0.558,0.231,0.871
							c-0.133,0.595-0.546,1.128-1.102,1.377c-0.556,0.249-1.244,0.197-1.74-0.158c-0.427-0.306-0.925-1.087-0.419-1.538
							c0.214-0.191,0.51-0.23,0.784-0.245C517.109,159.655,517.533,159.599,517.951,159.451z"/>
						
							<path style="fill:none;stroke:#30172B;stroke-width:0.4949;stroke-linecap:round;stroke-linejoin:round;stroke-miterlimit:10;" d="
							M513.272,155.54c0.523-0.667,1.477-0.961,2.285-0.703"/>
						
							<path style="fill:none;stroke:#30172B;stroke-width:0.4949;stroke-linecap:round;stroke-linejoin:round;stroke-miterlimit:10;" d="
							M518.919,154.443c0.375-0.35,0.876-0.561,1.388-0.585c0.512-0.024,1.031,0.139,1.437,0.452"/>
						<path style="fill:#29112D;" d="M517.702,151.632c-0.061-0.105-0.182-0.204-0.302-0.232c-0.129-0.029-0.274-0.023-0.388,0.051
							c-0.034,0.026-0.068,0.053-0.102,0.079c-0.063,0.063-0.106,0.137-0.13,0.223c-0.033,0.246-0.067,0.492-0.101,0.738
							c-0.021,0.067-0.024,0.134-0.009,0.201c0.003,0.067,0.023,0.13,0.06,0.188c0.061,0.105,0.181,0.204,0.302,0.232
							c0.129,0.029,0.274,0.023,0.389-0.051c0.034-0.026,0.068-0.053,0.102-0.079c0.063-0.063,0.106-0.137,0.13-0.223
							c0.034-0.246,0.067-0.492,0.101-0.738c0.021-0.067,0.024-0.134,0.009-0.201C517.759,151.752,517.738,151.689,517.702,151.632z
							"/>
					</g>
					<g>
						<path style="fill:#B27056;" d="M534.321,153.318c0.229,1.378-0.702,2.682-2.08,2.911c-1.378,0.229-2.682-0.702-2.911-2.08
							c-0.229-1.378,0.702-2.682,2.08-2.911C532.788,151.008,534.091,151.939,534.321,153.318z"/>
						
							<path style="fill:none;stroke:#30172B;stroke-width:0.4949;stroke-linecap:round;stroke-linejoin:round;stroke-miterlimit:10;" d="
							M530.271,154.814c0,0,0.047-2.442,2.327-2.465"/>
					</g>
					<g>
						
							<path style="fill:none;stroke:#30172B;stroke-width:0.4949;stroke-linecap:round;stroke-linejoin:round;stroke-miterlimit:10;" d="
							M540.464,170.376l-8.805-14.123c0.191,0.012,0.385,0.009,0.582-0.024c1.378-0.229,2.31-1.533,2.08-2.911
							c-0.23-1.378-1.533-2.31-2.912-2.08c-0.591,0.098-1.091,0.402-1.461,0.816l-2.625-8.19l-12.054,2.409
							c0,0-5.018,19.675-1.319,24.347c1.937,2.438,7.884,0.233,7.884,0.233l0.837,7.314"/>
						
							<path style="fill:none;stroke:#30172B;stroke-width:0.4949;stroke-linecap:round;stroke-linejoin:round;stroke-miterlimit:10;" d="
							M521.831,170.852c0,0,4.018-2.196,5.352-4.676"/>
					</g>
					<path style="fill:#29112D;" d="M532.352,144.765c-0.387-2.089-1.108-4.777-3.236-5.72c-1.232-0.546-2.672-0.658-4.045-0.475
						c-1.772,0.236-3.462,0.928-5.084,1.697c-0.833,0.395-1.668,0.82-2.349,1.428c-0.376,0.336-0.692,0.739-0.914,1.175
						c-0.32-0.059-0.646-0.098-0.977-0.104c-1.793-0.035-3.749,0.854-4.627,2.34c-0.755,1.277-0.632,2.788-0.048,4.017
						c0.584,1.23,1.578,2.234,2.558,3.219c1.992-1.281,3.668-2.965,4.886-4.858c2.88,2.841,6.387,5.242,10.527,6.007
						c0.088,0.016,0.18,0.027,0.27,0.041c0.091-1.131,0.93-2.1,2.099-2.294c0.218-0.036,0.432-0.034,0.643-0.015
						C532.649,149.1,532.744,146.88,532.352,144.765z"/>
					
						<path style="fill:none;stroke:#FFFFFF;stroke-width:0.4949;stroke-linecap:round;stroke-linejoin:round;stroke-miterlimit:10;" d="
						M537.922,159.503c0.003,2.204-1.782,3.994-3.987,3.996c-2.204,0.003-3.994-1.783-3.996-3.987
						c-0.003-2.204,1.782-3.994,3.987-3.996C536.131,155.513,537.92,157.298,537.922,159.503z"/>
				</g>
				<g>
					<g>
						<g>
							<path style="fill:#AA42BC;" d="M503.818,245.827c-0.805-1.341-4.274,0.794-4.274,0.794l-11.606-23.662l-4.221,1.778
								l13.366,23.159c0,0-3.182,1.471-3.344,2.672c-0.161,1.207,1.022,1.883,4.696,0.45
								C503.033,249.227,504.655,247.228,503.818,245.827z"/>
							<path style="fill:#E24485;" d="M492.198,217.83c-0.694-1.463-2.349-1.819-2.349-1.819l-12.506,6.179
								c0,0-0.597,2.321,0.692,3.359c1.016,0.813,2.958,1.119,6.134-0.044c0.859-0.314,1.807-0.731,2.854-1.281
								c0.279-0.146,0.547-0.297,0.804-0.447C492.014,221.339,492.656,218.787,492.198,217.83z"/>
							<path style="fill:#FC8D15;" d="M489.805,216.02c-0.049-0.281-0.138-0.559-0.261-0.829
								c-2.928-6.495-22.571-47.582-28.899-58.563c-0.642,0.947-1.817,2.138-3.931,3.427c-0.942,0.576-2.071,1.172-3.421,1.773
								c-0.909,0.403-1.792,0.713-2.623,0.945c-1.818,0.51-3.424,0.652-4.599,0.63l0.001,0.085c0,0,20.823,43.732,30.996,58.208
								c0.108,0.151,0.221,0.291,0.344,0.424c0.772,0.814,1.88,1.244,3.022,1.143c0.797-0.076,1.748-0.232,2.778-0.547
								c1.136-0.34,2.371-0.881,3.58-1.711c0.71-0.485,1.418-1.073,2.094-1.783C489.711,218.367,490.031,217.159,489.805,216.02z"/>
							<path style="fill:#E24485;" d="M460.645,156.628c-0.642,0.947-1.817,2.138-3.931,3.427c-0.942,0.576-2.071,1.172-3.421,1.773
								c-0.909,0.403-1.792,0.713-2.623,0.945c-1.818,0.51-3.424,0.652-4.599,0.63c-0.964-0.02-1.645-0.152-1.94-0.295
								c-0.814-0.389-0.834-4.122-0.675-4.197l0.076-0.057c0.7,1.001,4.566,1.393,8.889-0.742c5.327-2.637,6.494-5.564,6.21-6.402
								c0,0,2.711,2.173,2.73,3.043C461.374,155.089,461.241,155.753,460.645,156.628z"/>
							<path style="fill:#E24485;" d="M458.631,151.711c0.284,0.839-0.883,3.766-6.21,6.402c-4.322,2.136-8.188,1.744-8.889,0.742
								c-0.075-0.091-0.111-0.197-0.119-0.304c-0.074-1.15,1.957-1.938,2.135-2.002c0.029,0.163,0.057,0.309,0.084,0.444
								c0.082,0.415,0.457,0.718,0.882,0.692c5.927-0.376,8.677-3.528,9.59-4.882c0.231-0.336,0.18-0.793-0.114-1.085
								c-0.086-0.085-0.185-0.186-0.295-0.291l0.042-0.043C455.737,151.384,458.289,150.717,458.631,151.711z"/>
							
								<path style="fill:none;stroke:#30172B;stroke-width:0.4949;stroke-linecap:round;stroke-linejoin:round;stroke-miterlimit:10;" d="
								M450.685,162.819c0,0,22.851,47.214,32.49,59.777"/>
							
								<path style="fill:none;stroke:#30172B;stroke-width:0.4949;stroke-linecap:round;stroke-linejoin:round;stroke-miterlimit:10;" d="
								M456.823,160.224c0,0,27.186,51.568,29.905,60.692"/>
							<g>
								<path style="fill:#FFAD29;" d="M445.547,156.549c-0.706-3.614-2.723-14.424-1.857-15.188
									c0.876-0.776,9.376,7.47,12.005,10.066c0.11,0.106,0.209,0.207,0.295,0.291c0.295,0.291,0.346,0.749,0.114,1.085
									c-0.913,1.354-3.663,4.506-9.59,4.882c-0.425,0.026-0.8-0.277-0.882-0.692C445.604,156.858,445.577,156.712,445.547,156.549
									z"/>
								
									<path style="fill:none;stroke:#30172B;stroke-width:0.2475;stroke-linecap:round;stroke-linejoin:round;stroke-miterlimit:10;" d="
									M443.634,141.407c0,0,0,0,0,0.013c0.608,3.402,1.664,6.701,3.17,9.794c0.708,1.463,1.544,2.913,2.817,3.913
									c0.72,0.577,1.606,0.974,2.505,1.089h0.013"/>
							</g>
						</g>
						<g>
							<g>
								<path style="fill:#B27056;" d="M468.93,207.856c0.496,0.727-0.26,1.908-1.765,2.934c-1.505,1.027-2.767,1.344-3.263,0.617
									c-0.496-0.727-0.657-1.757,0.849-2.783C466.256,207.597,468.434,207.129,468.93,207.856z"/>
								
									<path style="fill:none;stroke:#30172B;stroke-width:0.4949;stroke-linecap:round;stroke-linejoin:round;stroke-miterlimit:10;" d="
									M468.93,207.856c0.496,0.727-0.26,1.908-1.765,2.934c-0.993,0.678-1.88,1.046-2.512,1.01"/>
							</g>
							<g>
								<path style="fill:#B27056;" d="M468.487,206.204c0.27,1.093-1.164,2.171-3.428,2.729c-2.264,0.559-3.918,0.375-4.188-0.719
									s-0.002-2.399,2.261-2.958C465.396,204.698,468.218,205.11,468.487,206.204z"/>
								
									<path style="fill:none;stroke:#30172B;stroke-width:0.4949;stroke-linecap:round;stroke-linejoin:round;stroke-miterlimit:10;" d="
									M468.487,206.204c0.27,1.093-1.164,2.171-3.428,2.729c-1.494,0.369-2.722,0.414-3.463,0.088"/>
							</g>
							<g>
								<path style="fill:#B27056;" d="M467.674,203.258c0.251,1.018-1.129,2.033-3.3,2.569c-2.171,0.536-3.755,0.375-4.006-0.643
									c-0.251-1.018,0.013-2.239,2.185-2.774C464.723,201.873,467.422,202.239,467.674,203.258z"/>
								
									<path style="fill:none;stroke:#30172B;stroke-width:0.4949;stroke-linecap:round;stroke-linejoin:round;stroke-miterlimit:10;" d="
									M467.674,203.258c0.251,1.018-1.129,2.033-3.3,2.569c-1.433,0.354-2.61,0.404-3.317,0.105"/>
							</g>
							<g>
								<path style="fill:#B27056;" d="M467.255,200.157c0.227,0.919-1.066,1.846-3.091,2.346c-2.026,0.5-3.499,0.366-3.726-0.554
									c-0.227-0.919,0.028-2.024,2.054-2.524C464.518,198.925,467.028,199.238,467.255,200.157z"/>
								
									<path style="fill:none;stroke:#30172B;stroke-width:0.4949;stroke-linecap:round;stroke-linejoin:round;stroke-miterlimit:10;" d="
									M467.255,200.157c0.227,0.919-1.066,1.846-3.091,2.346c-1.337,0.33-2.433,0.384-3.089,0.118"/>
							</g>
							
								<path style="fill:none;stroke:#30172B;stroke-width:0.4949;stroke-linecap:round;stroke-linejoin:round;stroke-miterlimit:10;" d="
								M468.931,207.856c-0.16-0.234-0.505-0.333-0.935-0.341c0.41-0.411,0.603-0.859,0.492-1.311
								c-0.143-0.58-1.008-0.967-2.125-1.12c0.958-0.525,1.472-1.174,1.311-1.826c-0.152-0.615-1.2-0.991-2.483-1.075
								c1.412-0.524,2.249-1.276,2.064-2.026c-0.227-0.919-2.737-1.231-4.763-0.731c-2.026,0.5-2.281,1.605-2.054,2.524
								c0.112,0.453,0.529,0.713,1.163,0.803c-1.278,0.617-1.441,1.59-1.233,2.43c0.114,0.463,0.516,0.741,1.112,0.864
								c-0.715,0.632-0.786,1.444-0.608,2.167c0.233,0.942,1.497,1.206,3.289,0.904c-0.841,0.855-0.675,1.679-0.259,2.288
								c0.496,0.727,1.758,0.41,3.263-0.617C468.671,209.763,469.427,208.583,468.931,207.856z"/>
						</g>
					</g>
					<g>
						<path style="fill:#C91C5F;" d="M557.223,163.664c0.3,16.545,0.381,32.414-0.348,45.798c5.787-0.155,11.922-1.201,17.169-2.384
							c4.464-1.006,9.064-2.302,13.227-4.114c1.887-0.76,3.748-1.601,5.53-2.539c-1.913-15.813-6.256-30.146-10.571-36.051
							C576.04,155.901,557.223,163.664,557.223,163.664z"/>
						<path style="fill:#B27056;" d="M587.271,202.964c-4.163,1.812-8.763,3.108-13.227,4.114
							c-5.248,1.183-11.382,2.229-17.169,2.384c-0.357,6.554-0.905,12.52-1.722,17.66l-44.848-1.168c0,0-23.646-0.36-26.369,6.367
							c-0.72,1.777-0.137,3.216,0.962,4.365c-0.294,0.347-0.57,0.72-0.798,1.107c-1.035,1.759-0.437,2.693,0.361,3.163
							c0.393,0.231,0.861,0.118,1.357-0.264c-0.442,1.316,0.127,2.095,0.857,2.525c0.402,0.237,0.871,0.146,1.365-0.187
							c-0.047,0.932,0.473,1.537,1.101,1.907c0.818,0.481,1.867-0.223,2.882-1.683c0.023,1.173,0.713,1.62,1.424,1.746
							c0.848,0.15,1.489-0.95,1.8-2.705c0.008-0.045,0.011-0.086,0.018-0.13c0.479,0.178,0.959,0.322,1.436,0.397
							c1.891,0.297,3.475,0.101,4.731-0.444c5.141,3.409,41.443,23.214,71.197,17.272c20.007-3.995,23.265-33.413,20.174-58.964
							C591.019,201.363,589.158,202.204,587.271,202.964z"/>
						
							<path style="fill:none;stroke:#30172B;stroke-width:0.2475;stroke-linecap:round;stroke-linejoin:round;stroke-miterlimit:10;" d="
							M557.032,205.994c12.146-1.542,24.058-4.972,35.147-10.134"/>
						<g>
							
								<path style="fill:none;stroke:#30172B;stroke-width:0.4949;stroke-linecap:round;stroke-linejoin:round;stroke-miterlimit:10;" d="
								M555.152,227.122c0,0,3.434,0.218,7.037,1.244"/>
							<g>
								
									<path style="fill:none;stroke:#30172B;stroke-width:0.4949;stroke-linecap:round;stroke-linejoin:round;stroke-miterlimit:10;" d="
									M557.379,194.047c-0.186,12.733-0.805,24.136-2.226,33.075l-44.848-1.168c0,0-23.646-0.36-26.369,6.367
									c-0.72,1.777-0.137,3.216,0.962,4.365c-0.294,0.347-0.57,0.72-0.798,1.107c-1.035,1.759-0.437,2.693,0.361,3.163
									c0.393,0.231,0.861,0.118,1.357-0.264c-0.442,1.316,0.127,2.095,0.857,2.525c0.402,0.237,0.871,0.146,1.365-0.187
									c-0.047,0.932,0.473,1.537,1.101,1.907c0.818,0.481,1.867-0.223,2.882-1.683c0.023,1.173,0.713,1.62,1.424,1.746
									c0.848,0.15,1.489-0.95,1.8-2.705c0.008-0.045,0.011-0.086,0.018-0.13c0.479,0.178,0.959,0.322,1.436,0.397
									c1.891,0.297,3.475,0.101,4.731-0.444c5.141,3.409,41.443,23.214,71.197,17.272c32.388-6.468,20.89-79.568,9.603-95.016
									c-6.19-8.473-25.008-0.71-25.008-0.71"/>
								<g>
									
										<path style="fill:none;stroke:#30172B;stroke-width:0.4949;stroke-linecap:round;stroke-linejoin:round;stroke-miterlimit:10;" d="
										M485.829,240.698c0.586-1.318,1.62-2.433,2.891-3.117"/>
									
										<path style="fill:none;stroke:#30172B;stroke-width:0.4949;stroke-linecap:round;stroke-linejoin:round;stroke-miterlimit:10;" d="
										M488.087,243.098c0.535-1.478,1.314-2.867,2.296-4.094"/>
									
										<path style="fill:none;stroke:#30172B;stroke-width:0.4949;stroke-linecap:round;stroke-linejoin:round;stroke-miterlimit:10;" d="
										M492.045,243.426c-0.137-1.43,0.205-2.902,0.958-4.126"/>
									
										<path style="fill:none;stroke:#30172B;stroke-width:0.4949;stroke-linecap:round;stroke-linejoin:round;stroke-miterlimit:10;" d="
										M484.952,236.755c0.587-0.675,1.294-1.245,2.077-1.678"/>
								</g>
							</g>
							
								<path style="fill:none;stroke:#30172B;stroke-width:0.4949;stroke-linecap:round;stroke-linejoin:round;stroke-miterlimit:10;" d="
								M556.875,209.462c5.787-0.155,11.922-1.201,17.169-2.384c4.464-1.006,9.064-2.302,13.227-4.114
								c1.887-0.76,3.748-1.601,5.53-2.539"/>
						</g>
					</g>
				</g>
				<g>
					<path style="fill:#FC8D15;" d="M506.344,181.671c0,0,0.2,46.403,23.031,41.239c30.867-6.982,28.86-59.635,28.86-59.635
						c-4.508,1.013-8.901,2.435-13.202,4.178c0,0-11.424,31.726-20.477,31.081s-6.367-21.38-6.367-21.38
						C513.536,177.986,509.45,179.359,506.344,181.671z"/>
					
						<path style="fill:none;stroke:#30172B;stroke-width:0.2475;stroke-linecap:round;stroke-linejoin:round;stroke-miterlimit:10;" d="
						M515.419,177.754c-0.828,6.1-2.666,26.276,10.069,23.654c12.016-2.479,19.835-25.898,22.47-35.082"/>
				</g>
			</g>
			<g>
				<g>
					<g>
						
							<path style="fill:#B27056;stroke:#30172B;stroke-width:0.4949;stroke-linecap:round;stroke-linejoin:round;stroke-miterlimit:10;" d="
							M714.633,486.229c0.544,2.233,3.458,2.562,4.682,0.554c4.467-7.323,6.951-14.569,6.774-23.22
							c-0.116-5.693-0.999-11.342-1.355-17.025c-0.193-3.088,0.45-9.039-2.245-11.203c-1.493-1.199-3.65-0.819-5.575-0.886
							c-5.024-0.174-9.132-3.664-13.202-6.555c-4.58-3.254-10.538-5.996-15.728-2.417c-2.176,1.5-3.673,3.872-4.345,6.466
							c-1.423,5.494,0.629,10.811,3.696,15.016c3.413,4.679,7.816,8.484,11.586,12.859
							C705.448,467.389,712.225,476.345,714.633,486.229z"/>
						<path style="fill:#AA42BC;" d="M716.916,434.449c-1.013-0.035-1.987-0.21-2.932-0.482l-0.003,0.001
							c8.385,10.549,1.866,37.736-0.542,42.308c-0.526,0.998-1.371,1.1-2.372,0.651c1.541,2.993,2.786,6.097,3.566,9.301
							c0.544,2.233,3.458,2.562,4.682,0.554c4.467-7.323,6.951-14.569,6.774-23.22c-0.116-5.693-0.999-11.342-1.355-17.025
							c-0.193-3.088,0.45-9.039-2.245-11.203C720.997,434.136,718.84,434.516,716.916,434.449z"/>
					</g>
					<g>
						
							<path style="fill:#B27056;stroke:#30172B;stroke-width:0.4949;stroke-linecap:round;stroke-linejoin:round;stroke-miterlimit:10;" d="
							M815.157,505.572c2.034,0.417,1.575,3.561-0.712,5.051c-8.342,5.435-16.078,8.705-24.474,9.19
							c-5.525,0.32-10.802-0.198-16.254-0.14c-2.962,0.032-8.942,1.198-10.333-1.564c-0.771-1.531,0.177-3.907,0.626-5.996
							c1.174-5.453-1.133-9.648-2.866-13.851c-1.95-4.728-3.033-10.996,1.848-16.924c2.047-2.485,4.762-4.3,7.473-5.234
							c5.742-1.979,10.384-0.163,13.667,2.844c3.654,3.347,6.19,7.839,9.45,11.599C799.226,497.055,806.154,503.727,815.157,505.572
							z"/>
						<path style="fill:#AA42BC;" d="M764.01,512.113c0.237-1.099,0.327-2.145,0.314-3.153l0.002-0.003
							c8.053,8.296,36.33-0.927,41.437-3.905c1.115-0.65,1.441-1.578,1.27-2.632c2.509,1.442,5.206,2.553,8.124,3.151
							c2.034,0.417,1.575,3.561-0.712,5.051c-8.342,5.435-16.079,8.704-24.474,9.19c-5.525,0.32-10.802-0.198-16.254-0.14
							c-2.962,0.032-8.942,1.198-10.333-1.564C762.613,516.579,763.561,514.202,764.01,512.113z"/>
					</g>
					<g>
						<g>
							<path style="fill:#FFAD29;" d="M693.636,454.743c1.477,0.82,3.218,1.463,5.023,0.799c1.636-0.602,2.894-2.123,3.952-3.556
								c2.473-3.347,4.683-6.859,6.617-10.517c1.009-1.907,1.97-3.929,2.286-6.062c0.334-2.255-0.077-4.541-0.885-6.597
								c-0.845-2.153-2.117-4.117-3.488-6.122c-1.073-1.569-2.38-3.292-4.161-3.573c-2.289-0.361-4.257,1.773-5.726,3.896
								c-3.052,4.41-5.393,9.348-6.897,14.409c-1.334,4.487-2.766,10.268-1.852,14.294c0.222,0.976,0.726,1.038,1.69,1.354
								C691.492,453.492,692.559,454.145,693.636,454.743z"/>
							<g>
								
									<path style="fill:none;stroke:#30172B;stroke-width:0.4949;stroke-linecap:round;stroke-linejoin:round;stroke-miterlimit:10;" d="
									M701.969,452.82c-4.474-1.088-9.083-3.199-13.602-6.425"/>
								
									<path style="fill:none;stroke:#30172B;stroke-width:0.4949;stroke-linecap:round;stroke-linejoin:round;stroke-miterlimit:10;" d="
									M690.564,436.772c5.019,5.157,9.835,9.054,14.39,11.875"/>
								
									<path style="fill:none;stroke:#30172B;stroke-width:0.4949;stroke-linecap:round;stroke-linejoin:round;stroke-miterlimit:10;" d="
									M694.5,427.508c5.792,5.636,10.25,10.963,13.613,15.987"/>
								
									<path style="fill:none;stroke:#30172B;stroke-width:0.4949;stroke-linecap:round;stroke-linejoin:round;stroke-miterlimit:10;" d="
									M711.115,437.142c-2.992-5.147-7.148-10.436-12.659-15.706"/>
							</g>
						</g>
						<g>
							<path style="fill:#FFAD29;" d="M793.128,485.29c0.356,2.02,0.405,4.273-1.072,6.082c-1.339,1.639-3.583,2.481-5.646,3.128
								c-4.82,1.512-9.727,2.658-14.691,3.43c-2.589,0.403-5.289,0.705-7.863,0.223c-2.72-0.509-5.181-1.887-7.222-3.628
								c-2.136-1.823-3.887-4.06-5.645-6.427c-1.376-1.853-2.836-4.036-2.453-6.191c0.492-2.77,3.721-4.184,6.739-5.029
								c6.271-1.757,12.865-2.487,19.269-2.21c5.678,0.246,12.881,0.891,17.139,3.535c1.033,0.641,0.904,1.244,0.885,2.476
								C792.542,482.334,792.868,483.817,793.128,485.29z"/>
							<g>
								
									<path style="fill:none;stroke:#30172B;stroke-width:0.4949;stroke-linecap:round;stroke-linejoin:round;stroke-miterlimit:10;" d="
									M785.633,475.936c1.913,6.464,2.511,12.59,1.988,18.156"/>
								
									<path style="fill:none;stroke:#30172B;stroke-width:0.4949;stroke-linecap:round;stroke-linejoin:round;stroke-miterlimit:10;" d="
									M781.649,495.867c-1.433-6.345-4-13.416-7.931-21.219"/>
								
									<path style="fill:none;stroke:#30172B;stroke-width:0.4949;stroke-linecap:round;stroke-linejoin:round;stroke-miterlimit:10;" d="
									M774.486,497.453c-4.435-5.85-8.784-13.076-12.959-21.956"/>
								
									<path style="fill:none;stroke:#30172B;stroke-width:0.4949;stroke-linecap:round;stroke-linejoin:round;stroke-miterlimit:10;" d="
									M752.991,477.633c3.867,8.412,8.292,15.276,13.013,20.749"/>
							</g>
						</g>
						<path style="fill:#FFAD29;stroke:#29112D;stroke-width:0.4949;stroke-miterlimit:10;" d="M708.543,252.163
							c0,0,63.499,52.594,85.565,221.08c0.712,5.436-2.109,10.728-7.011,13.182c-8.988,4.5-20.044,7.199-30.499,7.274
							c-21.985-2.355-37.756-143.635-86.463-194.867l-18.743,56.372c10.802,27.715,37.411,36.051,53.569,60.166
							c2.055,3.067,3.815,7.546,3.631,11.234c-0.382,7.665-8.355,18.794-16.955,24.188c-3.021,1.894-6.798,2.092-10.108,0.767
							c-15.645-6.26-69.088-30.408-87.332-74.48c-15.026-36.299,36.419-115.874,36.419-115.874L708.543,252.163z"/>
						<g>
							
								<path style="fill:none;stroke:#30172B;stroke-width:0.4949;stroke-linecap:round;stroke-linejoin:round;stroke-miterlimit:10;" d="
								M651.29,355.043c-1.243-3.124-1.921-6.472-1.99-9.833"/>
							
								<path style="fill:none;stroke:#30172B;stroke-width:0.4949;stroke-linecap:round;stroke-linejoin:round;stroke-miterlimit:10;" d="
								M742.679,363.28c0.158,1.795,0.982,3.523,2.277,4.775c0.244,0.236,0.513,0.461,0.834,0.572
								c0.321,0.111,0.707,0.087,0.965-0.135c0.401-0.346,0.337-0.974,0.231-1.493c-0.247-1.212-0.531-2.417-0.851-3.612"/>
							
								<path style="fill:none;stroke:#30172B;stroke-width:0.4949;stroke-linecap:round;stroke-linejoin:round;stroke-miterlimit:10;" d="
								M611.249,368.315c-0.074,2.119,0.609,4.256,1.898,5.939c0.542,0.708,1.506,1.383,2.252,0.895
								c0.462-0.303,0.588-0.917,0.639-1.467c0.174-1.884-0.055-3.804-0.668-5.595"/>
						</g>
						<path style="opacity:0.2;fill:#FFFFFF;" d="M680.311,446.581c-17.044-15.018-34.087-30.036-51.131-45.055
							c-8.823-7.774-18.016-16.096-21.675-27.272c-4.984-15.223,1.482-31.581,7.844-46.282c4.332-10.012,8.665-20.024,12.997-30.037
							c5.538-12.799,11.077-25.598,16.615-38.397l-14.346,1.665c0,0-51.446,79.575-36.419,115.873
							c18.244,44.072,71.687,68.22,87.332,74.48c1.61,0.644,3.331,0.921,5.021,0.825
							C684.579,450.347,682.436,448.453,680.311,446.581z"/>
						<g>
							
								<path style="fill:none;stroke:#30172B;stroke-width:0.2475;stroke-linecap:round;stroke-linejoin:round;stroke-miterlimit:10;" d="
								M690.609,451.351c-20.854-10.767-92.147-50.353-93.192-88.462c-0.886-32.797,27.674-80.044,42.895-102.804"/>
							
								<path style="fill:none;stroke:#30172B;stroke-width:0.2475;stroke-linecap:round;stroke-linejoin:round;stroke-miterlimit:10;" d="
								M699.975,253.166c55.556,53.251,79.145,144.558,88.104,232.711"/>
						</g>
					</g>
				</g>
				<g>
					<g>
						<g>
							
								<path style="fill:#B27056;stroke:#30172B;stroke-width:0.4949;stroke-linecap:round;stroke-linejoin:round;stroke-miterlimit:10;" d="
								M769.955,159.531l-24.32-25.61c0.497-3.526-1.39-7.45-6.518-8.177c-5.128-0.727-12.389,4.202-12.389,4.202l7.054,10.84
								l13.444,29.585L769.955,159.531z"/>
							<g>
								<path style="fill:#FC8D15;" d="M693.417,149.211c10.695-5.684,32.854-15.128,54.459-24.39
									c1.136-0.487,1.688-1.78,1.256-2.938l0,0c-0.433-1.161-1.697-1.777-2.877-1.397c-22.184,7.147-48.589,15.132-57.223,19.587
									c-0.876,0.452-1.374,1.42-1.216,2.394c0.384,2.368,1.24,4.46,2.731,6.181C691.267,149.479,692.447,149.727,693.417,149.211z
									"/>
							</g>
							<g>
								<g>
									<path style="fill:#B27056;" d="M735.571,128.695c0.94,0.115,1.694-1.191,1.931-3.137c0.237-1.946-0.084-3.308-1.024-3.423
										c-0.94-0.114-2.003,0.241-2.24,2.187C734.001,126.268,734.631,128.58,735.571,128.695z"/>
									
										<path style="fill:none;stroke:#30172B;stroke-width:0.4949;stroke-linecap:round;stroke-linejoin:round;stroke-miterlimit:10;" d="
										M735.571,128.695c0.94,0.115,1.694-1.191,1.931-3.137c0.156-1.284,0.07-2.314-0.277-2.899"/>
								</g>
								<g>
									<path style="fill:#B27056;" d="M733.774,129.088c1.178-0.283,1.499-2.185,0.913-4.624
										c-0.586-2.439-1.579-3.929-2.757-3.646c-1.178,0.283-2.293,1.184-1.708,3.623
										C730.807,126.88,732.596,129.371,733.774,129.088z"/>
									
										<path style="fill:none;stroke:#30172B;stroke-width:0.4949;stroke-linecap:round;stroke-linejoin:round;stroke-miterlimit:10;" d="
										M733.774,129.088c1.178-0.283,1.499-2.185,0.913-4.624c-0.386-1.609-0.951-2.805-1.628-3.351"/>
								</g>
								<g>
									<path style="fill:#B27056;" d="M730.557,129.767c1.097-0.263,1.384-2.084,0.822-4.423
										c-0.562-2.339-1.498-3.773-2.596-3.509c-1.097,0.263-2.132,1.119-1.57,3.459
										C727.775,127.633,729.46,130.031,730.557,129.767z"/>
									
										<path style="fill:none;stroke:#30172B;stroke-width:0.4949;stroke-linecap:round;stroke-linejoin:round;stroke-miterlimit:10;" d="
										M730.557,129.767c1.097-0.263,1.384-2.084,0.822-4.423c-0.371-1.544-0.904-2.693-1.54-3.22"/>
								</g>
								<g>
									<path style="fill:#B27056;" d="M727.388,130.9c0.99-0.238,1.237-1.931,0.713-4.113c-0.524-2.183-1.381-3.524-2.371-3.286
										c-0.99,0.238-1.92,1.028-1.396,3.21C724.858,128.894,726.398,131.138,727.388,130.9z"/>
									
										<path style="fill:none;stroke:#30172B;stroke-width:0.4949;stroke-linecap:round;stroke-linejoin:round;stroke-miterlimit:10;" d="
										M727.388,130.9c0.99-0.238,1.237-1.931,0.713-4.113c-0.346-1.44-0.836-2.514-1.415-3.01"/>
								</g>
								
									<path style="fill:none;stroke:#30172B;stroke-width:0.4949;stroke-linecap:round;stroke-linejoin:round;stroke-miterlimit:10;" d="
									M736.478,122.135c-0.788-0.096-1.657,0.152-2.058,1.378c-0.598-1.862-1.475-2.939-2.49-2.695
									c-0.779,0.187-1.52,0.657-1.77,1.652c-0.413-0.509-0.876-0.755-1.376-0.635c-0.906,0.217-1.754,0.854-1.712,2.38
									c-0.399-0.562-0.854-0.831-1.342-0.714c-0.99,0.238-1.92,1.028-1.396,3.21c0.524,2.183,2.064,4.427,3.054,4.189
									c0.809-0.195,1.113-1.369,0.914-2.982c0.715,1.186,1.592,2.008,2.255,1.849c0.705-0.169,1.071-0.986,1.097-2.166
									c0.699,0.993,1.494,1.637,2.12,1.487c0.488-0.117,0.82-0.523,1.01-1.119c0.22,0.408,0.485,0.688,0.788,0.725
									c0.94,0.115,1.694-1.191,1.931-3.137C737.739,123.612,737.418,122.249,736.478,122.135z"/>
							</g>
							<g>
								<path style="fill:#B27056;" d="M734.629,142.087c0,0-11.505-4.372-12.225-9.674c-0.719-5.302,7.931-5.771,7.931-5.771
									s1.576,0.336,0.27,2.664c0,0,10.777-1.482,11.412,7.3L734.629,142.087z"/>
								<g>
									
										<path style="fill:none;stroke:#30172B;stroke-width:0.4949;stroke-linecap:round;stroke-linejoin:round;stroke-miterlimit:10;" d="
										M730.605,129.306c-0.951,1.402-2.326,2.318-4.126,2.749"/>
								</g>
								
									<path style="fill:none;stroke:#30172B;stroke-width:0.4949;stroke-linecap:round;stroke-linejoin:round;stroke-miterlimit:10;" d="
									M734.629,142.087c0,0-11.505-4.372-12.225-9.674c-0.719-5.302,7.931-5.771,7.931-5.771s1.576,0.336,0.27,2.664
									c0,0,7.624-1.049,10.425,3.844"/>
							</g>
						</g>
						<path style="fill:#C91C5F;" d="M705.62,183.043c15.008,3.215,29.289,5.568,41.867,5.904
							c-3.848-11.252-8.552-21.822-14.391-31.489c-0.422-0.699-0.13-1.598,0.62-1.92c10.155-4.346,19.536-9.126,26.936-15.019
							c0.564-0.449,1.366-0.382,1.842,0.16c6.464,7.366,46.951,55.276,30.621,81.748c-17.724,28.73-92.837,5.024-92.837,5.024
							l-9.69-40.158L705.62,183.043z"/>
						<g>
							
								<path style="fill:none;stroke:#30172B;stroke-width:0.4949;stroke-linecap:round;stroke-linejoin:round;stroke-miterlimit:10;" d="
								M747.487,188.947c0,0,2.334,6.991,2.69,11.149"/>
							
								<path style="fill:none;stroke:#30172B;stroke-width:0.2475;stroke-linecap:round;stroke-linejoin:round;stroke-miterlimit:10;" d="
								M767.484,146.624l-0.015,0.004c-8.678,8.051-19.085,14.236-30.301,18.06"/>
						</g>
					</g>
					<path style="fill:#C91C5F;" d="M616.779,177.347c0,0-12.927-0.571-20.971,9.976c-5.933,7.779-24.036,46.729-24.036,46.729
						l3.662,22.195l32.392-2.49l16.704-35.142l8.898-38.617L616.779,177.347z"/>
					<g>
						<path style="fill:#C91C5F;" d="M616.779,177.347c31.294-1.101,61.106,0.443,88.841,5.696
							c-15.435,31.633,20.149,68.779,25.491,96.074c-24.059,15.334-72.922-10.657-100.496-17.913
							C622.366,234.071,617.927,207.163,616.779,177.347z"/>
						<g>
							
								<path style="fill:none;stroke:#30172B;stroke-width:0.4949;stroke-linecap:round;stroke-linejoin:round;stroke-miterlimit:10;" d="
								M703.422,213.048c2.579,13.436,24.846,51.544,27.689,66.069c-24.059,15.334-72.922-10.657-100.496-17.913
								c-5.033-16.554-8.648-33.024-10.962-50.121"/>
							
								<path style="fill:none;stroke:#30172B;stroke-width:0.4949;stroke-linecap:round;stroke-linejoin:round;stroke-miterlimit:10;" d="
								M705.62,183.043c-27.735-5.253-57.547-6.797-88.841-5.696"/>
						</g>
						
							<path style="fill:#B27056;stroke:#30172B;stroke-width:0.4949;stroke-linecap:round;stroke-linejoin:round;stroke-miterlimit:10;" d="
							M687.149,179.88c-15.006-2.064-30.979-2.792-47.024-2.845c0.397,5.911,3.958,14.871,19.041,16.688l3.514,6.458l3.579-6.206
							C679.059,193.36,684.557,186.468,687.149,179.88z"/>
					</g>
					<g>
						<g>
							<path style="fill:#B27056;" d="M644.775,169.965c2.201,2.017,10.4,0.926,10.4,0.926l-4.723,12.976
								c9.953,2.534,17.7,1.499,23.625-1.563l-7.622-37.674l-12.83-1.07C653.626,143.56,638.785,164.496,644.775,169.965z"/>
							<g>
								
									<path style="fill:none;stroke:#30172B;stroke-width:0.4949;stroke-linecap:round;stroke-linejoin:round;stroke-miterlimit:10;" d="
									M652.707,154.705c-0.969,0.967-2.039,1.832-3.187,2.578c0.556,0.405,1.112,0.81,1.667,1.215"/>
								<path style="fill:#FFFFFF;" d="M650.721,160.592c0.259,0.021,0.535,0.048,0.736,0.212c0.217,0.177,0.296,0.485,0.256,0.762
									c-0.04,0.278-0.181,0.53-0.342,0.76c-0.333,0.477-0.776,0.899-1.324,1.096c-0.548,0.197-1.209,0.134-1.644-0.253
									c-0.404-0.36-0.539-0.908-0.611-1.423c-0.053-0.381-0.198-1.049,0.172-1.326c0.281-0.21,0.732-0.044,1.039,0.009
									C649.568,160.528,650.149,160.546,650.721,160.592z"/>
								
									<path style="fill:none;stroke:#30172B;stroke-width:0.4949;stroke-linecap:round;stroke-linejoin:round;stroke-miterlimit:10;" d="
									M650.435,154.131c-0.363-0.384-0.856-0.642-1.378-0.724c-0.522-0.081-1.07,0.015-1.533,0.269"/>
								
									<path style="fill:none;stroke:#30172B;stroke-width:0.4949;stroke-linecap:round;stroke-linejoin:round;stroke-miterlimit:10;" d="
									M658.247,154.866c-0.488-0.434-1.122-0.702-1.774-0.749c-0.652-0.048-1.317,0.126-1.864,0.484"/>
							</g>
							
								<path style="fill:none;stroke:#30172B;stroke-width:0.4949;stroke-linecap:round;stroke-linejoin:round;stroke-miterlimit:10;" d="
								M655.175,170.892c0,0,4.018-0.4,8.144-3.196"/>
							<path style="fill:#29112D;" d="M667.104,158.976c0.576,0.578,1.195,1.139,1.944,1.46c0.75,0.321,1.66,0.368,2.353-0.062
								c0.864-0.536,1.172-1.624,1.412-2.612c0.379-1.566,0.758-3.132,1.138-4.699c0.43-1.777,0.834-3.763-0.086-5.343
								c-0.516-0.886-1.38-1.505-2.23-2.08c-1.606-1.087-3.337-2.147-5.27-2.298c-1.933-0.15-4.097,0.911-4.556,2.795
								c-0.14,0.574-0.133,1.166-0.341,1.725c-0.138,0.371-0.442,0.701-0.472,1.105c-0.079,1.064,0.928,2.603,1.4,3.523
								C663.621,154.877,665.212,157.076,667.104,158.976z"/>
							<g>
								<path style="fill:#B27056;" d="M673.306,160.811c-0.184,1.813-1.802,3.133-3.615,2.95c-1.813-0.184-3.133-1.802-2.95-3.615
									c0.184-1.813,1.802-3.133,3.615-2.95C672.169,157.38,673.49,158.998,673.306,160.811z"/>
							</g>
							<g>
								
									<path style="fill:none;stroke:#30172B;stroke-width:0.4949;stroke-linecap:round;stroke-linejoin:round;stroke-miterlimit:10;" d="
									M650.727,183.112l4.448-12.221c0,0-8.2,1.091-10.4-0.926c-5.99-5.469,8.851-26.406,8.851-26.406l12.83,1.07l2.57,12.706
									c0.418-0.133,0.867-0.187,1.331-0.14c1.813,0.184,3.133,1.803,2.95,3.615c-0.162,1.598-1.439,2.81-2.981,2.95l3.321,16.417"
									/>
							</g>
						</g>
						<g>
							<g>
								<path style="fill:#C91C5F;" d="M675.702,126.075c-2.346-0.516-4.917,0.827-7.134-0.097c-1.443-0.602-2.367-2.033-3.7-2.85
									c-2.296-1.407-5.238-0.742-7.855-0.11c-0.44,0.106-0.988,0.226-1.574,0.336c2.805,6.525,3.636,13.561,3.094,20.951
									l11.713,2.983c1.376-5.426,9.027-3.898,14.925-9.253C683.277,136.4,678.129,126.608,675.702,126.075z"/>
								<g>
									
										<path style="fill:none;stroke:#30172B;stroke-width:0.4949;stroke-linecap:round;stroke-linejoin:round;stroke-miterlimit:10;" d="
										M660.885,125.948c0.535,4.386,0.836,8.801,0.901,13.219"/>
									
										<path style="fill:none;stroke:#30172B;stroke-width:0.4949;stroke-linecap:round;stroke-linejoin:round;stroke-miterlimit:10;" d="
										M667.558,130.865c-0.551,4.006-1.401,7.972-2.541,11.852"/>
									
										<path style="fill:none;stroke:#30172B;stroke-width:0.4949;stroke-linecap:round;stroke-linejoin:round;stroke-miterlimit:10;" d="
										M677.534,133.194c-2.885,2.771-5.35,5.979-7.285,9.48"/>
								</g>
							</g>
							<g>
								<path style="fill:#C91C5F;" d="M649.079,150.353c2.423-0.905,4.504-2.222,5.715-4.587c0,0,3.787,13.703,18.316,13.867
									c0,0,0.735-1.554,1.415-2.549c1.707-2.501,0.15-3.001,0.555-3.892c2.131-4.689,4.497-10.784-4.192-14.83
									c-6.356-2.96-16.975-1.225-19.367,1.174S649.079,150.353,649.079,150.353z"/>
								<g>
									
										<path style="fill:none;stroke:#30172B;stroke-width:0.4949;stroke-linecap:round;stroke-linejoin:round;stroke-miterlimit:10;" d="
										M654.101,138.397c-0.07,1.995,0.096,5.01,0.693,7.369"/>
									
										<path style="fill:none;stroke:#30172B;stroke-width:0.4949;stroke-linecap:round;stroke-linejoin:round;stroke-miterlimit:10;" d="
										M657.711,139.796c1.234,3.157,3.592,5.796,6.372,7.735c2.78,1.939,5.972,3.219,9.227,4.162"/>
									
										<path style="fill:none;stroke:#30172B;stroke-width:0.4949;stroke-linecap:round;stroke-linejoin:round;stroke-miterlimit:10;" d="
										M664.506,151.421c1.67,1.787,3.812,3.129,6.149,3.85"/>
								</g>
							</g>
						</g>
					</g>
				</g>
				<g>
					<g>
						<path style="fill:#29112D;" d="M673.118,178.341c7.093,24.272,11.881,45.27,16.376,70.441c0,0,7.166,3.196,7.702,2.413
							c1.117-1.629-9.674-63.359-16.388-72.103C678.638,177.54,674.642,177.4,673.118,178.341z"/>
						<path style="fill:#29112D;" d="M652.746,177.266c-9.092,30.462-22.588,59.832-31.755,93.771l-7.234-2.603
							c9.537-31.277,18.329-61.861,31.626-91.318C647.334,176.562,651.2,176.91,652.746,177.266z"/>
					</g>
					<g>
						<path style="fill:#FC8D15;" d="M712.563,285.381l-17.421-58.046c-30.345-7.232-59.92,3.497-89.587,26.887
							c-3.596,1.079-2.612,14.948,2.199,30.977c4.811,16.029,11.317,26.162,15.222,27.069
							C640.447,318.28,696.34,307.387,712.563,285.381z"/>
						<path style="opacity:0.2;fill:#FFFFFF;" d="M646.615,258.622c16.125-9.31,34.027-15.49,52.437-18.259l-3.91-13.027
							c-30.345-7.232-59.921,3.497-89.586,26.887c-3.049,0.915-2.794,11.039,0.285,23.867c6.694-0.929,13.162-3.447,19.182-6.592
							C632.451,267.616,639.356,262.812,646.615,258.622z"/>
						<path style="fill:#AA42BC;" d="M686.738,225.787c-1.558,7.96,0.114,20.677,4.131,34.062
							c4.08,13.594,10.137,25.806,15.74,31.766c2.324-1.965,4.338-4.043,5.953-6.234l-17.421-58.046
							C692.335,226.667,689.534,226.153,686.738,225.787z"/>
						<path style="fill:#FFAD29;" d="M712.563,285.381c-3.596,1.079-10.411-11.04-15.222-27.069s-5.795-29.898-2.199-30.977
							c3.596-1.079,7.069,12.043,11.879,28.072C711.832,271.436,716.159,284.302,712.563,285.381z"/>
						<path style="fill:#FC8D15;" d="M707.392,271.163c-1.803,0.541-5.221-5.537-7.634-13.575
							c-2.413-8.039-2.906-14.994-1.103-15.535c1.803-0.541,3.545,6.04,5.957,14.078
							C707.025,264.169,709.195,270.621,707.392,271.163z"/>
						<g>
							<path style="fill:#AA42BC;" d="M670.523,225.325c-0.187,2.915-0.16,5.853-0.005,8.795c0.522,9.906,1.835,19.82,4.281,29.397
								c3.407,13.342,9.316,26.102,18.113,36.832c2.446-1.215,4.779-2.505,6.962-3.868c-8.279-9.818-13.81-21.521-17.127-33.878
								c-2.36-8.79-3.638-17.825-4.236-26.934c-0.228-3.471-0.386-7.017-0.168-10.535
								C675.732,225.069,673.126,225.138,670.523,225.325z"/>
							<path style="fill:#AA42BC;" d="M643.181,313.617c-6.643-9.92-11.975-20.603-15.759-31.893
								c-2.581-7.7-4.524-15.652-5.629-23.715c-0.664-4.845-1.166-9.943-0.581-14.919c-2.74,1.734-5.481,3.584-8.221,5.546
								c-0.218,11.222,2.877,22.798,6.017,32.825c3.562,11.377,8.609,22.267,14.956,32.416
								C636.794,313.954,639.894,313.866,643.181,313.617z"/>
						</g>
						<g>
							
								<path style="fill:none;stroke:#30172B;stroke-width:0.4949;stroke-linecap:round;stroke-linejoin:round;stroke-miterlimit:10;" d="
								M689.385,231.801c-25.406-0.612-48.383,10.193-72.302,25.198c26.976-4.433,52.612-10.162,75.05-5.033
								c-23.4,3.372-46.389,13.822-69.222,27.67c28.151,0.823,52.757-1.739,74.791-9.112
								c-18.895,13.184-41.061,24.831-65.687,33.403c26.521,1.045,52.736-2.584,74.095-18.942"/>
							<g>
								<path style="fill:#FFFFFF;" d="M691.27,230.932c-0.676-2.252-4.472-1.117-3.795,1.139
									C688.15,234.322,691.947,233.187,691.27,230.932z"/>
								<path style="fill:#FFFFFF;" d="M693.631,251.441c-0.676-2.252-4.472-1.117-3.795,1.139
									C690.512,254.832,694.308,253.696,693.631,251.441z"/>
								<path style="fill:#FFFFFF;" d="M699.188,270.231c-0.676-2.252-4.472-1.116-3.795,1.139
									C696.069,273.621,699.865,272.486,699.188,270.231z"/>
								<path style="fill:#FFFFFF;" d="M707.594,285.047c-0.676-2.252-4.472-1.116-3.795,1.139
									C704.474,288.438,708.271,287.303,707.594,285.047z"/>
								<path style="fill:#FFFFFF;" d="M633.883,302.708c-0.676-2.252-4.472-1.116-3.795,1.139
									C630.764,306.099,634.56,304.963,633.883,302.708z"/>
								<path style="fill:#FFFFFF;" d="M624.73,279.902c-0.676-2.252-4.472-1.117-3.795,1.139
									C621.61,283.293,625.406,282.158,624.73,279.902z"/>
								<path style="fill:#FFFFFF;" d="M618.143,256.123c-0.676-2.252-4.472-1.117-3.795,1.139
									C615.023,259.514,618.82,258.379,618.143,256.123z"/>
							</g>
						</g>
					</g>
					
						<path style="fill:none;stroke:#30172B;stroke-width:0.4949;stroke-linecap:round;stroke-linejoin:round;stroke-miterlimit:10;" d="
						M707.021,255.407c-4.811-16.029-8.283-29.151-11.879-28.072c-30.345-7.232-59.92,3.497-89.586,26.887
						c-3.596,1.079-2.612,14.948,2.199,30.977c4.811,16.029,11.317,26.162,15.222,27.069c17.471,6.012,73.363-4.881,89.586-26.887
						C716.159,284.302,711.832,271.436,707.021,255.407z"/>
				</g>
				<g>
					<g>
						
							<path style="fill:#B27056;stroke:#30172B;stroke-width:0.4949;stroke-linecap:round;stroke-linejoin:round;stroke-miterlimit:10;" d="
							M645.724,268.753c-0.491-0.2-1.017-0.352-1.541-0.467c0.206-1.854-0.216-3.704-2.205-4.759
							c-5.049-2.679-16.01,4.581-16.01,4.581l0.587,15.392c2.75,2.628,6.973,2.681,10.798-1.316c0.392-0.41,0.738-0.887,1.059-1.394
							c0.038,0.036,0.07,0.073,0.109,0.109c1.541,1.417,2.923,1.987,3.608,1.243c0.574-0.624,0.9-1.532,0.086-2.645
							c1.988,0.641,3.469,0.551,3.89-0.481c0.323-0.793,0.377-1.728-0.33-2.565c0.698-0.041,1.201-0.29,1.408-0.798
							c0.376-0.921,0.352-2.054-0.999-2.968c0.736,0.003,1.253-0.224,1.455-0.72C648.05,270.957,647.944,269.658,645.724,268.753z"
							/>
						<g>
							
								<path style="fill:none;stroke:#30172B;stroke-width:0.4949;stroke-linecap:round;stroke-linejoin:round;stroke-miterlimit:10;" d="
								M642.233,279.588c-1.29-1.22-3.201-1.745-4.934-1.358"/>
							
								<path style="fill:none;stroke:#30172B;stroke-width:0.4949;stroke-linecap:round;stroke-linejoin:round;stroke-miterlimit:10;" d="
								M645.793,276.419c-1.959-1.794-4.857-2.499-7.421-1.803"/>
							
								<path style="fill:none;stroke:#30172B;stroke-width:0.4949;stroke-linecap:round;stroke-linejoin:round;stroke-miterlimit:10;" d="
								M646.248,272.691c-2.298-1.082-4.985-1.315-7.435-0.645"/>
							
								<path style="fill:none;stroke:#30172B;stroke-width:0.4949;stroke-linecap:round;stroke-linejoin:round;stroke-miterlimit:10;" d="
								M644.151,268.242c-2.323-0.35-4.722-0.196-6.981,0.448"/>
						</g>
					</g>
					<path style="fill:#C91C5F;" d="M571.772,234.052c-2.08,4.442-12.153,23.239-6.664,32.166
						c7.449,12.116,18.3,23.074,60.346,28.638c2.442-11.589,5.703-23.567,9.62-35.856L571.772,234.052z"/>
					<g>
						
							<path style="fill:none;stroke:#30172B;stroke-width:0.4949;stroke-linecap:round;stroke-linejoin:round;stroke-miterlimit:10;" d="
							M571.772,234.052c-2.08,4.442-12.153,23.239-6.664,32.166c7.449,12.116,18.3,23.074,60.346,28.638
							c2.442-11.589,5.703-23.567,9.62-35.856l-35.719-14.077"/>
						
							<path style="fill:none;stroke:#30172B;stroke-width:0.2475;stroke-linecap:round;stroke-linejoin:round;stroke-miterlimit:10;" d="
							M626.355,255.56c-4.711,12.232-8.122,24.963-10.18,37.904"/>
					</g>
				</g>
				<path style="opacity:0.2;fill:#FFFFFF;" d="M616.318,288.228c-2.293-5.24-7.887-8.137-13.222-10.197
					c-5.335-2.06-11.096-3.867-14.904-8.134c-3.586-4.018-4.849-9.668-4.716-15.052c0.133-5.384,1.514-10.646,2.602-15.92
					c2.4-11.637,3.398-23.535,5.968-35.135c1.327-5.99,3.096-11.912,5.63-17.509c0.344-0.761,0.789-1.55,1.286-2.358
					c-1.102,0.981-2.164,2.105-3.152,3.399c-5.933,7.779-24.036,46.73-24.036,46.73c-2.08,4.442-12.153,23.238-6.664,32.165
					c6.944,11.294,16.855,21.58,52.222,27.43C617.378,291.791,617.068,289.943,616.318,288.228z"/>
			</g>
		</g>
		<g style="clip-path:url(#SVGID_00000012456102666225154600000000761628035361506206_);">
			<g>
				<g>
					<path style="fill:#E24485;" d="M206.925-50.074c2.569,6.967,5.974,15.309,9.875,22.036c1.115,1.891-1.738,4.77-4.221,4.252
						c-8.705-1.782-18.428-4.1-27.861-5.166C192.502-35.603,199.922-42.651,206.925-50.074z"/>
					
						<path style="fill:none;stroke:#30172B;stroke-width:0.2475;stroke-linecap:round;stroke-linejoin:round;stroke-miterlimit:10;" d="
						M185.977-30.031c3.458,0.087,6.996,0.533,10.036,0.91c4.943,0.608,9.614,1.834,14.078,3.339
						c1.635,0.545,3.245,1.135,4.976,1.519"/>
				</g>
				<g>
					<path style="fill:#FFAD29;" d="M184.718-28.951c1.549,7.259,3.718,15.997,6.587,23.171c0.826,2.018-2.331,4.593-4.668,3.802
						c-8.195-2.742-17.306-6.13-26.31-8.224C168.785-16.043,176.933-22.299,184.718-28.951z"/>
					
						<path style="fill:none;stroke:#30172B;stroke-width:0.2475;stroke-linecap:round;stroke-linejoin:round;stroke-miterlimit:10;" d="
						M161.695-11.151c3.343,0.463,6.712,1.296,9.608,2.006c4.709,1.149,9.074,2.891,13.193,4.89c1.51,0.727,2.993,1.495,4.617,2.069
						"/>
				</g>
				<g>
					<path style="fill:#E24485;" d="M160.326-10.202c0.51,7.462,1.419,16.483,3.219,24.009c0.523,2.119-2.892,4.371-5.054,3.326
						c-7.579-3.636-15.959-8.017-24.417-11.081C143.099,1.063,151.867-4.361,160.326-10.202z"/>
					
						<path style="fill:none;stroke:#30172B;stroke-width:0.2475;stroke-linecap:round;stroke-linejoin:round;stroke-miterlimit:10;" d="
						M135.535,5.242c3.183,0.82,6.34,2.017,9.055,3.04c4.415,1.658,8.412,3.878,12.137,6.33c1.368,0.892,2.701,1.824,4.197,2.576"/>
				</g>
				<g>
					<path style="fill:#FFAD29;" d="M134.074,6.052c-0.535,7.572-0.902,16.759-0.197,24.537c0.216,2.191-3.419,4.103-5.377,2.824
						c-6.868-4.459-14.409-9.753-22.215-13.723C115.768,15.594,125.049,11.041,134.074,6.052z"/>
					
						<path style="fill:none;stroke:#30172B;stroke-width:0.2475;stroke-linecap:round;stroke-linejoin:round;stroke-miterlimit:10;" d="
						M107.821,19.024c2.983,1.159,5.888,2.695,8.388,4.01c4.063,2.134,7.643,4.789,10.925,7.653
						c1.206,1.043,2.371,2.123,3.724,3.037"/>
				</g>
				<g>
					<path style="fill:#E24485;" d="M106.285,19.69c-1.578,7.584-3.225,16.82-3.629,24.743c-0.097,2.233-3.909,3.79-5.637,2.296
						c-6.068-5.209-12.678-11.33-19.737-16.139C87.116,27.427,96.802,23.787,106.285,19.69z"/>
					
						<path style="fill:none;stroke:#30172B;stroke-width:0.2475;stroke-linecap:round;stroke-linejoin:round;stroke-miterlimit:10;" d="
						M78.875,30.075c2.749,1.476,5.366,3.326,7.618,4.91c3.664,2.571,6.781,5.621,9.577,8.851c1.029,1.177,2.014,2.387,3.203,3.45"
						/>
				</g>
				<g>
					<path style="fill:#FFAD29;" d="M77.282,30.59c-2.61,7.496-5.524,16.655-7.042,24.614c-0.411,2.246-4.357,3.427-5.835,1.742
						c-5.194-5.881-10.79-12.738-17.017-18.316C57.466,36.44,67.448,33.754,77.282,30.59z"/>
					
						<path style="fill:none;stroke:#30172B;stroke-width:0.2475;stroke-linecap:round;stroke-linejoin:round;stroke-miterlimit:10;" d="
						M49.022,38.273c2.48,1.771,4.778,3.907,6.757,5.737c3.218,2.972,5.833,6.369,8.11,9.917c0.838,1.294,1.631,2.616,2.642,3.812"
						/>
				</g>
				<g>
					<path style="fill:#E24485;" d="M47.389,38.63c-3.621,7.303-7.782,16.255-10.403,24.138c-0.723,2.226-4.761,3.015-5.97,1.162
						c-4.255-6.471-8.768-13.969-14.087-20.241C27.142,42.514,37.313,40.82,47.389,38.63z"/>
					
						<path style="fill:none;stroke:#30172B;stroke-width:0.2475;stroke-linecap:round;stroke-linejoin:round;stroke-miterlimit:10;" d="
						M18.585,43.497c2.183,2.043,4.134,4.435,5.814,6.487c2.734,3.331,4.815,7.03,6.542,10.846c0.638,1.393,1.227,2.809,2.048,4.12"
						/>
				</g>
				<g>
					<path style="fill:#FFAD29;" d="M16.93,43.69c-4.602,7.003-9.972,15.612-13.679,23.302c-1.029,2.173-5.115,2.552-6.042,0.556
						c-3.262-6.975-6.633-15.014-10.982-21.901C-3.534,45.525,6.719,44.866,16.93,43.69z"/>
					
						<path style="fill:none;stroke:#30172B;stroke-width:0.2475;stroke-linecap:round;stroke-linejoin:round;stroke-miterlimit:10;" d="
						M-12.113,45.624c1.859,2.291,3.44,4.909,4.802,7.155c2.217,3.647,3.736,7.598,4.89,11.63c0.43,1.472,0.805,2.963,1.426,4.372"
						/>
				</g>
				<g>
					<path style="fill:#E24485;" d="M-13.772,45.646c-5.54,6.591-12.073,14.72-16.837,22.094c-1.327,2.086-5.42,2.038-6.05-0.076
						c-2.227-7.389-4.414-15.863-7.735-23.285C-34.237,45.352-24.011,45.768-13.772,45.646z"/>
					
						<path style="fill:none;stroke:#30172B;stroke-width:0.2475;stroke-linecap:round;stroke-linejoin:round;stroke-miterlimit:10;" d="
						M-42.748,44.533c1.513,2.513,2.704,5.325,3.73,7.738c1.672,3.919,2.609,8.069,3.173,12.262
						c0.212,1.533,0.372,3.077,0.784,4.565"/>
				</g>
			</g>
			
				<path style="fill:none;stroke:#30172B;stroke-width:0.4949;stroke-linecap:round;stroke-linejoin:round;stroke-miterlimit:10;" d="
				M212.994-56.72C148.254,16.552,43.634,55.87-53.339,43.374"/>
		</g>
	</g>
</g>
<g id="TEXTS">
	<g>
		<g>
			<g>
				<g>
					
						<text transform="matrix(1 0 0 1 90.1279 140.0928)" style="fill:#29112D; font-family:'BerkshireSwash-Regular'; font-size:63.8857px;">Holi Festival</text>
				</g>
			</g>
		</g>
		<g>
			<text transform="matrix(1 0 0 1 170.439 69.667)" style="fill:#29112D; font-family:'Poppins-Bold'; font-size:20.6878px;">Lets Celebrate</text>
		</g>
	</g>
	<g>
		<rect x="108.249" y="159.394" style="fill:none;" width="283.26" height="44.646"/>
		<text transform="matrix(0.583 0 0 0.583 113.6323 166.6445)"><tspan x="0" y="0" style="fill:#29112D; font-family:'Poppins-Regular'; font-size:17.8167px;">Lorem ipsum dolor sit amet, consectetuer adipiscing </tspan><tspan x="9.433" y="21.704" style="fill:#29112D; font-family:'Poppins-Regular'; font-size:17.8167px;">elit, sed diam nonummy nibh euismod tincidunt ut </tspan><tspan x="34.449" y="43.409" style="fill:#29112D; font-family:'Poppins-Regular'; font-size:17.8167px;">laoreet dolore magna aliquam erat volutpat.</tspan></text>
	</g>
	<text transform="matrix(1 0 0 1 199.0562 237.6348)" style="fill:#FFFFFF; font-family:'Poppins-Black'; font-size:25.2119px;">March 8</text>
	<g>
		<g>
			<text transform="matrix(1 0 0 1 252.2783 281.8652)" style="fill:#29112D; font-family:'Poppins-Bold'; font-size:14.3453px;">www.website.com</text>
		</g>
		<g>
			
				<text transform="matrix(1 0 0 1 111.2144 281.8652)" style="fill:#29112D; font-family:'Poppins-Regular'; font-size:14.3453px;">More information :</text>
		</g>
	</g>
</g>
</svg>
