<svg xmlns="http://www.w3.org/2000/svg" viewBox="0 0 500 500"><g id="freepik--background-simple--inject-94"><path d="M83.91,93S-10.65,199.55,7.1,233s99.76-7.15,93.72,8.2S4.43,350.26,37.24,392.1s174.88-45.25,164.58-7.6-8.83,83.12,51.59,75.15S378.19,327.49,373.93,352.49s-17.51,114.08,41.46,89.33,88.71-138.6,75.87-217.41-49.95-38.54-64.6-41.34,38.66-110.93,10.1-138.53-165.34,73.56-180.46,79,36.57-89.38-10.85-94S147.42,34.66,83.91,93Z" style="fill:#7E57C2"></path><path d="M83.91,93S-10.65,199.55,7.1,233s99.76-7.15,93.72,8.2S4.43,350.26,37.24,392.1s174.88-45.25,164.58-7.6-8.83,83.12,51.59,75.15S378.19,327.49,373.93,352.49s-17.51,114.08,41.46,89.33,88.71-138.6,75.87-217.41-49.95-38.54-64.6-41.34,38.66-110.93,10.1-138.53-165.34,73.56-180.46,79,36.57-89.38-10.85-94S147.42,34.66,83.91,93Z" style="fill:#fff;opacity:0.7000000000000001"></path></g><g id="freepik--Floor--inject-94"><line x1="19.46" y1="468.35" x2="485.8" y2="468.35" style="fill:none;stroke:#263238;stroke-linecap:round;stroke-linejoin:round"></line></g><g id="freepik--Lights--inject-94"><polygon points="416.8 212.19 14.89 66.69 16.16 127.74 375.27 211.9 416.8 212.19" style="fill:#fff;opacity:0.5"></polygon><line x1="70.06" y1="141.08" x2="37.84" y2="133.54" style="fill:none;stroke:gray;stroke-linecap:round;stroke-linejoin:round"></line><line x1="115.22" y1="151.53" x2="78.94" y2="143.16" style="fill:none;stroke:gray;stroke-linecap:round;stroke-linejoin:round"></line><line x1="208.74" y1="173.52" x2="143.52" y2="158.26" style="fill:none;stroke:gray;stroke-linecap:round;stroke-linejoin:round"></line><line x1="375.27" y1="211.9" x2="213.24" y2="174.57" style="fill:none;stroke:gray;stroke-linecap:round;stroke-linejoin:round"></line><line x1="312.84" y1="174.3" x2="269.22" y2="158.46" style="fill:none;stroke:gray;stroke-linecap:round;stroke-linejoin:round"></line><line x1="418.63" y1="212.78" x2="317.48" y2="175.99" style="fill:none;stroke:gray;stroke-linecap:round;stroke-linejoin:round"></line><polygon points="421.44 204.04 479.45 63.26 440.36 3.22 410.67 203.56 421.44 204.04" style="fill:#fff;opacity:0.5"></polygon><line x1="433.29" y1="50.8" x2="434.12" y2="45.05" style="fill:none;stroke:gray;stroke-linecap:round;stroke-linejoin:round"></line><line x1="416.41" y1="168.64" x2="432.87" y2="53.73" style="fill:none;stroke:gray;stroke-linecap:round;stroke-linejoin:round"></line><line x1="458.65" y1="112.38" x2="471.21" y2="82.38" style="fill:none;stroke:gray;stroke-linecap:round;stroke-linejoin:round"></line><line x1="422.38" y1="198.96" x2="457.31" y2="115.57" style="fill:none;stroke:gray;stroke-linecap:round;stroke-linejoin:round"></line><polygon points="102.35 199.04 84.19 47.87 20.75 14.58 92.72 203.89 102.35 199.04" style="fill:#fff;opacity:0.5"></polygon><line x1="37.82" y1="59.54" x2="35.73" y2="54.13" style="fill:none;stroke:gray;stroke-linecap:round;stroke-linejoin:round"></line><line x1="80.67" y1="170.61" x2="38.89" y2="62.31" style="fill:none;stroke:gray;stroke-linecap:round;stroke-linejoin:round"></line><line x1="90.03" y1="100.89" x2="86.34" y2="68.57" style="fill:none;stroke:gray;stroke-linecap:round;stroke-linejoin:round"></line><line x1="100.69" y1="194.15" x2="90.43" y2="104.33" style="fill:none;stroke:gray;stroke-linecap:round;stroke-linejoin:round"></line><polygon points="145.2 35.24 104.74 208.05 111.68 208.05 259.49 4.29 145.2 35.24" style="fill:#fff;opacity:0.5"></polygon><line x1="119.78" y1="145.47" x2="120.69" y2="141.75" style="fill:none;stroke:gray;stroke-linecap:round;stroke-linejoin:round"></line><line x1="105.07" y1="206.09" x2="119.03" y2="148.59" style="fill:none;stroke:gray;stroke-linecap:round;stroke-linejoin:round"></line><line x1="234.92" y1="38.33" x2="240.92" y2="30.05" style="fill:none;stroke:gray;stroke-linecap:round;stroke-linejoin:round"></line><line x1="119.96" y1="196.74" x2="231.95" y2="42.42" style="fill:none;stroke:gray;stroke-linecap:round;stroke-linejoin:round"></line><line x1="112.82" y1="206.59" x2="118.17" y2="199.21" style="fill:none;stroke:gray;stroke-linecap:round;stroke-linejoin:round"></line><polygon points="366.96 35.24 407.42 208.05 400.49 208.05 252.67 4.29 366.96 35.24" style="fill:#fff;opacity:0.5"></polygon><line x1="392.38" y1="145.47" x2="391.47" y2="141.75" style="fill:none;stroke:gray;stroke-linecap:round;stroke-linejoin:round"></line><line x1="407.09" y1="206.09" x2="393.14" y2="148.59" style="fill:none;stroke:gray;stroke-linecap:round;stroke-linejoin:round"></line><line x1="277.24" y1="38.33" x2="271.24" y2="30.05" style="fill:none;stroke:gray;stroke-linecap:round;stroke-linejoin:round"></line><line x1="392.2" y1="196.74" x2="280.21" y2="42.42" style="fill:none;stroke:gray;stroke-linecap:round;stroke-linejoin:round"></line><line x1="399.35" y1="206.59" x2="394" y2="199.21" style="fill:none;stroke:gray;stroke-linecap:round;stroke-linejoin:round"></line></g><g id="freepik--character-5--inject-94"><path d="M307.84,147.08c-2-3.26-7.61-9.78-9.65-11s-5.57-3.53-6.52-4.62-11.15-9.78-12.78-12-4.08-5-5.71-5.3-12.5-2-13.86-2.44-7.07-2.32-7.75-2.45l-3.13-.68-20.93,3.13-2.17,2.44s-7.07,3.13-8.29,4.49-4.22,4.35-4.22,4.35-5.7,2.31-6.38,5.43-1.23,15.63-1.09,19.71.27,8.84,2.58,13.86a17.16,17.16,0,0,0,7.34,7.75c1.22.82,3.94,2.18,3.94,2.18l-4.75,23v7.64h68.7l-7.41-50.87,1.77-8.29s3.4,7.75,4.62,9,7.07,2.18,7.07,2.18,4.62,2.45,5.71,3.53,3.53,3,3.53,3,9.92-2.72,10.6-4.62A12.1,12.1,0,0,0,307.84,147.08Z" style="fill:#fff;stroke:#263238;stroke-linecap:round;stroke-linejoin:round"></path><path d="M207.94,162a17.16,17.16,0,0,0,7.34,7.75c1.22.82,3.94,2.18,3.94,2.18l-4.75,23v7.64h16.24l-1.43-21.37c1.36-4.49,6.66-25,5.16-36.29s-1.9-17.26-2.31-18.21-4.07-9.52-4.07-9.52l.21-5.55-.76.12-2.17,2.44s-7.07,3.13-8.29,4.49-4.22,4.35-4.22,4.35-5.7,2.31-6.38,5.43-1.23,15.63-1.09,19.71S205.63,157,207.94,162Z" style="fill:#7E57C2;stroke:#263238;stroke-linecap:round;stroke-linejoin:round"></path><path d="M307.84,147.08c-2-3.26-7.61-9.78-9.65-11s-5.57-3.53-6.52-4.62-11.15-9.78-12.78-12-4.08-5-5.71-5.3-12.5-2-13.86-2.44-7.07-2.32-7.75-2.45l-3.13-.68s1.5,8.15.82,12S248.17,134,248.17,134s1.09,3.39,3.4,10.19,13.18,35.34,15.77,41.73c1.63,4,2.17,11.59,2.35,16.61h13.48l-7.41-50.87,1.77-8.29s3.4,7.75,4.62,9,7.07,2.18,7.07,2.18,4.62,2.45,5.71,3.53,3.53,3,3.53,3,9.92-2.72,10.6-4.62A12.1,12.1,0,0,0,307.84,147.08Z" style="fill:#7E57C2;stroke:#263238;stroke-linecap:round;stroke-linejoin:round"></path><path d="M232.13,126.7l-3.39,6s-3.81-8.29-4.22-12.1,0-5,0-5" style="fill:none;stroke:#263238;stroke-linecap:round;stroke-linejoin:round"></path><path d="M227.38,157.28s-3.67-4.22-8.29-3.67-8,6.25-8,9.51,1,3.54,1,3.54" style="fill:none;stroke:#263238;stroke-linecap:round;stroke-linejoin:round"></path><path d="M226.83,155.92a3.76,3.76,0,0,0-.54-3.4c-1.22-1.63-3-3.26-3-4.21s.68-2.31,0-4.22-1-7.61-4.08-12.64-5.16-6-5.16-6" style="fill:none;stroke:#263238;stroke-linecap:round;stroke-linejoin:round"></path><path d="M225,133.79a29.58,29.58,0,0,1,.89,5.14" style="fill:none;stroke:#263238;stroke-linecap:round;stroke-linejoin:round"></path><path d="M219.22,122.21a31.16,31.16,0,0,1,5.12,9.46" style="fill:none;stroke:#263238;stroke-linecap:round;stroke-linejoin:round"></path><path d="M218.12,145.28c1.71,1,2.87,1.67,2.87,1.67" style="fill:none;stroke:#263238;stroke-linecap:round;stroke-linejoin:round"></path><path d="M207.67,144.36s4.08-2.58,7.34-.81l1.46.8" style="fill:none;stroke:#263238;stroke-linecap:round;stroke-linejoin:round"></path><path d="M249.67,127.92l1.9-2.31,3.13,1.09a11.76,11.76,0,0,0-.41-7.89c-1.77-3.94-3.67-7.34-3.67-7.34" style="fill:none;stroke:#263238;stroke-linecap:round;stroke-linejoin:round"></path><path d="M273.86,116.23s-.82,12.23-.27,17.81,2.31,7.74,2.31,7.74" style="fill:none;stroke:#263238;stroke-linecap:round;stroke-linejoin:round"></path><path d="M278.75,142.46s.14-9.51,2-13.18" style="fill:none;stroke:#263238;stroke-linecap:round;stroke-linejoin:round"></path><path d="M293.3,155.78a20.55,20.55,0,0,1,2.85-7.34c2.17-3.12,8.16-3.26,9.92-2.31" style="fill:none;stroke:#263238;stroke-linecap:round;stroke-linejoin:round"></path><path d="M288.73,138.68c-2.27,1.79-5,4.32-5.76,6.77-1.5,4.49.54,6.93.54,6.93" style="fill:none;stroke:#263238;stroke-linecap:round;stroke-linejoin:round"></path><path d="M292.21,136.21s-.53.33-1.34.89" style="fill:none;stroke:#263238;stroke-linecap:round;stroke-linejoin:round"></path><path d="M258.86,155c.34,1.17.72,2.31,1.14,3.4" style="fill:none;stroke:#263238;stroke-linecap:round;stroke-linejoin:round"></path><path d="M255.51,130.64a109,109,0,0,0,2.55,21.3" style="fill:none;stroke:#263238;stroke-linecap:round;stroke-linejoin:round"></path><path d="M270.46,137.57s1.36,10.33,3.54,13.32" style="fill:none;stroke:#263238;stroke-linecap:round;stroke-linejoin:round"></path><path d="M242.2,149.83c.55,1,1.13,2,1.76,3" style="fill:none;stroke:#263238;stroke-linecap:round;stroke-linejoin:round"></path><path d="M234.58,130.09a72.72,72.72,0,0,0,6.6,17.87" style="fill:none;stroke:#263238;stroke-linecap:round;stroke-linejoin:round"></path><path d="M248.44,144.91s-.27,15-2.58,20.79" style="fill:none;stroke:#263238;stroke-linecap:round;stroke-linejoin:round"></path><path d="M227.24,107.53s.54,7.48.82,8.7,1.36,4.89,6.66,5.57,8.83-.54,10.46-3.53,3-6.12,3-6.12Z" style="fill:#263238;stroke:#263238;stroke-linecap:round;stroke-linejoin:round"></path><path d="M245.21,75.59s4.37,1.5,6.56,5,3.45,8.52,3,9.21a4.9,4.9,0,0,0-.58,1.84A7.54,7.54,0,0,1,255.45,94c0,.69,1.15,3.69-.23,6.33s-1.61,4.37-4.37,3.8-1.73-10.59-1.73-10.59L253,90.9l-.23-2.08a4.82,4.82,0,0,1-2.65-1.95c-.69-1.38-4.14-8.29-5.75-9.44a35,35,0,0,0-4.72-2.53S243.14,74.56,245.21,75.59Z" style="fill:#263238;stroke:#263238;stroke-linecap:round;stroke-linejoin:round"></path><path d="M227.72,78.12s-4.95,5.3-5.3,8.06S224,94.46,224,95.5a129.39,129.39,0,0,0,3,13.12c.69,1.95,4.6,5.64,6.79,6.9s6.55,3.91,9.09,3,6.32-6.21,7.13-9.78.92-14.15.81-17.83-.81-7.71-4-11.05-6-4.37-11.51-4.14S227.72,78.12,227.72,78.12Z" style="fill:#fff;stroke:#263238;stroke-linecap:round;stroke-linejoin:round"></path><path d="M246.82,79.85c-3.22-3.34-6-4.37-11.51-4.14s-7.59,2.41-7.59,2.41-4.95,5.3-5.3,8.06S224,94.46,224,95.5a1.49,1.49,0,0,0,0,.25,2.9,2.9,0,0,1,2.16.67c1,1,1.61,0,2.76-1.61a14.1,14.1,0,0,0,2-7.6c-.12-2.64.57-4.6,4.14-4.37s5.87,1.73,9.21,2a8.4,8.4,0,0,0,5.14-1.07A13.45,13.45,0,0,0,246.82,79.85Z" style="fill:#263238;stroke:#263238;stroke-linecap:round;stroke-linejoin:round"></path><path d="M236.92,108.85s3.34,2.18,6.1,2.07a6.2,6.2,0,0,0,4.14-1.61" style="fill:none;stroke:#263238;stroke-linecap:round;stroke-linejoin:round"></path><path d="M241,105.74s2.76,3,4.37,1.84.35-7.71.35-7.71" style="fill:none;stroke:#263238;stroke-linecap:round;stroke-linejoin:round"></path><path d="M243.6,98.84a5.59,5.59,0,0,1-3.34,5.06c-3.57,1.84-6.21.23-7-1.5s-.81-4.94,1.38-6,8.29-.12,8.63.57A5.08,5.08,0,0,1,243.6,98.84Z" style="fill:#263238;stroke:#263238;stroke-linecap:round;stroke-linejoin:round"></path><path d="M244.72,98.84a5.85,5.85,0,0,0,2.8,5.06c3,1.84,5.23.23,5.9-1.5s.68-4.94-1.16-6-7-.12-7.25.57A6,6,0,0,0,244.72,98.84Z" style="fill:#263238;stroke:#263238;stroke-linecap:round;stroke-linejoin:round"></path><line x1="245.01" y1="96.99" x2="243.25" y2="96.99" style="fill:none;stroke:#263238;stroke-linecap:round;stroke-linejoin:round"></line><line x1="232.43" y1="98.84" x2="223.8" y2="93.89" style="fill:none;stroke:#263238;stroke-linecap:round;stroke-linejoin:round"></line><path d="M217.71,97.46l-.23-3.11,1.26-2.53s1.73-12.89,10.47-16.57a19.4,19.4,0,0,1,16,.34S235,74.1,229.9,77.2s-8.17,13.7-8.17,13.7l-1.26.69L220,94.23l-.12,3.34Z" style="fill:#fff;stroke:#263238;stroke-linecap:round;stroke-linejoin:round"></path><path d="M226.2,99.6c1.14,3.74.52,7.24-1.38,7.82s-4.35-2-5.49-5.73-.52-7.24,1.38-7.82S225.07,95.86,226.2,99.6Z" style="fill:#263238;stroke:#263238;stroke-linecap:round;stroke-linejoin:round"></path><path d="M222.42,101c.74,2.46.26,4.79-1.09,5.2s-3.05-1.25-3.8-3.72-.26-4.79,1.09-5.2S221.67,98.49,222.42,101Z" style="fill:#fff;stroke:#263238;stroke-linecap:round;stroke-linejoin:round"></path><path d="M294.84,186h23.28l-.06,2.07h-1.75l-.74.74,3.74,3.7h10v-2.6h2.94v-6.44H319.07s-.7-.51-.82,1H297.73l-3.5-1.38H291V186Z" style="fill:#263238;stroke:#263238;stroke-linecap:round;stroke-linejoin:round"></path><path d="M308.94,151.45s-5.66-.75-8.65,2.67a7.54,7.54,0,0,0-1.83,7s7.38,11.73,7.81,13.87a6.49,6.49,0,0,1-.54,4s-3.41,1.92-3.73,3-1,3.63-1.5,4.27-3.31,1.71-2.46,2.14a5.11,5.11,0,0,0,3.74-.11A27.31,27.31,0,0,0,305,186l1.17-.75a19.16,19.16,0,0,1,1.92,2.46c.22.53,1.61,1.17,2.89,1.28s9,.75,9.93-.43-.53-4.27-.53-5.55a21.2,21.2,0,0,0-1-5.24A27.48,27.48,0,0,0,317.7,174c-.32-.74-4.17-13.88-5.45-16.87A29.26,29.26,0,0,0,308.94,151.45Z" style="fill:#fff;stroke:#263238;stroke-linecap:round;stroke-linejoin:round"></path><line x1="306.16" y1="185.2" x2="304.24" y2="182.64" style="fill:none;stroke:#263238;stroke-linecap:round;stroke-linejoin:round"></line><path d="M309.37,182.21l2.24,4.48s1.71,1,1,1.71" style="fill:none;stroke:#263238;stroke-linecap:round;stroke-linejoin:round"></path><path d="M313.21,181.57l2,4.91a1.23,1.23,0,0,1,1,1.18c0,1-.64,1-.64,1" style="fill:none;stroke:#263238;stroke-linecap:round;stroke-linejoin:round"></path><path d="M316.74,180.71s.85,4.49,2,5.56,1.28,0,1.17,1.07a1.39,1.39,0,0,1-.85,1.28" style="fill:none;stroke:#263238;stroke-linecap:round;stroke-linejoin:round"></path><polygon points="200.28 188.97 172.08 188.97 168.55 192.47 203.81 192.47 200.28 188.97" style="fill:#fff;stroke:#263238;stroke-linecap:round;stroke-linejoin:round"></polygon><rect x="155.99" y="192.27" width="68.04" height="10.38" style="fill:#263238;stroke:#263238;stroke-linecap:round;stroke-linejoin:round"></rect><rect x="159.89" y="190.29" width="3.16" height="1.83" style="fill:#fff;stroke:#263238;stroke-linecap:round;stroke-linejoin:round"></rect><path d="M179.35,186h23.28l-.07,2.07h-1.74l-.74.74,3.73,3.7h10v-2.6h2.94v-6.44H203.58s-.71-.51-.83,1H182.23l-3.5-1.38h-3.22V186Z" style="fill:#263238;stroke:#263238;stroke-linecap:round;stroke-linejoin:round"></path><polygon points="315.78 188.97 287.57 188.97 284.05 192.47 319.31 192.47 315.78 188.97" style="fill:#fff;stroke:#263238;stroke-linecap:round;stroke-linejoin:round"></polygon><rect x="271.49" y="192.27" width="68.04" height="10.38" style="fill:#263238;stroke:#263238;stroke-linecap:round;stroke-linejoin:round"></rect><rect x="275.39" y="190.29" width="3.16" height="1.83" style="fill:#263238;stroke:#263238;stroke-linecap:round;stroke-linejoin:round"></rect><rect x="225.34" y="192.27" width="44.72" height="10.38" style="fill:#263238;stroke:#263238;stroke-linecap:round;stroke-linejoin:round"></rect><rect x="229.28" y="189.22" width="2.21" height="2.91" style="fill:#263238;stroke:#263238;stroke-linecap:round;stroke-linejoin:round"></rect><rect x="234.96" y="189.22" width="2.21" height="2.91" style="fill:#263238;stroke:#263238;stroke-linecap:round;stroke-linejoin:round"></rect><rect x="240.63" y="189.22" width="2.21" height="2.91" style="fill:#263238;stroke:#263238;stroke-linecap:round;stroke-linejoin:round"></rect><rect x="246.3" y="189.22" width="2.21" height="2.91" style="fill:#263238;stroke:#263238;stroke-linecap:round;stroke-linejoin:round"></rect><rect x="251.98" y="189.22" width="2.21" height="2.91" style="fill:#263238;stroke:#263238;stroke-linecap:round;stroke-linejoin:round"></rect><rect x="257.65" y="189.22" width="2.21" height="2.91" style="fill:#263238;stroke:#263238;stroke-linecap:round;stroke-linejoin:round"></rect><rect x="263.33" y="189.22" width="2.21" height="2.91" style="fill:#263238;stroke:#263238;stroke-linecap:round;stroke-linejoin:round"></rect><path d="M217.59,170.6s-4.35-3.13-1.22-7.48,8.56-6.25,9.92-5.71,14.68,12.64,15.22,12.91,8.56,3.54,8.7,4.22.14,5.57.14,7.07-.55,6.11-.68,6.93a5.74,5.74,0,0,1-1.77,3,7,7,0,0,1-4.35.41c-.81-.41-2.72-3.95-2.58-4.76s0-4.62,0-4.62-.68,6.66-1.5,6.79-1.49-1.63-1.36-3.39.28-6,.28-6-4.22-.67-4.9-1.76a36.81,36.81,0,0,1-1.76-3.67A29.25,29.25,0,0,1,217.59,170.6Z" style="fill:#fff;stroke:#263238;stroke-linecap:round;stroke-linejoin:round"></path><path d="M238.79,178.75s.14-1.77.82-2a10.65,10.65,0,0,1,1.63-.27c.41-.13,1.63-1.49,2.45-1.77a5.42,5.42,0,0,1,.81-.27,10.7,10.7,0,0,1,1.77-.54" style="fill:none;stroke:#263238;stroke-linecap:round;stroke-linejoin:round"></path><path d="M244.23,178.21s-1.09,11.28-.68,13.73" style="fill:none;stroke:#263238;stroke-linecap:round;stroke-linejoin:round"></path><path d="M247.22,176.85s.27,11.14-.41,14.27" style="fill:none;stroke:#263238;stroke-linecap:round;stroke-linejoin:round"></path></g><g id="freepik--Table--inject-94"><path d="M472.33,202.77H29.25a235.06,235.06,0,0,0-8.41,116.87h459.9a235.89,235.89,0,0,0,3.79-42.14A233.53,233.53,0,0,0,472.33,202.77Z" style="fill:#263238;stroke:#263238;stroke-linecap:round;stroke-linejoin:round"></path><line x1="5.74" y1="319.76" x2="494.19" y2="319.76" style="fill:none;stroke:#263238;stroke-linecap:round;stroke-linejoin:round"></line><g style="opacity:0.34"><rect x="128.95" y="272.73" width="32.44" height="7.11" style="fill:#fff"></rect><rect x="128.95" y="262.66" width="32.44" height="7.11" style="fill:#fff"></rect><rect x="128.95" y="252.59" width="32.44" height="7.11" style="fill:#fff"></rect><rect x="128.95" y="242.52" width="32.44" height="7.11" style="fill:#fff"></rect><rect x="213.01" y="272.73" width="32.44" height="7.11" style="fill:#fff"></rect><rect x="213.01" y="262.66" width="32.44" height="7.11" style="fill:#fff"></rect><rect x="44.89" y="272.73" width="32.44" height="7.11" style="fill:#fff"></rect><rect x="44.89" y="262.66" width="32.44" height="7.11" style="fill:#fff"></rect><rect x="86.92" y="272.73" width="32.44" height="7.11" style="fill:#fff"></rect><rect x="86.92" y="262.66" width="32.44" height="7.11" style="fill:#fff"></rect><rect x="86.92" y="252.59" width="32.44" height="7.11" style="fill:#fff"></rect><rect x="86.92" y="242.52" width="32.44" height="7.11" style="fill:#fff"></rect><rect x="86.92" y="232.45" width="32.44" height="7.11" style="fill:#fff"></rect><rect x="86.92" y="222.38" width="32.44" height="7.11" style="fill:#fff"></rect><rect x="86.92" y="212.32" width="32.44" height="7.11" style="fill:#fff"></rect><rect x="170.98" y="272.73" width="32.44" height="7.11" style="fill:#fff"></rect><rect x="170.98" y="262.66" width="32.44" height="7.11" style="fill:#fff"></rect><rect x="170.98" y="252.59" width="32.44" height="7.11" style="fill:#fff"></rect><rect x="170.98" y="242.52" width="32.44" height="7.11" style="fill:#fff"></rect><rect x="170.98" y="232.45" width="32.44" height="7.11" style="fill:#fff"></rect><rect x="170.98" y="222.38" width="32.44" height="7.11" style="fill:#fff"></rect><rect x="338.82" y="272.73" width="32.44" height="7.11" style="fill:#fff"></rect><rect x="338.82" y="262.66" width="32.44" height="7.11" style="fill:#fff"></rect><rect x="338.82" y="252.59" width="32.44" height="7.11" style="fill:#fff"></rect><rect x="338.82" y="242.52" width="32.44" height="7.11" style="fill:#fff"></rect><rect x="422.88" y="272.73" width="32.44" height="7.11" style="fill:#fff"></rect><rect x="422.88" y="262.66" width="32.44" height="7.11" style="fill:#fff"></rect><rect x="254.76" y="272.73" width="32.44" height="7.11" style="fill:#fff"></rect><rect x="254.76" y="262.66" width="32.44" height="7.11" style="fill:#fff"></rect><rect x="296.79" y="272.73" width="32.44" height="7.11" style="fill:#fff"></rect><rect x="296.79" y="262.66" width="32.44" height="7.11" style="fill:#fff"></rect><rect x="296.79" y="252.59" width="32.44" height="7.11" style="fill:#fff"></rect><rect x="296.79" y="242.52" width="32.44" height="7.11" style="fill:#fff"></rect><rect x="296.79" y="232.45" width="32.44" height="7.11" style="fill:#fff"></rect><rect x="296.79" y="222.38" width="32.44" height="7.11" style="fill:#fff"></rect><rect x="296.79" y="212.32" width="32.44" height="7.11" style="fill:#fff"></rect><rect x="380.85" y="272.73" width="32.44" height="7.11" style="fill:#fff"></rect><rect x="128.95" y="282.74" width="32.44" height="7.11" style="fill:#fff"></rect><rect x="213.01" y="282.74" width="32.44" height="7.11" style="fill:#fff"></rect><rect x="44.89" y="282.74" width="32.44" height="7.11" style="fill:#fff"></rect><rect x="86.92" y="282.74" width="32.44" height="7.11" style="fill:#fff"></rect><rect x="170.98" y="282.74" width="32.44" height="7.11" style="fill:#fff"></rect><rect x="338.82" y="282.74" width="32.44" height="7.11" style="fill:#fff"></rect><rect x="422.88" y="282.74" width="32.44" height="7.11" style="fill:#fff"></rect><rect x="254.76" y="282.74" width="32.44" height="7.11" style="fill:#fff"></rect><rect x="296.79" y="282.74" width="32.44" height="7.11" style="fill:#fff"></rect><rect x="380.85" y="282.74" width="32.44" height="7.11" style="fill:#fff"></rect><rect x="128.95" y="292.75" width="32.44" height="7.11" style="fill:#fff"></rect><rect x="213.01" y="292.75" width="32.44" height="7.11" style="fill:#fff"></rect><rect x="44.89" y="292.75" width="32.44" height="7.11" style="fill:#fff"></rect><rect x="86.92" y="292.75" width="32.44" height="7.11" style="fill:#fff"></rect><rect x="170.98" y="292.75" width="32.44" height="7.11" style="fill:#fff"></rect><rect x="338.82" y="292.75" width="32.44" height="7.11" style="fill:#fff"></rect><rect x="422.88" y="292.75" width="32.44" height="7.11" style="fill:#fff"></rect><rect x="254.76" y="292.75" width="32.44" height="7.11" style="fill:#fff"></rect><rect x="296.79" y="292.75" width="32.44" height="7.11" style="fill:#fff"></rect><rect x="380.85" y="292.75" width="32.44" height="7.11" style="fill:#fff"></rect><rect x="128.95" y="302.75" width="32.44" height="7.11" style="fill:#fff"></rect><rect x="213.01" y="302.75" width="32.44" height="7.11" style="fill:#fff"></rect><rect x="44.89" y="302.75" width="32.44" height="7.11" style="fill:#fff"></rect><rect x="86.92" y="302.75" width="32.44" height="7.11" style="fill:#fff"></rect><rect x="170.98" y="302.75" width="32.44" height="7.11" style="fill:#fff"></rect><rect x="338.82" y="302.75" width="32.44" height="7.11" style="fill:#fff"></rect><rect x="422.88" y="302.75" width="32.44" height="7.11" style="fill:#fff"></rect><rect x="254.76" y="302.75" width="32.44" height="7.11" style="fill:#fff"></rect><rect x="296.79" y="302.75" width="32.44" height="7.11" style="fill:#fff"></rect><rect x="380.85" y="302.75" width="32.44" height="7.11" style="fill:#fff"></rect><rect x="380.85" y="262.66" width="32.44" height="7.11" style="fill:#fff"></rect><rect x="380.85" y="252.59" width="32.44" height="7.11" style="fill:#fff"></rect><rect x="380.85" y="242.52" width="32.44" height="7.11" style="fill:#fff"></rect><rect x="380.85" y="232.45" width="32.44" height="7.11" style="fill:#fff"></rect><rect x="380.85" y="222.38" width="32.44" height="7.11" style="fill:#fff"></rect></g></g><g id="freepik--Speakers--inject-94"><rect x="28.88" y="69.89" width="41.11" height="132.88" style="fill:#263238;stroke:#263238;stroke-linecap:round;stroke-linejoin:round"></rect><circle cx="49.43" cy="92.83" r="14.87" style="fill:#fff;stroke:#263238;stroke-linecap:round;stroke-linejoin:round"></circle><path d="M53.91,92.83a4.48,4.48,0,1,0-4.48,4.47A4.49,4.49,0,0,0,53.91,92.83Z" style="fill:#fff;stroke:#263238;stroke-linecap:round;stroke-linejoin:round"></path><circle cx="49.43" cy="138.22" r="14.87" style="fill:#fff;stroke:#263238;stroke-linecap:round;stroke-linejoin:round"></circle><path d="M53.91,138.22a4.48,4.48,0,1,0-4.48,4.47A4.49,4.49,0,0,0,53.91,138.22Z" style="fill:#fff;stroke:#263238;stroke-linecap:round;stroke-linejoin:round"></path><circle cx="49.43" cy="183.61" r="14.87" transform="translate(-139.12 159.01) rotate(-67.5)" style="fill:#fff;stroke:#263238;stroke-linecap:round;stroke-linejoin:round"></circle><path d="M53.91,183.61a4.48,4.48,0,1,0-4.48,4.47A4.48,4.48,0,0,0,53.91,183.61Z" style="fill:#fff;stroke:#263238;stroke-linecap:round;stroke-linejoin:round"></path><rect x="431.15" y="69.89" width="41.11" height="132.88" style="fill:#263238;stroke:#263238;stroke-linecap:round;stroke-linejoin:round"></rect><circle cx="451.71" cy="92.83" r="14.87" style="fill:#fff;stroke:#263238;stroke-linecap:round;stroke-linejoin:round"></circle><circle cx="451.71" cy="92.83" r="4.48" style="fill:#fff;stroke:#263238;stroke-linecap:round;stroke-linejoin:round"></circle><circle cx="451.71" cy="138.22" r="14.87" style="fill:#fff;stroke:#263238;stroke-linecap:round;stroke-linejoin:round"></circle><circle cx="451.71" cy="138.22" r="4.48" style="fill:#fff;stroke:#263238;stroke-linecap:round;stroke-linejoin:round"></circle><circle cx="451.71" cy="183.61" r="14.87" transform="translate(110.51 531.94) rotate(-67.71)" style="fill:#fff;stroke:#263238;stroke-linecap:round;stroke-linejoin:round"></circle><path d="M456.18,183.61a4.48,4.48,0,1,0-4.47,4.47A4.47,4.47,0,0,0,456.18,183.61Z" style="fill:#fff;stroke:#263238;stroke-linecap:round;stroke-linejoin:round"></path></g><g id="freepik--character-4--inject-94"><path d="M349.71,329.78l-1.36,61.29s1,37,1.67,44.88,2.92,29.91,2.92,29.91S350.08,477.58,350,480s.11,3.95,2.06,4.75,5.88.94,9-4.37,1.92-12.74,2-14.22,2.23-7.56,2.31-10-1-6.19-.89-9.88,7.39-65,7.39-65L377,364.49l17.24,32.58,7.63,57.9s-1.33,2.91-.66,4.9a20.06,20.06,0,0,1,.86,3.48s-.42,5.16-.47,6.63,4.76,4.84,6.44,6.13a28.83,28.83,0,0,0,8,4.46c4.61,1.88,10.8,1.11,10.86-.86s-6.05-10.3-7.66-13.56-3.47-6.52-3.47-6.52a28.68,28.68,0,0,0,.65-4.66c.07-2.21-.44-1.49-.6-4.21s-.47-58.39-1.55-62.61-9.83-43.94-9.79-45.17-1.91-9.18-1.91-9.18Z" style="fill:#263238;stroke:#263238;stroke-linecap:round;stroke-linejoin:round"></path><path d="M374.5,252.8l-8.61-.3-21.63,99.26s11.37,6.05,17.47,7.74,10.5,2.58,10.5,2.58l2.93-6.31,1.75,6.47s12,.9,18-.62a55.22,55.22,0,0,0,12.25-5.25l-3.62-37.8-7.23-62.32Z" style="fill:#fff;stroke:#263238;stroke-linecap:round;stroke-linejoin:round"></path><line x1="378.53" y1="273.49" x2="375.11" y2="339" style="fill:none;stroke:#263238;stroke-linecap:round;stroke-linejoin:round"></line><path d="M372.08,245.34s-1.45,8.51-.81,11.49S379,267.92,379,267.92s6.54-6.61,7.35-8.62,1.29-10.85,1.29-10.85Z" style="fill:#bfbfbf;stroke:#263238;stroke-linecap:round;stroke-linejoin:round"></path><polygon points="387.42 254.15 381.08 260.05 379.04 267.92 382.7 264.18 385.21 266.1 387.42 254.15" style="fill:#fff;stroke:#263238;stroke-linecap:round;stroke-linejoin:round"></polygon><line x1="382.7" y1="264.18" x2="381.08" y2="260.05" style="fill:#fff;stroke:#263238;stroke-linecap:round;stroke-linejoin:round"></line><polygon points="371.34 253.09 376.35 260.05 378.91 268.54 374.44 262.12 370.45 265.66 371.34 253.09" style="fill:#fff;stroke:#263238;stroke-linecap:round;stroke-linejoin:round"></polygon><line x1="374.44" y1="262.12" x2="376.35" y2="260.05" style="fill:#fff;stroke:#263238;stroke-linecap:round;stroke-linejoin:round"></line><polygon points="381.97 251.57 371.34 253.09 372.08 245.34 381.97 251.57" style="fill:#263238;stroke:#263238;stroke-linecap:round;stroke-linejoin:round"></polygon><path d="M394.41,235.9s2.19-1.64,2.42.59c.41,4-5,6.74-5,6.74Z" style="fill:#bfbfbf;stroke:#263238;stroke-linecap:round;stroke-linejoin:round"></path><path d="M380.84,216.05s-3.47,0-7.57,3.46a13.31,13.31,0,0,0-4.58,10.12c-.07,2.18.29,10.28,1.33,13.65s4.27,8.07,7.9,9.39c4.69,1.7,11.82-4.09,12.79-6.24s4.56-13.2,4.55-16.67a15.12,15.12,0,0,0-5.65-11.23A11.51,11.51,0,0,0,380.84,216.05Z" style="fill:#bfbfbf;stroke:#263238;stroke-linecap:round;stroke-linejoin:round"></path><path d="M379.53,227.41s-4.9-1.68-7.94-1.24c-3.64.54-4.46,6.86-1.4,8.63a7.18,7.18,0,0,0,6.05.34c1.81-.62,4.15-4.67,4.19-5.91A2.09,2.09,0,0,0,379.53,227.41Z" style="fill:#263238;stroke:#263238;stroke-linecap:round;stroke-linejoin:round"></path><path d="M384.51,228.15s5.14-.64,8,.42c3.45,1.27,3,7.63-.4,8.73a7.2,7.2,0,0,1-6-.9c-1.65-1-3.11-5.43-2.89-6.65A2.12,2.12,0,0,1,384.51,228.15Z" style="fill:#263238;stroke:#263238;stroke-linecap:round;stroke-linejoin:round"></path><line x1="380.44" y1="227.72" x2="383.51" y2="228.08" style="fill:none;stroke:#263238;stroke-linecap:round;stroke-linejoin:round"></line><line x1="380.43" y1="229.23" x2="383.26" y2="229.75" style="fill:none;stroke:#263238;stroke-linecap:round;stroke-linejoin:round"></line><path d="M378,236.75s-.16.89,1,1.31,3.82.91,4.39-.74" style="fill:none;stroke:#263238;stroke-linecap:round;stroke-linejoin:round"></path><path d="M374.9,239.6s3.12,2.54,5.68,2.89,6-2.37,6-2.37a13.79,13.79,0,0,1-4.53,5C378.61,247.55,374.9,239.6,374.9,239.6Z" style="fill:#fff;stroke:#263238;stroke-linecap:round;stroke-linejoin:round"></path><path d="M368.81,233.61s-2.33.69-2.4,2.74,3,5.5,3,5.5Z" style="fill:#bfbfbf;stroke:#263238;stroke-linecap:round;stroke-linejoin:round"></path><path d="M334.56,216.23l-9-18.61s-.05-10-.32-10.69-7.22-3.77-8.12-3.31a60.61,60.61,0,0,0-7,6.13c-.32.57.23,1.77.49,2.85a2.71,2.71,0,0,0,1.9,1.73c.29,0,.94,3.95,1.59,5s4.28,3.57,4.56,4,7.58,19,7.58,19Z" style="fill:#bfbfbf;stroke:#263238;stroke-linecap:round;stroke-linejoin:round"></path><path d="M323.68,190.5s-4.28-3.48-4.85-4.08-3.44.47-4.63.92-2.37.5-1.91,1.3,4.07,1.32,4.46,1.33.87,3.26,1.31,4.74,2.66,2.35,3.43,2.57" style="fill:#bfbfbf;stroke:#263238;stroke-linecap:round;stroke-linejoin:round"></path><line x1="312.81" y1="193.56" x2="316.43" y2="190.84" style="fill:none;stroke:#263238;stroke-linecap:round;stroke-linejoin:round"></line><line x1="321.23" y1="187.97" x2="321.95" y2="186.92" style="fill:none;stroke:#263238;stroke-linecap:round;stroke-linejoin:round"></line><path d="M371.07,251.15s-5.6-1.42-6.72-1.09-6.06-2.92-6.06-2.92-9.92-10.37-10.27-10.93l-13.29-21.5-10,6.85,9.76,22.31,14.21,21.73L350.27,292l-14.9,43.38s6.57,7.79,10.53,10.69,9.66,3.66,9.66,3.66L367.06,295s5.38-27.51,5.23-28.81S371.07,251.15,371.07,251.15Z" style="fill:#7E57C2;stroke:#263238;stroke-linecap:round;stroke-linejoin:round"></path><path d="M429,212.75l3.58-19.19s-2.95-13.79-2.33-14S436.47,176,437,176a41,41,0,0,1,4.95,1.88c.48.26,3.72,2,3.55,3.42s-1.24,4.24-2.11,4.45-.71,3-1.78,5.56a42,42,0,0,1-2.1,4.33l-.28,19.06Z" style="fill:#bfbfbf;stroke:#263238;stroke-linecap:round;stroke-linejoin:round"></path><path d="M433.46,181.74s4.55-4.37,5-4.48,5.07,1.89,5.43,2.14,1.69.43.68,1.49-3.93.6-3.93.6-1.73,4-1.87,4.46.82,1.25-.73,3.52" style="fill:none;stroke:#263238;stroke-linecap:round;stroke-linejoin:round"></path><line x1="443.34" y1="185.74" x2="440.47" y2="183.93" style="fill:none;stroke:#263238;stroke-linecap:round;stroke-linejoin:round"></line><line x1="434.88" y1="179.46" x2="434.55" y2="178.47" style="fill:none;stroke:#263238;stroke-linecap:round;stroke-linejoin:round"></line><path d="M387.15,252.87s-2.56,15.42-2.63,17.45,6.56,82.51,6.56,82.51,8.72-1.37,10.41-2.05,8.59-3,10.58-7a23.59,23.59,0,0,0,2.21-5.46S403.44,297,403.66,296.11s2.22-26.38,2.22-26.38,27.77-21.55,28.43-24.67,6.44-31.53,6.44-31.53l-12.46-2.83-8,23.73-18.41,14.69s-6.34,1.63-8.39,2.3S387.15,252.87,387.15,252.87Z" style="fill:#7E57C2;stroke:#263238;stroke-linecap:round;stroke-linejoin:round"></path><polyline points="367.62 252.73 366.79 263.92 364.93 298.12" style="fill:none;stroke:#263238;stroke-linecap:round;stroke-linejoin:round"></polyline><path d="M389.79,254.39s-.2,12.43-.41,14.51-2.07,25.9-2.07,25.9" style="fill:none;stroke:#263238;stroke-linecap:round;stroke-linejoin:round"></path><line x1="405.88" y1="269.73" x2="407.82" y2="261.64" style="fill:#7E57C2;stroke:#263238;stroke-linecap:round;stroke-linejoin:round"></line><line x1="349" y1="265.93" x2="349.62" y2="251.75" style="fill:#7E57C2;stroke:#263238;stroke-linecap:round;stroke-linejoin:round"></line></g><g id="freepik--character-2--inject-94"><path d="M158.17,306.32s9.88.29,11.21-.28,10.45-7,10.45-7v14.26l-9.12,3.32s-3.61,1.43-3.9,1.52-.76,1.71-2.18,2.47a7.31,7.31,0,0,1-2.28.86Z" style="fill:#fff;stroke:#263238;stroke-linecap:round;stroke-linejoin:round"></path><polygon points="171.66 304.42 174.32 316.49 181.26 313.16 180.31 298.05 171.66 304.42" style="fill:#7E57C2;stroke:#263238;stroke-linecap:round;stroke-linejoin:round"></polygon><path d="M170,310.41s-2.85-1-3.7-.57-1.43,6.36-.76,6.65a3.6,3.6,0,0,0,2.47-.1C168.43,316.11,170,311.07,170,310.41Z" style="fill:#fff;stroke:#263238;stroke-linecap:round;stroke-linejoin:round"></path><path d="M157.31,319a10,10,0,0,0,1.43,2.56,7.11,7.11,0,0,0,4.46-.19c2-.66,1.81-3,1.81-3S159,319.15,157.31,319Z" style="fill:#fff;stroke:#263238;stroke-linecap:round;stroke-linejoin:round"></path><path d="M157,315.63s-.29,2.95.28,3.33,5.51.85,6.84,0,.95-3.9.95-3.9S160.16,316.58,157,315.63Z" style="fill:#fff;stroke:#263238;stroke-linecap:round;stroke-linejoin:round"></path><path d="M156.55,310.5a11.12,11.12,0,0,0-.28,3.71c.28,1.33,2.66,1.8,4.75,2s4.08-.09,4.08-1.14a9.34,9.34,0,0,0-.57-2.56S157.88,310.79,156.55,310.5Z" style="fill:#fff;stroke:#263238;stroke-linecap:round;stroke-linejoin:round"></path><path d="M156.27,307.08s-.57,2.76.28,3.42,6.94,2.66,8,2,1.43-3.14,1.33-3.8-8-2.19-8.64-2.28S156.65,306.51,156.27,307.08Z" style="fill:#fff;stroke:#263238;stroke-linecap:round;stroke-linejoin:round"></path><path d="M175.63,342.81s-5,37.63-6.46,45.75a118.62,118.62,0,0,0-1.47,17.89l2,53.13s-1.1,5.91-.36,7,1.29,2,1.29,2l-3.14,4.06s-7.93,4.61-9,6.09,2.77,3.32,5.72,3.5,7.56-1.1,9.22-1.29,7.57-5.9,9.41-6.82,5.35-2.22,5.72-4.43-1.11-6.27-1.11-6.27.19-4.25.19-7-1.66-7.75-1.85-10.7-.18-7.2-.18-7.2l3.32-37.81L197,369s8.67,35.23,9.59,36.52,23.24,50.55,23.24,50.55.92,7.38,1.11,8.3a29.76,29.76,0,0,0,1.66,3.5c.18.56.55,5.35,2.58,9.41s8.12,8.49,9.59,6.27,3.51-5,2-10.51-2.58-8.67-2.58-8.67.19-5,.37-6.64-2.4-5.17-2.77-7.2-14.94-51.46-14.94-51.46l-1.47-57.19Z" style="fill:#263238;stroke:#263238;stroke-linecap:round;stroke-linejoin:round"></path><path d="M195.6,252.66s-17.11,5.83-17.84,7.47-.18,8,0,11.28.36,20.58,0,27.86-1.09,26.4-1.09,26.4l-2.74,18.2,6.74,7.47c1.64,1.82,3.82,4,3.82,4l4.37-4.18,1.1,4.73s14.2-1.46,21.11-4.55,16.21-8,16.21-8l.73-17.12.91-26.39s6.19-33.32,4.73-35.87S217,254.54,217,254.54,200.52,251.39,195.6,252.66Z" style="fill:#7E57C2;stroke:#263238;stroke-linecap:round;stroke-linejoin:round"></path><path d="M197,268.67s-4.05,13.66-4.91,23.69" style="fill:none;stroke:#263238;stroke-linecap:round;stroke-linejoin:round"></path><polyline points="191.91 298.13 189.14 329.42 188.5 346.36" style="fill:none;stroke:#263238;stroke-linecap:round;stroke-linejoin:round"></polyline><polygon points="197.52 264.55 193.97 251.31 200 249.05 197.52 264.55" style="fill:#fff;stroke:#263238;stroke-linecap:round;stroke-linejoin:round"></polygon><polygon points="193.97 251.31 190.74 261 196.34 259.49 193.97 251.31" style="fill:#fff;stroke:#263238;stroke-linecap:round;stroke-linejoin:round"></polygon><path d="M198.38,242.27s-.86,22-.86,22.28,14.74-11.62,14.74-11.62Z" style="fill:#fff;stroke:#263238;stroke-linecap:round;stroke-linejoin:round"></path><polygon points="204.41 255.19 197.52 264.55 205.7 259.49 204.41 255.19" style="fill:#fff;stroke:#263238;stroke-linecap:round;stroke-linejoin:round"></polygon><polygon points="210.65 252.71 204.41 255.19 205.81 264.01 217 254.54 215.92 251.21 210.65 252.71" style="fill:#fff;stroke:#263238;stroke-linecap:round;stroke-linejoin:round"></polygon><path d="M203.94,214.06s-4.15.79-5.27,3.66-1.43,9.42-1.43,9.42-3-1-3.51,1.43-1.44,5.11.64,6.7a9,9,0,0,0,2.87,1.76,51.57,51.57,0,0,0,1,6.64c.65,2.37,7.64,8,10.87,9.37s6.57,0,7-.86,4.09-6.25,5.17-9.58,1.18-4.74,2.36-7.43,1.29-11.84.86-14.21-2.9-5.59-7.74-7S206.59,212.64,203.94,214.06Z" style="fill:#fff;stroke:#263238;stroke-linecap:round;stroke-linejoin:round"></path><path d="M224.53,221c-.43-2.36-2.9-5.59-7.74-7s-10.2-1.33-12.85.09c0,0-4.15.79-5.27,3.66s-1.43,9.42-1.43,9.42,1.14.5,1.36,1.25-.43,2,.21,2.26a17.22,17.22,0,0,0,1.72.43s.22-3.12,1.08-3.66,3.66-1.4,3.77-2.26-2.8-6-.76-6.13,6.25,1.72,8.83,3,3.77,3,7.32,2a14.91,14.91,0,0,0,3.91-1.7A10.31,10.31,0,0,0,224.53,221Z" style="fill:#263238;stroke:#263238;stroke-linecap:round;stroke-linejoin:round"></path><path d="M214.74,232.59s-3.12-2.48-5.81-1.83" style="fill:none;stroke:#263238;stroke-linecap:round;stroke-linejoin:round"></path><path d="M219.69,233.13s3.23-.76,4.63.43" style="fill:none;stroke:#263238;stroke-linecap:round;stroke-linejoin:round"></path><polyline points="217.97 236.57 217.32 242.81 213.56 241.95" style="fill:none;stroke:#263238;stroke-linecap:round;stroke-linejoin:round"></polyline><path d="M213.88,246s-4.52.65-6-3.55" style="fill:none;stroke:#263238;stroke-linecap:round;stroke-linejoin:round"></path><path d="M208.61,234a4.76,4.76,0,0,0,5,1.5" style="fill:none;stroke:#263238;stroke-linecap:round;stroke-linejoin:round"></path><path d="M219.37,236.68a2.25,2.25,0,0,0,2.9.1" style="fill:none;stroke:#263238;stroke-linecap:round;stroke-linejoin:round"></path><path d="M188.22,326.77s-3.35.8-3.7,1.26-2,2.89-2.31,3.47-.23.92.58,1.15,2.77-2,2.77-2l3.58-1.27S190.19,326.54,188.22,326.77Z" style="fill:#fff;stroke:#263238;stroke-linecap:round;stroke-linejoin:round"></path><path d="M206.14,323.15s-11,1.58-12.42,1.88-4.74.83-5.5,1.74-2.69,1.51-2.81,2.78-.15,2-.15,2a4.43,4.43,0,0,0-.81,2,2,2,0,0,0,1,1.67,4,4,0,0,0,1.5.8c.33.07,3,3.43,5.06,2.93s8.27-4.67,8.7-4.79,8-4.54,8-4.54Z" style="fill:#fff;stroke:#263238;stroke-linecap:round;stroke-linejoin:round"></path><path d="M218.17,276.33l5.1,30.59-21.12,17.84,3.83,8s30.4-14,31.49-14.57,2-2.36,2.37-5.28-4.55-42.05-4.92-45-.18-2.74-1.27-4-5.46,0-8.56,2.55" style="fill:#7E57C2;stroke:#263238;stroke-linecap:round;stroke-linejoin:round"></path></g><g id="freepik--character-3--inject-94"><path d="M227.78,311s-9.42,5.77-9.73,6.07-4.35,1.72-5.26,3-2.94,7.9-3.35,8.2-3.74,2-3.84,2.94.5,1.22,1.41,1.42,4.16-2.43,4.46-2.53-2.13,6.07-2.43,6.88-1,2.33-.71,3.35,3.44.91,5,.1a35.69,35.69,0,0,0,7.19-5.88c1.12-1.52,3.75-11.74,3.85-12.15s7.29-6.58,7.29-6.58S230.41,312,227.78,311Z" style="fill:#fff;stroke:#263238;stroke-linecap:round;stroke-linejoin:round"></path><path d="M220.28,322.32s-2.43,3.65-2.43,5.27.3,6.07.3,6.07l-2.73,2.53s-2,2.23-1.62,2.64" style="fill:none;stroke:#263238;stroke-linecap:round;stroke-linejoin:round"></path><line x1="211.47" y1="330.12" x2="212.38" y2="326.98" style="fill:none;stroke:#263238;stroke-linecap:round;stroke-linejoin:round"></line><path d="M209.44,340.75a6.61,6.61,0,0,1,.51-2.43,16.51,16.51,0,0,0,1.62-2.23c.3-.5,1.82-5.06,1.82-5.06" style="fill:none;stroke:#263238;stroke-linecap:round;stroke-linejoin:round"></path><path d="M215.72,331.13s-1.72,4.86-2.63,6.08-1.92,2.73.2,3.24" style="fill:none;stroke:#263238;stroke-linecap:round;stroke-linejoin:round"></path><path d="M299,228.52l-8.88-.41s-6.94-1.67-8.75-1.53,4.3,8.61,5.42,8.89,11.93-.84,11.93-.84Z" style="fill:#fff;stroke:#263238;stroke-linecap:round;stroke-linejoin:round"></path><path d="M270,223.67s-5.7-.42-8.61,3.19-5,14.58-5,20.13,2.36,9.3,1.94,10.55-4.58,3.33-6.38,7.91,2.77,11.39,3.33,13.33-.28,6.25-1.94,11.8.55,18.19,10.55,19.58,16.24-7.91,17.35-10.69,9.44-26.38,10.83-34.57a58.82,58.82,0,0,0-.42-24.16c-1.94-7.91-4.85-9.72-8.6-13.46S270,223.67,270,223.67Z" style="fill:#737373;stroke:#263238;stroke-linecap:round;stroke-linejoin:round"></path><path d="M302.36,378.56l7.15,13.91S309,404.86,313,413.05s14.93,44.48,14.93,44.48-.77,3.86-1.27,6.09.25,12.4.25,12.4h2.48l.49-7.69s4,4.71,4.47,5.7a12.46,12.46,0,0,0,6.44,4.48c3,.74,7.46.87,5.21-1.75-1.6-1.86-4.08-5.47-4.08-5.47l-7.57-17.58s-6-55.54-8.21-63-3.72-23.55-3.72-23.55l-23.3,8.68Z" style="fill:#fff;stroke:#263238;stroke-linecap:round;stroke-linejoin:round"></path><path d="M338.51,472.42c-.9-.23-6.31-4.51-9-8.12-.95-1.27-1.72-2.27-2.34-3.06-.18.84-.36,1.69-.51,2.38-.5,2.23.25,12.4.25,12.4h2.48l.49-7.69s4,4.71,4.47,5.7a12.46,12.46,0,0,0,6.44,4.48c3,.74,7.46.87,5.21-1.75-1.6-1.86-4.08-5.47-4.08-5.47S339.41,472.65,338.51,472.42Z" style="fill:#263238;stroke:#263238;stroke-linecap:round;stroke-linejoin:round"></path><path d="M277.33,365.24s12.62,26.95,12.51,28.17-5.17,4.53-7.71,14.67-10.18,43.77-10,44.36-2.83,7.57-3.9,12.15-.51,12.94,2.27,14.84,7.28-8.81,7.75-10.84,1-12.88,1.54-15.26,18.41-39.9,21.36-45.65a77.7,77.7,0,0,0,5.49-12.85c.44-1.87-4.09-30.05-4-31.1S277.33,365.24,277.33,365.24Z" style="fill:#fff;stroke:#263238;stroke-linecap:round;stroke-linejoin:round"></path><path d="M272.43,471.07c-1.88-.38-3.92-3.11-4.54-4-.44,4.64.32,10.77,2.65,12.36,2.78,1.9,7.28-8.81,7.75-10.84C278.29,468.59,274.68,471.52,272.43,471.07Z" style="fill:#263238;stroke:#263238;stroke-linecap:round;stroke-linejoin:round"></path><path d="M278.82,258.42s-13.8.13-15.42.27-2.71.14-3.11,1.08S247,286.15,247,286.15l-21.11,25.43,4.2,3,3.24,4.19,21-20.42,10.29-11.77s7.63,21.05,7.9,21.59-8.91,17.22-8.91,29.94A48.59,48.59,0,0,0,271.79,365c3.24,4.87,7.44,12.18,7.44,12.18s12.17,3.65,23.13,1.35,21.92-9.34,21.92-9.34-7.58-29.35-9.34-34.63-4.19-13.4-4.19-13.4-1.08-23.27-1.49-26.11-.13-8.38,0-12.44-2.3-12.86-2.3-12.86,21-19,26.85-27.56c4.64-6.77,6.38-11.25,5.71-12.47S298,227.44,298,227.44s-1.48,7.57-1.48,8,20.62,4.71,20.62,4.71-16.7,9.77-18.73,10.58-10.69,2.16-10.69,2.16Z" style="fill:#7E57C2;stroke:#263238;stroke-linecap:round;stroke-linejoin:round"></path><line x1="306.96" y1="269.78" x2="301.76" y2="259.62" style="fill:none;stroke:#263238;stroke-linecap:round;stroke-linejoin:round"></line><circle cx="287.54" cy="337.96" r="1.93" style="fill:#fff"></circle><circle cx="283.52" cy="332.65" r="1.13" style="fill:#fff"></circle><circle cx="291.25" cy="332.01" r="0.81" style="fill:#fff"></circle><path d="M295.6,343.6a.81.81,0,1,1-.81-.81A.81.81,0,0,1,295.6,343.6Z" style="fill:#fff"></path><circle cx="288.35" cy="348.11" r="0.81" style="fill:#fff"></circle><path d="M295.27,351.81a.64.64,0,1,1-.64-.64A.64.64,0,0,1,295.27,351.81Z" style="fill:#fff"></path><path d="M281.43,285.79a1.61,1.61,0,1,1-1.61-1.61A1.62,1.62,0,0,1,281.43,285.79Z" style="fill:#fff"></path><path d="M289.81,288.75a1.61,1.61,0,1,1-1.61-1.61A1.61,1.61,0,0,1,289.81,288.75Z" style="fill:#fff"></path><circle cx="290.44" cy="289.66" r="0.97" style="fill:#fff"></circle><circle cx="264.85" cy="262.55" r="0.97" style="fill:#fff"></circle><circle cx="288.62" cy="293.51" r="0.97" style="fill:#fff"></circle><circle cx="284.26" cy="287.68" r="0.97" style="fill:#fff"></circle><path d="M288.51,283.38a.81.81,0,0,1-1.61,0,.81.81,0,1,1,1.61,0Z" style="fill:#fff"></path><path d="M286.26,292.07a1.13,1.13,0,1,1-1.13-1.12A1.13,1.13,0,0,1,286.26,292.07Z" style="fill:#fff"></path><circle cx="275.95" cy="292.24" r="0.97" style="fill:#fff"></circle><circle cx="281.62" cy="290.54" r="0.97" style="fill:#fff"></circle><path d="M289.8,301.57a.65.65,0,1,1-.64-.64A.65.65,0,0,1,289.8,301.57Z" style="fill:#fff"></path><path d="M265,266.31a1.45,1.45,0,1,1-1.45-1.45A1.45,1.45,0,0,1,265,266.31Z" style="fill:#fff"></path><path d="M269.83,267.6a1.13,1.13,0,1,1-1.12-1.13A1.13,1.13,0,0,1,269.83,267.6Z" style="fill:#fff"></path><circle cx="265.7" cy="268.94" r="1.13" style="fill:#fff"></circle><path d="M263.39,273.07a.81.81,0,1,1-.8-.8A.8.8,0,0,1,263.39,273.07Z" style="fill:#fff"></path><path d="M269.06,271.18a.81.81,0,0,1-.81.8.81.81,0,0,1,0-1.61A.81.81,0,0,1,269.06,271.18Z" style="fill:#fff"></path><path d="M257.6,275a1.45,1.45,0,1,1-1.45-1.45A1.45,1.45,0,0,1,257.6,275Z" style="fill:#fff"></path><path d="M261.25,268.8a1.45,1.45,0,1,1-1.45-1.45A1.45,1.45,0,0,1,261.25,268.8Z" style="fill:#fff"></path><circle cx="267.42" cy="274.36" r="1.13" style="fill:#fff"></circle><path d="M264.58,268.94a1.13,1.13,0,1,1-1.13-1.12A1.13,1.13,0,0,1,264.58,268.94Z" style="fill:#fff"></path><path d="M310.09,256a1.45,1.45,0,1,1-1.45-1.45A1.45,1.45,0,0,1,310.09,256Z" style="fill:#fff"></path><circle cx="314.76" cy="250.85" r="1.13" style="fill:#fff"></circle><path d="M310.09,249.73a1,1,0,1,1-1-1A1,1,0,0,1,310.09,249.73Z" style="fill:#fff"></path><path d="M284,323.15a1.29,1.29,0,1,1-1.29-1.29A1.29,1.29,0,0,1,284,323.15Z" style="fill:#fff"></path><path d="M285.93,318a1.29,1.29,0,1,1-1.28-1.29A1.28,1.28,0,0,1,285.93,318Z" style="fill:#fff"></path><circle cx="292.23" cy="350.93" r="1.93" style="fill:#fff"></circle><path d="M296.74,345a.81.81,0,1,1-.81-.81A.8.8,0,0,1,296.74,345Z" style="fill:#fff"></path><path d="M300.28,356.56a.81.81,0,1,1-.8-.8A.8.8,0,0,1,300.28,356.56Z" style="fill:#fff"></path><path d="M293.84,361.07a.81.81,0,1,1-.8-.8A.8.8,0,0,1,293.84,361.07Z" style="fill:#fff"></path><path d="M300,364.77a.65.65,0,1,1-.64-.64A.65.65,0,0,1,300,364.77Z" style="fill:#fff"></path><path d="M290.62,331a1.29,1.29,0,1,1-1.29-1.29A1.29,1.29,0,0,1,290.62,331Z" style="fill:#fff"></path><path d="M282.28,327.37a1.94,1.94,0,1,1-1.93-1.93A1.93,1.93,0,0,1,282.28,327.37Z" style="fill:#fff"></path><circle cx="284.05" cy="321.41" r="0.81" style="fill:#fff"></circle><path d="M288.4,333a.81.81,0,1,1-.81-.81A.8.8,0,0,1,288.4,333Z" style="fill:#fff"></path><circle cx="281.15" cy="337.51" r="0.81" style="fill:#fff"></circle><path d="M288.08,341.22a.65.65,0,1,1-.65-.65A.65.65,0,0,1,288.08,341.22Z" style="fill:#fff"></path><path d="M278.74,307.4a1.29,1.29,0,1,1-1.29-1.28A1.29,1.29,0,0,1,278.74,307.4Z" style="fill:#fff"></path><path d="M283.36,313.49a1.29,1.29,0,1,1-1.29-1.29A1.29,1.29,0,0,1,283.36,313.49Z" style="fill:#fff"></path><path d="M276.18,258.4s3.72,4.22,7,8.24,9.45,7.24,8.94,4.93S290.35,256,290.35,256l-.7-3.31s-2.11,3.61-4.82,4.62-9.66-.3-9.66-.3Z" style="fill:#fff;stroke:#263238;stroke-linecap:round;stroke-linejoin:round"></path><path d="M266.93,249s-2.46.93-2,3.08,5.84,3.38,5.84,3.38Z" style="fill:#fff;stroke:#263238;stroke-linecap:round;stroke-linejoin:round"></path><path d="M287.07,238.06s.15-1.69,1.84-.15,1.38,7.53,1.38,7.53Z" style="fill:#fff;stroke:#263238;stroke-linecap:round;stroke-linejoin:round"></path><path d="M267.7,230.22s-4.46,5.84-3.54,9.69,3.23,12.45,6.61,15.52,13.38,6,16.14,4.15,4.15-10.45,3.38-14.14-4.45-9.53-7.07-12.3S274.77,227.76,267.7,230.22Z" style="fill:#fff;stroke:#263238;stroke-linecap:round;stroke-linejoin:round"></path><path d="M268.74,244.42a4,4,0,0,1,3.42-2.51" style="fill:none;stroke:#263238;stroke-linecap:round;stroke-linejoin:round"></path><path d="M277.89,238.39a4,4,0,0,1,4.52-2.21" style="fill:none;stroke:#263238;stroke-linecap:round;stroke-linejoin:round"></path><path d="M270.65,237.28s-4,.91-4.52,4.33" style="fill:none;stroke:#263238;stroke-linecap:round;stroke-linejoin:round"></path><path d="M274.67,235.47a4.85,4.85,0,0,1,5.43-2.61" style="fill:none;stroke:#263238;stroke-linecap:round;stroke-linejoin:round"></path><path d="M279.5,243.11a3.42,3.42,0,0,1-.71,2.32,2.25,2.25,0,0,1-1.71.7" style="fill:none;stroke:#263238;stroke-linecap:round;stroke-linejoin:round"></path><path d="M276.18,251s4.52,0,5.93-2.22,2.11-3.41,2.11-3.41.81,4.92-.4,6.53S277.49,252.16,276.18,251Z" style="fill:#fff;stroke:#263238;stroke-linecap:round;stroke-linejoin:round"></path><line x1="318.72" y1="239.44" x2="324.12" y2="233" style="fill:none;stroke:#263238;stroke-linecap:round;stroke-linejoin:round"></line><line x1="264.62" y1="286.56" x2="272.92" y2="278.46" style="fill:none;stroke:#263238;stroke-linecap:round;stroke-linejoin:round"></line></g><g id="freepik--character-1--inject-94"><path d="M124.19,364.25s-1.91,23.52-1.91,27,11.32,34.14,15.15,42.33,8.89,21.43,9.41,22.82-.7,9.76-1.74,13.59a54.65,54.65,0,0,0-1.22,11.68c0,1.74,2.79,2.26,6.44-.88s4.88-14.63,5.93-18.11-2.09-6.28-2.44-11.68-6.27-29.44-7.32-37.28-5.57-23.34-5.57-23.34l5.92-25.79Z" style="fill:#fff;stroke:#263238;stroke-linecap:round;stroke-linejoin:round"></path><path d="M149.36,476.23c-1.73.77-4-.28-5.15-.91-.27,2.73-.33,5.32-.33,6.36,0,1.74,2.79,2.26,6.44-.88s4.88-14.63,5.93-18.11a5.17,5.17,0,0,0,.14-2.27l-2.26,8.13C152.8,473.32,151.74,475.17,149.36,476.23Z" style="fill:#263238;stroke:#263238;stroke-linecap:round;stroke-linejoin:round"></path><path d="M90.39,365.47s7.84,31.19,8,32.41-4,5.57-4.18,16,0,44.94.35,45.47-1,8-1,12.71S96,484.81,99.11,486s5-10.09,5-12.18-1.84-12.91-1.84-15.34,8.89-43,10.45-49.31a78,78,0,0,0,2.44-13.76c0-1.92.53-29.27.7-30.31S90.39,365.47,90.39,365.47Z" style="fill:#fff;stroke:#263238;stroke-linecap:round;stroke-linejoin:round"></path><path d="M99.31,476.49c-2.38-.26-5.78-4.4-5.78-4.4,0,4.71,2.44,12.72,5.58,13.94s5-10.09,5-12.18C104.08,473.85,101.69,476.76,99.31,476.49Z" style="fill:#263238;stroke:#263238;stroke-linecap:round;stroke-linejoin:round"></path><path d="M98,248.91,85.28,231.6,98,192.78s10.32,0,10.67-.7a38.71,38.71,0,0,1,2.27-3.14,28.27,28.27,0,0,1,.7-6.47c.7-2.1.35-2.1-.7-1.75s-1.75.52-1.75.52-7.69-3-9.26-2.62S92.62,187,91.4,188.94,76.71,215,73.91,221.81s-4.72,9.26-3.67,11.89S90,262.77,90,262.77l5.73,7.3s3.15,5.77,2.27,10.49-.52,15.91-1.75,24.82-7.51,18-8.56,33.4a112,112,0,0,0,1.92,28.67h59.1s-1.4-32.69-3.5-42-3.91-17.48-4.89-22.2,3.67-15.22,3-25.18-2.8-17.84-5.07-21.33-4.37-4.37-10.49-7.17-15.21-6.47-18-6.47-5.42,2.1-6.82,3S98,248.91,98,248.91Z" style="fill:#fff;stroke:#263238;stroke-linecap:round;stroke-linejoin:round"></path><path d="M145.25,325.49c-2.1-9.26-3.91-17.48-4.89-22.2s3.67-15.22,3-25.18-2.8-17.84-5.07-21.33-4.37-4.37-10.49-7.17-15.21-6.47-18-6.47a8.5,8.5,0,0,0-3.9,1.14c-1.27,8.42-3.18,21.78-3.18,21.78L98,276.49a11.6,11.6,0,0,1,.06,4.07c-.87,4.72-.52,15.91-1.75,24.82s-7.51,18-8.56,33.4,2.32,37,2.32,37h59.09S147.35,334.76,145.25,325.49Z" style="fill:#7E57C2;stroke:#263238;stroke-linecap:round;stroke-linejoin:round"></path><line x1="115.67" y1="351.65" x2="116.71" y2="356.3" style="fill:none;stroke:#263238;stroke-linecap:round;stroke-linejoin:round"></line><line x1="109.84" y1="325.63" x2="114.93" y2="348.35" style="fill:none;stroke:#263238;stroke-linecap:round;stroke-linejoin:round"></line><line x1="126.49" y1="346.78" x2="122.26" y2="360" style="fill:none;stroke:#263238;stroke-linecap:round;stroke-linejoin:round"></line><path d="M109.23,181.24a7,7,0,0,0-1,1.84c-.43,1.14-1,3.21-1,3.21s-6.22,0-7,.65A4.81,4.81,0,0,0,99,188.72" style="fill:none;stroke:#263238;stroke-linecap:round;stroke-linejoin:round"></path><path d="M100.15,179.29s-1.5,4.5-1.07,4.57,8.15,2.43,8.15,2.43" style="fill:none;stroke:#263238;stroke-linecap:round;stroke-linejoin:round"></path><line x1="102.66" y1="179.22" x2="101.58" y2="184.36" style="fill:none;stroke:#263238;stroke-linecap:round;stroke-linejoin:round"></line><line x1="105.8" y1="180.08" x2="104.16" y2="185.08" style="fill:none;stroke:#263238;stroke-linecap:round;stroke-linejoin:round"></line><line x1="107.73" y1="181.15" x2="106.23" y2="186.01" style="fill:none;stroke:#263238;stroke-linecap:round;stroke-linejoin:round"></line><path d="M106.5,244c.85,6.73,4,27,10.6,29.1,5.56,1.78,15-9.94,20.37-17.41-2-2.61-4.29-3.58-9.7-6-6.12-2.8-15.21-6.47-18-6.47A7.68,7.68,0,0,0,106.5,244Z" style="fill:#fff;stroke:#263238;stroke-linecap:round;stroke-linejoin:round"></path><path d="M114.17,212.26s-10.64,6-12.79,8.15a9.34,9.34,0,0,0-2.61,7.8c.46,2.38.8,16.07.8,16.07s-6.34,14-8.38,18.23a9.22,9.22,0,0,0,1.59,9.95c1.47,1.48,4.64,3.06,3.84,4.19s-5.54,7.81-3.5,10.64a18.4,18.4,0,0,0,4.52,4.41s-1.7,4.87,1,7.13,8.15,5.21,10.75,1.93,2-9.28,2.61-12.79,4.86-5.09,4.41-14.26-3.4-18-3.06-20.26,1.47-7,.91-9.73-.57-10.41,2-15.17,3.73-8.6,6.9-6.9,10.75,14.49,10.3,18.22-8.6,12-8.6,12,.11,4-1,6.22-5.21,10.19-4.3,12.56,5.09,4.19,4.07,8-1.13,6.22,3.06,5.77,6.34-3.28,7.58-9.73-1.92-11.77-.91-14.94,4.53-5.77,6.46-7,.79-8.26-1.7-13.24-6.34-10.41-6.45-13,2.15-5,.56-8.49S119.37,210.45,114.17,212.26Z" style="fill:#263238;stroke:#263238;stroke-linecap:round;stroke-linejoin:round"></path><path d="M119.48,217.92s-3.84,7.35-6.22,12.56-1.81,7.92-1.81,7.92,1.47,7,2.6,7.92,8.6,6.68,12.56,7.13a6.43,6.43,0,0,0,6.57-3.51c.22-.9,2.49-12.22,2.15-14.48a69.3,69.3,0,0,0-2.72-8.49s-1.58-4.64-2.49-5.66S120.73,216.9,119.48,217.92Z" style="fill:#fff;stroke:#263238;stroke-linecap:round;stroke-linejoin:round"></path><path d="M123.67,234.78s-3.62-.34-4.86,1.81" style="fill:none;stroke:#263238;stroke-linecap:round;stroke-linejoin:round"></path><path d="M129.33,233.65a2.74,2.74,0,0,1,3.51-.68" style="fill:none;stroke:#263238;stroke-linecap:round;stroke-linejoin:round"></path><path d="M122.2,230.36a5.38,5.38,0,0,0-5.09,2.72" style="fill:none;stroke:#263238;stroke-linecap:round;stroke-linejoin:round"></path><path d="M127.29,229.12s2.61-1.47,4.3.34" style="fill:none;stroke:#263238;stroke-linecap:round;stroke-linejoin:round"></path><path d="M127.07,230.36s.86,3.72,2,4.74,2.76,2.73,2.65,3.3a5.05,5.05,0,0,1-3.17,1.92" style="fill:none;stroke:#263238;stroke-linecap:round;stroke-linejoin:round"></path><path d="M131.37,243.21a26.16,26.16,0,0,1-5.21.79,10,10,0,0,1-3.51-.56s3.51,2.83,5.55,3.28S131.37,243.21,131.37,243.21Z" style="fill:#fff;stroke:#263238;stroke-linecap:round;stroke-linejoin:round"></path><path d="M147.33,257.31a7.34,7.34,0,0,0-9.42-4.28,5.36,5.36,0,0,0-2.16,1.48c-2.3,2.74-.43,10.63.88,17.53s2.74,24.11,2.74,26.52,8,15.67,8.66,16.32a1.62,1.62,0,0,0,2.19-.22c.22-.43,1.31-2.3,2-11.5a165.26,165.26,0,0,0-2.3-35.61A64.92,64.92,0,0,0,147.33,257.31Z" style="fill:#fff;stroke:#263238;stroke-linecap:round;stroke-linejoin:round"></path><path d="M151.09,311.49c-.21,1.53-1.31,6.68-3.83,7.45s-8.33-7.23-10.74-11.51-5.26-11.17-5.26-11.17a7.26,7.26,0,0,1-1.64-2,5.74,5.74,0,0,1-.77-3.06l2.46-11s2.8,10.82,3.46,12S149.34,304,150.55,308" style="fill:#fff;stroke:#263238;stroke-linecap:round;stroke-linejoin:round"></path><path d="M130.22,290.06a2.41,2.41,0,0,0,1.21,2.05" style="fill:#fff;stroke:#263238;stroke-linecap:round;stroke-linejoin:round"></path><path d="M124.73,297h0a4.9,4.9,0,0,1-4.9-4.9l1-14.18h7.84l1,14.18A4.9,4.9,0,0,1,124.73,297Z" style="fill:#fff;stroke:#263238;stroke-linecap:round;stroke-linejoin:round"></path><path d="M129.21,279.52s-5.78,1.18-6,1.72-.09,1,1.26,1,6.86-.09,7.13-.54a2.22,2.22,0,0,0-.09-2.26C131,278.89,129.21,279.52,129.21,279.52Z" style="fill:#fff;stroke:#263238;stroke-linecap:round;stroke-linejoin:round"></path><line x1="124.81" y1="296.79" x2="124.81" y2="308.14" style="fill:none;stroke:#263238;stroke-linecap:round;stroke-linejoin:round"></line><polygon points="131.59 308.72 124.91 306.38 117.39 308.72 131.59 308.72" style="fill:#fff;stroke:#263238;stroke-linecap:round;stroke-linejoin:round"></polygon><path d="M128.69,282.38s-6.23,1.18-6.42,1.72-.1,1,1.36,1,7.39-.09,7.68-.54a2.13,2.13,0,0,0-.09-2.26C130.63,281.75,128.69,282.38,128.69,282.38Z" style="fill:#fff;stroke:#263238;stroke-linecap:round;stroke-linejoin:round"></path><path d="M129.08,285.09s-6.23,1.17-6.42,1.71-.1,1,1.36,1,7.39-.09,7.68-.54a2.09,2.09,0,0,0-.1-2.25C131,284.46,129.08,285.09,129.08,285.09Z" style="fill:#fff;stroke:#263238;stroke-linecap:round;stroke-linejoin:round"></path><path d="M129.81,287.65s-5.27,1-5.44,1.45-.08.84,1.16.84,6.26-.07,6.51-.45a1.79,1.79,0,0,0-.09-1.91C131.46,287.12,129.81,287.65,129.81,287.65Z" style="fill:#fff;stroke:#263238;stroke-linecap:round;stroke-linejoin:round"></path></g></svg>
