<?xml version="1.0" encoding="utf-8"?>
<!-- Generator: Adobe Illustrator 27.5.0, SVG Export Plug-In . SVG Version: 6.00 Build 0)  -->
<svg version="1.1" id="_x2018_ëîé_x5F_1" xmlns="http://www.w3.org/2000/svg" xmlns:xlink="http://www.w3.org/1999/xlink"
	 x="0px" y="0px" viewBox="0 0 3200 2000" style="enable-background:new 0 0 3200 2000;" xml:space="preserve">
<rect style="fill:#FFFFFF;" width="3200" height="2000"/>
<g>
	<path style="fill:#AEC3FF;" d="M3074.28,1072.421v6.682c0,20.511-0.622,42.42-1.711,65.728
		c-0.931,19.268-2.173,39.467-3.884,60.133c-3.574,45.992-9.166,94.938-16.47,144.039c-1.243,8.547-2.643,17.092-4.04,25.482
		c-1.398,8.857-2.951,17.714-4.66,26.57c-7.77,43.663-17.094,86.704-28.126,127.414c-3.106,11.031-6.214,21.908-9.322,32.475
		c-6.683,22.064-13.829,43.197-21.599,63.085v0.155c-9.944,25.328-20.667,48.635-32.32,69.301c-1.087,2.021-2.329,4.195-3.574,6.215
		c-3.729,6.527-7.613,12.586-11.498,18.336c-2.795,4.039-5.591,7.924-8.389,11.654c-2.176,2.797-4.352,5.438-6.527,8.079
		c-2.795,3.264-5.438,6.371-8.235,9.323c-1.087,1.242-2.174,2.33-3.263,3.418c-2.176,2.176-4.352,4.352-6.524,6.371
		c-7.149,6.215-14.452,11.654-22.065,16.004c-0.155,0.156-0.311,0.156-0.466,0.312c-0.312,0.31-0.776,0.466-1.087,0.621
		c-0.778,0.467-1.556,0.933-2.178,1.243c-1.552,0.777-3.107,1.554-4.66,2.33l-179.621,1.243l-308.592,2.021l-622.46-2.331
		l-221.887-0.776l-222.04-0.777h-0.467l-15.071-0.155l-411.919-1.398l-32.165-0.155h-8.391l-130.52-0.467l-65.571-0.31
		l-280.31-1.088h-3.418c0,0-0.156-0.155-0.311-0.312c-1.556-1.243-9.325-7.924-20.978-19.578c-2.174-2.176-4.505-4.506-6.836-6.992
		c-2.487-2.486-4.974-5.127-7.614-8.079c-57.18-62.309-162.685-206.037-159.111-414.405
		c2.02-124.771,22.063-344.016,172.474-499.243c2.486-2.486,4.971-5.127,7.458-7.614c0.622-0.466,1.242-1.088,2.02-1.865
		c0.155-0.155,0.311-0.31,0.466-0.465c0.778-0.777,1.554-1.399,2.485-2.331c0.311-0.311,0.622-0.622,0.933-0.933
		c0.622-0.621,1.245-1.243,2.02-1.864c0.623-0.621,1.398-1.399,2.176-2.176c1.089-0.776,2.02-1.709,3.107-2.797
		c0-0.155,0-0.155,0.155-0.155c0.623-0.466,1.245-1.088,1.867-1.709v-0.156c1.087-0.932,2.173-1.864,3.107-2.796
		c0.931-0.622,1.709-1.554,2.64-2.331c0.155,0,0.155,0,0.155-0.155c1.4-1.243,2.798-2.487,4.352-3.575
		c0.777-0.776,1.709-1.553,2.64-2.33c0.622-0.622,1.4-1.243,2.022-1.864c0.622-0.311,0.931-0.778,1.553-1.088
		c0.776-0.777,1.709-1.555,2.643-2.331c0.464-0.466,0.931-0.777,1.398-1.088c1.086-0.932,2.175-1.709,3.262-2.641
		c0.155-0.156,0.311-0.311,0.467-0.466c1.709-1.243,3.262-2.642,4.971-3.885c1.4-1.087,2.798-2.175,4.196-3.263
		c0.155-0.155,0.466-0.311,0.622-0.466c1.242-0.933,2.484-1.865,3.884-2.797c1.087-0.933,2.33-1.865,3.418-2.641
		c0.467-0.311,0.778-0.622,1.245-0.933c1.551-1.088,3.107-2.175,4.66-3.419c1.087-0.776,2.331-1.553,3.418-2.33
		c1.398-0.932,2.642-1.864,4.04-2.797c0.931-0.622,1.864-1.243,2.798-2.02c1.398-0.932,2.796-1.709,4.195-2.641
		c1.087-0.778,2.33-1.554,3.418-2.331c0.467-0.311,0.778-0.621,1.243-0.777c1.242-0.777,2.331-1.554,3.575-2.331
		c1.396-0.932,2.796-1.709,4.194-2.641c0,0,0.156,0,0.156-0.156c1.398-0.776,2.797-1.709,4.04-2.485
		c1.554-0.778,2.954-1.71,4.352-2.643c0.153,0,0.464-0.155,0.62-0.31c1.244-0.777,2.487-1.554,3.729-2.175
		c1.4-0.933,2.953-1.709,4.351-2.487c1.4-0.932,2.953-1.709,4.351-2.486c0,0,0-0.155,0.156-0.155
		c1.398-0.777,2.951-1.554,4.351-2.486c1.553-0.778,2.951-1.554,4.351-2.331c0.311-0.155,0.465-0.155,0.621-0.311
		c1.397-0.777,2.797-1.398,4.195-2.175c1.398-0.778,2.798-1.399,4.196-2.175c1.087-0.622,2.331-1.244,3.418-1.709
		c5.127-2.642,10.411-5.284,15.694-7.77c9.322-4.351,18.802-8.546,28.59-12.431c1.399-0.621,2.953-1.242,4.351-1.709
		c1.4-0.621,2.796-1.088,4.195-1.709c1.398-0.621,2.796-1.088,4.352-1.709c2.329-0.932,4.66-1.71,6.991-2.642
		c1.553-0.466,3.107-1.087,4.662-1.554c1.398-0.621,2.796-1.087,4.196-1.553c1.707-0.622,3.418-1.243,5.282-1.864c0,0,0,0,0.154,0
		c0.156-0.156,0.311-0.156,0.467-0.156c1.4-0.467,2.798-1.088,4.351-1.555c2.02-0.621,4.195-1.398,6.371-2.02
		c1.865-0.622,3.729-1.243,5.594-1.865c0.155,0,0.155,0,0.311,0c1.553-0.621,3.262-1.088,4.973-1.553
		c0.776-0.311,1.552-0.467,2.329-0.777c1.709-0.467,3.418-0.932,4.973-1.399c0.621-0.155,1.087-0.311,1.554-0.466
		c2.02-0.622,4.038-1.088,5.905-1.71c2.018-0.465,4.04-1.087,6.058-1.709c0.778-0.155,1.555-0.311,2.333-0.465
		c1.552-0.467,3.107-0.932,4.66-1.244c0.311-0.155,0.62-0.311,0.932-0.311c2.177-0.621,4.506-1.087,6.682-1.708
		c2.02-0.467,4.04-0.933,6.06-1.399c0.467-0.154,1.089-0.31,1.709-0.465c2.176-0.467,4.196-0.932,6.371-1.554
		c2.485-0.466,4.818-0.933,7.147-1.554h0.156c2.486-0.466,4.817-1.088,7.147-1.553c2.642-0.467,5.129-1.088,7.613-1.555
		c1.245-0.31,2.487-0.621,3.574-0.932c1.244-0.31,2.489-0.621,3.729-0.932c1.089-0.156,2.177-0.466,3.264-0.777
		c1.087-0.311,2.176-0.466,3.418-0.777c0.934-0.311,2.02-0.622,3.109-0.932c1.087-0.311,2.174-0.467,3.262-0.777
		c1.089-0.311,2.02-0.622,2.952-0.932c2.177-0.622,4.507-1.243,6.682-1.866c1.087-0.31,2.02-0.621,3.109-0.932
		c2.018-0.621,4.04-1.398,6.058-2.019c0.156,0,0.156,0,0.312,0c2.02-0.622,4.04-1.399,5.904-2.02c2.176-0.777,4.04-1.399,6.06-2.176
		c2.02-0.776,4.04-1.398,6.06-2.175c0.156-0.156,0.31-0.156,0.621-0.311c2.797-1.087,5.751-2.175,8.546-3.263v-0.155
		c0.934-0.311,1.865-0.621,2.643-1.088c1.242-0.466,2.331-0.932,3.418-1.399c1.709-0.776,3.418-1.398,5.127-2.174
		c0.933-0.467,2.022-0.933,2.953-1.399c2.953-1.244,5.749-2.641,8.7-4.04c1.556-0.776,3.263-1.553,4.818-2.33
		c1.553-0.776,3.107-1.554,4.662-2.331c0.156-0.155,0.311-0.155,0.311-0.311c1.707-0.777,3.263-1.709,4.972-2.486
		c0.153-0.155,0.309-0.31,0.62-0.31c1.244-0.777,2.487-1.398,3.729-2.175c0.622-0.311,1.244-0.778,2.022-1.088
		c0.931-0.467,1.863-1.088,2.796-1.554c0.777-0.466,1.4-0.933,2.176-1.243c1.553-0.932,3.108-1.865,4.66-2.798
		c1.399-0.932,2.953-1.709,4.351-2.641c1.555-1.087,3.262-2.02,4.818-3.108c1.553-0.932,3.107-2.02,4.662-2.952l0.155-0.155
		c1.241-0.777,2.33-1.554,3.418-2.331c0.776-0.466,1.398-0.932,2.019-1.398c0.933-0.466,1.711-1.087,2.486-1.709
		c0.934-0.465,1.709-1.087,2.487-1.709c0.933-0.621,1.709-1.087,2.485-1.709c0.933-0.622,1.711-1.243,2.644-1.864
		c0.62-0.467,1.24-0.932,1.863-1.399c1.399-0.932,2.642-2.02,4.04-3.108c0.155-0.155,0.466-0.31,0.622-0.465
		c1.398-0.933,2.796-2.02,4.04-3.108c1.864-1.399,3.884-2.953,5.749-4.506c1.398-1.088,2.798-2.176,4.196-3.419
		c0.153-0.155,0.464-0.466,0.62-0.621c1.089-0.777,2.177-1.71,3.109-2.642c0.309-0.155,0.464-0.31,0.775-0.466
		c0.467-0.467,1.089-1.088,1.711-1.553c0.311-0.311,0.62-0.467,0.932-0.778c0.466-0.466,0.931-0.777,1.397-1.242
		c0.312-0.311,0.467-0.467,0.778-0.623c0.156-0.155,0.311-0.31,0.311-0.31c0.156-0.155,0.311-0.311,0.311-0.311
		c0.776-0.621,1.554-1.399,2.33-2.02c1.088-0.932,2.021-1.864,3.108-2.797c0.31-0.311,0.776-0.622,1.087-1.087
		c0.933-0.777,1.866-1.709,2.953-2.642c0.154-0.155,0.465-0.466,0.776-0.777c0.311-0.155,0.467-0.466,0.778-0.622
		c1.089-1.087,2.176-2.02,3.107-3.107c0.311-0.156,0.466-0.31,0.622-0.466c0.622-0.622,1.089-1.088,1.709-1.709
		c0.466-0.311,0.778-0.622,1.087-1.088c0.311-0.155,0.622-0.466,0.777-0.622c0.311-0.466,0.623-0.621,0.934-0.932
		c0.311-0.466,0.777-0.777,1.086-1.088c0.156-0.155,0.467-0.466,0.778-0.777c0.309-0.31,0.465-0.621,0.776-0.777
		c0.467-0.466,0.933-0.932,1.4-1.398c1.087-1.087,2.018-2.019,3.107-3.107c1.864-2.02,3.884-4.04,5.904-6.06
		c0-0.156,0.156-0.311,0.311-0.311c0.932-1.087,1.865-2.02,2.798-3.107l0.776-0.777c1.398-1.553,2.953-3.262,4.351-4.817
		c0.154-0.155,0.309-0.311,0.465-0.466c0.155-0.311,0.466-0.466,0.622-0.777c1.555-1.709,3.107-3.263,4.507-4.972
		c0.311-0.311,0.466-0.466,0.622-0.622l0.155-0.31c1.707-1.865,3.263-3.73,4.972-5.594c0.155-0.156,0.311-0.31,0.464-0.466
		c0.156-0.311,0.311-0.467,0.467-0.622c1.711-2.02,3.418-4.039,4.973-5.905c1.709-2.174,3.418-4.195,5.127-6.215
		c1.709-2.02,3.42-4.195,5.127-6.215c0.156-0.156,0.311-0.311,0.311-0.466c1.245-1.554,2.487-3.108,3.729-4.817
		c0.311-0.311,0.623-0.622,0.933-0.932c0.778-0.932,1.554-2.02,2.176-2.952c0.62-0.777,1.243-1.399,1.709-2.176
		c2.02-2.486,3.885-5.128,5.905-7.613c4.816-6.372,9.478-12.897,14.296-19.423c0.155-0.156,0.311-0.467,0.622-0.777
		c1.087-1.554,2.018-2.952,3.107-4.507c0.622-0.777,1.242-1.553,1.709-2.33c1.398-1.865,2.642-3.574,3.884-5.439
		c0.465-0.621,0.932-1.242,1.243-1.865c0.933-1.243,2.02-2.641,2.951-4.04c0.933-1.242,1.866-2.641,2.798-4.04
		c3.731-5.438,7.615-11.031,11.344-16.625c0.465-0.466,0.776-1.088,1.243-1.554c0.153-0.156,0.153-0.156,0.153-0.31
		c0.311-0.467,0.622-0.934,0.934-1.399c1.555-2.331,3.262-4.662,4.817-6.993c1.865-2.796,3.729-5.593,5.594-8.235
		c7.925-11.809,15.694-23.462,23.616-35.116c1.4-2.176,2.798-4.196,4.352-6.216c0-0.155,0.155-0.31,0.311-0.466
		c0.311-0.622,0.622-1.087,1.089-1.554c1.086-1.709,2.329-3.418,3.417-5.282c0.934-1.244,1.865-2.643,2.796-4.04
		c0.622-0.776,1.245-1.709,1.867-2.641c1.087-1.399,2.018-2.798,3.107-4.351c0.311-0.466,0.622-0.932,0.933-1.398
		c0.155-0.311,0.464-0.622,0.62-0.778c1.243-1.864,2.487-3.573,3.729-5.282c0.311-0.467,0.622-0.932,0.933-1.399
		c1.554-2.176,3.107-4.506,4.661-6.681c1.555-2.176,3.262-4.351,4.817-6.526c0-0.156,0-0.156,0-0.156
		c0.312-0.311,0.622-0.776,0.778-1.088l0.465-0.465c0.466-0.622,0.933-1.243,1.398-2.02c0.311-0.311,0.466-0.778,0.777-1.088
		c0.623-0.777,1.089-1.399,1.556-2.176c0.776-1.087,1.707-2.175,2.485-3.263c2.331-3.107,4.662-6.215,6.991-9.323
		c2.178-2.796,4.196-5.593,6.371-8.39c1.243-1.71,2.642-3.419,3.885-4.972c0.931-1.088,1.709-2.331,2.642-3.419
		c1.087-1.243,2.174-2.641,3.263-4.04c1.088-1.398,2.175-2.797,3.417-4.039c1.089-1.399,2.176-2.798,3.263-4.196
		c6.838-8.236,13.831-16.315,20.978-24.24c1.243-1.243,2.485-2.641,3.729-4.04c2.176-2.331,4.507-4.817,6.836-7.148
		c1.089-1.242,2.178-2.33,3.264-3.573l8.701-8.702c1.089-1.088,2.331-2.175,3.418-3.263c0.778-0.777,1.555-1.554,2.333-2.175
		c0.931-0.932,1.862-1.864,2.795-2.642c1.089-1.088,2.33-2.175,3.574-3.418c0.156-0.155,0.467-0.311,0.623-0.622
		c1.242-1.087,2.484-2.175,3.729-3.263c1.398-1.243,2.796-2.486,4.196-3.729c1.243-1.087,2.485-2.331,3.885-3.419
		c0.155-0.155,0.466-0.465,0.622-0.621c1.396-1.088,2.64-2.175,3.884-3.263c1.241-1.088,2.641-2.176,3.885-3.108
		c0.309-0.31,0.62-0.466,0.776-0.777c1.398-1.087,2.642-2.02,4.04-3.107c1.398-1.243,2.953-2.331,4.349-3.574
		c1.556-1.088,3.109-2.331,4.507-3.418c0.777-0.622,1.555-1.088,2.331-1.71c0.775-0.466,1.554-1.088,2.176-1.709
		c0.777-0.466,1.397-0.932,2.175-1.553c2.331-1.71,4.661-3.419,7.147-4.973c0.778-0.622,1.398-1.088,2.176-1.554
		c0.777-0.621,1.709-1.243,2.486-1.709c0.776-0.621,1.554-1.088,2.487-1.554c1.551-1.087,3.107-2.175,4.66-3.263
		c1.709-0.932,3.264-2.02,4.972-3.108c1.244-0.776,2.642-1.709,4.04-2.486c0.467-0.311,0.933-0.621,1.4-0.776
		c0-0.156,0.155-0.156,0.155-0.156c1.398-0.777,2.641-1.709,4.04-2.486c1.707-1.087,3.574-2.02,5.283-3.107
		c0.931-0.467,1.709-0.933,2.642-1.399c0.931-0.621,1.863-1.088,2.796-1.554c0.778-0.466,1.554-0.932,2.331-1.243
		c9.478-5.284,19.423-10.255,29.679-14.761c0.62-0.312,1.242-0.622,1.862-0.777c1.4-0.622,2.798-1.244,4.196-1.865
		c1.4-0.621,2.642-1.243,4.04-1.709c0.466-0.155,0.933-0.311,1.244-0.622c1.087-0.31,2.018-0.777,2.952-1.088
		c1.399-0.621,2.798-1.242,4.195-1.709c1.245-0.465,2.331-0.932,3.418-1.398c0.622-0.155,1.089-0.311,1.711-0.622
		c1.707-0.621,3.263-1.242,4.972-1.709c5.749-2.175,11.809-4.195,17.869-6.216c1.863-0.621,3.574-1.086,5.438-1.708
		c2.331-0.622,4.505-1.398,6.838-2.021c1.551-0.465,3.107-0.776,4.505-1.242c0.62-0.155,1.086-0.311,1.709-0.467
		c1.864-0.466,3.884-1.087,5.905-1.553c2.02-0.622,4.195-1.088,6.371-1.554c2.02-0.622,4.195-1.088,6.369-1.554
		c2.022-0.466,4.195-0.932,6.218-1.399c0.153-0.155,0.309-0.155,0.464-0.155c2.02-0.466,4.351-0.932,6.527-1.398
		c58.113-11.809,126.17-15.538,207.124-8.391c12.585,1.087,24.861,2.797,36.825,4.972
		c112.964,19.889,195.006,81.731,273.319,126.637c61.22,34.961,120.11,59.822,189.877,46.459c7.613-1.398,15.227-3.264,22.996-5.594
		c2.174-0.621,4.352-1.243,6.369-1.864c2.178-0.622,4.195-1.244,6.371-1.865c8.547-2.642,17.092-4.972,25.639-7.459
		c3.885-1.087,7.77-2.174,11.653-3.107c0.467-0.155,0.778-0.311,1.089-0.311c2.019-0.621,3.885-1.088,5.747-1.553
		c2.022-0.622,4.04-1.088,5.907-1.554c6.835-1.865,13.516-3.574,20.198-5.128c2.331-0.622,4.815-1.243,7.304-1.865
		c12.274-2.952,24.549-5.749,36.668-8.39c2.022-0.467,4.196-0.933,6.217-1.399c2.486-0.466,4.817-0.933,7.148-1.554
		c2.174-0.311,4.352-0.776,6.525-1.243c2.02-0.466,3.884-0.777,5.904-1.242c1.087-0.156,2.176-0.467,3.264-0.622
		c1.707-0.31,3.418-0.621,5.127-0.932c1.398-0.311,2.643-0.621,4.041-0.777c1.553-0.311,3.106-0.621,4.66-0.932
		c3.885-0.621,7.613-1.399,11.342-2.02c1.245-0.155,2.487-0.466,3.729-0.621c3.729-0.622,7.46-1.243,11.033-1.865
		c0.465,0,0.776-0.155,1.243-0.155c1.555-0.311,3.106-0.467,4.662-0.777c2.175-0.311,4.351-0.622,6.524-1.088
		c4.817-0.622,9.479-1.398,14.141-2.02c1.864-0.311,3.73-0.466,5.593-0.776c2.799-0.311,5.44-0.622,8.236-1.088h0.467
		c14.916-2.02,29.676-3.575,44.127-4.662c2.176-0.155,4.041-0.31,6.061-0.466c4.974-0.467,9.945-0.777,14.916-1.088
		c0.467-0.155,1.09-0.155,1.4-0.155c2.641-0.156,5.282-0.311,7.925-0.466c2.796-0.156,5.438-0.156,8.08-0.311
		c3.418-0.156,6.835-0.311,10.099-0.311c1.864-0.156,3.729-0.31,5.595-0.31c2.641,0,5.28-0.156,7.77-0.156
		c3.884-0.155,7.613-0.155,11.343-0.155c11.498,0,22.529,0.155,33.561,0.621c3.885,0.155,7.613,0.311,11.343,0.466
		c4.974,0.156,9.944,0.466,14.763,0.933c6.216,0.465,12.273,0.932,18.181,1.553c5.436,0.467,10.876,1.088,16.158,1.71
		c2.176,0.155,4.195,0.466,6.371,0.777c2.174,0.31,4.351,0.621,6.524,0.932c2.178,0.31,4.352,0.621,6.372,0.932
		c9.011,1.398,17.869,2.953,26.728,4.662c10.564,2.02,20.974,4.351,31.076,6.836c4.66,1.244,9.165,2.331,13.672,3.729
		c3.108,0.776,6.215,1.709,9.324,2.641c6.991,2.02,13.672,4.195,20.51,6.526c3.264,1.088,6.371,2.175,9.478,3.263
		c9.789,3.574,19.423,7.459,28.901,11.498l1.709,0.778c1.711,0.777,3.573,1.553,5.284,2.33c6.058,2.797,12.12,5.595,18.022,8.546
		c2.332,1.088,4.662,2.331,6.994,3.574c5.904,3.108,11.498,6.061,17.092,9.323c4.351,2.487,8.702,4.972,12.897,7.614
		c3.106,1.864,6.214,3.884,9.321,5.904c4.817,3.108,9.635,6.371,14.451,9.634c2.797,2.02,5.749,4.04,8.545,6.216
		c5.129,3.573,10.102,7.458,15.073,11.342c5.282,4.196,10.566,8.546,15.538,12.897c5.127,4.351,10.256,8.857,15.072,13.519
		c8.234,7.613,16.16,15.382,23.773,23.618c2.798,2.797,5.282,5.594,7.925,8.546c10.411,11.498,20.354,23.463,29.834,35.893
		c2.018,2.486,3.729,4.817,5.437,7.148c1.088,1.554,2.177,2.953,3.108,4.506c3.265,4.196,6.06,8.236,8.7,12.121l3.42,4.816
		c100.221,148.234,144.193,348.367,168.59,546.013C3072.725,1012.6,3074.125,1040.412,3074.28,1072.421z"/>
	<path style="fill:#AEC3FF;" d="M2539.454,217.352v1434.8H826.83V584.677c1.398-1.088,2.798-2.176,4.196-3.419
		c0.153-0.155,0.464-0.466,0.62-0.621c1.089-0.777,2.177-1.71,3.109-2.642c0.309-0.155,0.464-0.31,0.775-0.466
		c0.467-0.467,1.089-1.088,1.711-1.553c0.311-0.311,0.62-0.467,0.932-0.778c0.466-0.466,0.931-0.777,1.397-1.242
		c0.312-0.311,0.467-0.467,0.778-0.623c0.156-0.155,0.311-0.31,0.311-0.31c0.156-0.155,0.311-0.311,0.311-0.311
		c0.776-0.621,1.554-1.399,2.33-2.02c1.088-0.932,2.021-1.864,3.108-2.797c0.31-0.311,0.776-0.622,1.087-1.087
		c0.933-0.777,1.866-1.709,2.953-2.642c0.154-0.155,0.465-0.466,0.776-0.777c0.311-0.155,0.467-0.466,0.778-0.622
		c1.089-1.087,2.176-2.02,3.107-3.107c0.311-0.156,0.466-0.31,0.622-0.466c0.622-0.622,1.089-1.088,1.709-1.709
		c0.466-0.311,0.778-0.622,1.087-1.088c0.311-0.155,0.622-0.466,0.777-0.622c0.311-0.466,0.623-0.621,0.934-0.932
		c0.311-0.466,0.777-0.777,1.086-1.088c0.156-0.155,0.467-0.466,0.778-0.777c0.309-0.31,0.465-0.621,0.776-0.777
		c0.467-0.466,0.933-0.932,1.4-1.398c1.087-1.087,2.018-2.019,3.107-3.107c1.864-2.02,3.884-4.04,5.904-6.06
		c0-0.156,0.156-0.311,0.311-0.311c0.932-1.087,1.865-2.02,2.798-3.107l0.776-0.777c1.398-1.553,2.953-3.262,4.351-4.817
		c0.154-0.155,0.309-0.311,0.465-0.466c0.155-0.311,0.466-0.466,0.622-0.777c1.555-1.709,3.107-3.263,4.507-4.972
		c0.311-0.311,0.466-0.466,0.622-0.622l0.155-0.31c1.707-1.865,3.263-3.73,4.972-5.594c0.155-0.156,0.311-0.31,0.464-0.466
		c0.156-0.311,0.311-0.467,0.467-0.622c1.711-2.02,3.418-4.039,4.973-5.905c1.709-2.174,3.418-4.195,5.127-6.215
		c1.709-2.02,3.42-4.195,5.127-6.215c0.156-0.156,0.311-0.311,0.311-0.466c1.245-1.554,2.487-3.108,3.729-4.817
		c1.089-1.243,2.178-2.642,3.109-3.884c0.62-0.777,1.243-1.399,1.709-2.176c2.02-2.486,3.885-5.128,5.905-7.613
		c4.816-6.372,9.478-12.897,14.296-19.423c0.155-0.156,0.311-0.467,0.622-0.777c1.087-1.554,2.018-2.952,3.107-4.507
		c0.622-0.777,1.242-1.553,1.709-2.33c1.398-1.865,2.642-3.574,3.884-5.439c0.465-0.621,0.932-1.242,1.243-1.865
		c0.933-1.243,2.02-2.641,2.951-4.04c0.933-1.242,1.866-2.641,2.798-4.04c3.731-5.438,7.615-11.031,11.344-16.625
		c0.465-0.466,0.776-1.088,1.243-1.554c0.153-0.156,0.153-0.156,0.153-0.31c0.311-0.467,0.622-0.934,0.934-1.399
		c1.555-2.331,3.262-4.662,4.817-6.993c1.865-2.796,3.729-5.593,5.594-8.235c7.925-11.809,15.694-23.462,23.616-35.116
		c1.4-2.176,2.798-4.196,4.352-6.216c0-0.155,0.155-0.31,0.311-0.466c0.311-0.622,0.622-1.087,1.089-1.554
		c1.086-1.709,2.329-3.418,3.417-5.282c0.934-1.244,1.865-2.643,2.796-4.04c0.622-0.776,1.245-1.709,1.867-2.641
		c1.087-1.399,2.018-2.798,3.107-4.351c0.311-0.466,0.622-0.932,0.933-1.398c0.155-0.311,0.464-0.622,0.62-0.778
		c1.243-1.864,2.487-3.573,3.729-5.282c0.311-0.467,0.622-0.932,0.933-1.399c1.554-2.176,3.107-4.506,4.661-6.681
		c1.555-2.176,3.262-4.351,4.817-6.526c0-0.156,0-0.156,0-0.156c0.312-0.311,0.622-0.776,0.778-1.088l0.465-0.465
		c0.466-0.622,0.933-1.243,1.398-2.02c0.311-0.311,0.466-0.778,0.777-1.088c0.623-0.777,1.089-1.399,1.556-2.176
		c0.776-1.087,1.707-2.175,2.485-3.263c2.331-3.107,4.662-6.215,6.991-9.323c2.178-2.796,4.196-5.593,6.371-8.39
		c1.243-1.71,2.642-3.419,3.885-4.972c0.931-1.088,1.709-2.331,2.642-3.419c1.087-1.243,2.174-2.641,3.263-4.04
		c1.088-1.398,2.175-2.797,3.417-4.039c1.089-1.399,2.176-2.798,3.263-4.196c6.838-8.236,13.831-16.315,20.978-24.24
		c1.243-1.243,2.485-2.641,3.729-4.04c2.176-2.331,4.507-4.817,6.836-7.148c1.089-1.242,2.178-2.33,3.264-3.573l8.701-8.702
		c1.089-1.088,2.331-2.175,3.418-3.263c0.778-0.777,1.555-1.554,2.333-2.175c0.931-0.932,1.862-1.864,2.795-2.642
		c1.089-1.088,2.33-2.175,3.574-3.418c0.156-0.155,0.467-0.311,0.623-0.622c1.242-1.087,2.484-2.175,3.729-3.263
		c1.398-1.243,2.796-2.486,4.196-3.729c1.243-1.087,2.485-2.331,3.885-3.419c0.155-0.155,0.466-0.465,0.622-0.621
		c1.396-1.088,2.64-2.175,3.884-3.263c1.241-1.088,2.641-2.176,3.885-3.108c0.309-0.31,0.62-0.466,0.776-0.777
		c1.398-1.087,2.642-2.02,4.04-3.107c1.398-1.243,2.953-2.331,4.349-3.574c1.556-1.088,3.109-2.331,4.507-3.418
		c0.777-0.622,1.555-1.088,2.331-1.71c0.775-0.466,1.554-1.088,2.176-1.709c0.777-0.466,1.397-0.932,2.175-1.553
		c2.331-1.71,4.661-3.419,7.147-4.973c0.778-0.622,1.398-1.088,2.176-1.554c0.777-0.621,1.709-1.243,2.486-1.709
		c0.776-0.621,1.554-1.088,2.487-1.554c1.551-1.087,3.107-2.175,4.66-3.263c1.709-0.932,3.264-2.02,4.972-3.108
		c1.244-0.776,2.642-1.709,4.04-2.486c0.467-0.311,0.933-0.621,1.4-0.776c0-0.156,0.155-0.156,0.155-0.156
		c1.398-0.777,2.641-1.709,4.04-2.486c1.707-1.087,3.574-2.02,5.283-3.107c0.931-0.467,1.709-0.933,2.642-1.399
		c0.931-0.621,1.863-1.088,2.796-1.554c0.778-0.466,1.554-0.932,2.331-1.243c9.478-5.284,19.423-10.255,29.679-14.761
		c0.62-0.312,1.242-0.622,1.862-0.777c1.4-0.622,2.798-1.244,4.196-1.865c1.4-0.621,2.642-1.243,4.04-1.709
		c0.466-0.155,0.933-0.311,1.244-0.622c1.087-0.31,2.018-0.777,2.952-1.088c1.399-0.621,2.798-1.242,4.195-1.709
		c1.245-0.465,2.331-0.932,3.418-1.398c0.622-0.155,1.089-0.311,1.711-0.622c1.707-0.621,3.263-1.242,4.972-1.709
		c5.749-2.175,11.809-4.195,17.869-6.216c1.863-0.621,3.574-1.086,5.438-1.708c2.331-0.622,4.505-1.398,6.838-2.021
		c1.551-0.465,3.107-0.776,4.505-1.242c0.62-0.155,1.086-0.311,1.709-0.467c1.864-0.466,3.884-1.087,5.905-1.553
		c2.02-0.622,4.195-1.088,6.371-1.554c2.02-0.622,4.195-1.088,6.369-1.554c2.022-0.466,4.195-0.932,6.218-1.399
		c0.153-0.155,0.309-0.155,0.464-0.155c2.02-0.466,4.351-0.932,6.527-1.398c58.113-11.809,126.17-15.538,207.124-8.391
		c12.585,1.087,24.861,2.797,36.825,4.972c112.964,19.889,195.006,81.731,273.319,126.637
		c61.22,34.961,120.11,59.822,189.877,46.459c7.613-1.398,15.227-3.264,22.996-5.594c2.174-0.621,4.352-1.243,6.369-1.864
		c2.178-0.622,4.195-1.244,6.371-1.865c8.547-2.642,17.092-4.972,25.639-7.459c3.885-1.087,7.77-2.174,11.653-3.107
		c0.467-0.155,0.778-0.311,1.089-0.311c2.019-0.621,3.885-1.088,5.747-1.553c2.022-0.622,4.04-1.088,5.907-1.554
		c6.835-1.865,13.516-3.574,20.198-5.128c2.331-0.622,4.815-1.243,7.304-1.865c12.274-2.952,24.549-5.749,36.668-8.39
		c2.022-0.467,4.196-0.933,6.217-1.399c2.486-0.466,4.817-0.933,7.148-1.554c2.174-0.311,4.352-0.776,6.525-1.243
		c2.02-0.466,3.884-0.777,5.904-1.242c1.087-0.156,2.176-0.467,3.264-0.622c1.707-0.31,3.418-0.621,5.127-0.932
		c1.398-0.311,2.643-0.621,4.041-0.777c1.553-0.311,3.106-0.621,4.66-0.932c3.885-0.621,7.613-1.399,11.342-2.02
		c1.245-0.155,2.487-0.466,3.729-0.621c3.729-0.622,7.46-1.243,11.033-1.865c0.465,0,0.776-0.155,1.243-0.155
		c1.555-0.311,3.106-0.467,4.662-0.777c2.175-0.311,4.351-0.622,6.524-1.088c4.817-0.622,9.479-1.398,14.141-2.02
		c1.864-0.311,3.73-0.466,5.593-0.776c2.799-0.311,5.44-0.622,8.236-1.088h0.467c14.916-2.02,29.676-3.575,44.127-4.662
		c2.176-0.155,4.041-0.31,6.061-0.466c4.974-0.467,9.945-0.777,14.916-1.088c0.467-0.155,1.09-0.155,1.4-0.155
		c2.641-0.156,5.282-0.311,7.925-0.466c2.796-0.156,5.438-0.156,8.08-0.311c3.418-0.156,6.835-0.311,10.099-0.311
		c1.864-0.156,3.729-0.31,5.595-0.31c2.641,0,5.28-0.156,7.77-0.156c3.884-0.155,7.613-0.155,11.343-0.155
		c11.498,0,22.529,0.155,33.561,0.621c3.885,0.155,7.613,0.311,11.343,0.466c4.974,0.156,9.944,0.466,14.763,0.933
		c6.216,0.465,12.273,0.932,18.181,1.553c5.436,0.467,10.876,1.088,16.158,1.71c2.176,0.155,4.195,0.466,6.371,0.777
		c2.174,0.31,4.351,0.621,6.524,0.932C2535.26,216.73,2537.434,217.042,2539.454,217.352z"/>
	<path style="fill:#F99746;" d="M3074.264,1079.076c-0.247,150.404-28.667,387.596-89.84,545.116
		c-14.019,36.108-29.767,68.03-47.275,93.768c-16.837,24.727-35.313,43.729-55.471,55.245c-0.404,0.236-0.797,0.461-1.201,0.674
		c-0.719,0.415-1.437,0.797-2.166,1.179c-1.538,0.808-3.098,1.582-4.658,2.301l-179.565,1.224V994.03
		c-320.743-147.25-382.544-633.058-393.869-775.404c57.355-7.722,110.401-10.439,159.474-8.631
		c27.858,1.01,54.438,3.48,79.805,7.307c51.396,7.745,97.785,21.068,139.696,39.207c17.072,7.374,33.403,15.557,49.017,24.48
		c21.404,12.234,41.484,25.861,60.319,40.767c42.416,33.516,78.547,73.44,109.437,118.225l2.861,4.198l0.449,0.651
		c100.232,148.238,144.31,348.344,168.7,545.958c2.739,22.156,4.187,50.318,4.276,82.712
		C3074.264,1075.338,3074.264,1077.201,3074.264,1079.076z"/>
	<path style="fill:#F99746;" d="M1049.187,302.595c-17.218,92.039-53.192,242.926-121.963,387.012
		c-5.455,11.438-11.123,22.841-16.993,34.155c-24.076,46.345-51.733,91.41-83.453,132.962
		c-31.293,41.003-66.537,78.57-106.204,110.537v807.292l-65.673-0.247l-280.225-1.033l-3.502-0.011c0,0-14.558-11.954-35.715-35.02
		c-57.199-62.362-162.628-205.977-159.092-414.444c2.122-124.689,22.067-344.045,172.472-499.187c2.48-2.57,5.006-5.118,7.565-7.633
		c0.55-0.539,1.179-1.156,1.886-1.84c0.752-0.741,1.504-1.482,2.267-2.211c0.315-0.303,0.629-0.606,0.943-0.909
		c1.392-1.335,2.794-2.671,4.209-3.996c1.246-1.179,2.492-2.335,3.76-3.502c0.067-0.056,0.124-0.112,0.191-0.168
		c0.651-0.606,1.302-1.201,1.964-1.796c1.022-0.943,2.054-1.863,3.086-2.784c0.887-0.797,1.773-1.582,2.66-2.357
		c0.034-0.034,0.079-0.079,0.123-0.112c1.403-1.257,2.829-2.492,4.254-3.704c0.887-0.774,1.773-1.538,2.671-2.301
		c0.708-0.607,1.415-1.201,2.133-1.796c0.471-0.404,0.932-0.797,1.403-1.179c0.92-0.763,1.841-1.538,2.772-2.289
		c0.438-0.371,0.887-0.741,1.336-1.089c1.078-0.898,2.143-1.762,3.232-2.626c0.18-0.157,0.371-0.303,0.55-0.449
		c1.628-1.302,3.267-2.603,4.917-3.883c1.38-1.089,2.784-2.167,4.186-3.233c0.213-0.168,0.427-0.325,0.64-0.494
		c1.257-0.965,2.537-1.919,3.816-2.873c1.179-0.887,2.368-1.763,3.558-2.638c0.382-0.292,0.774-0.572,1.168-0.853
		c1.549-1.133,3.12-2.267,4.691-3.378c1.123-0.819,2.256-1.616,3.39-2.402c1.325-0.932,2.66-1.863,3.996-2.772
		c0.954-0.662,1.92-1.324,2.885-1.976c1.369-0.92,2.738-1.841,4.108-2.75c1.145-0.763,2.301-1.526,3.457-2.267
		c0.426-0.292,0.853-0.572,1.28-0.831c1.178-0.774,2.357-1.538,3.547-2.289c1.392-0.887,2.794-1.773,4.198-2.649
		c0.045-0.023,0.09-0.056,0.124-0.079c1.369-0.853,2.749-1.706,4.13-2.548c1.425-0.864,2.851-1.74,4.288-2.593
		c0.225-0.135,0.438-0.258,0.651-0.393c1.224-0.73,2.458-1.459,3.693-2.177c1.448-0.854,2.907-1.695,4.377-2.537
		c1.437-0.819,2.874-1.639,4.321-2.458c0.034-0.011,0.067-0.034,0.112-0.056c1.482-0.831,2.975-1.661,4.467-2.48
		c1.436-0.797,2.874-1.571,4.321-2.357c0.213-0.112,0.427-0.225,0.628-0.337c1.37-0.73,2.75-1.459,4.131-2.188
		c1.38-0.73,2.761-1.448,4.153-2.167c1.168-0.595,2.323-1.19,3.491-1.773c5.141-2.604,10.371-5.152,15.68-7.643
		c9.294-4.366,18.846-8.542,28.667-12.538c1.403-0.572,2.817-1.145,4.231-1.706c1.414-0.561,2.829-1.123,4.254-1.672
		c1.425-0.561,2.862-1.111,4.299-1.661c2.335-0.898,4.692-1.773,7.06-2.638c1.515-0.562,3.031-1.122,4.568-1.661
		c1.436-0.528,2.873-1.033,4.321-1.538c1.717-0.606,3.435-1.201,5.163-1.796c0.056-0.022,0.112-0.033,0.168-0.056
		c0.146-0.056,0.303-0.1,0.449-0.146c1.448-0.505,2.907-0.999,4.366-1.482c2.11-0.696,4.221-1.392,6.353-2.076
		c1.875-0.606,3.76-1.212,5.657-1.796c0.101-0.034,0.202-0.067,0.303-0.101c1.639-0.505,3.278-1.01,4.928-1.516
		c0.819-0.246,1.639-0.494,2.458-0.741c1.639-0.494,3.289-0.976,4.95-1.459c0.517-0.157,1.021-0.303,1.527-0.449
		c1.964-0.573,3.951-1.134,5.938-1.684c2.009-0.562,4.018-1.123,6.05-1.662c0.741-0.202,1.481-0.404,2.222-0.595
		c1.561-0.426,3.143-0.842,4.726-1.246c0.315-0.09,0.617-0.168,0.932-0.247c2.245-0.572,4.49-1.145,6.757-1.706
		c1.976-0.494,3.962-0.977,5.96-1.459c0.562-0.135,1.122-0.269,1.684-0.393c2.155-0.517,4.322-1.021,6.499-1.515
		c2.335-0.539,4.681-1.055,7.038-1.572c0.079-0.023,0.168-0.045,0.247-0.056c2.379-0.516,4.759-1.032,7.161-1.526
		c2.514-0.527,5.017-1.066,7.497-1.627c1.235-0.281,2.469-0.561,3.693-0.853c1.235-0.281,2.458-0.583,3.67-0.875
		c1.1-0.269,2.211-0.539,3.3-0.819c1.1-0.269,2.2-0.55,3.289-0.842c1.078-0.269,2.155-0.561,3.222-0.842
		c1.088-0.292,2.177-0.583,3.266-0.887c0.988-0.269,1.964-0.55,2.941-0.819c2.222-0.629,4.433-1.28,6.622-1.942
		c1.055-0.314,2.099-0.628,3.143-0.954c2.054-0.628,4.086-1.279,6.105-1.942c0.068-0.011,0.124-0.034,0.191-0.056
		c2.031-0.662,4.052-1.347,6.05-2.031c2.031-0.696,4.041-1.403,6.05-2.133c1.998-0.718,3.973-1.459,5.949-2.2
		c0.202-0.079,0.404-0.157,0.595-0.225c2.907-1.111,5.769-2.245,8.609-3.401c0.022,0,0.045-0.011,0.067-0.034
		c0.876-0.348,1.74-0.707,2.605-1.066c1.156-0.483,2.312-0.965,3.468-1.459c1.673-0.718,3.334-1.448,4.984-2.178
		c1.033-0.461,2.065-0.92,3.098-1.392c2.896-1.313,5.747-2.661,8.576-4.03c1.65-0.786,3.277-1.594,4.893-2.413
		c1.549-0.774,3.086-1.549,4.624-2.346c0.124-0.067,0.258-0.135,0.381-0.202c1.627-0.842,3.244-1.695,4.849-2.57
		c0.202-0.101,0.404-0.213,0.617-0.326c1.28-0.696,2.559-1.392,3.828-2.099c0.64-0.359,1.279-0.718,1.919-1.077
		c0.965-0.527,1.919-1.078,2.862-1.628c0.741-0.415,1.471-0.842,2.211-1.268c1.56-0.909,3.098-1.818,4.635-2.75
		c1.448-0.864,2.885-1.74,4.311-2.626c1.639-1.01,3.266-2.032,4.882-3.075c1.56-0.988,3.098-1.998,4.636-3.019
		c0.056-0.023,0.124-0.067,0.179-0.112c1.145-0.752,2.29-1.515,3.424-2.301c0.673-0.438,1.347-0.898,2.021-1.37
		c0.841-0.561,1.672-1.133,2.503-1.717c0.831-0.561,1.649-1.145,2.469-1.729c0.842-0.595,1.684-1.19,2.525-1.807
		c0.842-0.595,1.672-1.19,2.503-1.808c0.64-0.46,1.268-0.92,1.897-1.392c1.358-0.999,2.705-1.998,4.04-3.03
		c0.247-0.169,0.483-0.348,0.718-0.539c1.336-1.01,2.66-2.032,3.985-3.065c1.919-1.481,3.805-2.996,5.69-4.512
		c1.403-1.134,2.806-2.279,4.198-3.435c0.662-0.55,1.335-1.111,1.997-1.661c0.618-0.517,1.224-1.033,1.83-1.549
		c0.225-0.191,0.449-0.37,0.663-0.572c0.606-0.505,1.201-1.01,1.796-1.538c0.292-0.247,0.583-0.494,0.876-0.752
		c0.494-0.427,0.998-0.853,1.493-1.291c0.225-0.202,0.46-0.393,0.685-0.606c0.135-0.112,0.281-0.236,0.416-0.359
		c0.101-0.09,0.19-0.168,0.292-0.258c0.763-0.662,1.516-1.335,2.268-2.009c1.044-0.932,2.087-1.875,3.131-2.817
		c0.371-0.326,0.741-0.662,1.1-0.999c0.954-0.875,1.908-1.751,2.851-2.626c0.292-0.27,0.595-0.55,0.886-0.819
		c0.258-0.247,0.505-0.483,0.764-0.718c1.055-0.988,2.11-1.987,3.154-2.986c0.18-0.168,0.348-0.337,0.528-0.505
		c0.595-0.573,1.19-1.145,1.784-1.717c0.371-0.359,0.741-0.707,1.1-1.066c0.247-0.236,0.494-0.483,0.752-0.73
		c0.314-0.314,0.628-0.618,0.942-0.932c0.337-0.326,0.674-0.651,0.999-0.976c0.258-0.258,0.517-0.505,0.763-0.763
		c0.303-0.292,0.595-0.595,0.898-0.887c0.46-0.461,0.921-0.92,1.37-1.381c1.021-1.01,2.02-2.02,3.008-3.042
		c1.998-2.032,3.985-4.086,5.949-6.162c0.089-0.09,0.179-0.191,0.269-0.281c0.965-1.021,1.931-2.043,2.896-3.086
		c0.236-0.247,0.46-0.483,0.685-0.73c1.504-1.616,2.997-3.232,4.479-4.871c0.135-0.146,0.258-0.281,0.393-0.427
		c0.225-0.247,0.449-0.505,0.673-0.752c1.515-1.672,3.031-3.356,4.523-5.051c0.168-0.191,0.336-0.382,0.505-0.572l0.202-0.236
		c1.661-1.886,3.311-3.771,4.95-5.68c0.157-0.179,0.314-0.359,0.46-0.527c0.18-0.213,0.348-0.416,0.527-0.617
		c1.684-1.964,3.345-3.929,5.006-5.916c1.706-2.042,3.412-4.085,5.096-6.151c1.684-2.054,3.367-4.13,5.028-6.207
		c1.672-2.076,3.322-4.164,4.972-6.263c1.328-1.69,2.644-3.388,3.959-5.087c1.958-2.525,3.912-5.05,5.828-7.596
		c4.838-6.398,9.608-12.852,14.322-19.362c0.213-0.292,0.426-0.583,0.64-0.875c1.055-1.459,2.11-2.93,3.165-4.4
		c0.573-0.797,1.134-1.594,1.707-2.391c1.291-1.807,2.57-3.614,3.85-5.433c0.449-0.606,0.875-1.224,1.302-1.841
		c0.943-1.336,1.886-2.683,2.817-4.029c0.954-1.347,1.897-2.694,2.84-4.052c3.838-5.511,7.655-11.056,11.448-16.612
		c0.371-0.539,0.752-1.089,1.123-1.639c0.056-0.079,0.112-0.168,0.18-0.258c0-0.011,0-0.022,0.011-0.022c0-0.011,0-0.011,0-0.011
		c0.325-0.471,0.651-0.943,0.977-1.425c1.583-2.324,3.165-4.647,4.748-6.981c1.874-2.761,3.738-5.522,5.601-8.284
		c7.891-11.673,15.77-23.391,23.706-35.076c1.403-2.065,2.806-4.119,4.22-6.185c0.123-0.18,0.236-0.348,0.359-0.527
		c0.348-0.517,0.707-1.033,1.055-1.549c1.179-1.718,2.357-3.435,3.536-5.152c0.932-1.358,1.863-2.705,2.806-4.063
		c0.595-0.876,1.201-1.751,1.808-2.615c1.01-1.47,2.031-2.93,3.053-4.4c0.336-0.471,0.662-0.954,0.999-1.425
		c0.19-0.281,0.393-0.562,0.595-0.854c1.212-1.739,2.436-3.479,3.659-5.219c0.337-0.472,0.673-0.943,1.01-1.426
		c1.56-2.211,3.131-4.411,4.703-6.622c1.572-2.2,3.154-4.4,4.737-6.589c0.034-0.056,0.079-0.101,0.101-0.146
		c0.258-0.348,0.505-0.696,0.763-1.033c0.101-0.157,0.213-0.314,0.337-0.471c0.482-0.673,0.965-1.336,1.459-2.009
		c0.27-0.37,0.539-0.752,0.819-1.123c0.528-0.729,1.066-1.459,1.594-2.188c0.786-1.066,1.572-2.122,2.357-3.176
		C1044.45,308.88,1046.807,305.737,1049.187,302.595z"/>
	<path style="fill:#ED7D2B;" d="M2984.424,1624.192c-14.019,36.108-29.767,68.03-47.275,93.768
		c-16.837,24.727-35.313,43.729-55.471,55.245c-0.404,0.236-0.797,0.461-1.201,0.674l-114.555-105.699V971.985
		c-204.786-157.61-283.108-593.953-306.23-761.991c27.858,1.01,54.438,3.48,79.805,7.307c51.396,7.745,97.785,21.068,139.696,39.207
		l49.017,24.48c-90.378,268.439,126.127,681.569,126.127,681.569l54.089,275.118v0.022L2984.424,1624.192z"/>
	<path style="fill:#ED7D2B;" d="M3074.264,1079.076c-0.247,150.404-28.667,387.596-89.84,545.116
		c-14.019,36.108-29.767,68.03-47.275,93.768c-21.203-12.863-35.873-22.18-35.873-22.18l7.149-458.083v-0.022l-90.871-300.538
		c-113.141-190.722-143.67-511.222-89.345-656.149c79.617,38.671,138.866,114.207,169.756,158.991l2.861,4.198l0.449,0.651
		c100.232,148.238,144.31,348.344,168.7,545.958c2.739,22.156,4.187,50.318,4.276,82.712
		C3074.264,1075.338,3074.264,1077.201,3074.264,1079.076z"/>
	<path style="opacity:0.3;fill:#FFFFFF;" d="M1739.546,1407.271h-692.539l6.992-58.269l13.207-108.302l130.988-1079.596
		c0-0.156,0.155-0.156,0.155-0.156c1.398-0.777,2.641-1.709,4.04-2.486c1.707-1.087,3.574-2.02,5.283-3.107
		c0.931-0.467,1.709-0.933,2.642-1.399c0.931-0.621,1.863-1.088,2.796-1.554c0.778-0.466,1.554-0.932,2.331-1.243
		c9.478-5.284,19.423-10.255,29.679-14.761c0.62-0.312,1.242-0.622,1.862-0.777c1.4-0.622,2.798-1.244,4.196-1.865
		c1.4-0.621,2.642-1.243,4.04-1.709c0.466-0.155,0.933-0.311,1.244-0.622c1.087-0.31,2.018-0.777,2.952-1.088
		c1.399-0.621,2.798-1.242,4.195-1.709c1.245-0.465,2.331-0.932,3.418-1.398c0.622-0.155,1.089-0.311,1.711-0.622
		c1.707-0.621,3.263-1.242,4.972-1.709c5.749-2.175,11.809-4.195,17.869-6.216c1.863-0.621,3.574-1.086,5.438-1.708
		c2.331-0.622,4.505-1.398,6.838-2.021c1.551-0.465,3.107-0.776,4.505-1.242c0.62-0.155,1.086-0.311,1.709-0.467
		c1.864-0.466,3.884-1.087,5.905-1.553c2.02-0.622,4.195-1.088,6.371-1.554c2.02-0.622,4.195-1.088,6.369-1.554
		c2.022-0.466,4.195-0.932,6.218-1.399c0.153-0.155,0.309-0.155,0.464-0.155c2.02-0.466,4.351-0.932,6.527-1.398
		c58.113-11.809,126.17-15.538,207.124-8.391c12.585,1.087,24.861,2.797,36.825,4.972l137.049,1163.503l2.174,19.268l1.399,11.965
		l1.554,12.274v0.155l3.884,33.252l0.776,6.371l3.573,29.989L1739.546,1407.271z"/>
	<path style="fill:#ED7D2B;" d="M967.115,420.617c-42.843,126.823-91.298,220.927-140.337,291.64
		c-0.404,0.572-0.796,1.145-1.189,1.717c-1.875,2.683-3.749,5.343-5.624,7.958C698.968,890.991,575.95,920.556,526.754,950.761
		l-152.078,822.512l-3.502-0.011c0,0-14.558-11.954-35.715-35.02c-57.199-62.362-162.628-205.977-159.092-414.444
		c2.122-124.689,22.067-344.045,172.472-499.187c2.48-2.57,5.006-5.118,7.565-7.633c0.55-0.539,1.179-1.156,1.886-1.84
		c0.168-0.168,0.348-0.337,0.527-0.505c3.974-3.816,10.259-9.675,18.554-17.218c0.034-0.034,0.079-0.079,0.123-0.112
		c1.403-1.257,2.829-2.492,4.254-3.704c0.887-0.774,1.773-1.538,2.671-2.301c0.708-0.607,1.415-1.201,2.133-1.796
		c0.471-0.404,0.932-0.797,1.403-1.179c0.92-0.763,1.841-1.538,2.772-2.289c0.438-0.371,0.887-0.741,1.336-1.089
		c1.078-0.898,2.143-1.762,3.232-2.626c0.18-0.157,0.371-0.303,0.55-0.449c1.628-1.302,3.267-2.603,4.917-3.883
		c1.38-1.089,2.784-2.167,4.186-3.233c0.213-0.168,0.427-0.325,0.64-0.494c1.257-0.965,2.537-1.919,3.816-2.873
		c1.179-0.887,2.368-1.763,3.558-2.638c0.382-0.292,0.774-0.572,1.168-0.853c1.549-1.133,3.12-2.267,4.691-3.378
		c1.123-0.819,2.256-1.616,3.39-2.402c1.325-0.932,2.66-1.863,3.996-2.772c0.954-0.662,1.92-1.324,2.885-1.976
		c1.369-0.92,2.738-1.841,4.108-2.75c1.145-0.763,2.301-1.526,3.457-2.267c0.426-0.292,0.853-0.572,1.28-0.831
		c1.178-0.774,2.357-1.538,3.547-2.289c1.392-0.887,2.794-1.773,4.198-2.649c0.045-0.023,0.09-0.056,0.124-0.079
		c1.369-0.853,2.749-1.706,4.13-2.548c1.425-0.864,2.851-1.74,4.288-2.593c0.225-0.135,0.438-0.258,0.651-0.393
		c1.224-0.73,2.458-1.459,3.693-2.177c1.448-0.854,2.907-1.695,4.377-2.537c1.437-0.819,2.874-1.639,4.321-2.458
		c0.034-0.011,0.067-0.034,0.112-0.056c1.482-0.831,2.975-1.661,4.467-2.48c1.436-0.797,2.874-1.571,4.321-2.357
		c0.213-0.112,0.427-0.225,0.628-0.337c1.37-0.73,2.75-1.459,4.131-2.188c1.38-0.73,2.761-1.448,4.153-2.167
		c1.168-0.595,2.323-1.19,3.491-1.773c5.141-2.615,10.36-5.163,15.68-7.643c9.294-4.366,18.846-8.542,28.667-12.538
		c1.403-0.572,2.817-1.145,4.231-1.706c1.414-0.561,2.829-1.123,4.254-1.672c1.425-0.561,2.862-1.111,4.299-1.661
		c2.335-0.898,4.692-1.773,7.06-2.638c1.515-0.562,3.031-1.122,4.568-1.661c1.436-0.528,2.873-1.033,4.321-1.538
		c1.717-0.606,3.435-1.201,5.163-1.796c0.056-0.022,0.112-0.033,0.168-0.056c0.146-0.056,0.303-0.1,0.449-0.146
		c1.448-0.505,2.907-0.999,4.366-1.482c2.11-0.696,4.221-1.392,6.353-2.076c1.875-0.606,3.76-1.212,5.657-1.796
		c0.101-0.034,0.202-0.067,0.303-0.101c1.639-0.505,3.278-1.01,4.928-1.516c0.819-0.246,1.639-0.494,2.458-0.741
		c1.639-0.494,3.289-0.976,4.95-1.459c0.517-0.157,1.021-0.303,1.527-0.449c1.964-0.573,3.951-1.134,5.938-1.684
		c2.009-0.562,4.018-1.123,6.05-1.662c0.741-0.202,1.481-0.404,2.222-0.595c1.561-0.426,3.143-0.842,4.726-1.246
		c0.315-0.09,0.617-0.168,0.932-0.247c2.245-0.572,4.49-1.145,6.757-1.706c1.976-0.494,3.962-0.977,5.96-1.459
		c0.562-0.135,1.122-0.269,1.684-0.393c2.155-0.517,4.322-1.021,6.499-1.515c2.335-0.539,4.681-1.055,7.038-1.572
		c0.079-0.023,0.168-0.045,0.247-0.056c2.379-0.516,4.759-1.032,7.161-1.526c2.514-0.527,5.017-1.066,7.497-1.627
		c1.235-0.281,2.469-0.561,3.693-0.853c1.235-0.281,2.458-0.583,3.67-0.875c1.1-0.269,2.211-0.539,3.3-0.819
		c1.1-0.269,2.2-0.55,3.289-0.842c1.078-0.269,2.155-0.561,3.222-0.842c1.088-0.292,2.177-0.583,3.266-0.887
		c0.988-0.269,1.964-0.55,2.941-0.819c2.222-0.629,4.433-1.28,6.622-1.942c1.055-0.314,2.099-0.628,3.143-0.954
		c2.054-0.628,4.086-1.279,6.105-1.942c0.068-0.011,0.124-0.034,0.191-0.056c2.031-0.662,4.052-1.347,6.05-2.031
		c2.031-0.696,4.041-1.403,6.05-2.133c1.998-0.718,3.973-1.459,5.949-2.2c0.202-0.079,0.404-0.157,0.595-0.225
		c2.907-1.111,5.769-2.245,8.609-3.401c0.022,0,0.045-0.011,0.067-0.034c0.876-0.348,1.74-0.707,2.605-1.066
		c1.156-0.483,2.312-0.965,3.468-1.459c1.673-0.718,3.334-1.448,4.984-2.178c1.033-0.461,2.065-0.92,3.098-1.392
		c2.896-1.313,5.747-2.661,8.576-4.03c1.65-0.786,3.277-1.594,4.893-2.413c1.549-0.763,3.098-1.549,4.624-2.346
		c0.124-0.067,0.258-0.135,0.381-0.202c1.627-0.842,3.244-1.695,4.849-2.57c0.202-0.101,0.404-0.213,0.617-0.326
		c1.28-0.696,2.559-1.392,3.828-2.099c0.64-0.359,1.279-0.718,1.919-1.077c0.965-0.527,1.919-1.078,2.862-1.628
		c0.741-0.415,1.471-0.842,2.211-1.268c1.56-0.909,3.098-1.818,4.635-2.75c1.448-0.864,2.885-1.74,4.311-2.626
		c1.639-1.01,3.266-2.032,4.882-3.075c1.56-0.988,3.098-1.998,4.636-3.019c0.056-0.023,0.124-0.067,0.179-0.112
		c1.145-0.752,2.29-1.515,3.424-2.301c0.673-0.438,1.347-0.898,2.021-1.37c0.841-0.561,1.672-1.133,2.503-1.717
		c0.831-0.561,1.649-1.145,2.469-1.729c0.842-0.595,1.684-1.19,2.525-1.807c0.842-0.595,1.672-1.19,2.503-1.808
		c0.64-0.46,1.268-0.92,1.897-1.392c1.358-0.999,2.705-1.998,4.04-3.03c0.247-0.169,0.483-0.348,0.718-0.539
		c1.336-1.01,2.66-2.032,3.985-3.065c1.919-1.481,3.805-2.996,5.69-4.512c1.415-1.134,2.806-2.29,4.198-3.435
		c0.247-0.202,0.494-0.416,0.741-0.629c1.032-0.842,2.065-1.706,3.086-2.581c0.225-0.191,0.449-0.37,0.663-0.572
		c0.606-0.505,1.201-1.01,1.796-1.538c0.292-0.247,0.583-0.494,0.876-0.752c0.494-0.427,0.998-0.853,1.493-1.291
		c0.225-0.202,0.46-0.393,0.685-0.606c0.135-0.112,0.281-0.236,0.416-0.359c0.101-0.09,0.19-0.168,0.292-0.258
		c0.763-0.662,1.516-1.335,2.268-2.009c1.044-0.932,2.087-1.875,3.131-2.817c0.371-0.326,0.741-0.662,1.1-0.999
		c0.954-0.875,1.908-1.751,2.851-2.626c0.292-0.27,0.595-0.55,0.886-0.819c0.258-0.247,0.505-0.483,0.764-0.718
		c1.055-0.988,2.11-1.987,3.154-2.986c0.18-0.168,0.348-0.337,0.528-0.505c0.595-0.573,1.19-1.145,1.784-1.717
		c0.371-0.359,0.741-0.707,1.1-1.066c0.247-0.236,0.494-0.483,0.752-0.73c0.314-0.314,0.628-0.618,0.942-0.932
		c0.337-0.326,0.674-0.651,0.999-0.976c0.258-0.258,0.517-0.505,0.763-0.763c0.303-0.292,0.595-0.595,0.898-0.887
		c0.46-0.461,0.921-0.92,1.37-1.381c1.021-1.01,2.02-2.02,3.008-3.042c1.998-2.032,3.985-4.086,5.949-6.162
		c0.089-0.09,0.179-0.191,0.269-0.281c0.965-1.021,1.931-2.043,2.896-3.086c0.236-0.247,0.46-0.483,0.685-0.73
		c1.504-1.616,2.997-3.232,4.479-4.871c0.135-0.146,0.258-0.281,0.393-0.427c0.225-0.247,0.449-0.505,0.673-0.752
		c1.515-1.672,3.031-3.356,4.523-5.051c0.168-0.191,0.336-0.382,0.505-0.572l0.202-0.236c1.661-1.886,3.311-3.771,4.95-5.68
		c0.157-0.179,0.314-0.359,0.46-0.527c0.18-0.213,0.348-0.416,0.527-0.617c1.684-1.964,3.345-3.929,5.006-5.916
		c1.706-2.042,3.412-4.085,5.096-6.151c1.684-2.054,3.367-4.13,5.028-6.207c1.672-2.076,3.322-4.164,4.972-6.263
		c1.328-1.69,2.644-3.388,3.959-5.087c1.958-2.525,3.912-5.05,5.828-7.596c4.838-6.398,9.608-12.852,14.322-19.362
		c0.213-0.292,0.426-0.583,0.64-0.875c1.055-1.459,2.11-2.93,3.165-4.4c0.573-0.797,1.134-1.594,1.707-2.391
		c1.291-1.807,2.57-3.614,3.85-5.433c0.449-0.606,0.875-1.224,1.302-1.841c0.943-1.336,1.886-2.683,2.817-4.029
		c0.954-1.347,1.897-2.694,2.84-4.052c3.838-5.511,7.655-11.056,11.448-16.612c0.371-0.539,0.752-1.089,1.123-1.639
		C966.991,420.797,967.047,420.707,967.115,420.617z"/>
	<path style="fill:#F99746;" d="M348.839,1285.36c11.37-19.524,112.908-332.899,119.642-322.808
		c6.734,10.091-50.506,321.387-50.506,321.387L348.839,1285.36z"/>
	<path style="opacity:0.3;fill:#FFFFFF;" d="M2408.621,1407.271h-692.538l0.775-5.904l6.373-52.364l2.329-20.355l2.487-19.423
		l2.642-22.22l0.156-1.088l5.436-45.371l9.324-76.604l7.614-62.464l42.886-352.873l3.262-27.192l59.824-492.563
		c61.22,34.961,120.11,59.822,189.877,46.459c7.613-1.398,15.227-3.264,22.996-5.594c2.174-0.621,4.352-1.243,6.369-1.864
		c2.178-0.622,4.195-1.244,6.371-1.865c8.547-2.642,17.092-4.972,25.639-7.459c3.885-1.087,7.77-2.174,11.653-3.107
		c0.467-0.155,0.778-0.311,1.089-0.311c2.019-0.621,3.885-1.088,5.747-1.553c2.022-0.622,4.04-1.088,5.907-1.554
		c6.835-1.865,13.516-3.574,20.198-5.128c2.331-0.622,4.815-1.243,7.304-1.865c12.274-2.952,24.549-5.749,36.668-8.39
		c2.022-0.467,4.196-0.933,6.217-1.399c2.486-0.466,4.817-0.933,7.148-1.554c2.174-0.311,4.352-0.776,6.525-1.243
		c2.02-0.466,3.884-0.777,5.904-1.242c1.087-0.156,2.176-0.467,3.264-0.622c1.707-0.31,3.418-0.621,5.127-0.932
		c1.398-0.311,2.643-0.621,4.041-0.777c1.553-0.311,3.106-0.621,4.66-0.932c3.885-0.621,7.613-1.399,11.342-2.02
		c1.245-0.155,2.487-0.466,3.729-0.621c3.729-0.622,7.46-1.243,11.033-1.865c0.465,0,0.776-0.155,1.243-0.155l132.541,1125.745
		l0.155,0.933L2408.621,1407.271z"/>
	<g>
		<path style="fill:#FFB27D;" d="M1771.711,726.094c0,0-10.514-7.997-15.243-9.496c-4.729-1.498-13.884-8.583-15.078-5.663
			c-1.193,2.921,6.152,7.421,5.765,10.759c-0.387,3.338-23.355,8.694-23.214,12.226c0.142,3.532,5.404,12.067,14.164,11.087
			c8.761-0.98,30.978-6.252,35.541-3.975C1778.208,743.31,1771.711,726.094,1771.711,726.094z"/>
		<path style="fill:#22407A;" d="M2006.868,676.85c-12.968,17.422-28.153,31.181-43.753,42.027
			c-49.586,34.497-103.377,39.636-103.377,39.636c-21.471,0.861-52.487-8.436-75.888-12.206h-0.01
			c-10.2-1.639-14.689-2.863-14.689-2.863s-3.887-3.603-2.77-13.453c0.243-2.142,3.054-5.604,3.054-5.604
			s83.082-7.555,97.303-14.151c22.427-19.322,42.239-44.408,55.149-64.009c10.904-16.554,17.456-26.774,20.712-28.019
			C1971.456,607.18,2047.131,622.761,2006.868,676.85z"/>
		<path style="fill:#233862;" d="M1911.423,1351.961h94.914c6.8-4.611-1.835-49.699-1.835-49.699s-25.904-9.829-30.378,10.159
			c-4.487,19.974-32.995,26.325-48.082,28.762C1915.718,1342.861,1912.455,1348.533,1911.423,1351.961z"/>
		<path style="fill:#233862;" d="M2052.188,1351.961h94.914c6.8-4.611-1.835-49.699-1.835-49.699s-25.904-9.829-30.378,10.159
			c-4.487,19.974-32.995,26.325-48.082,28.762C2056.483,1342.861,2053.221,1348.533,2052.188,1351.961z"/>
		<path style="fill:#233862;" d="M1936.96,891.993c0,0,4.266,53.226,9.279,117.207c6.815,86.912,25.197,302.4,25.197,302.4
			s12.05,10.281,38.742,4.656c0,0,22.721-74.339,29.515-159.187c0.105-1.391,0.211-2.791,0.316-4.192
			c6.32-86.375,16.147-268.258,16.147-268.258L1936.96,891.993z"/>
		<path style="fill:#2B478B;" d="M1962.742,873.601c0,0,67.778,168.715,89.446,232.669c15.435,45.555,58.962,205.363,58.962,205.363
			s18.929,5.761,34.836-5.374c0,0,16.194-163.271-16.517-209.31c-17.354-24.425-4.313-253.903-74.679-255.867
			C1984.425,839.118,1962.742,873.601,1962.742,873.601z"/>
		<path style="fill:#FFB27D;" d="M1993.018,624.885c10.347,5.45,20.445,5.79,29.199,3.931c8.009-1.685,14.886-5.219,19.783-8.349
			c5.026-3.213,7.981-6.011,7.981-6.011s-0.351-0.506-0.939-1.501c-3.056-5.229-12.326-24.026-8.202-54.23
			c0.056-0.396-2.937,0.166-7.456,1.233c-13.449,3.185-40.486,10.854-41.683,11.194c-0.028,0-0.047,0-0.047,0
			s-0.331,6.352-1.444,17.739c-0.093,1.003-0.194,2.053-0.304,3.139c-0.139,1.335-0.276,2.752-0.442,4.207
			C1988.212,608.076,1993.018,624.885,1993.018,624.885z"/>
		<path style="fill:#ED975D;" d="M1990.21,588.892c20.077,4.602,50.041-25.039,50.041-25.039c-2.191-1.629-4.492-2.918-6.867-3.894
			c-13.449,3.185-40.486,10.854-41.683,11.194c-0.028,0-0.047,0-0.047,0S1991.323,577.504,1990.21,588.892z"/>
		<path style="fill:#FFB27D;" d="M1983.389,569.548c0,0,8.256,2.962,18.781,4.378c15.392,2.078,35.631,0.853,41.989-17.771
			c10.71-31.346,24.39-50.14-7.126-62.94c-16.87-6.852-27.664-7.216-34.994-4.6c-6.369,2.256-10.124,6.765-12.967,11.225
			C1982.952,509.435,1970.641,564.06,1983.389,569.548z"/>
		<path style="fill:#163560;" d="M1964.266,502.316c18.248,13.116,43.491,0.221,51.338,3.712c7.838,3.482,9.246,16.629,9.387,20.802
			c0.142,4.181,0.691,7.706,11.335,5.205c1.744-0.408,3.002-0.288,3.865,0.231c4.416,2.619-1.227,15.317-2.929,18.065
			c0,0-2.449,9.095,2.986,13.523c0.657,0.529,11.334,5.196,37.064-34.18c4.044-6.181,7.905-20.105,1.659-33.511
			c-6.237-13.406-32.315-26.365-54.427-33.232c-8.288-2.576-14.432-2.481-19.238-0.718c-8.017,2.93-12.291,10.507-16.533,18.117
			C1981.661,493.116,1964.266,502.316,1964.266,502.316z"/>
		<path style="fill:#E9F3FE;" d="M2100.387,866.363c1.423,10.911-9.146,16.827-18.715,19.034c0,0-8.829,1.9-19.99,3.788
			c-10.922,1.843-24.097,3.641-33.403,3.584c-47.591-0.376-87.411-14.392-87.411-14.392c-8.953,0-13.038-13.857-14.506-33.188
			c-0.989-13.095-0.773-28.705-0.068-44.234c0.228-5.029,0.523-10.058,0.831-14.984c0.626-9.773,1.354-19.159,2.025-27.453
			c0.625-7.793,1.194-14.62,1.535-19.91c0-0.011,7.013-44.105,7.513-76.701c0.354-23.38,5.196-37.617,8.484-41.076
			c9.522-10.08,37.123-16.462,42.652-17.339c0.421-0.057,0.638-0.091,0.638-0.091c22.697,12.743,53.268-4.482,53.268-4.482
			c0.694,0.125,1.365,0.284,2.037,0.432c0.647-0.136,4.13,0.079,9.033,0.773c12.014,1.729,32.642,6.303,41.311,15.291
			c4.368,4.528,5.268,18.682,4.835,33.62c-0.603,20.82-3.788,43.154-3.788,43.154c0.683,16.781,0.888,36.691,0.979,57.171
			c0.125,33.335-0.046,68.161,1.001,93.43C2099.033,852.142,2099.591,860.185,2100.387,866.363z"/>
		<path style="fill:#FFB27D;" d="M2165.408,898.564c0,0,16.372,25.703,17.29,35.541c0.624,6.689-0.878,33.057-4.215,33.149
			c-4.714,0.129-9.427-16.273-11.251-20.53c-1.824-4.257-3.952-7.602-5.777-7.602c-1.824,0,3.953,16.419,0,14.595
			c-3.952-1.824-10.642-17.017-11.25-20.671c-0.607-3.654,3.568-15.342,1.53-19.943
			C2149.697,908.502,2165.408,898.564,2165.408,898.564z"/>
		<g>
			<g>
				<path style="fill:#22407A;" d="M1971.24,839.847c0.646,7.832,3.646,15.155,8.414,20.538l7.494,8.461
					c1.881,2.125,4.805,1.868,6.347-0.55l9.045-14.188c2.427-3.805,3.536-8.642,3.113-13.503
					c-0.964-10.828-2.765-31.691-4.24-51.822c-1.199-16.312-2.188-32.157-2.345-41.791c-0.498-30.76,3.532-128.782,3.532-128.782
					l-6.012,0.314c0,0-14.571,37.895-21.894,89.605c-1.807,12.729-3.164,26.286-3.768,40.334
					C1970.928,748.462,1968.332,804.444,1971.24,839.847z"/>
			</g>
			<path style="fill:#D9E9F9;" d="M2049.506,600.51c0.042-2.609-10.271-5.837-10.271-5.837s-14.133,19.595-37.417,19.934
				c0,0,6.635,12.914,14.455,16.257C2016.272,630.864,2049.194,619.508,2049.506,600.51z"/>
			<path style="fill:#D9E9F9;" d="M2001.817,614.149c0,0-12.335-7.313-12.378-15.24c0,0-7.104,1.141-10.584,5.004
				c0,0-3.786,11.448,0.094,19.339C1978.949,623.252,1996.711,620.546,2001.817,614.149z"/>
			<path style="fill:#233862;" d="M2010.19,612.973l-16.726-4.008c0,0-2.186,0.189-2.125,2.914s4.711,10.686,6.771,11.322
				C2000.17,623.836,2014.147,618.485,2010.19,612.973z"/>
			<path style="fill:#E9F3FE;" d="M2049.504,599.537c0.129-2.607-8.228-7.978-8.228-7.978s-16.175,18.905-39.459,19.244
				c0,0,6.635,12.914,14.455,16.257C2016.272,627.06,2048.734,615.017,2049.504,599.537z"/>
			<path style="fill:#E9F3FE;" d="M2001.817,610.802c0,0-12.476-6.613-12.518-14.541c0,0-7.53,3.314-11.01,7.177
				c0,0-3.221,8.576,0.659,16.467C1978.949,619.905,1996.711,617.199,2001.817,610.802z"/>
		</g>
		<path style="fill:#22407A;" d="M2117.476,908.118c0,0-18.888,12.131-52.472,13.418c-13.174,0.505-52.472-2.917-52.472-2.917
			l0.66-101.394l29.08-207.918l14.836-0.66c-0.968-2.947-1.923-5.848-2.799-8.522c12.014,1.729,32.642,6.303,41.311,15.291
			c3.766,3.903,4.949,14.973,4.927,27.533l8.021,125.65l5.483,85.83L2117.476,908.118z"/>
		<path style="fill:#22407A;" d="M1962.742,803.609v107.08L1921.891,905c0,0-2.57-164.002-2.634-203.083
			c-0.063-39.081,23.343-83.708,23.343-83.708s11.287-7.693,31.506-14.612L1962.742,803.609z"/>
		<path style="fill:#233862;" d="M2114.532,862.025c0,0-46.252-133.372-46.559-140.198l29.888,12.139l10.706,34.632
			L2114.532,862.025L2114.532,862.025z"/>
		<path style="fill:#233862;" d="M1981.696,600.862c0,0-14.363,62.582-15.501,141.969c-0.262,18.25-2.757,55.31-3.453,66.079
			c0,0-18.69-89.683-19.071-115.648c0,0,12.066-8.847,12.066-11.824c0-2.978-13.138-10.669-13.138-10.669
			s9.898-50.826,15.508-57.215C1964.934,605.78,1981.696,600.862,1981.696,600.862z"/>
		<path style="fill:#22407A;" d="M2091.244,611.842c0,0,23.387,10.45,41.934,87.81c13.983,58.322,40.744,207.24,40.744,207.24
			l-22.638,9.312c0,0-82.902-190.332-94.761-217.098C2044.665,672.34,2091.244,611.842,2091.244,611.842z"/>
		<path style="fill:#233862;" d="M2045.646,594.673c0,0-38.597,161.659-32.454,222.556c0,0,14.192-65.075,48.342-118.379
			c0,0-12.464-10.961-11.786-15.002c0,0,9.251-2.743,18.226-0.896c0,0-2.932-73.292-6.838-81.673
			C2058.796,596.261,2045.646,594.673,2045.646,594.673z"/>
		<path style="fill:#FFFFFF;" d="M1992.651,552.587c-0.531,2.563-2.445,4.334-4.273,3.955c-1.829-0.379-2.882-2.765-2.351-5.328
			c0.531-2.564,2.445-4.335,4.274-3.955C1992.131,547.638,1993.183,550.023,1992.651,552.587z"/>
	</g>
	<g>
		<path style="fill:#22407A;" d="M1371.778,592.211c0,0,57.012-0.484,70.732,18.759c13.72,19.243,31.969,141.341,28.105,157.205
			c-8.957,36.779-45.074-14.249-61.377-35.347C1392.936,711.73,1371.778,592.211,1371.778,592.211z"/>
		<polygon style="fill:#22407A;" points="1469.278,734.769 1484.616,857.801 1440.682,857.801 1428.704,761.833 		"/>
		<path style="fill:#233862;" d="M1333.571,1352.737c0,0-2.105-16.396-6.979-26.146c-4.875-9.749-35.895-3.545-35.895-3.545
			s-6.204,5.318-7.533,30.134L1333.571,1352.737z"/>
		<path style="fill:#233862;" d="M1439.256,1352.516c-7.289-4.449-3.141-37.638-3.141-37.638s33.963-27.171,38.634-6.368
			c4.67,20.803,32.266,30.143,47.974,32.69c10.844,1.758,14.201,7.764,15.24,11.315H1439.256z"/>
		<path style="fill:#233862;" d="M1368.907,1111.124c1.382,7.617,2.26,13.866,2.493,18.346
			c3.157,61.586,51.841,202.397,60.548,205.682c13.474,5.085,34.691-5.723,45.792-9.259c4.6-1.47,7.704-6.109,6.68-10.815
			c-24.109-110.834-32.97-270.431-36.193-364.919c-1.628-47.593-9.798-80.47-9.798-80.47s-118.737-31.68-119.441,8.395
			C1318.362,913.545,1358.318,1052.623,1368.907,1111.124z"/>
		<path style="fill:#233862;" d="M1368.907,1111.124l79.32-160.966c-1.628-47.593-9.798-80.47-9.798-80.47
			s-118.737-31.68-119.441,8.395C1318.362,913.545,1358.318,1052.623,1368.907,1111.124z"/>
		<path style="fill:#233862;" d="M1395.325,878.224l-62.77,454.934c0,0-27.565,6.647-49.004,1.329
			c0,0-18.376-241.954-16.845-300.449c1.531-58.494-13.189-156.521,3.359-167.331
			C1286.614,855.896,1395.325,878.224,1395.325,878.224z"/>
		<path style="fill:#E9F3FE;" d="M1265.655,761.42l-7.823,109.223c-0.303,4.111,2.327,7.85,6.286,8.998
			c8.755,2.541,18.851,4.31,38.32,8.344c18.286,3.798,42.89,7.161,73.12,7.346c48.082,0.307,66.284-16.266,66.284-16.266
			c2.072,0.038-1.093-10.026-3.945-57.871c-0.965-16.208-1.899-36.752-2.57-62.717c-0.607-23.363-1.017-51.118-1.055-84.046
			c-0.051-39.609-61.361-82.224-62.493-82.224l-0.013,0.019c0,5.703-8.99,16.228-22.832,17.135
			c-16.432,1.074-36.971-10.785-36.971-20.248c0-0.014-2.864,2.79-3.959,4.638c-6.477,10.929-26.894,53.903-35.917,97.297
			c-1.343,6.432-2.378,13.216-3.204,20.358c-0.013,0.109-0.025,0.217-0.038,0.326c-0.153,1.304-0.294,2.615-0.429,3.939
			c-0.025,0.23-0.044,0.467-0.07,0.697c-0.122,1.202-0.243,2.417-0.352,3.638c-0.032,0.345,0.247,0.965-0.089,1.049
			c-3.293,0.817-12.316,30.967-1.874,30.69C1269.205,751.662,1265.776,758.146,1265.655,761.42
			c-0.006,0.083-0.006,0.166-0.013,0.249L1265.655,761.42z"/>
		<path style="fill:#FFB27D;" d="M1372.361,583.509l-0.032,5.893c0,0,1.605,18.432-21.091,21.123
			c-22.696,2.7-39.89-7.187-39.274-21.41c2.044-11.012,4.288-18.575,4.44-27.687c0.056-3.386-0.176-6.979-0.807-11.036l43.978-0.878
			l12.953,2.116L1372.361,583.509z"/>
		<polygon style="fill:#22407A;" points="1339.008,806.552 1339.67,905.847 1251.836,895.575 1258.13,656.409 1302.464,642.756 
			1322.374,697.507 		"/>
		<path style="fill:#E2915A;" d="M1372.528,551.63l-0.167,22.798c-4.672,2.172-13.243,2.329-19.903,1.137
			c-19.896-3.561-29.401-10.359-36.229-21.117c0.056-3.386,0,0-0.631-4.057l43.978-0.878L1372.528,551.63z"/>
		<path style="fill:#FFB27D;" d="M1312.228,543.315c5.102,27.462,40.537,26.56,55.85,24.833c4.31-0.479,7.021-1.029,7.021-1.029
			c4.859-1.298,7.57-8.951,8.83-18.977c2.5-19.84-0.659-48.963-4.009-56.412c-5.045-11.208-14.546-23.331-50.23-14.585
			C1293.999,485.899,1305.68,508.13,1312.228,543.315z"/>
		<path style="fill:#233862;" d="M1390.869,465.591c0,0-15.707-1.208-34.232-9.263c-15.037-6.538-34.007,0.662-40.165,3.906
			c0.166-0.992,0.562-2.347,1.502-3.705c0,0-2.765,1.96-3.172,4.701c-0.285,0.21-0.412,0.354-0.338,0.403
			c0,0-3.134-0.574-5.148,0.332c0,0,1.41-0.201,1.913,0.705c0.053,0.096,0.133,0.177,0.226,0.249
			c-23.456,11.333-25.622,48.403-18.074,56.98c9.081,10.32,21.119,31.393,21.119,31.393s2.822-3.323,1.171-12.404
			c-1.651-9.081,6.191-9.081,16.099-13.209c9.906-4.128,1.651-15.686,10.319-22.703c8.668-7.017,40.452-2.89,40.04-8.255
			C1393.925,490.422,1390.869,466.799,1390.869,465.591z"/>
		<g>
			<path style="fill:#D9E9F9;" d="M1304.791,587.671c-0.048-2.927,11.519-6.545,11.519-6.545s15.85,21.976,41.962,22.355
				c0,0-7.441,14.483-16.211,18.233C1342.061,621.714,1305.139,608.979,1304.791,587.671z"/>
			<path style="fill:#D9E9F9;" d="M1358.272,602.967c0,0,13.833-8.201,13.881-17.091c0,0,7.968,1.279,11.871,5.612
				c0,0,4.245,12.839-0.105,21.688C1383.919,613.176,1363.999,610.142,1358.272,602.967z"/>
			<path style="fill:#BA4C43;" d="M1348.881,601.648l18.758-4.495c0,0,2.45,0.212,2.383,3.268
				c-0.067,3.055-5.283,11.983-7.593,12.697C1360.119,613.832,1344.444,607.831,1348.881,601.648z"/>
			<path style="fill:#E9F3FE;" d="M1304.792,586.58c-0.145-2.924,9.228-8.947,9.228-8.947s18.14,21.202,44.252,21.582
				c0,0-7.441,14.483-16.211,18.233C1342.061,617.447,1305.654,603.941,1304.792,586.58z"/>
			<path style="fill:#E9F3FE;" d="M1358.272,599.214c0,0,13.991-7.417,14.039-16.308c0,0,8.444,3.716,12.347,8.049
				c0,0,3.611,9.618-0.739,18.467C1383.919,609.423,1363.999,606.389,1358.272,599.214z"/>
			<g>
				<path style="fill:#C65447;" d="M1392.563,856.086c-0.725,8.783-4.088,16.997-9.435,23.033l-8.405,9.488
					c-2.109,2.384-5.388,2.096-7.117-0.616l-10.145-15.911c-2.721-4.267-3.966-9.692-3.491-15.145
					c1.081-12.143,3.101-35.54,4.755-58.118c1.346-18.293,2.454-36.063,2.63-46.868c0.559-34.497-3.961-144.428-3.961-144.428
					l6.742,0.352c0,0,16.341,42.5,24.553,100.492c2.026,14.275,3.549,29.479,4.226,45.234
					C1392.915,753.599,1395.825,816.382,1392.563,856.086z"/>
			</g>
		</g>
		<polygon style="fill:#22407A;" points="1422.407,796.54 1428.704,918.609 1462.124,918.609 1442.266,647.923 1384.957,605.165 
			1405.333,691.299 		"/>
		<path style="fill:#233862;" d="M1380.895,588.086c0,0,22.303,98.386,33.99,164.673c3.169,17.975,6.827,33.012,7.522,43.781
			c0,0-3.868-90.089-3.488-116.054c0,0-16.031-8.487-16.031-11.465c0-2.977,17.102-11.028,17.102-11.028
			s-10.83-55.481-16.739-61.594C1397.341,590.286,1380.895,588.086,1380.895,588.086z"/>
		<path style="fill:#233862;" d="M1268.347,716.369c0,0,14.232,48.257,54.514,61.274l-81.834-9.359c0,0-3.413-48.163,0-48.922
			C1244.44,718.604,1268.347,716.369,1268.347,716.369z"/>
		<path style="fill:#22407A;" d="M1303.033,592.21c0,0-40.769-3.095-57.418,14.139c-22.6,23.393-48.073,163.549-38.244,190.965
			c6.02,16.789,78.543,5.104,118.935,6.257v-26.849c0,0-64.175-14.836-64.175-34.497
			C1262.131,729.056,1303.033,592.21,1303.033,592.21z"/>
		<path style="fill:#233862;" d="M1306.553,583.996c0,0,38.597,161.659,32.455,222.556c0,0-14.193-65.076-48.342-118.379
			c0,0,12.463-10.961,11.785-15.001c0,0-9.25-2.743-18.226-0.896c0,0,0.992-69.684,6.589-77.045
			C1296.411,587.868,1306.553,583.996,1306.553,583.996z"/>
		<path style="fill:#FFB27D;" d="M1326.306,782.127c0,0,27.993-5.831,32.29-4.484c16.124,5.052,26.361,18.973,26.361,21.946
			c0,2.973-58.65,0-58.65,0V782.127z"/>
	</g>
	<g>
		<rect x="1870.16" y="932.909" style="fill:#F99746;" width="296.514" height="419.052"/>
		<rect x="1844.617" y="797.314" style="fill:#F99746;" width="347.6" height="146.827"/>
		<polygon style="fill:#ED7D2B;" points="1844.617,944.141 1870.16,980.963 2166.674,980.963 2192.217,944.141 		"/>
		<polygon style="fill:#ED7D2B;" points="1855.311,1351.961 1863.654,1325.903 2173.113,1325.903 2179.939,1351.961 		"/>
		<g>
			<path style="fill:#ED7D2B;" d="M1895.189,797.314h-25.029c0-6.914,5.601-12.515,12.515-12.515S1895.189,790.4,1895.189,797.314z"
				/>
			<g>
				<path style="fill:#ED7D2B;" d="M1883.811,788.461l-2.271-0.137c0.023-0.383,2.667-38.728,34.428-73.513l1.68,1.534
					C1886.424,750.543,1883.833,788.085,1883.811,788.461z"/>
			</g>
			<path style="fill:#ED7D2B;" d="M1911.506,720.879L1911.506,720.879c-1.422-1.422-1.422-3.749,0-5.171l5.43-5.429
				c1.422-1.422,3.749-1.422,5.171,0l0,0c1.423,1.422,1.423,3.749,0,5.171l-5.43,5.43
				C1915.255,722.301,1912.928,722.301,1911.506,720.879z"/>
		</g>
	</g>
	<rect x="891.582" y="1349.021" style="fill:#ED7D2B;" width="1648.316" height="428.507"/>
	<g>
		<rect x="1258.56" y="932.909" style="fill:#F99746;" width="296.514" height="419.052"/>
		<rect x="1233.017" y="797.314" style="fill:#F99746;" width="347.6" height="146.827"/>
		<polygon style="fill:#ED7D2B;" points="1233.017,944.141 1258.56,980.963 1555.073,980.963 1580.616,944.141 		"/>
		<polygon style="fill:#ED7D2B;" points="1243.71,1351.961 1252.053,1325.903 1561.513,1325.903 1568.339,1351.961 		"/>
		<path style="fill:#2B478B;" d="M1545.085,797.314h25.03c0-6.914-5.601-12.515-12.515-12.515
			C1550.687,784.799,1545.085,790.4,1545.085,797.314z"/>
		<g>
			<path style="fill:#2B478B;" d="M1556.465,788.461c-0.023-0.375-2.644-37.952-33.836-72.115l1.68-1.534
				c31.761,34.785,34.404,73.129,34.427,73.513L1556.465,788.461z"/>
		</g>
		<path style="fill:#2B478B;" d="M1528.769,720.879L1528.769,720.879c1.422-1.422,1.422-3.749,0-5.171l-5.43-5.429
			c-1.422-1.422-3.749-1.422-5.171,0l0,0c-1.422,1.422-1.422,3.749,0,5.171l5.43,5.43
			C1525.02,722.301,1527.347,722.301,1528.769,720.879z"/>
	</g>
	<g>
		<g>
			
				<rect x="1819.811" y="1241.631" transform="matrix(0.8554 -0.5179 0.5179 0.8554 -382.4802 1124.0618)" style="fill:#2B478B;" width="4.915" height="11.058"/>
			<path style="fill:#2B478B;" d="M1303.292,1777.528c0,0,61.225-166.756,73.725-218.952c10.73-44.805,29.183-91.519,62.282-104.799
				c18.664-7.488,38.765-12.827,59.17-16.276c2.495-2.887,8.005-8.07,18.059-12.357c0.31-7.387,0.2-14.871-0.741-21.267
				c0-0.001,0-0.003,0-0.003c-10.205-7.767-20.109-19.706-25.79-38.038c-5.383-5.887-10.021-15.246-8.61-19.283
				c0.455-1.303,1.062-2.17,1.747-2.723c-0.825-1.348-1.582-2.765-2.253-4.268c-5.779-4.701-4.905-16.396-8.365-21.532
				c-4.188-6.22-9.315-22.3-5.081-27.382c4.234-5.08,6.069-11.714,7.17-25.687c1.102-13.974,11.178-7.622,19.646-9.468
				c8.468-1.847,6.774-4.506,11.009-14.667c4.234-10.162,13.549-9.315,27.945-6.352c14.396,2.964,11.433-6.352,26.252-8.468
				c14.82-2.117,20.748,11.855,33.78,11.98c13.033,0.126,15.336,14.694,27.195,22.315c11.858,7.622,0,32.914,0,32.914
				c0.567,5.673,0,0,5.885,9.852c5.884,9.852-4.193,15.808-0.614,28.51c3.58,12.703-9.666,11.426-9.666,11.426l0,0
				c-0.046,0.179-0.095,0.347-0.142,0.522c2.216-0.889,5.137-1.072,6.567,3.025c2.134,6.106-9.566,24.388-16.759,24.395
				c-4.953,16.602-11.976,26.872-19.671,33.459c-0.429,4.26-0.91,10.822-0.84,18.217c9.41,3.059,16.2,7.118,20.589,10.367
				c22.426-10.148,83.435-41.602,102.604-90.889c23.648-60.806,49.375-116.429,49.375-116.429s-9.83-35.945-3.953-50.122
				l-14.974-21.357l-6.619,4.007l-4.208-6.952l5.131-3.105c-2.266-1.852-4.275-4.09-5.877-6.736
				c-7.54-12.458-3.555-28.67,8.903-36.211s28.671-3.555,36.212,8.903c1.602,2.646,2.652,5.465,3.243,8.33l5.131-3.105l4.208,6.952
				l-6.591,3.988l11.591,21.941c4.181-1.641,7.433-2.03,8.879-0.158c10.158,13.152,11.469,25.088,9.526,35l24.843,47.028
				l-26.937,16.305l-14.903-21.258c-0.907,3.822-1.356,6.514-1.356,6.514s28.619,111.432-20.399,185.05
				c-21.346,32.06-53.742,74.41-83.518,112.013c2.497,92.755-6.804,240.563-6.804,240.563h-258.857c0,0,0.311-29.922,1.199-71.448
				l-32.327,71.448L1303.292,1777.528z"/>
		</g>
		<g>
			
				<rect x="996.492" y="1241.631" transform="matrix(0.8554 -0.518 0.518 0.8554 -501.53 697.7335)" style="fill:#2B478B;" width="4.915" height="11.059"/>
			<path style="fill:#2B478B;" d="M615.98,1453.777c18.664-7.488,38.765-12.827,59.171-16.276c2.495-2.887,8.005-8.07,18.059-12.357
				c0.309-7.387,0.2-14.871-0.741-21.267c0-0.001,0-0.003,0-0.003c-10.205-7.767-20.109-19.706-25.791-38.038
				c-5.383-5.887-10.02-15.246-8.61-19.283c0.455-1.303,1.062-2.17,1.747-2.723c-0.825-1.348-1.582-2.765-2.253-4.268
				c-5.78-4.701-4.905-16.396-8.365-21.532c-4.188-6.22-9.315-22.3-5.081-27.382c4.234-5.08,6.069-11.714,7.171-25.687
				c1.102-13.974,11.177-7.622,19.646-9.468c8.468-1.847,6.774-4.506,11.009-14.667c4.234-10.162,13.549-9.315,27.945-6.352
				s11.432-6.352,26.252-8.468c14.819-2.117,20.748,11.855,33.78,11.98c13.032,0.126,15.336,14.694,27.195,22.315
				c11.858,7.622,0,32.914,0,32.914c0.567,5.673,0,0,5.884,9.852c5.884,9.852-4.193,15.808-0.614,28.51
				c3.58,12.703-9.666,11.426-9.666,11.426h0c-0.046,0.179-0.095,0.347-0.142,0.522c2.216-0.889,5.136-1.072,6.567,3.025
				c2.133,6.106-9.567,24.388-16.759,24.395c-4.952,16.602-11.976,26.872-19.67,33.459c-0.429,4.26-0.91,10.822-0.84,18.217
				c9.41,3.059,16.2,7.118,20.589,10.367c22.425-10.148,83.434-41.602,102.604-90.889c23.648-60.806,49.375-116.429,49.375-116.429
				s-9.831-35.945-3.954-50.122l-14.974-21.357l-6.619,4.007l-4.208-6.952l5.131-3.105c-2.265-1.852-4.274-4.09-5.876-6.736
				c-7.541-12.458-3.554-28.67,8.904-36.211s28.67-3.555,36.211,8.903c1.602,2.646,2.652,5.465,3.244,8.33l5.13-3.105l4.208,6.952
				l-6.59,3.988l11.591,21.941c4.18-1.641,7.432-2.03,8.879-0.158c10.158,13.152,11.468,25.088,9.526,35l24.843,47.028
				l-26.937,16.305l-14.904-21.258c-0.907,3.822-1.357,6.514-1.357,6.514s28.62,111.432-20.399,185.05
				c-21.346,32.06-53.742,74.41-83.518,112.013c2.497,92.755-6.804,240.563-6.804,240.563H597.114c0,0,0.311-29.922,1.199-71.448
				C598.313,1701.813,582.881,1467.058,615.98,1453.777z"/>
			<g>
				<path style="fill:#2B478B;" d="M682.318,1434.191c0,0-63.512-57.238-63.832-116.834c-0.32-59.596-4.104-115.449-4.104-115.449
					l-30.765-2.03c0,0-60.802,85.718-43.023,164.529c17.779,78.812,67.548,222.962,67.548,222.962L682.318,1434.191z"/>
				<path style="fill:#2B478B;" d="M614.382,1201.908c0,0,26.692-36.411,18.015-46.773c-8.677-10.363-5.925-47.968-20.406-46.786
					c-13.75,1.122-27.54,39.44-26.227,49.277c1.313,9.837-2.147,42.252-2.147,42.252L614.382,1201.908z"/>
				<path style="fill:#2B478B;" d="M633.254,1166.77c0,0,12.69-32.886,8.762-33.728c-3.928-0.842-7.908,5.497-9.681,8.979
					c-2.666,5.238-4.575,5.815-5.191,6.454C623.355,1152.404,633.254,1166.77,633.254,1166.77z"/>
			</g>
		</g>
		<g>
			
				<rect x="2267.529" y="1241.631" transform="matrix(0.8554 -0.5179 0.5179 0.8554 -317.7554 1355.9656)" style="fill:#2B478B;" width="4.915" height="11.059"/>
			<path style="fill:#2B478B;" d="M1887.018,1453.777c18.663-7.488,38.764-12.827,59.17-16.276c2.494-2.887,8.006-8.07,18.06-12.357
				c0.31-7.387,0.199-14.871-0.741-21.267c0-0.001,0-0.003,0-0.003c-10.205-7.767-20.109-19.706-25.791-38.038
				c-5.383-5.887-10.021-15.246-8.61-19.283c0.455-1.303,1.063-2.17,1.748-2.723c-0.826-1.348-1.583-2.765-2.253-4.268
				c-5.78-4.701-4.905-16.396-8.365-21.532c-4.188-6.22-9.314-22.3-5.08-27.382c4.233-5.08,6.068-11.714,7.17-25.687
				c1.102-13.974,11.178-7.622,19.646-9.468c8.468-1.847,6.774-4.506,11.009-14.667c4.233-10.162,13.549-9.315,27.945-6.352
				c14.396,2.964,11.432-6.352,26.252-8.468c14.819-2.117,20.747,11.855,33.779,11.98c13.032,0.126,15.337,14.694,27.195,22.315
				c11.858,7.622,0,32.914,0,32.914c0.567,5.673,0,0,5.884,9.852c5.885,9.852-4.192,15.808-0.613,28.51
				c3.579,12.703-9.666,11.426-9.666,11.426l0,0c-0.046,0.179-0.095,0.347-0.142,0.522c2.216-0.889,5.136-1.072,6.567,3.025
				c2.133,6.106-9.567,24.388-16.76,24.395c-4.952,16.602-11.976,26.872-19.67,33.459c-0.429,4.26-0.91,10.822-0.84,18.217
				c9.41,3.059,16.2,7.118,20.589,10.367c22.426-10.148,83.435-41.602,102.604-90.889c23.648-60.806,49.375-116.429,49.375-116.429
				s-9.831-35.945-3.954-50.122l-14.973-21.357l-6.62,4.007l-4.208-6.952l5.131-3.105c-2.265-1.852-4.274-4.09-5.876-6.736
				c-7.541-12.458-3.555-28.67,8.903-36.211s28.67-3.555,36.211,8.903c1.602,2.646,2.652,5.465,3.244,8.33l5.131-3.105l4.207,6.952
				l-6.59,3.988l11.59,21.941c4.181-1.641,7.433-2.03,8.88-0.158c10.158,13.152,11.468,25.088,9.526,35l24.843,47.028
				l-26.937,16.305l-14.904-21.258c-0.907,3.822-1.355,6.514-1.355,6.514s28.619,111.432-20.399,185.05
				c-21.347,32.06-53.742,74.41-83.518,112.013c2.497,92.755-6.805,240.563-6.805,240.563H1868.15c0,0,0.311-29.922,1.199-71.448
				C1869.35,1701.813,1853.918,1467.058,1887.018,1453.777z"/>
			<g>
				<path style="fill:#2B478B;" d="M1953.354,1434.191c0,0-63.512-57.238-63.831-116.834c-0.32-59.596-4.104-115.449-4.104-115.449
					l-30.765-2.03c0,0-60.802,85.718-43.023,164.529c17.779,78.812,67.549,222.962,67.549,222.962L1953.354,1434.191z"/>
				<path style="fill:#2B478B;" d="M1885.419,1201.908c0,0,26.691-36.411,18.015-46.773c-8.677-10.363-5.925-47.968-20.405-46.786
					c-13.75,1.122-27.54,39.44-26.228,49.277c1.314,9.837-2.146,42.252-2.146,42.252L1885.419,1201.908z"/>
				<path style="fill:#2B478B;" d="M1904.291,1166.77c0,0,12.69-32.886,8.762-33.728s-7.908,5.497-9.681,8.979
					c-2.666,5.238-4.575,5.815-5.191,6.454C1894.393,1152.404,1904.291,1166.77,1904.291,1166.77z"/>
			</g>
		</g>
		<g>
			<path style="fill:#2B478B;" d="M2614.6,1462.381c13.064-31.625-46.161-65.01-55.236-89.635
				c-9.074-24.626,51.602-64.168,2.297-133.595c-12.78-17.996-39.691-17.138-56.212-14.565c-8.458,1.316-17.049,1.672-25.558,0.745
				c-44.461-4.845-71.303,36.812-77.317,67.664c-3.449,17.692-2.646,36.201,16.958,47.839c1.221,1.731,2.733,2.947,4.421,3.853
				c5.835,71.341,30.28,61.123,30.28,61.123c1.475,10.029,0.924,22.722-0.107,33.545c-18.941,2.007-37.672,5.306-55.161,9.943
				c-0.003-0.001-163.451-36.352-206.033-78.047s-84.942-78.295-84.942-78.295s-5.356-33.617-15.587-43.201l4.417-23.413
				l7.018,0.841l0.883-7.37l-5.415-0.649c1.185-2.392,1.993-5.021,2.329-7.822c1.583-13.208-7.841-25.198-21.049-26.781
				c-13.207-1.583-25.198,7.841-26.781,21.048c-0.336,2.802-0.172,5.547,0.414,8.151l-5.415-0.649l-0.884,7.37l6.986,0.838
				l-1.381,22.625c-4.098,0.209-6.95,1.109-7.449,3.213c-3.5,14.771-0.095,25.197,5.255,32.715l-2.962,48.494l28.558,3.424
				l4.396-23.305c2.195,2.839,3.583,4.909,3.583,4.909s18.152,103.514,86.674,146.317c55.014,34.366,154.455,83.696,191.526,101.812
				c-0.848,6.961-1.964,13.197-3.5,18.245c-15.714,51.658,50.625,193.227,63.038,193.864h226.548
				C2649.19,1773.631,2637.186,1479.874,2614.6,1462.381z"/>
			
				<rect x="2057.348" y="1332.889" transform="matrix(0.1192 -0.9929 0.9929 0.1192 490.9919 3223.7178)" style="fill:#2B478B;" width="10.102" height="4.49"/>
		</g>
		<g>
			<path style="fill:#1F3B63;" d="M1425.937,1497.352c-24.203-44.793-64.101-48.054-64.101-48.054
				c-17.49-4.638-36.22-7.937-55.161-9.943c-1.031-10.823-1.583-23.516-0.107-33.545c0,0,24.445,10.218,30.28-61.123
				c1.688-0.905,3.2-2.121,4.42-3.853c19.605-11.638,20.408-30.146,16.959-47.839c-6.015-30.853-32.857-72.509-77.317-67.664
				c-8.509,0.927-17.101,0.571-25.558-0.745c-16.521-2.572-43.432-3.431-56.212,14.565c-49.304,69.427,11.372,108.969,2.297,133.595
				c-9.075,24.625-68.301,58.01-55.236,89.635c-22.586,17.493-34.591,311.25-34.591,311.25h346.582
				C1458.191,1773.631,1451.605,1544.855,1425.937,1497.352z"/>
			<path style="fill:#1F3B63;" d="M1146.2,1462.381c0,0-101.968,126.365-90.744,165.276c11.224,38.91,85.304,89.794,104.759,80.814
				C1179.671,1699.492,1146.2,1462.381,1146.2,1462.381z"/>
			<path style="fill:#1F3B63;" d="M1180.199,1283.939c0,0-8.011,27.942-41.684,33.929c-33.672,5.986-17.21,32.924-22.448,50.883
				c-5.238,17.959-32.924,21.188-27.687,47.891c5.238,26.702-35.917,50.135,29.183,103.263s124.215-153.398,124.215-153.398
				l-22.449-76.324L1180.199,1283.939z"/>
		</g>
		<g>
			<path style="fill:#1F3B63;" d="M1964.043,1497.352c-24.203-44.793-64.102-48.054-64.102-48.054
				c-17.489-4.638-36.22-7.937-55.161-9.943c-1.03-10.823-1.583-23.516-0.106-33.545c0,0,24.444,10.218,30.279-61.123
				c1.688-0.905,3.2-2.121,4.421-3.853c19.604-11.638,20.407-30.146,16.958-47.839c-6.015-30.853-32.856-72.509-77.316-67.664
				c-8.51,0.927-17.101,0.571-25.559-0.745c-16.52-2.572-43.431-3.431-56.212,14.565c-49.304,69.427,11.372,108.969,2.297,133.595
				c-9.075,24.625-68.301,58.01-55.236,89.635c-22.586,17.493-34.591,311.25-34.591,311.25h346.583
				C1996.298,1773.631,1989.711,1544.855,1964.043,1497.352z"/>
			<path style="fill:#1F3B63;" d="M1684.307,1462.381c0,0-101.969,126.365-90.744,165.276c11.225,38.91,85.305,89.794,104.76,80.814
				S1684.307,1462.381,1684.307,1462.381z"/>
			<path style="fill:#1F3B63;" d="M1718.306,1283.939c0,0-8.011,27.942-41.684,33.929s-17.211,32.924-22.449,50.883
				c-5.237,17.959-32.924,21.188-27.687,47.891c5.238,26.702-35.917,50.135,29.184,103.263s124.215-153.398,124.215-153.398
				l-22.448-76.324L1718.306,1283.939z"/>
		</g>
		<g>
			<path style="fill:#1D3356;" d="M886.61,1463.803c-13.065-31.625,46.161-65.011,55.236-89.636
				c9.075-24.626-51.601-64.167-2.297-133.595c12.781-17.996,39.692-17.138,56.212-14.565c8.458,1.316,17.049,1.672,25.558,0.745
				c44.461-4.845,71.302,36.812,77.317,67.664c3.449,17.692,2.646,36.201-16.958,47.839c-1.221,1.731-2.733,2.947-4.421,3.853
				c-5.835,71.341-30.28,61.124-30.28,61.124c-1.476,10.028-0.923,22.721,0.107,33.544c18.941,2.007,37.671,5.307,55.161,9.943
				c0.002-0.001,163.452-36.352,206.033-78.047c42.582-41.695,84.942-78.295,84.942-78.295s5.357-33.617,15.587-43.201
				l-4.417-23.413l-7.018,0.841l-0.883-7.37l5.415-0.648c-1.185-2.393-1.993-5.021-2.329-7.823
				c-1.583-13.207,7.84-25.198,21.048-26.781c13.208-1.583,25.198,7.841,26.781,21.048c0.336,2.802,0.172,5.547-0.414,8.151
				l5.416-0.649l0.883,7.37l-6.987,0.838l1.382,22.625c4.097,0.209,6.95,1.109,7.449,3.213c3.5,14.771,0.095,25.197-5.255,32.715
				l2.962,48.494l-28.558,3.424l-4.396-23.305c-2.195,2.84-3.582,4.91-3.582,4.91s-18.153,103.513-86.674,146.316
				c-55.015,34.366-195.542,83.392-188.027,120.057c10.841,52.896-9.385,193.864-9.385,193.864h-280.2
				C852.019,1775.052,864.024,1481.295,886.61,1463.803z"/>
			
				<rect x="1436.566" y="1331.504" transform="matrix(0.9929 -0.119 0.119 0.9929 -148.8163 180.7021)" style="fill:#1D3356;" width="4.49" height="10.102"/>
			<path style="fill:#1D3356;" d="M886.61,1463.803c0,0-101.968,126.364-90.744,165.275c11.224,38.91,85.304,89.794,104.759,80.814
				C920.081,1700.913,886.61,1463.803,886.61,1463.803z"/>
			<path style="fill:#1D3356;" d="M920.609,1285.36c0,0-8.011,27.942-41.684,33.929c-33.672,5.986-17.211,32.924-22.448,50.883
				c-5.238,17.959-32.924,21.188-27.687,47.891s-35.917,50.135,29.183,103.263s124.215-153.397,124.215-153.397l-22.448-76.325
				L920.609,1285.36z"/>
		</g>
		<g>
			<path style="fill:#1D3356;" d="M2847.16,1463.803c13.065-31.625-46.161-65.011-55.235-89.636
				c-9.075-24.626,51.601-64.167,2.296-133.595c-12.78-17.996-39.691-17.138-56.212-14.565c-8.457,1.316-17.049,1.672-25.558,0.745
				c-44.461-4.845-71.302,36.812-77.317,67.664c-3.448,17.692-2.646,36.201,16.959,47.839c1.221,1.731,2.733,2.947,4.421,3.853
				c5.835,71.341,30.279,61.124,30.279,61.124c1.476,10.028,0.924,22.721-0.107,33.544c-18.941,2.007-37.671,5.307-55.161,9.943
				c-0.002-0.001-163.451-36.352-206.033-78.047s-84.941-78.295-84.941-78.295s-5.357-33.617-15.588-43.201l4.417-23.413
				l7.018,0.841l0.884-7.37l-5.415-0.648c1.185-2.393,1.992-5.021,2.328-7.823c1.584-13.207-7.84-25.198-21.048-26.781
				s-25.198,7.841-26.781,21.048c-0.336,2.802-0.172,5.547,0.413,8.151l-5.415-0.649l-0.883,7.37l6.986,0.838l-1.382,22.625
				c-4.097,0.209-6.95,1.109-7.448,3.213c-3.501,14.771-0.096,25.197,5.254,32.715l-2.961,48.494l28.558,3.424l4.396-23.305
				c2.194,2.84,3.582,4.91,3.582,4.91s18.152,103.513,86.674,146.316c55.015,34.366,195.542,83.392,188.027,120.057
				c-10.842,52.896,9.385,193.864,9.385,193.864h280.2C2881.751,1775.052,2869.746,1481.295,2847.16,1463.803z"/>
			
				<rect x="2289.908" y="1334.31" transform="matrix(0.119 -0.9929 0.9929 0.119 694.7919 3456.1492)" style="fill:#1D3356;" width="10.102" height="4.489"/>
			<path style="fill:#1D3356;" d="M2847.16,1463.803c0,0,101.969,126.364,90.744,165.275c-11.225,38.91-85.305,89.794-104.76,80.814
				S2847.16,1463.803,2847.16,1463.803z"/>
			<path style="fill:#1D3356;" d="M2813.161,1285.36c0,0,8.011,27.942,41.684,33.929s17.21,32.924,22.448,50.883
				s32.925,21.188,27.687,47.891s35.918,50.135-29.183,103.263s-124.215-153.397-124.215-153.397l22.448-76.325L2813.161,1285.36z"
				/>
		</g>
		<g>
			
				<rect x="1909.077" y="1244.702" transform="matrix(0.5179 -0.8554 0.8554 0.5179 -143.8495 2239.0696)" style="fill:#233862;" width="11.059" height="4.915"/>
			<path style="fill:#233862;" d="M2433.583,1777.528c0,0-54.183-169.697-66.683-221.894
				c-10.729-44.805-36.226-88.577-69.325-101.857c-18.663-7.488-38.765-12.827-59.17-16.276c-2.495-2.887-8.006-8.07-18.06-12.357
				c-0.31-7.387-0.199-14.871,0.741-21.267c0-0.001,0-0.003,0-0.003c10.205-7.767,20.109-19.706,25.79-38.038
				c5.383-5.887,10.021-15.246,8.611-19.283c-0.455-1.303-1.063-2.17-1.748-2.723c0.826-1.348,1.582-2.765,2.253-4.268
				c5.78-4.701,4.905-16.396,8.364-21.532c4.188-6.22,9.315-22.3,5.082-27.382c-4.234-5.08-6.069-11.714-7.171-25.687
				c-1.102-13.974-11.178-7.622-19.646-9.468c-8.468-1.847-6.774-4.506-11.009-14.667c-4.233-10.162-13.549-9.315-27.945-6.352
				c-14.396,2.964-11.432-6.352-26.252-8.468c-14.819-2.117-20.747,11.855-33.779,11.98c-13.033,0.126-15.337,14.694-27.195,22.315
				c-11.858,7.622,0,32.914,0,32.914c-0.567,5.673,0,0-5.885,9.852c-5.884,9.852,4.193,15.808,0.614,28.51
				c-3.579,12.703,9.666,11.426,9.666,11.426l0,0c0.046,0.179,0.095,0.347,0.143,0.522c-2.217-0.889-5.137-1.072-6.568,3.025
				c-2.133,6.106,9.567,24.388,16.76,24.395c4.952,16.602,11.976,26.872,19.67,33.459c0.429,4.26,0.91,10.822,0.841,18.217
				c-9.41,3.059-16.201,7.118-20.59,10.367c-22.426-10.148-83.435-41.602-102.604-90.889
				c-23.648-60.806-49.375-116.429-49.375-116.429s9.831-35.945,3.954-50.122l14.974-21.357l6.619,4.007l4.208-6.952l-5.131-3.105
				c2.265-1.852,4.274-4.09,5.876-6.736c7.541-12.458,3.555-28.67-8.903-36.211s-28.671-3.555-36.211,8.903
				c-1.602,2.646-2.652,5.465-3.244,8.33l-5.13-3.105l-4.208,6.952l6.59,3.988l-11.591,21.941c-4.18-1.641-7.432-2.03-8.879-0.158
				c-10.158,13.152-11.469,25.088-9.526,35l-24.843,47.028l26.937,16.305l14.904-21.258c0.907,3.822,1.356,6.514,1.356,6.514
				s-28.619,111.432,20.398,185.05c21.347,32.06,53.742,74.41,83.518,112.013c-2.497,92.755,6.805,240.563,6.805,240.563
				L2433.583,1777.528z"/>
		</g>
		<path style="fill:#1F3B63;" d="M879.173,1292.797l2.649,10.034l-4.467,1.179l-2.638-10.046l-11.707,3.087l-7.767-23.1
			c-1.841,3.199-2.952,5.511-2.952,5.511s-3.109,87.393-50.161,143.693c-5.208,6.263-10.978,12.133-17.353,17.465
			c-25.311,21.169-52.675,46.884-78.121,70.331c-41.406,38.14-62.643,93.408-57.48,149.462c4.041,43.942,7.397,91.5,5.803,112.849
			c0,0.123-0.011,0.247-0.023,0.37c-0.022,0.225-0.034,0.449-0.056,0.674l-283.727-1.044c0,0-14.558-11.954-35.715-35.02
			c-6.072-78.862-12.425-186.581-5.23-221.758c-29.89,2.918-31.046-22.393-26.68-32.202c4.378-9.821-13.693-23.817-25.344-48.982
			c-11.64-25.153,21.001-33.19,10.147-60.387c-10.854-27.207-0.83-73.642,19.53-94.722c13.312-13.783,37.31-15.096,52.328-14.355
			c12.234-15.164,36.075-17.521,51.541-17.274c8.789,0.146,17.588-0.707,26.119-2.851c44.561-11.225,77.762,27.376,88.245,57.917
			c6.016,17.521,7.823,36.468-10.483,51.082c-0.999,1.941-2.368,3.39-3.962,4.557c4.153,73.418-22.168,66.481-22.168,66.481
			c-0.079,10.416,2.278,23.256,4.86,34.121c9.776-0.314,19.553-0.303,29.183,0.079c14.154,0.55,28.263-1.011,41.923-4.513
			c7.083-1.807,14.053-4.13,20.832-6.947c21.057-8.744,49.14-21.023,76.482-34.874c8.564-4.344,17.061-8.833,25.243-13.424
			c27.118-15.209,50.824-31.45,62.508-46.569c16.646-21.528,33.381-42.046,46.839-58.176c16.825-20.17,28.532-33.516,28.532-33.516
			s0.696-34.975,9.754-46.176l-7.801-23.201l-7.026,1.853l-1.942-7.375l5.421-1.425c-1.863-2.728-3.21-5.882-3.872-9.361
			c-2.301-12.156,4.995-24.391,16.791-28.15c13.593-4.321,27.881,3.647,31.462,17.274c0.741,2.806,0.965,5.623,0.741,8.351
			l5.41-1.426l1.942,7.375l-6.993,1.84l4.613,22.831c4.198-0.359,7.229,0.146,8.037,2.222c5.646,14.535,3.659,25.625-0.73,34.032
			l9.877,48.938L879.173,1292.797z"/>
	</g>
	<path style="fill:#2E3552;" d="M3051.088,1776.353v1.6c0,1.907-1.521,3.47-3.378,3.47H212.376c-1.869,0-3.39-1.563-3.39-3.47v-1.6
		c0-1.907,1.521-3.47,3.39-3.47H3047.71C3049.567,1772.883,3051.088,1774.445,3051.088,1776.353z"/>
	<g>
		<g>
			<path style="fill:#1F3B63;" d="M901.486,697.306l-5.522,8.059l-13.727,2.997l-533.398,116.25c2.48-2.57,5.006-5.118,7.565-7.633
				l527.214-115.744L901.486,697.306z"/>
		</g>
		<path style="fill:#22407A;" d="M1059.768,709.754l0.702,0.109l-9.641,49.908l-0.723-0.185c3.091,2.159,6.673,3.717,10.605,4.477
			c15.05,2.908,29.609-6.937,32.516-21.987c2.908-15.05-6.937-29.609-21.987-32.516
			C1067.316,708.803,1063.429,708.917,1059.768,709.754z"/>
		<polygon style="fill:#22407A;" points="1060.47,709.863 1032.921,705.675 1026.652,704.723 927.798,689.696 887.042,683.501 
			880.726,716.199 920.7,726.439 1017.659,751.275 1023.809,752.847 1050.829,759.771 		"/>
		<polygon style="fill:#1F3B63;" points="927.798,689.696 887.042,683.501 880.726,716.199 920.7,726.439 		"/>
		<polygon style="fill:#F99746;" points="1032.921,705.675 1026.652,704.723 1017.659,751.275 1023.809,752.847 		"/>
		<polygon style="fill:#233862;" points="1062.955,703.444 1054.65,702.183 1042.737,763.848 1050.884,765.93 		"/>
	</g>
	<g>
		<g>
			<path style="fill:#1F3B63;" d="M3074.264,1079.076l-509.165-323.157l-11.601-7.369l-2.363-9.265l15.099,9.611l508.017,323.544
				C3074.264,1074.631,3074.264,1076.847,3074.264,1079.076z"/>
		</g>
		<path style="fill:#22407A;" d="M2401.562,697.488l-0.682-0.136l-7.929,49.087l0.727,0.074c-3.565,0.944-7.379,1.17-11.247,0.545
			c-14.803-2.391-24.865-16.33-22.475-31.132c2.392-14.803,16.331-24.865,31.133-22.475
			C2394.948,694.075,2398.48,695.488,2401.562,697.488z"/>
		<polygon style="fill:#22407A;" points="2400.88,697.352 2427.595,702.769 2433.674,704.003 2529.533,723.446 2569.055,731.462 
			2563.859,763.623 2523.696,759.585 2426.278,749.79 2420.101,749.166 2392.951,746.439 		"/>
		<polygon style="fill:#1F3B63;" points="2529.533,723.446 2569.055,731.462 2563.859,763.623 2523.696,759.585 		"/>
		<polygon style="fill:#ED7D2B;" points="2427.595,702.769 2433.674,704.003 2426.278,749.79 2420.101,749.166 		"/>
		<polygon style="fill:#233862;" points="2400.756,690.619 2408.809,692.253 2399.013,752.905 2390.829,752.078 		"/>
	</g>
	<g>
		<g>
			<polygon style="fill:#1F3B63;" points="2897.964,439.979 2593.147,454.75 2578.152,455.48 2584.258,460.677 2595.763,460.104 
				2901.275,444.828 			"/>
		</g>
		<path style="fill:#22407A;" d="M2455.472,499.292l-0.532,0.237l18.342,37.456l0.533-0.301c-1.984,2.372-4.486,4.375-7.438,5.82
			c-11.294,5.531-24.937,0.858-30.468-10.437c-5.531-11.295-0.858-24.937,10.438-30.468
			C2449.29,500.158,2452.393,499.415,2455.472,499.292z"/>
		<polygon style="fill:#22407A;" points="2454.939,499.529 2475.857,490.302 2480.618,488.203 2555.682,455.095 2586.628,441.445 
			2598.646,465.985 2569.186,482.67 2497.728,523.14 2493.194,525.704 2473.281,536.985 		"/>
		<polygon style="fill:#1F3B63;" points="2555.682,455.095 2586.628,441.445 2598.646,465.985 2569.186,482.67 		"/>
		<polygon style="fill:#ED7D2B;" points="2475.857,490.302 2480.618,488.203 2497.728,523.14 2493.194,525.704 		"/>
		<polygon style="fill:#233862;" points="2451.594,494.978 2457.9,492.198 2480.563,538.477 2474.559,541.874 		"/>
	</g>
	<g>
		<rect x="1311.948" y="841.001" style="fill:#EBF3FA;" width="199.903" height="43.618"/>
		<rect x="1380.895" y="852.436" style="fill:#22407A;" width="57.575" height="5.365"/>
		<rect x="1353.616" y="865.363" style="fill:#22407A;" width="112.132" height="5.365"/>
	</g>
	<g>
		<rect x="1925.71" y="841.001" style="fill:#EBF3FA;" width="199.903" height="43.618"/>
		<rect x="1994.656" y="852.436" style="fill:#22407A;" width="57.575" height="5.365"/>
		<rect x="1967.378" y="865.363" style="fill:#22407A;" width="112.132" height="5.365"/>
	</g>
	<path style="fill:#F99746;" d="M2611.336,536.985c0,0,157.122,350.947,188.404,304.016
		C2831.022,794.07,2613.891,466.222,2611.336,536.985z"/>
	<path style="fill:#F99746;" d="M682.318,796.285c0,0-115.277,59.389-184.76,66.525c-69.483,7.136-20.66,53.684,16.378,43.037
		C550.975,895.2,717.699,815.219,682.318,796.285z"/>
</g>
</svg>
