<?xml version="1.0" encoding="utf-8"?>
<!-- Generator: Adobe Illustrator 27.5.0, SVG Export Plug-In . SVG Version: 6.00 Build 0)  -->
<svg version="1.1" id="Layer_1" xmlns="http://www.w3.org/2000/svg" xmlns:xlink="http://www.w3.org/1999/xlink" x="0px" y="0px"
	 viewBox="0 0 1200 1200" style="enable-background:new 0 0 1200 1200;" xml:space="preserve">
<path style="fill:#0FD5CE;" d="M1200,0v600H0V397.13c0.64,0.36,1.29,0.7,1.94,1.04V298.02c-0.65,0.33-1.3,0.67-1.94,1.03V0H1200z"/>
<g>
	<path style="fill:#A5E3E0;" d="M1199,201.368v220.406H2.936V211.739l47.201-23.496l19.483-9.702l56.075-27.918l20.951-10.43
		l3.753-1.867l40.773,24.344l27.838,16.619l31.68,18.905l36.521,21.809l55.765-36.142l54.727,37.539l68.561-34.425l3.264-1.647
		l0.439-0.22l6.847-3.434l5.919-2.974l17.657-8.873l6.009-3.014l5.06-2.545l20.781-10.43l17.198,12.277l13.455,9.612l52.262,37.32
		l0.479,0.349l1.917,1.367l5.669,4.042l3.963,2.835l0.329,0.24l3.533,2.525l3.464,2.465l1.906,1.367l2.525,1.797l7.196,5.14
		l0.928,0.669l1.966-1.687l6.128-5.27c0-0.01,0-0.01,0-0.01c0-0.01,0-0.01,0.01-0.01l0.09-0.08l29.005-24.953l53.27,27.808
		l185.062-114.595l5.599,2.076l41.602,15.441l36.462,13.535l49.687,18.445l19.813,7.356l26.839,9.961l26.939-13.105l22.109-10.75
		l14.612-7.107l32.489,48.1L1199,201.368z"/>
	<g>
		<path style="fill:#8DC000;" d="M766.809,292.234c-2.656,0-5.25,0.253-7.773,0.715c-7.406-22.868-28.867-39.409-54.202-39.409
			c-25.749,0-47.499,17.085-54.555,40.535c-7.26-4.098-15.637-6.447-24.568-6.447c-8.332,0-16.182,2.047-23.093,5.648
			c-9.073-19.73-29-33.436-52.139-33.436c-28.001,0-51.304,20.065-56.348,46.598c-8.845-8.857-21.07-14.337-34.576-14.337
			c-26.987,0-48.864,21.877-48.864,48.864c0,26.987,21.878,48.864,48.864,48.864c22.412,0,41.286-15.094,47.046-35.666
			c10.525,12.485,26.271,20.424,43.879,20.424c12.203,0,23.508-3.822,32.807-10.317c8.855,14.107,24.54,23.492,42.426,23.492
			c20.808,0,38.647-12.695,46.204-30.761c9.298,6.596,20.651,10.487,32.919,10.487c9.884,0,19.177-2.519,27.279-6.946
			c7.817,10.685,20.443,17.63,34.696,17.63c23.731,0,42.969-19.238,42.969-42.969C809.778,311.472,790.54,292.234,766.809,292.234z"
			/>
		<path style="fill:#8DC000;" d="M1199,279.661v87.436c-0.08,0.05-0.17,0.09-0.25,0.13c-6.737,3.464-14.373,5.41-22.458,5.41
			c-9.323,0-18.036-2.585-25.462-7.087c-1.417-0.858-2.795-1.787-4.112-2.785c-3.883-2.914-7.326-6.398-10.201-10.331
			c-9.293,5.07-19.943,7.955-31.271,7.955c-1.707,0-3.394-0.07-5.071-0.2c-1.258-0.09-2.505-0.23-3.733-0.399
			c-10.68-1.437-20.542-5.47-28.936-11.419c-2.944,7.037-7.256,13.375-12.596,18.665c-1.896,1.876-3.923,3.623-6.059,5.22
			c-9.562,7.147-21.44,11.379-34.306,11.379c-1.767,0-3.513-0.08-5.24-0.239c-18.306-1.657-34.126-11.918-43.399-26.69
			c-10.66,7.446-23.616,11.818-37.599,11.818c-20.192,0-38.238-9.093-50.305-23.406c-6.598,23.576-28.237,40.883-53.929,40.883
			c-13.824,0-26.46-5.001-36.232-13.315c-11.997-10.171-19.643-25.312-19.773-42.251c-0.01-0.15-0.01-0.299-0.01-0.449
			c0-13.445,4.741-25.792,12.646-35.453c10.271-12.546,25.891-20.561,43.369-20.561c15.481,0,29.495,6.278,39.635,16.439
			c5.779-30.423,32.499-53.42,64.599-53.42c26.52,0,49.367,15.711,59.768,38.328c3.204-1.667,6.578-3.044,10.101-4.092
			c5.18-1.547,10.68-2.385,16.369-2.385c4.003,0,7.905,0.409,11.678,1.198c5.869,1.218,11.419,3.334,16.479,6.198
			c0.03-0.09,0.06-0.19,0.09-0.28c4.611-15.082,14.533-27.838,27.578-36.092c4.042-2.565,8.394-4.691,12.976-6.318
			c6.847-2.445,14.213-3.773,21.899-3.773c11.279,0,21.879,2.855,31.131,7.895c3.653,1.976,7.087,4.292,10.281,6.907
			c9.542,7.845,16.828,18.346,20.721,30.373c2.894-0.529,5.869-0.828,8.913-0.828c8.085,0,15.72,1.946,22.458,5.41
			C1198.83,279.571,1198.92,279.621,1199,279.661z"/>
		<path style="fill:#8DC000;" d="M429.725,341.385c0,10.77-3.453,20.721-9.313,28.826c-7.566,10.46-19.134,17.836-32.469,19.863
			c-2.436,0.379-4.931,0.569-7.476,0.569c-15.611,0-29.515-7.256-38.538-18.585c-0.419-0.529-0.839-1.068-1.238-1.617
			c-9.283,5.07-19.943,7.955-31.271,7.955c-14.064,0-27.079-4.462-37.729-12.017c-8.664,20.711-29.115,35.264-52.97,35.264
			c-9.732,0-18.905-2.436-26.929-6.717c-8.883-4.721-16.369-11.718-21.699-20.212c-5.33,3.723-11.229,6.677-17.547,8.704h-0.01
			c-2.136,0.679-4.312,1.258-6.538,1.727c-4.362,0.918-8.883,1.397-13.515,1.397c-9.931,0-19.344-2.206-27.778-6.148
			c-1.747-0.809-3.454-1.707-5.11-2.665c-6.618-3.833-12.507-8.784-17.407-14.603c-4.212,15.032-14.533,27.518-28.117,34.585
			c-2.066,1.078-4.212,2.036-6.428,2.845c-6.039,2.236-12.576,3.453-19.394,3.453c-9.113,0-17.707-2.176-25.312-6.029v-99.962
			c3.104-1.587,6.378-2.875,9.792-3.863c4.921-1.417,10.131-2.176,15.521-2.176c9.053,0,17.607,2.146,25.173,5.969
			c0.03,0.01,0.06,0.02,0.09,0.04c5.34,2.705,10.191,6.238,14.373,10.43c0.928-4.871,2.385-9.542,4.322-13.964
			c7.466-17.078,21.949-30.363,39.815-36.212c3.993-1.307,8.165-2.236,12.457-2.765c2.625-0.319,5.29-0.479,8.005-0.479
			c11.069,0,21.48,2.735,30.632,7.556c3.803,2.016,7.396,4.392,10.72,7.087c4.731,3.833,8.923,8.314,12.437,13.305
			c2.296,3.254,4.302,6.727,5.979,10.38c7.925-4.122,16.918-6.468,26.47-6.468c10.241,0,19.843,2.685,28.167,7.386
			c8.085-26.879,33.018-46.463,62.532-46.463c29.046,0,53.649,18.954,62.133,45.175c2.895-0.529,5.869-0.818,8.913-0.818
			c16.25,0,30.662,7.875,39.626,20.012c3.923,5.29,6.807,11.409,8.354,18.026C429.286,333.78,429.725,337.533,429.725,341.385z"/>
	</g>
	<g>
		<path style="fill:#A2D612;" d="M1199,337.712v84.062h-0.25v39.166c-11.019,8.284-24.714,13.195-39.566,13.195
			c-1.477,0-2.935-0.05-4.382-0.15c-3.883-0.25-7.666-0.838-11.329-1.737c-19.074-4.661-34.895-17.627-43.408-34.845
			c-0.908-1.837-1.737-3.723-2.475-5.649c-2.006,1.208-4.092,2.296-6.238,3.254c-7.566,3.434-15.96,5.34-24.803,5.34
			c-5.61,0-11.039-0.769-16.19-2.206c-3.683-1.018-7.226-2.395-10.59-4.062c-5.53-2.755-10.58-6.318-14.992-10.56
			c-5.909,8.225-13.604,15.092-22.518,20.002c-9.732,5.38-20.911,8.434-32.808,8.434c-10.72,0-20.851-2.485-29.864-6.897
			c-12.876,18.445-34.236,30.533-58.44,30.533c-29.734,0-55.196-18.226-65.866-44.107c-6.348,2.505-13.255,3.893-20.492,3.893
			c-10.021,0-19.424-2.635-27.548-7.246c-3.214-1.826-6.228-3.962-9.003-6.358c-4.631-4.023-8.604-8.774-11.708-14.094
			c-4.841-8.275-7.616-17.897-7.616-28.167c0-3.683,0.359-7.286,1.038-10.77c0.609-3.104,1.467-6.118,2.575-9.013
			c4.741-12.556,13.884-22.947,25.542-29.295c7.935-4.332,17.038-6.797,26.72-6.797c4.781,0,9.432,0.609,13.864,1.747
			c12.666,3.224,23.596,10.8,31.132,21.021c11.658-8.344,25.931-13.265,41.362-13.265c12.556,0,24.344,3.264,34.595,8.963
			c12.457-15.98,31.87-26.281,53.709-26.281c16.609,0,31.82,5.959,43.628,15.85c0.709,0.589,1.397,1.188,2.086,1.807
			c0.928,0.848,1.836,1.717,2.715,2.615c1.238,1.248,2.425,2.545,3.563,3.893c1.128-1.268,2.306-2.495,3.543-3.663
			c8.504-8.095,19.364-13.734,31.451-15.77c0.489-0.08,0.978-0.16,1.467-0.23c2.825-0.409,5.709-0.619,8.644-0.619
			c11.758,0,22.717,3.364,31.99,9.173c0.569,0.359,1.138,0.729,1.687,1.118c0.419,0.27,0.838,0.559,1.248,0.858
			c8.404,5.979,15.211,14.064,19.653,23.486c7.676-5.43,16.559-9.283,26.171-11.039c0.898-0.16,1.797-0.309,2.705-0.429
			c3.004-0.419,6.069-0.639,9.183-0.639c11.608,0,22.518,3.004,31.99,8.274c2.026-4.472,4.572-8.664,7.576-12.477
			C1198.83,337.922,1198.92,337.822,1199,337.712z"/>
		<path style="fill:#A2D612;" d="M389.77,375.312c0,5.09-0.629,10.041-1.826,14.762c-1.587,6.328-4.172,12.247-7.586,17.607
			c-3.394,5.33-7.606,10.081-12.447,14.094c-8.354,6.917-18.595,11.628-29.834,13.235c-2.815,0.409-5.699,0.619-8.634,0.619
			c-8.843,0-17.247-1.916-24.823-5.35c-9.083,25.562-33.467,43.858-62.143,43.858c-16.569,0-31.701-6.108-43.289-16.199
			c-8.075-7.037-14.423-16-18.316-26.181c-6.089,3.663-12.876,6.278-20.122,7.596c-3.543,0.659-7.187,0.998-10.92,0.998h-0.299
			c-16.1-0.08-30.702-6.478-41.472-16.828c-0.13,0.19-0.27,0.369-0.399,0.549c-2.386,3.264-5.061,6.298-7.975,9.073
			c-11.548,11.029-26.959,18.026-44.007,18.745c-0.968,0.05-1.946,0.07-2.934,0.07c-2.356,0-4.681-0.12-6.977-0.359
			c-8.145-0.828-15.86-3.094-22.897-6.538C17.11,453.315,9.654,460.292,1,465.472v-68.531c0.639,0.359,1.288,0.699,1.936,1.038
			v-60.456c11.548-12.407,27.678-20.502,45.704-21.579c0.689-0.04,1.387-0.07,2.096-0.09c0.299-0.01,0.599-0.02,0.898-0.01
			c0.369-0.02,0.739-0.02,1.108-0.02c15.71,0,30.173,5.33,41.702,14.283c1.767,1.377,3.463,2.835,5.09,4.372
			c0.759,0.719,1.497,1.457,2.206,2.206c1.038,1.068,2.036,2.166,2.994,3.304c2.216-2.495,4.631-4.801,7.226-6.887
			c8.404-6.797,18.655-11.379,29.884-12.866c0.469-0.07,0.928-0.12,1.397-0.17c2.166-0.24,4.362-0.359,6.588-0.359
			c12.786,0,24.654,3.983,34.405,10.78c0.798,0.549,1.577,1.118,2.336,1.707c7.576,5.829,13.724,13.415,17.846,22.148
			c10.75-7.616,23.875-12.107,38.059-12.107c11.608,0,22.508,3.004,31.99,8.274c9.452-20.941,30.513-35.523,54.977-35.523
			c27.928,0,51.414,18.974,58.291,44.736C389.061,364.692,389.77,369.922,389.77,375.312z"/>
		<path style="fill:#A2D612;" d="M731.487,358.335c-5.708,0-11.156,1.097-16.161,3.073c-8.413-20.41-28.494-34.78-51.94-34.78
			c-19.084,0-35.933,9.526-46.083,24.074c-7.111-3.479-15.101-5.437-23.551-5.437c-17.98,0-33.884,8.851-43.624,22.423
			c-8.549-8.213-20.151-13.271-32.942-13.271c-8.953,0-17.326,2.478-24.478,6.779c-7.482-19.542-26.402-33.424-48.575-33.424
			c-22.61,0-41.842,14.433-49.007,34.584c-5.972-2.701-12.594-4.217-19.575-4.217c-26.271,0-47.567,21.297-47.567,47.568
			c0,26.271,21.297,47.568,47.567,47.568c19.298,0,35.899-11.499,43.359-28.012c7.472,4.153,16.069,6.526,25.223,6.526
			c11.182,0,29.139,12.597,37.62,6.592c7.609,16.138,16.409,11.172,35.433,11.172c14.151,0,26.851-6.186,35.564-15.993
			c9.846,11.648,24.555,19.053,41.002,19.053c17.22,0,32.534-8.118,42.355-20.725c8.078,4.498,17.376,7.07,27.279,7.07
			c12.167,0,23.42-3.882,32.617-10.456c8.022,10.884,20.926,17.949,35.484,17.949c24.332,0,44.057-19.725,44.057-44.057
			C775.545,378.061,755.82,358.335,731.487,358.335z"/>
	</g>
</g>
<rect y="407.89" style="fill:#683C11;" width="1200" height="192.11"/>
<rect y="550.844" style="fill:#432918;" width="1200" height="49.156"/>
<rect y="550.844" style="fill:#4D301D;" width="1200" height="13.914"/>
<rect y="600" style="fill:#313131;" width="1200" height="600"/>
<g>
	<g>
		<g>
			<path style="fill:#FEC09B;" d="M529.473,210.264c7.678-6.295,13.724-17.862,16.196-24.491
				c6.156-16.506,3.262-35.662,3.281-40.917c-0.443-3.979,0.606-7.74,1.093-9.211c0.134-0.407,0.613-0.582,0.979-0.36
				c2.665,1.617,1.756,8.309,1.756,8.309s3.259-4.221,4.617-8.08c1.358-3.859,3.334-4.161,3.334-4.161
				c2.313,1.853-1.101,10.831-1.316,11.394l5.519-8.818c0.552-0.877,2.067-0.521,1.956,0.511
				c-0.446,4.203-4.336,10.623-4.336,10.623c3.245-4.685,5.378-6.83,6.703-8.19c0.634-0.651,1.708,0.209,1.415,1.068
				c-1.437,4.229-8.037,13.783-8.037,13.783s2.81,13.701-2.069,42.867c-3.48,13.068-14.404,28.682-25.387,35.165
				C534.367,225.826,529.701,210.818,529.473,210.264z"/>
			<path style="fill:#7F3163;" d="M518.949,216.47c0,0,14.708-8.089,16.823-14.984c0,0,5.791,4.229,2.85,11.675
				c0,0,4.412,5.883,1.471,12.594c0,0,4.964,7.722-1.287,11.583c0,0,1.471,7.538-4.596,8.917c0,0-0.092,8.825-12.594,7.17
				C521.615,253.425,518.949,221.986,518.949,216.47z"/>
			<path style="fill:#69204F;" d="M461.778,224.662c0,0-16.37,14.79-20.415,22.512c0,0,0.552,7.538,6.435,7.538
				c0,0-0.368,5.148,6.067,5.148c0,0,2.296,5.883,7.859,4.229c0,0,3.356,7.211,10.526,6.179c0,0,3.861-12.43,0-26.955
				S461.778,224.662,461.778,224.662z"/>
			<path style="fill:#7F3163;" d="M459.434,226.834l4.911,18.685c0,0-4.773,7.722-1.283,14.341c3.49,6.619,9.189,6.251,9.189,6.251
				s0.6,15.076-3.561,20.592c-4.161,5.516-20.708,25.739-24.752,80.895s-31.255,142.67-31.255,142.67s46.331,8.273,88.985,8.273
				c42.654,0,77.402-8.273,77.402-8.273s-34.197-104.694-38.425-138.666s-16.731-66.882-27.394-83.245
				c-4.148-14.708-0.919-23.349-0.919-23.349s12.87-1.839,9.193-18.753l-2.574-29.784
				C500.293,218.309,470.472,215.795,459.434,226.834z"/>
			<path style="fill:#1F242E;" d="M500.012,154.295c0,0,3.953-19.456-17.834-18.169c-21.787,1.287-8.809,24.512-8.809,24.512
				L500.012,154.295z"/>
			<path style="fill:#FEC09B;" d="M486.959,154.696c-8.148,1.438-20.776,4.596-17.834,25.372
				c2.942,20.775,5.332,28.313,21.143,28.313s20.408-12.318,18.385-30.704C506.631,159.292,499.461,152.49,486.959,154.696z"/>
			<path style="fill:#FA9480;" d="M494.956,187.388l-3.493,3.493C491.463,190.881,495.876,191.984,494.956,187.388z"/>
			<g>
				<path style="fill:#313131;" d="M481.028,183.01c-1.359,0-2.918-0.317-4.591-1.23c-0.198-0.108-0.271-0.356-0.163-0.555
					c0.108-0.198,0.354-0.271,0.555-0.163c4.999,2.728,8.818-0.318,8.857-0.35c0.174-0.143,0.431-0.118,0.575,0.058
					c0.143,0.175,0.117,0.432-0.058,0.575C486.174,181.369,484.116,183.01,481.028,183.01z"/>
			</g>
			<g>
				<path style="fill:#313131;" d="M499.222,182.12c-1.71,0-2.957-0.635-2.98-0.647c-0.199-0.105-0.276-0.351-0.172-0.551
					c0.104-0.2,0.351-0.278,0.551-0.173c0.162,0.085,3.987,2.01,7.226-1.687c0.149-0.169,0.407-0.185,0.577-0.038
					c0.169,0.148,0.186,0.407,0.038,0.577C502.712,181.595,500.776,182.12,499.222,182.12z"/>
			</g>
			<path style="fill:#FFFFFF;" d="M490.636,194.592c-4.32,0-4.504,9.376,0.552,9.376
				C496.243,203.968,494.865,194.592,490.636,194.592z"/>
			<path style="fill:#30343D;" d="M487.394,158.373c0,0-1.447,9.101-10.455,11.95c-9.009,2.85-3.217,6.067-4.229,10.204
				c-1.011,4.137-4.157,2.911-3.125,5.883s3.585,2.942,2.666,5.699c-0.919,2.758-4.045,5.608-0.46,10.204
				c0,0-5.608-3.126-5.608-7.814c0-4.688,3.034-2.526,1.931-5.308c-1.103-2.782-2.942-1.771-2.942-5.08
				c0-3.309,2.482-2.64,2.482-4.721s-1.931-1.897-1.287-5.39c0.644-3.493,1.471-4.78,1.471-6.986
				c0-2.206-0.735-12.134,18.845-14.892c19.58-2.758,25.188,10.296,26.107,16.915c0.919,6.619-2.298,6.044-1.195,8.997
				c1.103,2.953,2.574,2.953,2.574,5.803c0,2.85-2.666,2.622-2.666,5.356c0,2.734,3.217,4.204,2.206,7.33
				c-1.011,3.126-4.872,4.137-4.229,8.365c0,0-1.379-3.309-1.379-6.343s2.574-1.103,2.574-2.942c0-1.839-2.758-2.298-3.309-5.148
				c-0.552-2.85,2.482-2.574,2.482-5.883c0-3.309-2.942-1.195-3.585-4.045c-0.643-2.85,1.93-3.677,1.379-6.619
				C507.091,170.967,489.484,167.657,487.394,158.373z"/>
			<path style="fill:#FE5E54;" d="M475.652,155.845c0,0-2.39-5.286-8.549-2.804C467.103,153.041,467.186,159.568,475.652,155.845z"
				/>
			<path style="fill:#FE5E54;" d="M481.136,148.366c0,0-5.752,0.752-5.166,7.366C475.97,155.732,482.239,157.548,481.136,148.366z"
				/>
			<path style="fill:#D20C1B;" d="M475.474,155.845c0,0,3.185-4.849-2.209-8.722C473.265,147.123,467.797,150.688,475.474,155.845z"
				/>
			<path style="fill:#FFDE31;" d="M476.387,153.684c1.193,0.406,1.831,1.703,1.425,2.896c-0.406,1.193-1.703,1.831-2.896,1.425
				c-1.193-0.406-1.831-1.703-1.425-2.896C473.898,153.916,475.194,153.278,476.387,153.684z"/>
			<path style="fill:#FEC09B;" d="M494.431,205.807c0,0-0.952,9.711,0,10.663c0.952,0.952,19.922,1.839,24.519,0
				c0,0,0.552,5.7-6.251,7.906c-6.803,2.206-20.362,9.376-21.235,16.363c0,0-7.852-7.78-19.475-9.618
				c-11.624-1.839-10.21-6.459-10.21-6.459s8.266-4.882,23.135-8.192c0,0,1.031-6.803,1.031-10.663H494.431z"/>
			<path style="fill:#78245A;" d="M472.251,266.111c0,0,2.688,0.146,12.663-2.022c0,0-4.375,3.188-12.617,3.311L472.251,266.111z"/>
			<path style="fill:#78245A;" d="M512.331,265.008c0,0-5.393,0.98-11.276-1.348c0,0,3.617,2.88,10.848,2.88L512.331,265.008z"/>
			<path style="fill:#FEC09B;" d="M447.982,288.909c14.429,25.813,25.188,34.748,25.188,34.748s0.824,11.583,2.346,15.782
				c0.309,0.853,1.684,0.853,1.772-0.051c0.184-1.89,0.507-4.898,0.11-10.583c0,0,0.978,7.442,3.258,11.002
				c0.559,0.875,1.963,0.206,1.846-0.824l-1.206-10.333c0.184,0.574,3.133,9.715,6.097,9.715c0,0,1.353-1.471,0-5.332
				c-1.353-3.861-1.449-9.193-1.449-9.193s3.475,5.792,6.566,5.387c0.425-0.056,0.688-0.492,0.539-0.893
				c-0.54-1.453-2.073-5.044-4.906-7.872c-3.271-4.113-17.507-17.253-23.023-33.984c-2.324-7.045-4.224-14.235-3.474-22.368
				c-5.508,1.574-7.781-4.251-7.781-4.251c-6.435,0-6.067-5.148-6.067-5.148c-1.096,0-2.008-0.265-2.765-0.684
				C442.525,263.978,442.29,275.995,447.982,288.909z"/>
		</g>
	</g>
	<g>
		<g>
			<path style="fill:#490C38;" d="M580.417,371.424c0,0,9.377,41.566,20.408,43.166s17.224-66.425,17.224-66.425
				s5.293,66.425,17.384,66.425s30.289-33.428,28.27-47.119c-2.019-13.691-47.031-38.886-47.031-38.886L580.417,371.424z"/>
			<g>
				<path style="fill:#0D0105;" d="M593.989,502.947c0,0,0.797,2.743,0,6.372c0,0-11.777,0.223-15.405,1.285
					c-3.628,1.062-3.179,2.431-9.905,2.874c-6.726,0.442-15.575-0.443-15.575-0.443s-2.124-3.54,1.327-6.106
					c3.451-2.566,19.469-6.372,19.469-6.372l0.797-1.947l18.85,0.796L593.989,502.947z"/>
				<polygon style="fill:#2D2D2D;" points="593.989,509.319 593.482,514.186 581.776,514.186 580.803,511.089 573.9,514.186 
					553.546,514.186 552.849,512.5 573.4,512.5 580.537,509.319 				"/>
			</g>
			<g>
				<path style="fill:#0D0105;" d="M660.181,502.947c0,0-0.796,2.743,0,6.372c0,0,11.777,0.223,15.405,1.285
					c3.628,1.062,3.179,2.431,9.905,2.874c6.726,0.442,15.575-0.443,15.575-0.443s2.124-3.54-1.327-6.106
					c-3.451-2.566-19.469-6.372-19.469-6.372l-0.796-1.947l-18.85,0.796L660.181,502.947z"/>
				<polygon style="fill:#2D2D2D;" points="660.181,509.319 660.689,514.186 672.394,514.186 673.367,511.089 680.27,514.186 
					700.624,514.186 701.321,512.5 680.77,512.5 673.633,509.319 				"/>
			</g>
			<path style="fill:#CCD3E3;" d="M620.999,214.75c0,0,11.448,0.429,21.867,5.914c0,0-15.076,33.431-12.134,54.267
				c2.942,20.837,8.457,37.383,8.457,37.383s-19.611,5.025-44.738-2.084c0,0,9.683-17.405,9.683-37.751s-2.942-56.382-2.942-56.382
				S605.016,213.892,620.999,214.75z"/>
			<path style="fill:#490C38;" d="M595.677,309.619c0,0,26.843,6.496,42.654,1.593l7.477,13.237c0,0-34.55,13.728-55.517-1.593
				L595.677,309.619z"/>
			<path style="fill:#FEC09B;" d="M542.333,319.485c0,0-16.325,17.903-19.061,16.621c-2.735-1.282,5.203-9.111,5.203-9.111
				s-7.915,8.73-9.819,6.921c-1.904-1.81,7.002-10.257,7.002-10.257s-8.132,8.084-10.38,5.949
				c-2.248-2.136,9.046-11.169,9.046-11.169s-8.528-1.735-7.783-3.443s18.546-5.16,18.546-5.16L542.333,319.485z"/>
			<path style="fill:#242833;" d="M590.87,222.998c0,0-7.415,9.581-16.24,24.289c-8.825,14.708-34.564,56.749-43.635,61.17
				c0,0,1.471,14.857,10.786,16.065c0,0,38.3-33.356,55.921-67.92L590.87,222.998z"/>
			<path style="fill:#FEC09B;" d="M703.967,325.067c0,0,16.325,17.903,19.06,16.621c2.735-1.282-5.203-9.111-5.203-9.111
				s7.915,8.73,9.819,6.921c1.904-1.809-7.002-10.257-7.002-10.257s8.132,8.084,10.38,5.949c2.247-2.136-9.046-11.169-9.046-11.169
				s8.528-1.735,7.783-3.443s-18.546-5.16-18.546-5.16L703.967,325.067z"/>
			<path style="fill:#242833;" d="M655.429,228.58c0,0,7.415,9.581,16.24,24.289c8.825,14.708,34.565,56.749,43.635,61.17
				c0,0-1.471,14.857-10.786,16.065c0,0-38.3-33.356-55.921-67.92L655.429,228.58z"/>
			<path style="fill:#242833;" d="M583.91,319.862c0,0-3.493,25.363-3.493,51.562s-9.644,129.915-9.644,129.915
				s6.641,8.067,23.678,6.229l17.864-144.509l16.344,4.413l31.521,141.848c0,0,15.038-0.809,22.414-8.185l-19.1-138.089
				c0,0,0.286-21.788-16.585-43.183H583.91z"/>
			<path style="fill:#30343D;" d="M606.959,277.015c0,0,1.772,17.282-4.663,29.784c-6.435,12.502-17.098,25.372-19.672,38.977
				c-2.574,13.605-2.206,25.647-2.206,25.647s-8.457-16.639-6.803-36.127c1.655-19.488,9.56-40.448,13.054-50.008
				c3.493-9.56,7.137-46.02,2.374-60.424c0,0,5.532-5.518,13.254-7.663C602.296,217.202,607.761,272.419,606.959,277.015z"/>
			<path style="fill:#30343D;" d="M628.893,280.325c0,0-0.219,26.843,6.54,36.219c6.759,9.376,28.27,24.452,28.27,50.927
				c0,0,2.758-30.887,0-43.573c-2.758-12.686-13.421-49.456-13.421-60.855c0-11.399,5.148-34.462,5.148-34.462
				s-7.906-7.456-15.995-9.846C639.434,218.734,628.893,249.253,628.893,280.325z"/>
			<path style="fill:#E5E5E5;" d="M620.129,221.675c1.563,0,6.336,8.641,6.336,8.641s7.177-6.711,7.177-13.697
				c0,0-6.343-7.906-25.004-2.114c0,0-0.827,10.663,4.688,14.249C613.327,228.754,617.647,221.675,620.129,221.675z"/>
			<path style="fill:#30343D;" d="M604.686,158.603c0,0-5.003,11.316-1.043,20.973l6.04-16.366L604.686,158.603z"/>
			<g>
				<path style="fill:#FEC09B;" d="M605.784,175.023c0,0-7.573-1.789-7.326,3.515c0.247,5.304,6.509,3.81,6.509,3.81
					L605.784,175.023z"/>
				<path style="fill:#FA9480;" d="M605.535,177.252l-0.375,3.363c0,0-2.994-0.11-2.939-2.275
					C602.277,176.174,605.535,177.252,605.535,177.252z"/>
			</g>
			<path style="fill:#FEC09B;" d="M631.307,149.647c-11.687-3.275-18.04-4.217-22.974,8.788c-4.933,13.005-8.375,43.436,1.35,46.917
				c9.725,3.481,22.767,7.748,33.179-7.22c8.908-12.805,7.447-34.788,3.399-39.882C642.213,153.156,631.307,149.647,631.307,149.647
				z"/>
			<g>
				<path style="fill:#FEC09B;" d="M647.983,182.786c0,0,7.75,0.701,5.836,5.654c-1.914,4.953-7.38,1.553-7.38,1.553
					L647.983,182.786z"/>
				<path style="fill:#FA9480;" d="M647.513,184.979l-0.709,3.309c0,0,2.875,0.844,3.508-1.228
					C650.945,184.989,647.513,184.979,647.513,184.979z"/>
			</g>
			<g>
				<path style="fill:#41444D;" d="M610.341,176.076c-1.135-0.363-2.351,0.262-2.714,1.398c-0.363,1.135,0.262,2.351,1.398,2.714
					c1.135,0.363,2.351-0.262,2.714-1.398C612.102,177.654,611.476,176.439,610.341,176.076z"/>
				<path style="fill:#41444D;" d="M633.932,178.74c-1.135-0.363-2.351,0.262-2.714,1.398c-0.364,1.135,0.262,2.351,1.398,2.714
					c1.135,0.363,2.351-0.262,2.714-1.398C635.693,180.319,635.067,179.104,633.932,178.74z"/>
				<path style="fill:#FA9480;" d="M618.964,188.622l-4.222-3.028C614.742,185.594,613.642,190.333,618.964,188.622z"/>
			</g>
			<path style="fill:#FFFFFF;" d="M619.578,193.521c5.52-2.208,8.335,9.928,4.29,11.154
				C619.823,205.901,615.288,195.237,619.578,193.521z"/>
			<path style="fill:#30343D;" d="M632.724,162.291c0,0,3.585,22.655,19.244,21.639c0,0-1.036-4.493,0.986-10.998
				s1.92-27.188-17.52-27.648c0,0-3.445-4.321-10.799-4.321c-7.354,0-11.659,3.302-14.951,6.594
				c-3.292,3.292-7.295,11.332-13.27,10.504c0,0,4.201,9.285,15.43,9.285C623.071,167.347,632.724,162.291,632.724,162.291z"/>
			<path style="fill:#FEC09B;" d="M616.806,205.772l-1.273,9.377c0,0,1.93,5.516,4.504,5.516s5.743-5.056,5.743-5.056l0.685-8.181
				L616.806,205.772z"/>
			<polygon style="fill:#32082D;" points="613.051,221.35 620.038,225.077 627.667,221.35 628.219,230.776 620.038,226.915 
				612.316,230.776 			"/>
			<path style="fill:#490C38;" d="M637.473,217.202c0,0-6.285,19.366-7.861,35.668c-1.576,16.302-0.718,27.455-0.718,27.455
				s0.261,1.081,0.718,0c2.381-5.629,10.083-25.027,13.99-27.701l-7.471-5.27l9.677-0.368l6.251-23.533
				C652.059,223.453,647.769,218.55,637.473,217.202z"/>
			<path style="fill:#490C38;" d="M606.953,279.344c0,0,0.292-51.907-3.47-63.95c0,0-8.542,0.459-15.038,4.136l2.206,19.734
				l7.05,3.187l-4.354,4.412c0,0,10.993,24.467,12.502,32.481C605.987,280.068,607.004,278.887,606.953,279.344z"/>
			<path style="fill:#E5E5E5;" d="M620.267,233.013c-0.745-0.156-1.475,0.32-1.632,1.065c-0.156,0.745,0.32,1.475,1.065,1.632
				c0.745,0.157,1.475-0.32,1.632-1.065C621.489,233.9,621.012,233.17,620.267,233.013z"/>
			<path style="fill:#E5E5E5;" d="M618.942,255.239c-0.745-0.156-1.475,0.32-1.632,1.065c-0.156,0.745,0.32,1.475,1.065,1.632
				c0.745,0.156,1.475-0.32,1.632-1.065C620.164,256.126,619.687,255.395,618.942,255.239z"/>
			<path style="fill:#E5E5E5;" d="M618.889,277.465c-0.745-0.157-1.475,0.32-1.632,1.065s0.32,1.475,1.065,1.632
				c0.745,0.156,1.475-0.32,1.632-1.065C620.111,278.352,619.634,277.621,618.889,277.465z"/>
			<path style="fill:#E5E5E5;" d="M618.333,299.69c-0.745-0.157-1.475,0.32-1.632,1.065s0.32,1.475,1.065,1.632
				c0.745,0.156,1.475-0.32,1.632-1.065C619.554,300.578,619.077,299.847,618.333,299.69z"/>
		</g>
	</g>
</g>
<g>
	<defs>
		<filter id="Adobe_OpacityMaskFilter" filterUnits="userSpaceOnUse" x="397" y="0" width="320" height="522.939">
			<feFlood  style="flood-color:white;flood-opacity:1" result="back"/>
			<feBlend  in="SourceGraphic" in2="back" mode="normal"/>
		</filter>
	</defs>
	<mask maskUnits="userSpaceOnUse" x="397" y="0" width="320" height="522.939" id="SVGID_1_">
		<g style="filter:url(#Adobe_OpacityMaskFilter);">
			<defs>
				
					<filter id="Adobe_OpacityMaskFilter_00000158017876379811314690000005433740735813707161_" filterUnits="userSpaceOnUse" x="397" y="0" width="320" height="522.939">
					<feFlood  style="flood-color:white;flood-opacity:1" result="back"/>
					<feBlend  in="SourceGraphic" in2="back" mode="normal"/>
				</filter>
			</defs>
			<mask maskUnits="userSpaceOnUse" x="397" y="0" width="320" height="522.939" id="SVGID_1_">
				<g style="filter:url(#Adobe_OpacityMaskFilter_00000158017876379811314690000005433740735813707161_);">
				</g>
			</mask>
			
				<linearGradient id="SVGID_00000073695913020962730990000006450548452828278196_" gradientUnits="userSpaceOnUse" x1="557" y1="-18.4545" x2="557" y2="544.7294">
				<stop  offset="0" style="stop-color:#FFFFFF"/>
				<stop  offset="1" style="stop-color:#333333"/>
			</linearGradient>
			<path style="mask:url(#SVGID_1_);fill:url(#SVGID_00000073695913020962730990000006450548452828278196_);" d="M717,501.8
				c-41.49,15.47-101.64,22.6-160,20.89c-58.36,1.71-118.51-5.42-160-20.89L529.92,0h54.16L717,501.8z"/>
		</g>
	</mask>
	
		<linearGradient id="SVGID_00000024718876434278866710000005953228029188572571_" gradientUnits="userSpaceOnUse" x1="557" y1="-18.4545" x2="557" y2="544.7294">
		<stop  offset="0" style="stop-color:#FED000"/>
		<stop  offset="1" style="stop-color:#FFFFFF"/>
	</linearGradient>
	<path style="opacity:0.4;fill:url(#SVGID_00000024718876434278866710000005953228029188572571_);" d="M717,501.8
		c-41.49,15.47-101.64,22.6-160,20.89c-58.36,1.71-118.51-5.42-160-20.89L529.92,0h54.16L717,501.8z"/>
</g>
<g>
	<g>
		<g>
			<path style="fill:#E33D34;" d="M0,6.006c15.792,56.26,67.089,95.141,125.524,95.141S235.256,62.266,251.048,6.006l0.017-5.342H0
				V6.006z"/>
			<path style="fill:#F84E45;" d="M0,0c15.792,56.26,67.089,95.141,125.524,95.141S235.256,56.26,251.048,0H0z"/>
			<path style="fill:#E33D34;" d="M2.538,0c0,0,59.894,82.227,123.341,82.227S246.175,0,246.175,0s-64.462,64.97-120.296,64.97
				C70.046,64.97,2.538,0,2.538,0z"/>
			<path style="fill:#E33D34;" d="M7.106,0c0,0,61.417,43.144,117.25,43.144S242.114,0,242.114,0s-77.659,24.871-117.758,24.871
				C84.258,24.871,7.106,0,7.106,0z"/>
		</g>
	</g>
	<g>
		<g>
			<path style="fill:#E33D34;" d="M237.234,6.006c15.792,56.26,67.089,95.141,125.524,95.141S472.49,62.266,488.282,6.006
				l0.017-5.342H237.234V6.006z"/>
			<path style="fill:#F84E45;" d="M237.234,0c15.792,56.26,67.089,95.141,125.524,95.141S472.49,56.26,488.282,0H237.234z"/>
			<path style="fill:#E33D34;" d="M239.772,0c0,0,59.894,82.227,123.341,82.227C426.56,82.227,483.408,0,483.408,0
				s-64.462,64.97-120.296,64.97C307.279,64.97,239.772,0,239.772,0z"/>
			<path style="fill:#E33D34;" d="M244.34,0c0,0,61.417,43.144,117.25,43.144S479.348,0,479.348,0S401.689,24.871,361.59,24.871
				S244.34,0,244.34,0z"/>
		</g>
	</g>
	<g>
		<g>
			<path style="fill:#E33D34;" d="M474.468,6.006c15.792,56.26,67.089,95.141,125.524,95.141
				c58.435,0,109.732-38.881,125.524-95.141l0.017-5.342H474.468V6.006z"/>
			<path style="fill:#F84E45;" d="M474.468,0c15.792,56.26,67.089,95.141,125.524,95.141c58.435,0,109.732-38.881,125.524-95.141
				H474.468z"/>
			<path style="fill:#E33D34;" d="M477.005,0c0,0,59.894,82.227,123.341,82.227S720.642,0,720.642,0S656.18,64.97,600.347,64.97
				C544.513,64.97,477.005,0,477.005,0z"/>
			<path style="fill:#E33D34;" d="M481.574,0c0,0,61.417,43.144,117.25,43.144C654.657,43.144,716.582,0,716.582,0
				s-77.659,24.871-117.758,24.871C558.725,24.871,481.574,0,481.574,0z"/>
		</g>
	</g>
	<g>
		<g>
			<path style="fill:#E33D34;" d="M711.701,6.006c15.792,56.26,67.089,95.141,125.524,95.141
				c58.434,0,109.732-38.881,125.524-95.141l0.017-5.342H711.701V6.006z"/>
			<path style="fill:#F84E45;" d="M711.701,0c15.792,56.26,67.089,95.141,125.524,95.141C895.66,95.141,946.957,56.26,962.749,0
				H711.701z"/>
			<path style="fill:#E33D34;" d="M714.239,0c0,0,59.894,82.227,123.341,82.227S957.876,0,957.876,0s-64.462,64.97-120.296,64.97
				C781.747,64.97,714.239,0,714.239,0z"/>
			<path style="fill:#E33D34;" d="M718.807,0c0,0,61.417,43.144,117.25,43.144C891.891,43.144,953.815,0,953.815,0
				s-77.659,24.871-117.758,24.871C795.959,24.871,718.807,0,718.807,0z"/>
		</g>
	</g>
	<g>
		<g>
			<path style="fill:#E33D34;" d="M948.935,6.006c15.792,56.26,67.089,95.141,125.524,95.141
				c58.434,0,109.732-38.881,125.524-95.141L1200,0.664H948.935V6.006z"/>
			<path style="fill:#F84E45;" d="M948.935,0c15.792,56.26,67.089,95.141,125.524,95.141c58.434,0,109.732-38.881,125.524-95.141
				H948.935z"/>
			<path style="fill:#E33D34;" d="M951.473,0c0,0,59.894,82.227,123.341,82.227C1138.261,82.227,1195.11,0,1195.11,0
				s-64.462,64.97-120.296,64.97C1018.981,64.97,951.473,0,951.473,0z"/>
			<path style="fill:#E33D34;" d="M956.041,0c0,0,61.417,43.144,117.25,43.144C1129.125,43.144,1191.049,0,1191.049,0
				s-77.659,24.871-117.758,24.871C1033.193,24.871,956.041,0,956.041,0z"/>
		</g>
	</g>
	<g>
		<g>
			<path style="fill:#F89000;" d="M151.7,4.225c11.108,39.573,47.191,66.922,88.294,66.922c41.103,0,77.185-27.349,88.294-66.922
				l0.012-3.758H151.7V4.225z"/>
			<path style="fill:#FFB247;" d="M151.7,0c11.108,39.573,47.191,66.922,88.294,66.922c41.103,0,77.185-27.349,88.294-66.922H151.7z
				"/>
			<path style="fill:#F89000;" d="M153.486,0c0,0,42.13,57.839,86.758,57.839C284.873,57.839,324.86,0,324.86,0
				s-45.343,45.7-84.616,45.7S153.486,0,153.486,0z"/>
			<path style="fill:#F89000;" d="M156.699,0c0,0,43.201,30.347,82.474,30.347C278.446,30.347,322.004,0,322.004,0
				s-54.626,17.494-82.831,17.494C210.967,17.494,156.699,0,156.699,0z"/>
		</g>
	</g>
	<g>
		<g>
			<path style="fill:#F89000;" d="M394.7,4.225c11.108,39.573,47.191,66.922,88.294,66.922c41.103,0,77.185-27.349,88.294-66.922
				l0.012-3.758H394.7V4.225z"/>
			<path style="fill:#FFB247;" d="M394.7,0c11.108,39.573,47.191,66.922,88.294,66.922c41.103,0,77.185-27.349,88.294-66.922H394.7z
				"/>
			<path style="fill:#F89000;" d="M396.486,0c0,0,42.129,57.839,86.758,57.839C527.873,57.839,567.86,0,567.86,0
				s-45.343,45.7-84.616,45.7S396.486,0,396.486,0z"/>
			<path style="fill:#F89000;" d="M399.699,0c0,0,43.201,30.347,82.474,30.347C521.446,30.347,565.004,0,565.004,0
				s-54.626,17.494-82.831,17.494C453.967,17.494,399.699,0,399.699,0z"/>
		</g>
	</g>
	<g>
		<g>
			<path style="fill:#F89000;" d="M637.7,4.225c11.108,39.573,47.191,66.922,88.294,66.922c41.103,0,77.185-27.349,88.294-66.922
				l0.012-3.758H637.7V4.225z"/>
			<path style="fill:#FFB247;" d="M637.7,0c11.108,39.573,47.191,66.922,88.294,66.922c41.103,0,77.185-27.349,88.294-66.922H637.7z
				"/>
			<path style="fill:#F89000;" d="M639.486,0c0,0,42.13,57.839,86.758,57.839C770.873,57.839,810.86,0,810.86,0
				s-45.343,45.7-84.616,45.7S639.486,0,639.486,0z"/>
			<path style="fill:#F89000;" d="M642.699,0c0,0,43.201,30.347,82.474,30.347C764.446,30.347,808.004,0,808.004,0
				s-54.626,17.494-82.831,17.494C696.967,17.494,642.699,0,642.699,0z"/>
		</g>
	</g>
	<g>
		<g>
			<path style="fill:#F89000;" d="M880.7,4.225c11.108,39.573,47.191,66.922,88.294,66.922c41.103,0,77.185-27.349,88.294-66.922
				l0.012-3.758H880.7V4.225z"/>
			<path style="fill:#FFB247;" d="M880.7,0c11.108,39.573,47.191,66.922,88.294,66.922c41.103,0,77.185-27.349,88.294-66.922H880.7z
				"/>
			<path style="fill:#F89000;" d="M882.486,0c0,0,42.129,57.839,86.758,57.839C1013.873,57.839,1053.86,0,1053.86,0
				s-45.343,45.7-84.616,45.7S882.486,0,882.486,0z"/>
			<path style="fill:#F89000;" d="M885.699,0c0,0,43.201,30.347,82.474,30.347c39.273,0,82.831-30.347,82.831-30.347
				s-54.626,17.494-82.831,17.494C939.967,17.494,885.699,0,885.699,0z"/>
		</g>
	</g>
</g>
<g>
	<path style="fill:#F84E45;" d="M1200,0v530.31c-19.48,21-42.01,0-42.01,0c-25.5,27-57,0-57,0c-28.5,25.5-55.5,0-55.5,0
		c-27,25.5-52.5,0-52.5,0l10.15-86.51l2.55-21.79l1.66-14.12l2.85-24.33l5.58-47.53l0.29-2.48l5.42-46.23
		c-0.1-0.06-0.2-0.12-0.3-0.18c-8.01-4.64-15.37-10-22.14-15.96c-42.43-37.29-61.68-97.92-70.11-152.39
		c-2.76-17.82-4.36-34.99-5.23-50.46c-0.11-1.94-0.21-3.86-0.3-5.74c-0.06-1.24-0.11-2.46-0.16-3.66c-0.06-1.47-0.11-2.91-0.16-4.33
		c-0.16-5.15-0.26-10.04-0.29-14.62v-0.06c-0.03-3.4-0.02-6.64,0-9.68c0.01-0.24,0.01-0.48,0.01-0.72c0.04-3.43,0.1-6.61,0.18-9.51
		c0.02-0.68,0.04-1.35,0.06-2c0.09-2.81,0.19-5.33,0.29-7.53c0.03-0.55,0.06-1.08,0.09-1.59c0.21-4.19,0.42-7.02,0.52-8.23
		c0-0.07,0.01-0.13,0.01-0.19C923.99,0.16,924,0,924,0H1200z"/>
	<path style="fill:#E33D34;" d="M1045.491,529.594L1060,303l-34.852,237.468C1025.148,540.468,1033.983,540.188,1045.491,529.594z"
		/>
	<path style="fill:#E33D34;" d="M1100.989,529.594l0.345-226.261l-15.951,235.714
		C1085.382,539.047,1093.521,536.598,1100.989,529.594z"/>
	<path style="fill:#E33D34;" d="M1157.986,529.594l-8.319-227.261l-7.045,237.534
		C1142.621,539.868,1150.876,537.377,1157.986,529.594z"/>
	<path style="fill:#E33D34;" d="M962.688,0c0,0-19.021,211.667,97.312,303c0,0-67-79.333-60.333-303H962.688z"/>
	<path style="fill:#E33D34;" d="M1051.892,0c0,0-14.392,211,46.608,302c0,0-49.108-182.5-8.108-302H1051.892z"/>
	<path style="fill:#E33D34;" d="M1147.5,298.5c0,0-34.5-162.5-11-298.5h32C1168.5,0,1144,203.5,1147.5,298.5z"/>
	<path style="fill:#F89000;" d="M1021.493,286.606c0,0,86.507,22.394,178.507-4.606c0,0-41,61-185,54
		C1015,336,1006.985,311.212,1021.493,286.606z"/>
</g>
<g>
	<path style="fill:#F84E45;" d="M277.22,35.13c0,1.8-0.01,3.66-0.02,5.58c-0.02,1.73-0.04,3.5-0.08,5.31
		c-0.07,4.2-0.2,8.61-0.39,13.22c-0.04,1.11-0.09,2.23-0.14,3.36c-0.02,0.32-0.03,0.64-0.05,0.96c-0.07,1.58-0.16,3.17-0.25,4.79
		c-2.16,38.11-8.71,86.47-26.13,129.66c-13.72,34.03-34.18,64.84-64.54,84.91c-2.22,1.47-4.49,2.88-6.81,4.22
		c-0.1,0.06-0.2,0.12-0.3,0.18l5.07,43.23l0.64,5.48l6.93,59.08l1.5,12.78l1.66,14.12l4.25,36.23l8.45,72.07c0,0-25.5,25.5-52.5,0
		c0,0-27,25.5-55.5,0c0,0-31.5,27-57,0c0,0-22.53,21-42.01,0V397.13c0.64,0.36,1.29,0.7,1.94,1.04V298.02
		c-0.65,0.33-1.3,0.67-1.94,1.03V0h276c0,0,0.01,0.16,0.04,0.47c0,0.06,0.01,0.12,0.01,0.19c0.1,1.26,0.33,4.29,0.55,8.79
		c0.05,0.86,0.09,1.77,0.13,2.74c0.09,2.06,0.18,4.36,0.25,6.88c0.04,1.21,0.07,2.47,0.1,3.78c0.05,2.3,0.09,4.76,0.12,7.35
		C277.21,31.79,277.22,33.43,277.22,35.13z"/>
	<path style="fill:#E33D34;" d="M154.509,529.594L140,303l34.852,237.468C174.852,540.468,166.017,540.188,154.509,529.594z"/>
	<path style="fill:#E33D34;" d="M99.011,529.594l-0.345-226.261l15.951,235.714C114.618,539.047,106.479,536.598,99.011,529.594z"/>
	<path style="fill:#E33D34;" d="M42.014,529.594l8.319-227.261l7.045,237.534C57.379,539.868,49.124,537.377,42.014,529.594z"/>
	<path style="fill:#E33D34;" d="M237.312,0c0,0,19.021,211.667-97.312,303c0,0,67-79.333,60.333-303H237.312z"/>
	<path style="fill:#E33D34;" d="M148.108,0c0,0,14.392,211-46.608,302c0,0,49.108-182.5,8.108-302H148.108z"/>
	<path style="fill:#E33D34;" d="M52.5,298.5c0,0,34.5-162.5,11-298.5h-32C31.5,0,56,203.5,52.5,298.5z"/>
	<path style="fill:#F89000;" d="M178.507,286.606C178.507,286.606,92,309,0,282c0,0,41,61,185,54
		C185,336,193.015,311.212,178.507,286.606z"/>
</g>
<g>
	<g>
		<g>
			<rect x="65.273" y="644.003" style="fill:#142226;" width="156" height="268"/>
			<rect x="65.273" y="644.003" style="fill:#0B1A1F;" width="156" height="17.016"/>
			<rect x="65.273" y="644.003" style="fill:#0B1A1F;" width="19.253" height="268"/>
		</g>
		<g>
			<path style="fill:#535557;" d="M158.715,634.86h-30.885c-2.881,0-5.217-2.336-5.217-5.217v-6.614
				c0-2.881,2.336-5.217,5.217-5.217h30.885c2.881,0,5.217,2.336,5.217,5.217v6.614C163.932,632.524,161.596,634.86,158.715,634.86z
				"/>
			<path style="fill:#75E368;" d="M124.938,629.814v-6.956c0-1.701,1.379-3.079,3.079-3.079h30.512c1.701,0,3.079,1.378,3.079,3.079
				v6.957c0,1.7-1.378,3.078-3.078,3.078h-30.512C126.317,632.893,124.938,631.514,124.938,629.814z"/>
			<g>
				<path style="fill:#02314F;" d="M133.682,630.043v-8.298h4.207v1.257h-2.729v2.264h1.994v1.257h-1.994v2.264h2.729v1.257H133.682
					z"/>
				<path style="fill:#02314F;" d="M144.356,630.043h-1.587l-1.134-2.641l-1.144,2.641h-1.586l1.923-4.169l-1.923-4.122h1.634
					l1.095,2.56l1.087-2.56h1.635l-1.924,4.122L144.356,630.043z"/>
				<path style="fill:#02314F;" d="M147.062,630.043h-1.477v-8.291h1.477V630.043z"/>
				<path style="fill:#02314F;" d="M149.822,623.009h-1.571v-1.257h4.613v1.257H151.3v7.034h-1.479V623.009z"/>
			</g>
		</g>
	</g>
	<g>
		<g>
			<rect x="978.727" y="644.003" style="fill:#142226;" width="156" height="268"/>
			<rect x="978.727" y="644.003" style="fill:#0B1A1F;" width="156" height="17.016"/>
			<rect x="978.727" y="644.003" style="fill:#0B1A1F;" width="19.253" height="268"/>
		</g>
		<g>
			<path style="fill:#535557;" d="M1072.169,634.86h-30.885c-2.881,0-5.217-2.336-5.217-5.217v-6.614
				c0-2.881,2.336-5.217,5.217-5.217h30.885c2.881,0,5.217,2.336,5.217,5.217v6.614
				C1077.387,632.524,1075.051,634.86,1072.169,634.86z"/>
			<path style="fill:#75E368;" d="M1038.392,629.814v-6.956c0-1.701,1.379-3.079,3.079-3.079h30.512c1.7,0,3.079,1.378,3.079,3.079
				v6.957c0,1.7-1.378,3.078-3.078,3.078h-30.512C1039.771,632.893,1038.392,631.514,1038.392,629.814z"/>
			<g>
				<path style="fill:#02314F;" d="M1047.137,630.043v-8.298h4.207v1.257h-2.729v2.264h1.994v1.257h-1.994v2.264h2.729v1.257
					H1047.137z"/>
				<path style="fill:#02314F;" d="M1057.811,630.043h-1.587l-1.134-2.641l-1.144,2.641h-1.586l1.923-4.169l-1.923-4.122h1.634
					l1.095,2.56l1.087-2.56h1.635l-1.924,4.122L1057.811,630.043z"/>
				<path style="fill:#02314F;" d="M1060.517,630.043h-1.478v-8.291h1.478V630.043z"/>
				<path style="fill:#02314F;" d="M1063.276,623.009h-1.571v-1.257h4.613v1.257h-1.563v7.034h-1.479V623.009z"/>
			</g>
		</g>
	</g>
</g>
<g>
	<rect y="912.415" style="fill:#374047;" width="1200" height="287.585"/>
	<rect y="912.415" style="fill:#535557;" width="1200" height="49.498"/>
	<rect y="954.128" style="fill:#464C52;" width="1200" height="7.785"/>
	<rect y="984.411" style="fill:#535557;" width="1200" height="49.498"/>
	<rect y="1056.407" style="fill:#535557;" width="1200" height="49.498"/>
	<rect y="1128.404" style="fill:#535557;" width="1200" height="49.498"/>
	<rect y="1026.124" style="fill:#464C52;" width="1200" height="7.785"/>
	<rect y="1098.12" style="fill:#464C52;" width="1200" height="7.785"/>
	<rect y="1170.117" style="fill:#464C52;" width="1200" height="7.785"/>
</g>
<g>
	<g>
		<g>
			<g>
				<rect x="142.124" y="939.271" style="fill:#432918;" width="23.096" height="69.097"/>
				<rect x="257.604" y="939.271" style="fill:#432918;" width="23.096" height="69.097"/>
			</g>
			<path style="fill:#400830;" d="M242.355,768.399h-64.259c-20.262,0-36.689,16.426-36.689,36.689v87.239h137.636v-87.239
				C279.044,784.825,262.618,768.399,242.355,768.399z"/>
			<path style="fill:#38072A;" d="M242.355,778.132h-64.259c-20.262,0-36.689,16.426-36.689,36.688v87.239h137.636V814.82
				C279.044,794.558,262.618,778.132,242.355,778.132z"/>
			<path style="fill:#490C38;" d="M278.735,939.043H142.662c-5.719,0-10.355-4.636-10.355-10.355v-27.305
				c0-5.719,4.636-10.355,10.355-10.355h136.073c5.719,0,10.355,4.636,10.355,10.355v27.305
				C289.09,934.407,284.454,939.043,278.735,939.043z"/>
			<g>
				<rect x="270.509" y="867.671" style="fill:#432918;" width="9.246" height="23.358"/>
				<path style="fill:#490C38;" d="M275.132,849.666L275.132,849.666c7.122,0,12.896,5.773,12.896,12.896v6.083h-25.791v-6.083
					C262.237,855.439,268.01,849.666,275.132,849.666z"/>
			</g>
			<g>
				
					<rect x="141.229" y="867.671" transform="matrix(-1 -1.224647e-16 1.224647e-16 -1 291.7037 1758.7003)" style="fill:#432918;" width="9.246" height="23.358"/>
				<path style="fill:#490C38;" d="M145.852,849.666L145.852,849.666c-7.122,0-12.896,5.773-12.896,12.896v6.083h25.791v-6.083
					C158.747,855.439,152.974,849.666,145.852,849.666z"/>
			</g>
			<path style="fill:#C25127;" d="M217.349,795.326h-13.301c-2.508,0-4.542-2.034-4.542-4.542v0c0-2.508,2.033-4.542,4.542-4.542
				h13.301c2.508,0,4.542,2.034,4.542,4.542v0C221.891,793.292,219.858,795.326,217.349,795.326z"/>
		</g>
		<g>
			<g>
				<rect x="297.845" y="939.271" style="fill:#432918;" width="23.096" height="69.097"/>
				<rect x="413.324" y="939.271" style="fill:#432918;" width="23.096" height="69.097"/>
			</g>
			<path style="fill:#400830;" d="M398.076,768.399h-64.259c-20.262,0-36.688,16.426-36.688,36.689v87.239h137.636v-87.239
				C434.764,784.825,418.338,768.399,398.076,768.399z"/>
			<path style="fill:#38072A;" d="M398.076,778.132h-64.259c-20.262,0-36.688,16.426-36.688,36.688v87.239h137.636V814.82
				C434.764,794.558,418.338,778.132,398.076,778.132z"/>
			<path style="fill:#490C38;" d="M434.456,939.043H298.383c-5.719,0-10.355-4.636-10.355-10.355v-27.305
				c0-5.719,4.636-10.355,10.355-10.355h136.073c5.719,0,10.355,4.636,10.355,10.355v27.305
				C444.81,934.407,440.174,939.043,434.456,939.043z"/>
			<g>
				<rect x="426.23" y="867.671" style="fill:#432918;" width="9.246" height="23.358"/>
				<path style="fill:#490C38;" d="M430.853,849.666L430.853,849.666c7.122,0,12.896,5.773,12.896,12.896v6.083h-25.791v-6.083
					C417.957,855.439,423.731,849.666,430.853,849.666z"/>
			</g>
			<g>
				
					<rect x="296.949" y="867.671" transform="matrix(-1 -1.224647e-16 1.224647e-16 -1 603.1447 1758.7003)" style="fill:#432918;" width="9.246" height="23.358"/>
				<path style="fill:#490C38;" d="M301.572,849.666L301.572,849.666c-7.122,0-12.896,5.773-12.896,12.896v6.083h25.791v-6.083
					C314.468,855.439,308.694,849.666,301.572,849.666z"/>
			</g>
			<path style="fill:#C25127;" d="M373.07,795.326h-13.301c-2.508,0-4.542-2.034-4.542-4.542v0c0-2.508,2.033-4.542,4.542-4.542
				h13.301c2.508,0,4.542,2.034,4.542,4.542v0C377.612,793.292,375.578,795.326,373.07,795.326z"/>
		</g>
		<g>
			<g>
				<rect x="453.565" y="939.271" style="fill:#432918;" width="23.096" height="69.097"/>
				<rect x="569.045" y="939.271" style="fill:#432918;" width="23.096" height="69.097"/>
			</g>
			<path style="fill:#400830;" d="M553.796,768.399h-64.259c-20.263,0-36.689,16.426-36.689,36.689v87.239h137.636v-87.239
				C590.485,784.825,574.059,768.399,553.796,768.399z"/>
			<path style="fill:#38072A;" d="M553.796,778.132h-64.259c-20.263,0-36.689,16.426-36.689,36.688v87.239h137.636V814.82
				C590.485,794.558,574.059,778.132,553.796,778.132z"/>
			<path style="fill:#490C38;" d="M590.176,939.043H454.103c-5.719,0-10.355-4.636-10.355-10.355v-27.305
				c0-5.719,4.636-10.355,10.355-10.355h136.073c5.719,0,10.355,4.636,10.355,10.355v27.305
				C600.531,934.407,595.895,939.043,590.176,939.043z"/>
			<g>
				<rect x="581.951" y="867.671" style="fill:#432918;" width="9.246" height="23.358"/>
				<path style="fill:#490C38;" d="M586.573,849.666L586.573,849.666c7.122,0,12.896,5.773,12.896,12.896v6.083h-25.791v-6.083
					C573.678,855.439,579.451,849.666,586.573,849.666z"/>
			</g>
			<g>
				
					<rect x="452.67" y="867.671" transform="matrix(-1 -1.224647e-16 1.224647e-16 -1 914.5859 1758.7003)" style="fill:#432918;" width="9.246" height="23.358"/>
				<path style="fill:#490C38;" d="M457.293,849.666L457.293,849.666c-7.122,0-12.896,5.773-12.896,12.896v6.083h25.791v-6.083
					C470.188,855.439,464.415,849.666,457.293,849.666z"/>
			</g>
			<path style="fill:#C25127;" d="M528.79,795.326h-13.301c-2.508,0-4.542-2.034-4.542-4.542v0c0-2.508,2.033-4.542,4.542-4.542
				h13.301c2.508,0,4.542,2.034,4.542,4.542v0C533.332,793.292,531.299,795.326,528.79,795.326z"/>
		</g>
		<g>
			<g>
				<rect x="609.286" y="939.271" style="fill:#432918;" width="23.096" height="69.097"/>
				<rect x="724.766" y="939.271" style="fill:#432918;" width="23.096" height="69.097"/>
			</g>
			<path style="fill:#400830;" d="M709.517,768.399h-64.259c-20.263,0-36.688,16.426-36.688,36.689v87.239h137.636v-87.239
				C746.205,784.825,729.779,768.399,709.517,768.399z"/>
			<path style="fill:#38072A;" d="M709.517,778.132h-64.259c-20.263,0-36.688,16.426-36.688,36.688v87.239h137.636V814.82
				C746.205,794.558,729.779,778.132,709.517,778.132z"/>
			<path style="fill:#490C38;" d="M745.897,939.043H609.824c-5.719,0-10.355-4.636-10.355-10.355v-27.305
				c0-5.719,4.636-10.355,10.355-10.355h136.073c5.719,0,10.355,4.636,10.355,10.355v27.305
				C756.251,934.407,751.616,939.043,745.897,939.043z"/>
			<g>
				<rect x="737.671" y="867.671" style="fill:#432918;" width="9.246" height="23.358"/>
				<path style="fill:#490C38;" d="M742.294,849.666L742.294,849.666c7.122,0,12.896,5.773,12.896,12.896v6.083h-25.791v-6.083
					C729.398,855.439,735.172,849.666,742.294,849.666z"/>
			</g>
			<g>
				
					<rect x="608.391" y="867.671" transform="matrix(-1 -1.224647e-16 1.224647e-16 -1 1226.0269 1758.7003)" style="fill:#432918;" width="9.246" height="23.358"/>
				<path style="fill:#490C38;" d="M613.013,849.666L613.013,849.666c-7.122,0-12.896,5.773-12.896,12.896v6.083h25.791v-6.083
					C625.909,855.439,620.135,849.666,613.013,849.666z"/>
			</g>
			<path style="fill:#C25127;" d="M684.511,795.326H671.21c-2.508,0-4.542-2.034-4.542-4.542v0c0-2.508,2.033-4.542,4.542-4.542
				h13.301c2.508,0,4.542,2.034,4.542,4.542v0C689.053,793.292,687.019,795.326,684.511,795.326z"/>
		</g>
		<g>
			<g>
				<rect x="765.006" y="939.271" style="fill:#432918;" width="23.096" height="69.097"/>
				<rect x="880.486" y="939.271" style="fill:#432918;" width="23.096" height="69.097"/>
			</g>
			<path style="fill:#400830;" d="M865.237,768.399h-64.259c-20.263,0-36.688,16.426-36.688,36.689v87.239h137.636v-87.239
				C901.926,784.825,885.5,768.399,865.237,768.399z"/>
			<path style="fill:#38072A;" d="M865.237,778.132h-64.259c-20.263,0-36.688,16.426-36.688,36.688v87.239h137.636V814.82
				C901.926,794.558,885.5,778.132,865.237,778.132z"/>
			<path style="fill:#490C38;" d="M901.617,939.043H765.544c-5.719,0-10.355-4.636-10.355-10.355v-27.305
				c0-5.719,4.636-10.355,10.355-10.355h136.073c5.719,0,10.355,4.636,10.355,10.355v27.305
				C911.972,934.407,907.336,939.043,901.617,939.043z"/>
			<g>
				<rect x="893.392" y="867.671" style="fill:#432918;" width="9.246" height="23.358"/>
				<path style="fill:#490C38;" d="M898.014,849.666L898.014,849.666c7.122,0,12.896,5.773,12.896,12.896v6.083h-25.791v-6.083
					C885.119,855.439,890.892,849.666,898.014,849.666z"/>
			</g>
			<g>
				
					<rect x="764.111" y="867.671" transform="matrix(-1 -1.224647e-16 1.224647e-16 -1 1537.4681 1758.7003)" style="fill:#432918;" width="9.246" height="23.358"/>
				<path style="fill:#490C38;" d="M768.734,849.666L768.734,849.666c-7.122,0-12.896,5.773-12.896,12.896v6.083h25.791v-6.083
					C781.63,855.439,775.856,849.666,768.734,849.666z"/>
			</g>
			<path style="fill:#C25127;" d="M840.231,795.326H826.93c-2.508,0-4.542-2.034-4.542-4.542v0c0-2.508,2.034-4.542,4.542-4.542
				h13.301c2.508,0,4.542,2.034,4.542,4.542v0C844.773,793.292,842.74,795.326,840.231,795.326z"/>
		</g>
		<g>
			<g>
				<rect x="920.727" y="939.271" style="fill:#432918;" width="23.096" height="69.097"/>
				<rect x="1036.207" y="939.271" style="fill:#432918;" width="23.096" height="69.097"/>
			</g>
			<path style="fill:#400830;" d="M1020.958,768.399h-64.259c-20.263,0-36.688,16.426-36.688,36.689v87.239h137.636v-87.239
				C1057.646,784.825,1041.22,768.399,1020.958,768.399z"/>
			<path style="fill:#38072A;" d="M1020.958,778.132h-64.259c-20.263,0-36.688,16.426-36.688,36.688v87.239h137.636V814.82
				C1057.646,794.558,1041.22,778.132,1020.958,778.132z"/>
			<path style="fill:#490C38;" d="M1057.338,939.043H921.265c-5.719,0-10.355-4.636-10.355-10.355v-27.305
				c0-5.719,4.636-10.355,10.355-10.355h136.073c5.719,0,10.355,4.636,10.355,10.355v27.305
				C1067.693,934.407,1063.057,939.043,1057.338,939.043z"/>
			<g>
				<rect x="1049.112" y="867.671" style="fill:#432918;" width="9.246" height="23.358"/>
				<path style="fill:#490C38;" d="M1053.735,849.666L1053.735,849.666c7.122,0,12.896,5.773,12.896,12.896v6.083h-25.791v-6.083
					C1040.839,855.439,1046.613,849.666,1053.735,849.666z"/>
			</g>
			<g>
				
					<rect x="919.832" y="867.671" transform="matrix(-1 -1.224647e-16 1.224647e-16 -1 1848.9091 1758.7003)" style="fill:#432918;" width="9.246" height="23.358"/>
				<path style="fill:#490C38;" d="M924.455,849.666L924.455,849.666c-7.122,0-12.896,5.773-12.896,12.896v6.083h25.791v-6.083
					C937.35,855.439,931.577,849.666,924.455,849.666z"/>
			</g>
			<path style="fill:#C25127;" d="M995.952,795.326h-13.301c-2.508,0-4.542-2.034-4.542-4.542v0c0-2.508,2.033-4.542,4.542-4.542
				h13.301c2.508,0,4.542,2.034,4.542,4.542v0C1000.494,793.292,998.46,795.326,995.952,795.326z"/>
		</g>
	</g>
	<g>
		<g>
			<g>
				<rect x="219.745" y="1011.167" style="fill:#432918;" width="23.096" height="69.097"/>
				<rect x="335.225" y="1011.167" style="fill:#432918;" width="23.096" height="69.097"/>
			</g>
			<path style="fill:#400830;" d="M319.976,840.295h-64.259c-20.262,0-36.688,16.426-36.688,36.688v87.239h137.636v-87.239
				C356.665,856.721,340.239,840.295,319.976,840.295z"/>
			<path style="fill:#38072A;" d="M319.976,850.028h-64.259c-20.262,0-36.688,16.426-36.688,36.688v87.239h137.636v-87.239
				C356.665,866.454,340.239,850.028,319.976,850.028z"/>
			<path style="fill:#490C38;" d="M356.356,1010.939H220.283c-5.719,0-10.355-4.636-10.355-10.355V973.28
				c0-5.719,4.636-10.355,10.355-10.355h136.073c5.719,0,10.355,4.636,10.355,10.355v27.305
				C366.711,1006.303,362.075,1010.939,356.356,1010.939z"/>
			<g>
				<rect x="348.13" y="939.567" style="fill:#432918;" width="9.246" height="23.358"/>
				<path style="fill:#490C38;" d="M352.753,921.562L352.753,921.562c7.122,0,12.896,5.774,12.896,12.896v6.083h-25.791v-6.083
					C339.858,927.336,345.631,921.562,352.753,921.562z"/>
			</g>
			<g>
				
					<rect x="218.85" y="939.567" transform="matrix(-1 -1.224647e-16 1.224647e-16 -1 446.9453 1902.4927)" style="fill:#432918;" width="9.246" height="23.358"/>
				<path style="fill:#490C38;" d="M223.473,921.562L223.473,921.562c-7.122,0-12.896,5.774-12.896,12.896v6.083h25.791v-6.083
					C236.368,927.336,230.595,921.562,223.473,921.562z"/>
			</g>
			<path style="fill:#C25127;" d="M294.97,867.222h-13.301c-2.508,0-4.542-2.034-4.542-4.542l0,0c0-2.508,2.033-4.542,4.542-4.542
				h13.301c2.508,0,4.542,2.033,4.542,4.542l0,0C299.512,865.189,297.478,867.222,294.97,867.222z"/>
		</g>
		<g>
			<g>
				<rect x="375.465" y="1011.167" style="fill:#432918;" width="23.096" height="69.097"/>
				<rect x="490.945" y="1011.167" style="fill:#432918;" width="23.096" height="69.097"/>
			</g>
			<path style="fill:#400830;" d="M475.697,840.295h-64.259c-20.263,0-36.689,16.426-36.689,36.688v87.239h137.636v-87.239
				C512.385,856.721,495.959,840.295,475.697,840.295z"/>
			<path style="fill:#38072A;" d="M475.697,850.028h-64.259c-20.263,0-36.689,16.426-36.689,36.688v87.239h137.636v-87.239
				C512.385,866.454,495.959,850.028,475.697,850.028z"/>
			<path style="fill:#490C38;" d="M512.077,1010.939H376.003c-5.719,0-10.355-4.636-10.355-10.355V973.28
				c0-5.719,4.636-10.355,10.355-10.355h136.073c5.719,0,10.355,4.636,10.355,10.355v27.305
				C522.431,1006.303,517.795,1010.939,512.077,1010.939z"/>
			<g>
				<rect x="503.851" y="939.567" style="fill:#432918;" width="9.246" height="23.358"/>
				<path style="fill:#490C38;" d="M508.474,921.562L508.474,921.562c7.122,0,12.896,5.774,12.896,12.896v6.083h-25.791v-6.083
					C495.578,927.336,501.352,921.562,508.474,921.562z"/>
			</g>
			<g>
				
					<rect x="374.57" y="939.567" transform="matrix(-1 -1.224647e-16 1.224647e-16 -1 758.3865 1902.4927)" style="fill:#432918;" width="9.246" height="23.358"/>
				<path style="fill:#490C38;" d="M379.193,921.562L379.193,921.562c-7.122,0-12.896,5.774-12.896,12.896v6.083h25.791v-6.083
					C392.089,927.336,386.315,921.562,379.193,921.562z"/>
			</g>
			<path style="fill:#C25127;" d="M450.691,867.222h-13.301c-2.508,0-4.542-2.034-4.542-4.542l0,0c0-2.508,2.034-4.542,4.542-4.542
				h13.301c2.508,0,4.542,2.033,4.542,4.542l0,0C455.232,865.189,453.199,867.222,450.691,867.222z"/>
		</g>
		<g>
			<g>
				<rect x="531.186" y="1011.167" style="fill:#432918;" width="23.096" height="69.097"/>
				<rect x="646.666" y="1011.167" style="fill:#432918;" width="23.096" height="69.097"/>
			</g>
			<path style="fill:#400830;" d="M631.417,840.295h-64.259c-20.262,0-36.688,16.426-36.688,36.688v87.239h137.636v-87.239
				C668.106,856.721,651.68,840.295,631.417,840.295z"/>
			<path style="fill:#38072A;" d="M631.417,850.028h-64.259c-20.262,0-36.688,16.426-36.688,36.688v87.239h137.636v-87.239
				C668.106,866.454,651.68,850.028,631.417,850.028z"/>
			<path style="fill:#490C38;" d="M667.797,1010.939H531.724c-5.719,0-10.355-4.636-10.355-10.355V973.28
				c0-5.719,4.636-10.355,10.355-10.355h136.073c5.719,0,10.355,4.636,10.355,10.355v27.305
				C678.152,1006.303,673.516,1010.939,667.797,1010.939z"/>
			<g>
				<rect x="659.571" y="939.567" style="fill:#432918;" width="9.246" height="23.358"/>
				<path style="fill:#490C38;" d="M664.194,921.562L664.194,921.562c7.122,0,12.896,5.774,12.896,12.896v6.083h-25.791v-6.083
					C651.299,927.336,657.072,921.562,664.194,921.562z"/>
			</g>
			<g>
				
					<rect x="530.291" y="939.567" transform="matrix(-1 -1.224647e-16 1.224647e-16 -1 1069.8275 1902.4927)" style="fill:#432918;" width="9.246" height="23.358"/>
				<path style="fill:#490C38;" d="M534.914,921.562L534.914,921.562c-7.122,0-12.896,5.774-12.896,12.896v6.083h25.791v-6.083
					C547.809,927.336,542.036,921.562,534.914,921.562z"/>
			</g>
			<path style="fill:#C25127;" d="M606.411,867.222H593.11c-2.508,0-4.542-2.034-4.542-4.542l0,0c0-2.508,2.033-4.542,4.542-4.542
				h13.301c2.508,0,4.542,2.033,4.542,4.542l0,0C610.953,865.189,608.92,867.222,606.411,867.222z"/>
		</g>
		<g>
			<g>
				<rect x="686.907" y="1011.167" style="fill:#432918;" width="23.096" height="69.097"/>
				<rect x="802.386" y="1011.167" style="fill:#432918;" width="23.096" height="69.097"/>
			</g>
			<path style="fill:#400830;" d="M787.138,840.295h-64.259c-20.263,0-36.689,16.426-36.689,36.688v87.239h137.636v-87.239
				C823.826,856.721,807.4,840.295,787.138,840.295z"/>
			<path style="fill:#38072A;" d="M787.138,850.028h-64.259c-20.263,0-36.689,16.426-36.689,36.688v87.239h137.636v-87.239
				C823.826,866.454,807.4,850.028,787.138,850.028z"/>
			<path style="fill:#490C38;" d="M823.518,1010.939H687.445c-5.719,0-10.355-4.636-10.355-10.355V973.28
				c0-5.719,4.636-10.355,10.355-10.355h136.073c5.719,0,10.355,4.636,10.355,10.355v27.305
				C833.872,1006.303,829.236,1010.939,823.518,1010.939z"/>
			<g>
				<rect x="815.292" y="939.567" style="fill:#432918;" width="9.246" height="23.358"/>
				<path style="fill:#490C38;" d="M819.915,921.562L819.915,921.562c7.122,0,12.896,5.774,12.896,12.896v6.083h-25.791v-6.083
					C807.019,927.336,812.793,921.562,819.915,921.562z"/>
			</g>
			<g>
				
					<rect x="686.011" y="939.567" transform="matrix(-1 -1.224647e-16 1.224647e-16 -1 1381.2687 1902.4927)" style="fill:#432918;" width="9.246" height="23.358"/>
				<path style="fill:#490C38;" d="M690.634,921.562L690.634,921.562c-7.122,0-12.896,5.774-12.896,12.896v6.083h25.791v-6.083
					C703.53,927.336,697.756,921.562,690.634,921.562z"/>
			</g>
			<path style="fill:#C25127;" d="M762.132,867.222h-13.301c-2.508,0-4.542-2.034-4.542-4.542l0,0c0-2.508,2.034-4.542,4.542-4.542
				h13.301c2.508,0,4.542,2.033,4.542,4.542l0,0C766.674,865.189,764.64,867.222,762.132,867.222z"/>
		</g>
		<g>
			<g>
				<rect x="842.627" y="1011.167" style="fill:#432918;" width="23.096" height="69.097"/>
				<rect x="958.107" y="1011.167" style="fill:#432918;" width="23.096" height="69.097"/>
			</g>
			<path style="fill:#400830;" d="M942.858,840.295h-64.259c-20.262,0-36.688,16.426-36.688,36.688v87.239h137.636v-87.239
				C979.547,856.721,963.121,840.295,942.858,840.295z"/>
			<path style="fill:#38072A;" d="M942.858,850.028h-64.259c-20.262,0-36.688,16.426-36.688,36.688v87.239h137.636v-87.239
				C979.547,866.454,963.121,850.028,942.858,850.028z"/>
			<path style="fill:#490C38;" d="M979.238,1010.939H843.165c-5.719,0-10.355-4.636-10.355-10.355V973.28
				c0-5.719,4.636-10.355,10.355-10.355h136.073c5.719,0,10.355,4.636,10.355,10.355v27.305
				C989.593,1006.303,984.957,1010.939,979.238,1010.939z"/>
			<g>
				<rect x="971.012" y="939.567" style="fill:#432918;" width="9.246" height="23.358"/>
				<path style="fill:#490C38;" d="M975.635,921.562L975.635,921.562c7.122,0,12.896,5.774,12.896,12.896v6.083H962.74v-6.083
					C962.74,927.336,968.513,921.562,975.635,921.562z"/>
			</g>
			<g>
				
					<rect x="841.732" y="939.567" transform="matrix(-1 -1.224647e-16 1.224647e-16 -1 1692.7097 1902.4927)" style="fill:#432918;" width="9.246" height="23.358"/>
				<path style="fill:#490C38;" d="M846.355,921.562L846.355,921.562c-7.122,0-12.896,5.774-12.896,12.896v6.083h25.791v-6.083
					C859.25,927.336,853.477,921.562,846.355,921.562z"/>
			</g>
			<path style="fill:#C25127;" d="M917.852,867.222h-13.301c-2.508,0-4.542-2.034-4.542-4.542l0,0c0-2.508,2.033-4.542,4.542-4.542
				h13.301c2.508,0,4.542,2.033,4.542,4.542l0,0C922.394,865.189,920.361,867.222,917.852,867.222z"/>
		</g>
		<g>
			<path style="fill:#FA2D70;" d="M608.268,853.832c0,0,20.232,31.168,29.232,57.668l-12.2,5.33c0,0-7.638-2.254-15.715-20.16
				l-7.889-26.296L608.268,853.832z"/>
			<polygon style="fill:#022A44;" points="636.771,948.555 613.227,937.644 589.465,967.365 644.556,968.063 			"/>
			<path style="fill:#022A44;" d="M558.022,939.138c0,0-10.012,28.925,14.283,28.925c24.295,0,44.481-4.484,44.481-4.484
				l-3.855-28.093L558.022,939.138z"/>
			<path style="fill:#FD4883;" d="M581.138,841.227c-3.94,0-13.032,1.1-27.078,15.157c-2.266,36.876-2.624,64.688,1.918,92.161
				c21.634-8.239,41.611-14.011,60.605-9.341c-4.686-28.001-5.336-40.357-12.585-68.708l4.269-16.665
				C608.268,853.832,596.734,841.227,581.138,841.227z"/>
			<path style="fill:#FEC09B;" d="M585.791,833.994v7.542c0,0,4.063,0.745,5.563,1.459c0,0,5.881,14.832-2.8,17.247
				c-10.752,2.991-16.754-16.302-16.754-16.302l4.303-1.518l0.11-8.428H585.791z"/>
			<g>
				<path style="fill:#FEC09B;" d="M628.838,1071.436c-2.726-0.527-5.898-0.99-9.589-1.363l-1.614-18.258h-10.086l1.656,22.527
					l0.065,4.778c0.016,1.274,1.055,2.296,2.328,2.296h31.316c1.428,0,2.183-1.72,1.193-2.75
					C642.289,1076.776,638.168,1073.229,628.838,1071.436z"/>
				<path style="fill:#010204;" d="M609.204,1074.342l0.065,4.778c0.016,1.274,1.055,2.296,2.328,2.296h31.316
					c1.428,0,2.182-1.72,1.193-2.75c-1.817-1.89-5.939-5.438-15.269-7.231l-4.462,5.381L609.204,1074.342z"/>
			</g>
			<path style="fill:#073B5C;" d="M605.758,948.555c14.302,0.659,15.332,118.061,15.332,118.061h-15.332
				C605.758,1066.616,579.316,947.336,605.758,948.555z"/>
			<g>
				<path style="fill:#FEC09B;" d="M659.85,1071.436c-2.726-0.527-5.898-0.99-9.59-1.363l-1.614-18.258H638.56l1.656,22.527
					l0.065,4.778c0.016,1.274,1.055,2.296,2.328,2.296h31.316c1.428,0,2.182-1.72,1.193-2.75
					C673.302,1076.776,669.18,1073.229,659.85,1071.436z"/>
				<path style="fill:#010204;" d="M640.217,1074.342l0.065,4.778c0.016,1.274,1.055,2.296,2.328,2.296h31.316
					c1.428,0,2.182-1.72,1.193-2.75c-1.817-1.89-5.939-5.438-15.269-7.231l-4.462,5.381L640.217,1074.342z"/>
			</g>
			<path style="fill:#073B5C;" d="M636.771,948.555c14.302,0.659,15.332,118.061,15.332,118.061h-15.332
				C636.771,1066.616,610.328,947.336,636.771,948.555z"/>
			<path style="fill:#FF73A0;" d="M554.06,856.384c0,0-25.858,41.143-22.94,69.601c3.714,20.552,62.886-4.436,62.886-4.436
				l-1.606-9.285c0,0-35.023-1.336-42.846,1.056l4.813-24.136C554.367,889.185,562.675,864.436,554.06,856.384z"/>
			<path style="fill:#FEC09B;" d="M594.006,921.549c0,0,10.621-1.66,13.777-8.022H592.44L594.006,921.549z"/>
			<path style="fill:#3E3C47;" d="M569.953,765.781c-13.937,0-30.036,23.407-32.268,60.043c0,0,29.591,9.864,72.686-2.936
				C610.372,822.889,615.36,765.781,569.953,765.781z"/>
			<path style="fill:#FEC09B;" d="M570.989,772.678c9.253-1.903,29.483,2.029,32.903,33.373c2.544,23.313-11.382,29.07-19.71,30.782
				c-5.244,1.078-26.837-0.746-31.134-21.645C548.75,794.289,557.109,775.532,570.989,772.678z"/>
			<g>
				<path style="fill:#FA9480;" d="M585.022,819.696l4.818-3.027C589.841,816.669,589.832,821.419,585.022,819.696z"/>
			</g>
			<path style="fill:#3E3C47;" d="M572.233,787.438c0.32,1.719,0.65,3.466,1.46,5.016c0.81,1.549,2.187,2.898,3.901,3.239
				c1.421,0.282,2.971-0.192,3.99-1.222c0.158,1.855,1.521,3.384,3.158,4.27c1.637,0.886,3.542,1.145,5.403,1.188
				c1.017,0.023,2.053-0.016,3.015-0.346c0.962-0.33,1.851-0.988,2.259-1.919c0.613,1.747,2.557,2.894,4.408,2.954
				s3.681-1.106,4.407-2.809c0.449-1.054,0.491-2.259,0.21-3.37c-0.494-1.952-2.009-3.614-3.907-4.286
				c0.734-2.469,1.438-5.604,0.356-7.942c-0.742-1.603-2.248-2.751-3.88-3.43c-1.631-0.678-3.4-0.941-5.148-1.198
				c-4.478-4.292-10.217-7.638-16.399-8.152c-6.181-0.514-12.669,1.653-16.848,6.237c-3.902,4.279-5.515,10.153-6.421,15.873
				c-1.07,6.762-1.33,13.652-0.772,20.475c1.553,0.013,1.021,3.189,2.573,3.203c2.937-6.826,8.415-16.619,12.234-22.994
				C567.605,789.93,569.571,787.675,572.233,787.438z"/>
			<g>
				<path style="fill:#FEC09B;" d="M553.526,810.859c0,0-8.065,0.523-5.921,7.161c2.144,6.638,7.319,1.909,7.319,1.909
					L553.526,810.859z"/>
				<path style="fill:#FA9480;" d="M553.6,813.187l0.874,4.45c0,0-2.773,1.212-3.505-1.569
					C550.236,813.287,553.6,813.187,553.6,813.187z"/>
			</g>
			<path style="fill:#FFFFFF;" d="M590.051,826.234l-19.284-2.755c0,0,0.751,8.765,8.765,9.767
				C587.547,834.248,590.051,826.234,590.051,826.234z"/>
			<g>
				<path style="fill:#FEC09B;" d="M577.651,900.983c0,0-15.364,6.671-19.594,10.001c-4.23,3.329-9.409,8.276-8.445,9.364
					c0.776,0.876,8.668-5.129,8.668-5.129s-8.094,6.336-7.264,7.431c0.898,1.183,9.247-4.803,9.247-4.803s-6.768,5.82-5.946,6.76
					c0.823,0.941,8.925-4.947,8.925-4.947l18.01-8.766L577.651,900.983z"/>
				<path style="fill:#FF73A0;" d="M577.651,900.983l3.601,9.911c0,0,34.597,10.557,47.773,8.417
					c13.175-2.139,9.829-16.636-1.918-18.245C617.042,899.689,602.529,897.386,577.651,900.983z"/>
			</g>
			<circle style="fill:#464954;" cx="596.25" cy="808.875" r="2.125"/>
			<circle style="fill:#464954;" cx="571.25" cy="809.25" r="2.125"/>
		</g>
	</g>
	<g>
		<g>
			<g>
				<rect x="297.845" y="1082.697" style="fill:#432918;" width="23.096" height="69.097"/>
				<rect x="413.324" y="1082.697" style="fill:#432918;" width="23.096" height="69.097"/>
			</g>
			<path style="fill:#400830;" d="M398.076,911.826h-64.259c-20.262,0-36.688,16.426-36.688,36.689v87.239h137.636v-87.239
				C434.764,928.252,418.338,911.826,398.076,911.826z"/>
			<path style="fill:#38072A;" d="M398.076,921.559h-64.259c-20.262,0-36.688,16.426-36.688,36.688v87.239h137.636v-87.239
				C434.764,937.984,418.338,921.559,398.076,921.559z"/>
			<path style="fill:#490C38;" d="M434.456,1082.47H298.383c-5.719,0-10.355-4.636-10.355-10.355v-27.305
				c0-5.719,4.636-10.354,10.355-10.354h136.073c5.719,0,10.355,4.636,10.355,10.354v27.305
				C444.81,1077.834,440.174,1082.47,434.456,1082.47z"/>
			<g>
				<rect x="426.23" y="1011.098" style="fill:#432918;" width="9.246" height="23.358"/>
				<path style="fill:#490C38;" d="M430.853,993.093L430.853,993.093c7.122,0,12.896,5.773,12.896,12.896v6.083h-25.791v-6.083
					C417.957,998.866,423.731,993.093,430.853,993.093z"/>
			</g>
			<g>
				
					<rect x="296.949" y="1011.098" transform="matrix(-1 -1.224647e-16 1.224647e-16 -1 603.1447 2045.554)" style="fill:#432918;" width="9.246" height="23.358"/>
				<path style="fill:#490C38;" d="M301.572,993.093L301.572,993.093c-7.122,0-12.896,5.773-12.896,12.896v6.083h25.791v-6.083
					C314.468,998.866,308.694,993.093,301.572,993.093z"/>
			</g>
			<path style="fill:#C25127;" d="M373.07,938.753h-13.301c-2.508,0-4.542-2.033-4.542-4.542l0,0c0-2.508,2.033-4.542,4.542-4.542
				h13.301c2.508,0,4.542,2.034,4.542,4.542l0,0C377.612,936.719,375.578,938.753,373.07,938.753z"/>
		</g>
		<g>
			<g>
				<rect x="453.565" y="1082.697" style="fill:#432918;" width="23.096" height="69.097"/>
				<rect x="569.045" y="1082.697" style="fill:#432918;" width="23.096" height="69.097"/>
			</g>
			<path style="fill:#400830;" d="M553.796,911.826h-64.259c-20.263,0-36.689,16.426-36.689,36.689v87.239h137.636v-87.239
				C590.485,928.252,574.059,911.826,553.796,911.826z"/>
			<path style="fill:#38072A;" d="M553.796,921.559h-64.259c-20.263,0-36.689,16.426-36.689,36.688v87.239h137.636v-87.239
				C590.485,937.984,574.059,921.559,553.796,921.559z"/>
			<path style="fill:#490C38;" d="M590.176,1082.47H454.103c-5.719,0-10.355-4.636-10.355-10.355v-27.305
				c0-5.719,4.636-10.354,10.355-10.354h136.073c5.719,0,10.355,4.636,10.355,10.354v27.305
				C600.531,1077.834,595.895,1082.47,590.176,1082.47z"/>
			<g>
				<rect x="581.951" y="1011.098" style="fill:#432918;" width="9.246" height="23.358"/>
				<path style="fill:#490C38;" d="M586.573,993.093L586.573,993.093c7.122,0,12.896,5.773,12.896,12.896v6.083h-25.791v-6.083
					C573.678,998.866,579.451,993.093,586.573,993.093z"/>
			</g>
			<g>
				
					<rect x="452.67" y="1011.098" transform="matrix(-1 -1.224647e-16 1.224647e-16 -1 914.5859 2045.554)" style="fill:#432918;" width="9.246" height="23.358"/>
				<path style="fill:#490C38;" d="M457.293,993.093L457.293,993.093c-7.122,0-12.896,5.773-12.896,12.896v6.083h25.791v-6.083
					C470.188,998.866,464.415,993.093,457.293,993.093z"/>
			</g>
			<path style="fill:#C25127;" d="M528.79,938.753h-13.301c-2.508,0-4.542-2.033-4.542-4.542l0,0c0-2.508,2.033-4.542,4.542-4.542
				h13.301c2.508,0,4.542,2.034,4.542,4.542l0,0C533.332,936.719,531.299,938.753,528.79,938.753z"/>
		</g>
		<g>
			<g>
				<rect x="609.286" y="1082.697" style="fill:#432918;" width="23.096" height="69.097"/>
				<rect x="724.766" y="1082.697" style="fill:#432918;" width="23.096" height="69.097"/>
			</g>
			<path style="fill:#400830;" d="M709.517,911.826h-64.259c-20.263,0-36.688,16.426-36.688,36.689v87.239h137.636v-87.239
				C746.205,928.252,729.779,911.826,709.517,911.826z"/>
			<path style="fill:#38072A;" d="M709.517,921.559h-64.259c-20.263,0-36.688,16.426-36.688,36.688v87.239h137.636v-87.239
				C746.205,937.984,729.779,921.559,709.517,921.559z"/>
			<path style="fill:#490C38;" d="M745.897,1082.47H609.824c-5.719,0-10.355-4.636-10.355-10.355v-27.305
				c0-5.719,4.636-10.354,10.355-10.354h136.073c5.719,0,10.355,4.636,10.355,10.354v27.305
				C756.251,1077.834,751.616,1082.47,745.897,1082.47z"/>
			<g>
				<rect x="737.671" y="1011.098" style="fill:#432918;" width="9.246" height="23.358"/>
				<path style="fill:#490C38;" d="M742.294,993.093L742.294,993.093c7.122,0,12.896,5.773,12.896,12.896v6.083h-25.791v-6.083
					C729.398,998.866,735.172,993.093,742.294,993.093z"/>
			</g>
			<g>
				
					<rect x="608.391" y="1011.098" transform="matrix(-1 -1.224647e-16 1.224647e-16 -1 1226.0269 2045.554)" style="fill:#432918;" width="9.246" height="23.358"/>
				<path style="fill:#490C38;" d="M613.013,993.093L613.013,993.093c-7.122,0-12.896,5.773-12.896,12.896v6.083h25.791v-6.083
					C625.909,998.866,620.135,993.093,613.013,993.093z"/>
			</g>
			<path style="fill:#C25127;" d="M684.511,938.753H671.21c-2.508,0-4.542-2.033-4.542-4.542l0,0c0-2.508,2.033-4.542,4.542-4.542
				h13.301c2.508,0,4.542,2.034,4.542,4.542l0,0C689.053,936.719,687.019,938.753,684.511,938.753z"/>
		</g>
		<g>
			<g>
				<rect x="765.006" y="1082.697" style="fill:#432918;" width="23.096" height="69.097"/>
				<rect x="880.486" y="1082.697" style="fill:#432918;" width="23.096" height="69.097"/>
			</g>
			<path style="fill:#400830;" d="M865.237,911.826h-64.259c-20.263,0-36.688,16.426-36.688,36.689v87.239h137.636v-87.239
				C901.926,928.252,885.5,911.826,865.237,911.826z"/>
			<path style="fill:#38072A;" d="M865.237,921.559h-64.259c-20.263,0-36.688,16.426-36.688,36.688v87.239h137.636v-87.239
				C901.926,937.984,885.5,921.559,865.237,921.559z"/>
			<path style="fill:#490C38;" d="M901.617,1082.47H765.544c-5.719,0-10.355-4.636-10.355-10.355v-27.305
				c0-5.719,4.636-10.354,10.355-10.354h136.073c5.719,0,10.355,4.636,10.355,10.354v27.305
				C911.972,1077.834,907.336,1082.47,901.617,1082.47z"/>
			<g>
				<rect x="893.392" y="1011.098" style="fill:#432918;" width="9.246" height="23.358"/>
				<path style="fill:#490C38;" d="M898.014,993.093L898.014,993.093c7.122,0,12.896,5.773,12.896,12.896v6.083h-25.791v-6.083
					C885.119,998.866,890.892,993.093,898.014,993.093z"/>
			</g>
			<g>
				
					<rect x="764.111" y="1011.098" transform="matrix(-1 -1.224647e-16 1.224647e-16 -1 1537.4681 2045.554)" style="fill:#432918;" width="9.246" height="23.358"/>
				<path style="fill:#490C38;" d="M768.734,993.093L768.734,993.093c-7.122,0-12.896,5.773-12.896,12.896v6.083h25.791v-6.083
					C781.63,998.866,775.856,993.093,768.734,993.093z"/>
			</g>
			<path style="fill:#C25127;" d="M840.231,938.753H826.93c-2.508,0-4.542-2.033-4.542-4.542l0,0c0-2.508,2.034-4.542,4.542-4.542
				h13.301c2.508,0,4.542,2.034,4.542,4.542l0,0C844.773,936.719,842.74,938.753,840.231,938.753z"/>
		</g>
	</g>
</g>
<g>
	<g>
		<g>
			<path style="fill:#F7B085;" d="M762.014,856.785c0,0-2.712-18.66-2.966-22.36c-0.254-3.7-5.42-8.938-5.42-8.938
				s-1.2-0.049-0.61,2.372s2.5,7.598,2.5,7.598s-3.135-5.725-4.277-6.908c-1.142-1.183-3.458-2.662-3.458-2.662
				s-1.862,1.224-0.633,2.719c1.229,1.496,3.644,5.78,3.654,8.342c0,0-2.207-6.159-6.102-7.746c0,0-1.392,0.938-0.367,2.483
				c1.025,1.545,2.946,5.437,2.724,7.629c-0.222,2.191-0.096,13.973,2.411,20.714C749.471,860.029,756.384,860.722,762.014,856.785z
				"/>
			<polygon style="fill:#07AEAC;" points="771.531,832.041 731.517,825.023 729.438,840.877 769.482,847.487 			"/>
			<polygon style="fill:#0FD5CE;" points="771.305,830.141 730.758,832.65 732.434,848.552 772.916,845.64 			"/>
			<path style="fill:#FEC09B;" d="M760.505,846.116c0,0-2.166-6.474-2.808-7.628c-0.51-0.918-3.548-2.301-4.771-2.829
				c-0.272-0.117-0.633,0.021-0.729,0.279c-0.215,0.578-0.434,1.534,0.143,2.147c0.874,0.927,2.472,1.278,2.884,2.375
				c0.411,1.097,0.459,2.9,0.459,2.9s-2.851,2.356-2.385,6.631c0.466,4.275,3.005,9.372,3.005,9.372
				c2.088-0.614,4.025-0.358,5.666-1.565C761.97,857.797,760.872,848.81,760.505,846.116z"/>
		</g>
		<g>
			<path style="fill:#114E75;" d="M791.581,849.024c0,0-3.929,2.876-5.547,9.888c-1.618,7.012-10.788,62.568-9.709,63.377
				c1.079,0.809,11.597,15.372,11.597,15.372S795.24,857.745,791.581,849.024z"/>
			<polygon style="fill:#DEA481;" points="777.863,1144.91 775.693,1152.197 761.532,1152.197 763.968,1143.25 			"/>
			<polygon style="fill:#DEA481;" points="836.411,1144.805 836.821,1152.197 850.982,1152.197 850.982,1143.937 			"/>
			<path style="fill:#061733;" d="M786.724,969.876l-25.192,174.06c5.81,2.566,11.516,3.909,17.026,2.947l42.546-175.697
				L786.724,969.876z"/>
			<path style="fill:#061733;" d="M810.032,986.245l16.12,6.478l8.685,153.332c7.584,2.288,14.628,3.06,20.303,0l2.861-177.815
				h-46.327L810.032,986.245z"/>
			<path style="fill:#176AA0;" d="M840.466,843.421l14.565,4.734c0,0-2.646,31.186,0,36.263l4.382,86.769
				c-24.408,4.488-50.077,4.68-74.163,0l6.33-122.162c0,0,9.71-5.121,16.026-5.603C813.923,842.939,840.466,843.421,840.466,843.421
				z"/>
			<path style="fill:#E5E5E5;" d="M826.277,841.972c10.052,0,17.068,4.015,17.068,4.015l-20.949,50.039l-14.728-51.562
				C807.668,844.464,811.805,841.972,826.277,841.972z"/>
			<path style="fill:#FEC09B;" d="M820.481,829.639l0.636,14.744c0,0,4.438,2.121,8.318,1.485c3.88-0.636,2.335-16.228,2.335-16.228
				H820.481z"/>
			<path style="fill:#061733;" d="M822.396,896.026l13.311-53.087c3.393-0.297,7.331,0.917,11.352,2.595l-7.794,19.276l4.08,1.286
				L822.396,896.026z"/>
			<path style="fill:#061733;" d="M822.396,896.026l-8.054-53.506c-3.926-0.266-8.651,0.353-13.39,2.462l11.252,21.571l-4.606,1.493
				L822.396,896.026z"/>
			<g>
				<path style="fill:#4D5256;" d="M820.721,907.077c-1.288,0-2.333,1.044-2.333,2.333c0,1.289,1.045,2.333,2.333,2.333
					s2.333-1.044,2.333-2.333C823.054,908.122,822.01,907.077,820.721,907.077z"/>
				<circle style="fill:#4D5256;" cx="820.721" cy="923.446" r="2.333"/>
				<path style="fill:#4D5256;" d="M820.721,935.149c-1.288,0-2.333,1.044-2.333,2.333c0,1.288,1.045,2.333,2.333,2.333
					s2.333-1.044,2.333-2.333C823.054,936.194,822.01,935.149,820.721,935.149z"/>
				<path style="fill:#4D5256;" d="M820.721,949.185c-1.288,0-2.333,1.044-2.333,2.333c0,1.289,1.045,2.333,2.333,2.333
					s2.333-1.044,2.333-2.333C823.054,950.23,822.01,949.185,820.721,949.185z"/>
			</g>
			<path style="fill:#B72123;" d="M825.295,845.617l7.432-2.678c0,0,2.15,5.262-0.898,8.31l-6.534-4.664l-6.534,4.664
				c-3.048-3.048-0.898-8.31-0.898-8.31L825.295,845.617z"/>
			<g>
				<path style="fill:#30343D;" d="M880.725,1162.132v0.141H839.37c-1.922,0-3.482-1.56-3.482-3.481v-9.851c0,0,7.255,0,11.028,0
					c3.773,0,0.594-7.043,5.282-8.301c4.689-1.258,7.547,8.683,7.547,8.683l14.328,4.035c2.797,0.785,4.971,2.817,5.997,5.393
					C880.493,1159.808,880.725,1160.945,880.725,1162.132z"/>
				<path style="fill:#1D1D1B;" d="M880.725,1162.132v0.141H839.37c-1.922,0-3.482-1.56-3.482-3.481v-0.04h44.182
					C880.493,1159.808,880.725,1160.945,880.725,1162.132z"/>
				<g>
					
						<rect x="857.924" y="1150.864" transform="matrix(0.525 -0.8511 0.8511 0.525 -571.1885 1279.2438)" style="fill:#4D5256;" width="5.026" height="0.934"/>
				</g>
				<g>
					<polygon style="fill:#4D5256;" points="863.053,1154.564 862.225,1154.135 864.308,1150.109 865.136,1150.539 					"/>
				</g>
			</g>
			<g>
				<path style="fill:#30343D;" d="M732.717,1162.132v0.141h41.354c1.922,0,3.482-1.56,3.482-3.481v-9.851c0,0-7.255,0-11.028,0
					s-0.594-7.043-5.283-8.301c-4.689-1.258-7.546,8.683-7.546,8.683l-14.328,4.035c-2.797,0.785-4.971,2.817-5.997,5.393
					C732.949,1159.808,732.717,1160.945,732.717,1162.132z"/>
				<path style="fill:#1D1D1B;" d="M732.717,1162.132v0.141h41.354c1.922,0,3.482-1.56,3.482-3.481v-0.04h-44.182
					C732.949,1159.808,732.717,1160.945,732.717,1162.132z"/>
				<g>
					
						<rect x="752.537" y="1148.817" transform="matrix(0.8508 -0.5255 0.5255 0.8508 -492.6953 567.5413)" style="fill:#4D5256;" width="0.934" height="5.026"/>
				</g>
				<g>
					<polygon style="fill:#4D5256;" points="750.39,1154.564 748.307,1150.539 749.135,1150.109 751.218,1154.135 					"/>
				</g>
			</g>
			<path style="fill:#EFBF99;" d="M868.172,973.152c0,0-8.863,11.431-12.197,10.067c-3.333-1.364-6.113-10.505-6.113-10.505
				l9.201-7.516L868.172,973.152z"/>
			<path style="fill:#176AA0;" d="M855.031,848.155c14.939,12.188,28.023,40.029,42.2,69.218c1.485,3.057,1.381,6.652-0.291,9.611
				l-27.704,47.641c-4.863-0.955-8.827-3.772-11.235-9.815l24.034-42.523l-27.004-37.869c0,0-6.423-2.783-4.949-19.482
				C851.555,848.237,855.031,848.155,855.031,848.155z"/>
			<path style="fill:#4D5256;" d="M867.763,969.058c-0.678,0.226-1.045,0.959-0.819,1.637c0.226,0.678,0.959,1.045,1.637,0.819
				c0.678-0.226,1.045-0.959,0.819-1.637C869.174,969.198,868.441,968.832,867.763,969.058z"/>
			<path style="fill:#1A78B5;" d="M763.38,857.563c0,0,25.89,49.893,25.89,66.613c0,16.721-3.506,15.912-6.472,15.912
				c-2.967,0-15.945-11.788-22.384-32.632c-6.405-20.732-11.158-47.533-11.158-47.533L763.38,857.563z"/>
			<path style="fill:#4D5256;" d="M755.828,863.766c-0.968,0.372-1.451,1.459-1.079,2.427c0.372,0.968,1.459,1.451,2.427,1.079
				c0.968-0.372,1.451-1.459,1.079-2.427C757.883,863.877,756.797,863.393,755.828,863.766z"/>
			<path style="fill:#4D5256;" d="M757.446,871.317c-0.968,0.372-1.451,1.459-1.079,2.427c0.372,0.968,1.459,1.451,2.427,1.079
				c0.968-0.372,1.451-1.459,1.079-2.427C759.501,871.428,758.415,870.945,757.446,871.317z"/>
		</g>
		<g>
			<path style="fill:#FEC09B;" d="M806.459,798.401c0,0-8.297-1.96-8.026,3.851c0.271,5.811,7.131,4.174,7.131,4.174
				L806.459,798.401z"/>
			<path style="fill:#FA9480;" d="M806.186,800.843l-0.411,3.685c0,0-3.28-0.12-3.22-2.493
				C802.616,799.662,806.186,800.843,806.186,800.843z"/>
		</g>
		<path style="fill:#FEC09B;" d="M834.191,772.571c-12.804-3.588-19.765-4.62-25.17,9.628c-5.405,14.248-10.272,46.492,0.382,50.306
			c10.654,3.814,26.041,9.585,37.449-6.814c9.759-14.03,8.159-38.114,3.724-43.695C846.14,776.415,834.191,772.571,834.191,772.571z
			"/>
		<g>
			<path style="fill:#FEC09B;" d="M852.462,808.879c0,0,8.491,0.768,6.394,6.194c-2.097,5.426-8.086,1.701-8.086,1.701
				L852.462,808.879z"/>
			<path style="fill:#FA9480;" d="M851.947,811.281l-0.777,3.625c0,0,3.149,0.925,3.843-1.345
				C855.707,811.292,851.947,811.281,851.947,811.281z"/>
		</g>
		<path style="fill:#453924;" d="M844.228,788.271c0,0-22.407,11.285-31.706,9.774c-9.299-1.511-10.223-3.075-10.472-8.062
			c0,0-7.755,1.331-8.122-4.382c-0.367-5.713,5.138-5.525,5.138-5.525s-3.582-1.878-2.873-6.238c1.1-6.77,27.443-9.713,48.677-0.923
			c21.235,8.791,13.339,33.848,8.336,36.067C853.207,808.981,844.675,802.381,844.228,788.271z"/>
		<g>
			<path style="fill:#41444D;" d="M811.221,799.817c-1.244-0.398-2.575,0.287-2.974,1.532c-0.398,1.244,0.287,2.575,1.532,2.974
				c1.244,0.398,2.575-0.287,2.974-1.531C813.15,801.546,812.465,800.215,811.221,799.817z"/>
			<path style="fill:#41444D;" d="M837.067,804.446c-1.244-0.398-2.575,0.288-2.974,1.532c-0.398,1.244,0.287,2.575,1.531,2.974
				c1.244,0.398,2.575-0.287,2.974-1.531C838.997,806.176,838.311,804.844,837.067,804.446z"/>
			<path style="fill:#FA9480;" d="M820.668,815.272l-4.626-3.317C816.042,811.955,814.838,817.147,820.668,815.272z"/>
		</g>
		<path style="fill:#FFFFFF;" d="M833.481,822.253l-18.979,1.16c0,0,0.106,8.33,10.755,8.224S833.481,822.253,833.481,822.253z"/>
	</g>
</g>
<g>
	<g>
		<path style="fill:#29BAB5;" d="M117.185,754.432c0,0-7.966,4.498-13.274,15.979c-5.308,11.482-12.845,39.181-12.845,53.328
			l20.643-6.114c0,0,9.746-32.699,10.871-43.405C122.579,774.221,122.419,756.512,117.185,754.432z"/>
		<g>
			<path style="fill:#F7B085;" d="M196.658,777.213c0,0,3.579-12.522,4.094-15.031c0.515-2.509,4.535-5.618,4.535-5.618
				s0.826,0.077,0.199,1.68c-0.627,1.603-2.413,4.97-2.413,4.97s2.674-3.629,3.565-4.334c0.891-0.705,2.613-1.503,2.613-1.503
				s1.162,1.009,0.183,1.92c-0.979,0.91-3.027,3.62-3.271,5.373c0,0,2.079-4.012,4.891-4.739c0,0,0.866,0.77,0.022,1.734
				c-0.844,0.963-2.518,3.45-2.569,4.97c-0.05,1.521-1.224,9.574-3.562,13.956C204.944,780.591,200.148,780.427,196.658,777.213z"/>
			<polygon style="fill:#DE6AB4;" points="192.427,759.396 220.464,758.286 220.424,769.331 192.404,770.159 			"/>
			<polygon style="fill:#FF88D4;" points="192.757,758.117 220.28,763.577 217.665,774.307 190.224,768.577 			"/>
			<path style="fill:#FEC09B;" d="M198.675,770.049c0,0,2.08-4.231,2.626-4.962c0.434-0.581,2.641-1.248,3.527-1.496
				c0.197-0.055,0.431,0.073,0.473,0.258c0.094,0.416,0.156,1.09-0.296,1.456c-0.684,0.554-1.81,0.647-2.193,1.359
				c-0.383,0.713-0.582,1.943-0.582,1.943s1.734,1.876,1.02,4.759c-0.714,2.883-2.922,6.138-2.922,6.138
				c-1.373-0.613-2.659-1.314-3.67-2.291C196.658,777.213,198.175,771.859,198.675,770.049z"/>
		</g>
		<path style="fill:#29BAB5;" d="M161.182,760.723c0,0,13.677,31.459,17.561,43.337c0,0,13.002-20.668,17.054-27.76
			c0,0,5.91-0.338,10.638,4.39c0,0-9.491,42.503-28.065,40.984c-18.574-1.52-23.266-29.443-23.266-29.443
			S154.006,767.899,161.182,760.723z"/>
		<path style="fill:#FEC09B;" d="M108.299,1034.233c4.744-1.165,6.817-8.652,7.716-15.24c0.752-5.542,0.688-10.451,0.688-10.451
			l21.645-132.428l-27.755-7.698l-4.056,137.676c0,0-1.294,5.643-2.064,11.891C103.455,1026.195,103.345,1035.444,108.299,1034.233z
			"/>
		<path style="fill:#FEC09B;" d="M138.349,876.114l1.954,136.052l0.073,5.404c0.018,1.44,1.193,2.597,2.633,2.597h35.417
			c1.615,0,2.468-1.945,1.349-3.11c-2.055-2.138-6.716-4.945-17.268-6.973c-3.083-0.596-6.671-1.119-10.845-1.541l14.726-137.428
			L138.349,876.114z"/>
		<path d="M108.299,1034.233c4.744-1.165,6.817-8.652,7.716-15.24c-2.074,2.257-4.762,4.689-6.726,4.689
			c-1.734,0-3.477-2.78-4.817-5.698C103.455,1026.195,103.345,1035.444,108.299,1034.233z"/>
		<path d="M140.303,1012.166l0.073,5.404c0.018,1.44,1.193,2.597,2.633,2.597h35.417c1.615,0,2.468-1.945,1.349-3.11
			c-2.055-2.138-6.716-4.945-17.268-6.973l-5.046,4.881L140.303,1012.166z"/>
		<path style="fill:#3ECFCA;" d="M136.482,748.978c9.165,0,20.309,6.004,24.7,11.745l-3.354,12.134c0,0,7.192,7.812,4.644,16.003
			c-1.615,5.192-4.534,7.016-5.715,9.886c-1.182,2.87-0.105,19.048,1.823,22.088c1.928,3.039,9.02,11.482,13.916,35.121
			c4.897,23.639,19.587,58.759,19.587,58.759s-26.847,18.8-54.792,17.449c-23.377-1.13-54.792-20.318-54.792-20.318
			s11.144-23.977,14.352-36.978c3.208-13.002,9.066-43.903,17.223-55.721c5.383-14.521,6.923-37.654,6.923-37.654
			s2.943-17.044-3.811-27.059C117.185,754.432,124.784,748.978,136.482,748.978z"/>
		<path style="fill:#AE754B;" d="M136.482,686.766c14.231,0,20.054,7.598,22.461,17.392c2.407,9.793,12.032,10.77,10.343,18.893
			c-1.688,8.123-6.923,8.354-6.923,8.354s1.631,8.504-5.684,12.677c-7.563,4.315-13.181,2.457-13.181,2.457
			s-6.327,4.153-16.594,1.62c-10.267-2.533-11.144-12.255-11.144-12.255s-10.469-0.228-9.624-9.487
			c0.844-9.258,3.208-11.494,3.208-11.494s7.84-8.402,7.84-14.312S125.966,686.766,136.482,686.766z"/>
		<g>
			<path style="fill:#FEC09B;" d="M120.297,717.038c0,0-6.56-1.346-6.212,3.21c0.348,4.556,5.696,3.111,5.696,3.111L120.297,717.038
				z"/>
			<path style="fill:#FA9480;" d="M120.14,718.961l-0.237,2.903c0,0-2.578-0.018-2.586-1.882
				C117.31,718.117,120.14,718.961,120.14,718.961z"/>
		</g>
		<path style="fill:#FEC09B;" d="M141.312,692.299c-9.826-1.505-17.953,3.21-21.289,24.985c-3.336,21.775,8.81,25.878,15.98,26.976
			c7.17,1.098,19.532-0.871,21.851-16.008C160.172,713.116,157.511,694.78,141.312,692.299z"/>
		<path style="fill:#FA9480;" d="M138.182,730.414l4.591-1.249C142.773,729.164,140.411,733.224,138.182,730.414z"/>
		<g>
			<path style="fill:#3E444E;" d="M130.367,717.888c-0.995-0.251-2.005,0.352-2.256,1.346c-0.251,0.995,0.352,2.005,1.346,2.256
				c0.995,0.251,2.005-0.352,2.256-1.346C131.965,719.15,131.362,718.14,130.367,717.888z"/>
			<path style="fill:#3E444E;" d="M150.855,720.252c-0.995-0.251-2.005,0.352-2.256,1.346c-0.251,0.995,0.351,2.005,1.346,2.256
				c0.995,0.251,2.005-0.352,2.256-1.346C152.453,721.513,151.85,720.503,150.855,720.252z"/>
			<g>
				<path style="fill:#DF9A5A;" d="M127.736,715.466c-0.259,0-0.471-0.207-0.475-0.467c-0.004-0.263,0.204-0.48,0.467-0.484
					l3.715-0.066c0.224,0.022,0.479,0.204,0.484,0.467c0.004,0.263-0.205,0.479-0.467,0.484l-3.715,0.066
					C127.742,715.466,127.739,715.466,127.736,715.466z"/>
			</g>
			<g>
				<path style="fill:#DF9A5A;" d="M152.248,718.293c-0.041,0-0.084-0.006-0.126-0.017l-3.131-0.856
					c-0.253-0.069-0.402-0.331-0.333-0.584c0.069-0.254,0.329-0.401,0.584-0.334l3.131,0.855c0.253,0.069,0.402,0.331,0.333,0.584
					C152.649,718.154,152.457,718.293,152.248,718.293z"/>
			</g>
		</g>
		<g>
			<path style="fill:#FA9480;" d="M137.817,740.273c-0.287,0-0.575-0.016-0.863-0.047c-2.595-0.281-4.901-1.81-6.17-4.09
				c-0.127-0.229-0.045-0.519,0.185-0.646c0.23-0.128,0.519-0.046,0.646,0.184c1.119,2.012,3.153,3.359,5.441,3.607
				c2.285,0.243,4.563-0.636,6.086-2.361c0.174-0.197,0.474-0.217,0.671-0.042c0.197,0.174,0.216,0.474,0.042,0.671
				C142.32,739.288,140.111,740.273,137.817,740.273z"/>
		</g>
		<path style="fill:#AE754B;" d="M133.969,700.737c0,0,12.617,18.703,24.72,19.458c0,0,3.249-25.545-18.291-29.94
			c-21.539-4.395-20.376,27.029-20.376,27.029S130.206,711.591,133.969,700.737z"/>
		<path style="fill:#FEC09B;" d="M133.324,741.116l-1.232,8.456c0,0,2.381,5.287,4.655,5.618c2.274,0.331,3.819-5.534,3.819-5.534
			l0.306-8.133L133.324,741.116z"/>
		<g>
			<path style="fill:#4F177C;" d="M121.13,850.68c0,0-27.488-3.844-28.839-1.395c-1.351,2.449-1.857,7.852-1.857,7.852l27.373,2.704
				L121.13,850.68z"/>
			<path style="fill:#490C38;" d="M90.433,857.137c0,0-0.844,6.585,0,11.988c0,0,6.375,3.377,29.022,3.377v-12.662L90.433,857.137z"
				/>
			<path style="fill:#32082D;" d="M121.13,850.68c3.411,0,2.019,21.823-1.675,21.823S117.718,850.68,121.13,850.68z"/>
			<polygon style="fill:#B5984E;" points="103.911,856.462 106.088,856.462 106.088,860.904 103.002,860.419 			"/>
		</g>
		<path style="fill:#490C38;" d="M119.701,856.462c0,0,2.625-79.451,0.596-89.829c-2.028-10.378-3.354-11.429-4.874-11.429
			c0,0,1.507-2.863,2.888-1.482c0,0,2.628,0.416,4.14,12.581c0.999,8.043-0.555,90.158-0.555,90.158H119.701z"/>
		<path style="fill:#FEC09B;" d="M127.416,803.692c0,0,5.293-8.359,4.41-14.957c-0.883-6.598-2.492-9.697-3.858-9.304
			c-1.366,0.393-1.042,2.408-1.042,2.408s-0.884-1.986-2.12-1.462c-1.236,0.524-0.687,2.2-0.687,2.2s-0.218-1.997-1.453-1.498
			c-1.235,0.499-0.739,2.692-0.739,2.692s1.995,10.409-2.043,13.86L127.416,803.692z"/>
		<path style="fill:#52DED9;" d="M121.139,795.321c0,0,2.982,5.364,8.454,5.364c0,0-8.26,30.393-31.224,29.042
			c0,0-10.131-2.026-6.529-10.356C95.442,811.041,121.139,795.321,121.139,795.321z"/>
	</g>
</g>
</svg>
