<svg xmlns="http://www.w3.org/2000/svg" viewBox="0 0 750 500"><g id="freepik--background-simple--inject-246"><path d="M710,179.61q-2.06-6.87-4.62-13.52c-14.6-37.84-47.4-66-82.15-83.15C593,68,558.78,59.69,524.82,61.07c-80,3.23-153.05,57.44-234.14,45.28C184.93,90.5,103,61.68,56.07,131.05s-35.71,202.27,28,258.39S234,422.87,291.38,406.78,470,472,617,413.55c42.26-16.8,73.9-50.21,88.94-94.13C721.11,275.14,723.36,224.2,710,179.61Z" style="fill:#7E57C2"></path><path d="M710,179.61q-2.06-6.87-4.62-13.52c-14.6-37.84-47.4-66-82.15-83.15C593,68,558.78,59.69,524.82,61.07c-80,3.23-153.05,57.44-234.14,45.28C184.93,90.5,103,61.68,56.07,131.05s-35.71,202.27,28,258.39S234,422.87,291.38,406.78,470,472,617,413.55c42.26-16.8,73.9-50.21,88.94-94.13C721.11,275.14,723.36,224.2,710,179.61Z" style="fill:#fff;opacity:0.7000000000000001"></path></g><g id="freepik--Graphics--inject-246"><path d="M583.5,55.3A6.8,6.8,0,0,0,574,51.23c-19.8,9.6-73.73,36.4-66.63,40s57.24-5.38,76.58-9a6.81,6.81,0,0,0,5.25-8.74Z" style="fill:none;stroke:#263238;stroke-linecap:round;stroke-linejoin:round"></path><path d="M42.23,340.23c-2.51-2.8-2.16-6.48.74-7.78,15.39-6.89,57.8-25.34,57.62-19.24s-27.41,31.53-38,41.26c-2.2,2-6.33,1.37-8.8-1.38Z" style="fill:none;stroke:#263238;stroke-linecap:round;stroke-linejoin:round"></path><path d="M258.46,101.59s-28.62-49.44-37.3-49.44-32.09,27.76-26,32.09,52,33,59.85,30.36S258.46,101.59,258.46,101.59Z" style="fill:none;stroke:#263238;stroke-linecap:round;stroke-linejoin:round"></path><path d="M678.39,242.82a8.09,8.09,0,0,0-11.15.6c-7.51,8-20.33,22.27-18,24.36,3.33,2.91,33.92-8.51,38-12.15C689.83,253.38,683.56,247.21,678.39,242.82Z" style="fill:none;stroke:#263238;stroke-linecap:round;stroke-linejoin:round"></path><path d="M658.5,413.22a6.58,6.58,0,0,0-2.11-8.82c-7.48-4.85-20.77-13-22.09-10.83-1.84,3.09,11.73,25.89,15.24,28.64C651.71,423.9,655.73,418,658.5,413.22Z" style="fill:none;stroke:#263238;stroke-linecap:round;stroke-linejoin:round"></path><path d="M368.73,331.94a8.09,8.09,0,0,0,8.71-7c1.47-10.87,3.59-29.95.44-30.26-4.4-.43-22.64,26.65-23.85,32C353.28,330,362,331.37,368.73,331.94Z" style="fill:none;stroke:#263238;stroke-linecap:round;stroke-linejoin:round"></path><circle cx="629.71" cy="116.34" r="15.61" style="fill:none;stroke:#263238;stroke-linecap:round;stroke-linejoin:round"></circle><path d="M461.43,122.41a6.94,6.94,0,1,0-6.94,6.94A6.94,6.94,0,0,0,461.43,122.41Z" style="fill:none;stroke:#263238;stroke-linecap:round;stroke-linejoin:round"></path><circle cx="649.66" cy="341" r="6.94" style="fill:none;stroke:#263238;stroke-linecap:round;stroke-linejoin:round"></circle><circle cx="198.61" cy="153.64" r="7.81" transform="translate(-29.99 49.74) rotate(-13.28)" style="fill:none;stroke:#263238;stroke-linecap:round;stroke-linejoin:round"></circle><circle cx="457.1" cy="416.46" r="9.54" style="fill:none;stroke:#263238;stroke-linecap:round;stroke-linejoin:round"></circle><circle cx="236.78" cy="378.3" r="8.67" transform="translate(-59.03 44.13) rotate(-9.47)" style="fill:none;stroke:#263238;stroke-linecap:round;stroke-linejoin:round"></circle><circle cx="64.16" cy="144.96" r="12.14" transform="translate(-22.39 12.15) rotate(-9.22)" style="fill:none;stroke:#263238;stroke-linecap:round;stroke-linejoin:round"></circle><path d="M91.05,184a4.34,4.34,0,1,0-4.34,4.33A4.34,4.34,0,0,0,91.05,184Z" style="fill:none;stroke:#263238;stroke-linecap:round;stroke-linejoin:round"></path></g><g id="freepik--shadow-4--inject-246"><path d="M616.35,462.87c0,3.11-21,5.64-46.84,5.64s-46.84-2.53-46.84-5.64,21-5.64,46.84-5.64S616.35,459.75,616.35,462.87Z" style="fill:#263238;stroke:#263238;stroke-linecap:round;stroke-linejoin:round"></path></g><g id="freepik--shadow-3--inject-246"><path d="M482.25,462.87c0,3.11-21,5.64-46.84,5.64s-46.84-2.53-46.84-5.64,21-5.64,46.84-5.64S482.25,459.75,482.25,462.87Z" style="fill:#263238;stroke:#263238;stroke-linecap:round;stroke-linejoin:round"></path></g><g id="freepik--shadow-2--inject-246"><path d="M336.17,462.87c0,3.11-21,5.64-46.84,5.64s-46.84-2.53-46.84-5.64,21-5.64,46.84-5.64S336.17,459.75,336.17,462.87Z" style="fill:#263238;stroke:#263238;stroke-linecap:round;stroke-linejoin:round"></path></g><g id="freepik--shadow-1--inject-246"><path d="M206.93,462.87c0,3.11-21,5.64-46.84,5.64s-46.84-2.53-46.84-5.64,21-5.64,46.84-5.64S206.93,459.75,206.93,462.87Z" style="fill:#263238;stroke:#263238;stroke-linecap:round;stroke-linejoin:round"></path></g><g id="freepik--character-4--inject-246"><path d="M568,128.73a16.81,16.81,0,0,1,4.5-1.28c2.5-.33,2.92-1,2.25-1.42s0-.08-3.25.67S568,128.73,568,128.73Z" style="fill:none;stroke:#263238;stroke-linecap:round;stroke-linejoin:round"></path><path d="M576.8,178s-1.86-6.1-5.25-14.57-9.49-19.31-9.66-23,2.55-9,6.1-11.69,8.13-4.57,8.47-5.42.34-2-.85-1.69a14,14,0,0,0-2.2.84,9.26,9.26,0,0,0,2-2.54c.51-1.18,0-2-.5-1.69s-1.7-.68-3.05.34-9.83,7.62-9.83,7.62,1.53-4.41.85-4.91-2.37.5-2.54,1.69a28.07,28.07,0,0,1-1.35,4.91c-.68,1.87-2.21,3.73-2.21,7.12a17,17,0,0,0,.85,5.59s2,29.81,5.08,38.61,4.41,12,4.41,12l9.82-9.66Z" style="fill:#fff;stroke:#263238;stroke-linecap:round;stroke-linejoin:round"></path><path d="M562.06,126.19s-.4,3.26-.48,4" style="fill:none;stroke:#263238;stroke-linecap:round;stroke-linejoin:round"></path><path d="M574.94,118.23,572.16,121c-1.34,1.33-4.25,4.41-4.25,4.41" style="fill:none;stroke:#263238;stroke-linecap:round;stroke-linejoin:round"></path><line x1="573.41" y1="122.46" x2="568.82" y2="126.53" style="fill:none;stroke:#263238;stroke-linecap:round;stroke-linejoin:round"></line><path d="M570.9,179.09a8,8,0,0,1,3.48-3.16c2.16-.83,18.44-2.16,22.26.33s13.46,25.59,15,31.73-1,11.13,5,14.95,5.65,9.47,3.49,12.79-3.49,4.32-1.83,7,1.33,5.15-1.49,7.48-9.47,2.49-9.47,2.49-11.47-28.08-13-34.89-3-24.91-7.14-24.75-16.12,7-16.62,7.31-1.16-3.65-1.16-8.8A77.47,77.47,0,0,1,570.9,179.09Z" style="fill:#263238;stroke:#263238;stroke-linecap:round;stroke-linejoin:round"></path><path d="M584,424.86s1.85,12,1,18.63c0,.26-.07.52-.11.76-1.12,6.47-6,9.81-8.25,11.81s-6.24,2.9-4,4.24,8,1.56,12.48.45,7.13-3.13,13.82-6,4.46-7.36,2.67-10.7-4.68-7.58-4.9-8.91-.67-16.5-.67-16.5Z" style="fill:#fff;stroke:#263238;stroke-linecap:round;stroke-linejoin:round"></path><path d="M598.94,454.73c6.68-2.9,4.46-7.36,2.67-10.7-.59-1.11-1.3-2.31-2-3.48-3.75,3.43-9.81,5.71-9.81,5.71l-1.34-2c-1.33-2-3.56,0-3.56,0-1.12,6.47-6,9.81-8.25,11.81s-6.24,2.9-4,4.24,8,1.56,12.48.44S592.25,457.62,598.94,454.73Z" style="fill:#fff;stroke:#263238;stroke-linecap:round;stroke-linejoin:round"></path><path d="M563.5,414.17s-10.92,27-12.48,29.19-7.8,7.13-10.25,8.92-11.37,3.12-12,4.9,4.24,3.12,11.15,4.68,18-1.11,19.83-1.56,2.9-2.9,2.9-6.24a37.66,37.66,0,0,0-1.56-8.47l17.61-26.3Z" style="fill:#fff;stroke:#263238;stroke-linecap:round;stroke-linejoin:round"></path><path d="M540.77,452.28c-2.45,1.78-11.37,3.12-12,4.9s4.24,3.12,11.15,4.68,18-1.12,19.83-1.56,2.9-2.9,2.9-6.24a24.77,24.77,0,0,0-.66-4.94,87.63,87.63,0,0,1-9.81-.86,32.53,32.53,0,0,0-.23-3.34c-.22-2-.89-1.56-.89-1.56C549.46,445.59,543.22,450.49,540.77,452.28Z" style="fill:#fff;stroke:#263238;stroke-linecap:round;stroke-linejoin:round"></path><path d="M560.83,269.75s-1.12,29.86-.45,44.57,5.8,40.56,7.36,50.59,4,19.39,4,19.39L561.5,416.17s7.13,4.68,12.92,5.8a38.56,38.56,0,0,0,8.92.89l1.78-.23s4.46-20.28,7.58-30.31,5.12-16.71,5.57-18.27,19.17-28.75,20.28-45.24-4.46-31-7.58-33.88a66.88,66.88,0,0,1-6.91-8.24s-4-10.48-4.23-12.26S560.83,269.75,560.83,269.75Z" style="fill:#fff;stroke:#263238;stroke-linecap:round;stroke-linejoin:round"></path><path d="M593.67,273c-11-1.57-32.84-3.2-32.84-3.2s-.15,4.08-.31,10c18.79.94,39.31-5.28,39.31-5.28Z" style="fill:#263238;stroke:#263238;stroke-linecap:round;stroke-linejoin:round"></path><path d="M564,229.41s-12.71,27-14.27,31.42a68.55,68.55,0,0,0-2.45,10.26,124.3,124.3,0,0,1,22.07,5.12c11.14,3.79,36.1.22,39-1.78a67.08,67.08,0,0,1,6.91-4s-8.69-33.66-8.69-35.88-2.46-10.93-6.25-12.71S568.63,224.51,564,229.41Z" style="fill:#fff;stroke:#263238;stroke-linecap:round;stroke-linejoin:round"></path><path d="M578.21,215l2.23,13.49,16.27-5.69-.56-8.3s-2.5,3.82-6.15,4.65S578.21,215,578.21,215Z" style="fill:#fff;stroke:#263238;stroke-linecap:round;stroke-linejoin:round"></path><path d="M570.9,179.09s-13,22.09-12.13,28.24,8.64,12.79,8.47,13.79-10.13,3.65-9,9.63,7.48,8.8,5,10.8-3.65,1.49-2.49,4.65,7.48,4.82,6.32,7.31-4.82,5.65-2.5,7.64,7.81,1.66,8,.83-2.49-1.33-2-2.82,4-1.83,3.49-7.64-2.82-9-2.49-10,7.31-6,8.14-9.64-1.33-15.28-1.33-15.28l-1.83-9.47Z" style="fill:#263238;stroke:#263238;stroke-linecap:round;stroke-linejoin:round"></path><path d="M594,183.42l-3.33,3.49s-10.65,4.17-14.65,6-4.16,4.16-3.83,5.16,3,12,3.83,15,6,8.32,8.66,9.82a8,8,0,0,0,8.41-.89c1.83-1.67,4.57-8.1,5.4-10.43a28,28,0,0,0,1.17-5.49s2.66-3.33,2.5-7-2-4.5-3.33-3.17a5.31,5.31,0,0,0-1.5,2,13.25,13.25,0,0,0-2.33-4.66c-2-2.83-2.17-4.16-1.5-5.16S595.13,181.59,594,183.42Z" style="fill:#fff;stroke:#263238;stroke-linecap:round;stroke-linejoin:round"></path><path d="M584,211.72s.5,1.66,1.83,1.16a10.24,10.24,0,0,0,2.83-2" style="fill:none;stroke:#263238;stroke-linecap:round;stroke-linejoin:round"></path><path d="M582.65,215.38a5.88,5.88,0,0,0,4,.5c2.33-.5,5.65-4.16,5.65-4.16" style="fill:none;stroke:#263238;stroke-linecap:round;stroke-linejoin:round"></path><path d="M585.15,216.38a2,2,0,0,0,2.16,1.16c1.5-.33,2.16-2.66,2.16-2.66Z" style="fill:none;stroke:#263238;stroke-linecap:round;stroke-linejoin:round"></path><ellipse cx="590.73" cy="204.25" rx="0.97" ry="1.84" style="fill:#263238"></ellipse><path d="M582.19,205c0,1-.43,1.84-1,1.84s-1-.82-1-1.84.44-1.84,1-1.84S582.19,204,582.19,205Z" style="fill:#263238"></path><path d="M588.64,200.56s3-2.83,5.5.34" style="fill:none;stroke:#263238;stroke-linecap:round;stroke-linejoin:round"></path><path d="M582.15,201.4s-3.49-1.17-4.66,1.49" style="fill:none;stroke:#263238;stroke-linecap:round;stroke-linejoin:round"></path><path d="M622.73,198.36S608.11,215.14,607.61,216s-5.48,3.32-7.81,8.14-.33,25.08,2.16,28.24,7,.66,8.31-2.83,4.81-17.11,4.81-17.11,12.8-20.1,14-22.92a60.78,60.78,0,0,1,5.48-10c2.33-3.49,24.75-29.9,24.75-29.9s5.15-5,6-5.48,5-3.33,5.65-5.49,1.66-6.14,1.66-6.14a67,67,0,0,0,2.51-6.23c.1-.82-.87-1.5-1.26-.87s-1.06,1.84-1.59,2.85a8,8,0,0,1-.78,1.31s1.79-6,1.79-7.79-.58-2.47-1.06-2.13-.53.63-.68,1.36a31.64,31.64,0,0,1-1.06,3.62c-.34.87-1.21,2.52-1.21,2.52s.82-7,.92-8.32-.58-2.27-1.11-1.79-.44,1.16-.58,2.08-1.5,7.3-1.55,7.45-.44.82-.44.82-.43-5.9-.58-7.88-1.06-2.37-1.49-1.4-.59,2.12-.39,4.73a55.24,55.24,0,0,1-.1,6.48l-2.13,2.91a15.31,15.31,0,0,0-2.27-3.2c-1.26-1.25-4.54-.58-3.82.15s1.26.29,2,1.45a12.94,12.94,0,0,1,1.45,5.27c.15,1.94.34,3.34.34,3.34s-5.61,5.27-7.69,7.15S630.54,179.4,622.73,198.36Z" style="fill:#fff;stroke:#263238;stroke-linecap:round;stroke-linejoin:round"></path><path d="M659.45,159.24a2.4,2.4,0,0,0,2.18,1.84" style="fill:none;stroke:#263238;stroke-linecap:round;stroke-linejoin:round"></path><path d="M666.61,149.4s3.46,1.73,4.11,2.16" style="fill:none;stroke:#263238;stroke-linecap:round;stroke-linejoin:round"></path><path d="M581.78,421.74l.89,6a29.75,29.75,0,0,0,7.58-2.23c4-1.78,11.36-6.24,11.36-6.24s-2.89-26.3-3.79-34.77S596,370.71,596,370.71l-15.38,38.11Z" style="fill:#7E57C2;stroke:#263238;stroke-linecap:round;stroke-linejoin:round"></path><path d="M609.39,293.33c-8.57,3.27-27.1,10.12-34.52,11-5.41.62-10.87-1.61-14.7-3.74,0,5.09,0,9.94.21,13.77.67,14.71,5.8,40.56,7.36,50.59s4,19.39,4,19.39L561.5,416.17s7.13,4.68,12.92,5.8a38.56,38.56,0,0,0,8.92.89l1.78-.23s4.46-20.28,7.58-30.31,5.12-16.71,5.57-18.27,19.17-28.75,20.28-45.24-4.46-31-7.58-33.88C610.46,294.45,609.92,293.9,609.39,293.33Z" style="fill:#7E57C2;stroke:#263238;stroke-linecap:round;stroke-linejoin:round"></path><line x1="578.37" y1="326.17" x2="581.55" y2="327.92" style="fill:none;stroke:#263238;stroke-linecap:round;stroke-linejoin:round"></line><line x1="569.74" y1="321.45" x2="576.15" y2="324.96" style="fill:none;stroke:#263238;stroke-linecap:round;stroke-linejoin:round"></line><path d="M585.34,320.12s-8.91,43.23-9.58,47a35.5,35.5,0,0,0-.67,5.13l-2.67,2,3.12,1.56s.22-4.23,1.56-3.34l1.33.89s1.12-2.67,2-2.45,2.23,4,2.23,4,3.56-2.9,3.12.45-4.9,7.13-6.69,7.35-6.68-4.46-6.68-4.46l-.67,6" style="fill:none;stroke:#263238;stroke-linecap:round;stroke-linejoin:round"></path><path d="M579.18,410.39l-1.64,5.34" style="fill:none;stroke:#263238;stroke-linecap:round;stroke-linejoin:round"></path><path d="M608,314c-2.47,3.62-4.6,9-4.6,10.31,0,1.78-6.69,34.1-10.48,43.68-2.54,6.42-8.57,25.63-12.28,37.62" style="fill:none;stroke:#263238;stroke-linecap:round;stroke-linejoin:round"></path><path d="M604.73,296.27s-2,2.9-.67,4.23,6.47.9,5.13,2.23-6,3.79-2.9,4.68,7.58,1.34,4.24,3.79" style="fill:none;stroke:#263238;stroke-linecap:round;stroke-linejoin:round"></path><line x1="574.87" y1="304.29" x2="576.87" y2="314.99" style="fill:none;stroke:#263238;stroke-linecap:round;stroke-linejoin:round"></line><path d="M580.22,307.52a1.45,1.45,0,1,1-1.45-1.44A1.45,1.45,0,0,1,580.22,307.52Z" style="fill:none;stroke:#263238;stroke-linecap:round;stroke-linejoin:round"></path><path d="M574.65,380.29l.89-4.46s.49-3.57,1-3.45a9.21,9.21,0,0,1,1.87,1s1.47-2.66,2-2.45,2.23,4,2.23,4,2.73-1.77,3.16-.75S585,378,584.39,379a17.57,17.57,0,0,1-3.77,3.33,2.13,2.13,0,0,1-2,.36C577.94,382.3,574.65,380.29,574.65,380.29Z" style="fill:#fff;stroke:#263238;stroke-linecap:round;stroke-linejoin:round"></path></g><g id="freepik--character-3--inject-246"><path d="M506.1,374.29a44.24,44.24,0,0,0,9.16-2.29c5-1.83,11.68-5.5,13.74-4.35s-8.47,11.22-12.14,15.11-8.7,7.79-11.91,10.76-4.35,6.41-7.78,5.27S488,387.34,488,385.51,506.1,374.29,506.1,374.29Z" style="fill:#7E57C2;stroke:#263238;stroke-linecap:round;stroke-linejoin:round"></path><path d="M502.43,391c-3.07,2.09-6.13,4-8.32,5.28a8.19,8.19,0,0,0,3.06,2.51c3.43,1.14,4.58-2.29,7.78-5.27s8.25-6.87,11.91-10.76,14.2-14,12.14-15.11c0,0-11.22,10.53-15.34,13.51S508.16,387.11,502.43,391Z" style="fill:#fff;stroke:#263238;stroke-linecap:round;stroke-linejoin:round"></path><path d="M359.54,359.4s-10.07-2.29-11-.46-7.33,19-7.33,23.82,2.52,14.2,4.35,13.05.92-7.33,2.52-9.84,13.06-10.54,13.06-10.54Z" style="fill:#7E57C2;stroke:#263238;stroke-linecap:round;stroke-linejoin:round"></path><path d="M351.62,358.24c-1.54,0-2.78.12-3.07.7-.92,1.84-7.33,19-7.33,23.82s2.52,14.2,4.35,13.05c-.23-1.14-2.29-8.47-2.29-12.36C343.28,380.36,349.17,364.65,351.62,358.24Z" style="fill:#fff;stroke:#263238;stroke-linecap:round;stroke-linejoin:round"></path><path d="M397.1,264.14s1.37,28.85,2.52,36.41,11.45,47.86,11.45,47.86-39.39,11.45-42.37,11.45-10.76-.92-10.76-.92-2.29,4.81-1.83,9.16,3.2,11.22,3.2,11.22L382,372.23s43.28-6.87,45.57-8.25,5.5-3.89,5.73-6.64,2.75-39.84,3.2-41.45,3.9-11.22,3.9-11.22l41.45,3.44a70.3,70.3,0,0,0-3.21,26.79c1.14,14.88,4.58,34.81,4.81,36.18s.46,6.18,1.14,8.24L488,389.63a34,34,0,0,0,7.56-5.27c3-3,12.13-10.53,12.13-10.53s-.91-1.83-2.29-4.12-3.43-4.58-3.89-6.64.23-47.18,1.6-51.07,6.18-17.86,3.21-21.3-32.52-12.82-39.39-14.65S455,272.61,455,272.61l-4.58-5.72s-3.43,7.33-23.35,3.43S397.1,264.14,397.1,264.14Z" style="fill:#263238;stroke:#263238;stroke-linecap:round;stroke-linejoin:round"></path><path d="M440.38,304.67s7.33-8.7,9.84-13.74" style="fill:none;stroke:#878787;stroke-linecap:round;stroke-linejoin:round"></path><polyline points="494.19 309.94 481.82 308.11 491.21 316.12" style="fill:none;stroke:#878787;stroke-linecap:round;stroke-linejoin:round"></polyline><path d="M450.45,275.36s-7.78,10.08-9.61,14.43" style="fill:none;stroke:#878787;stroke-linecap:round;stroke-linejoin:round"></path><line x1="411.07" y1="348.41" x2="413.13" y2="360.09" style="fill:none;stroke:#878787;stroke-linecap:round;stroke-linejoin:round"></line><path d="M397.78,275.36A43.34,43.34,0,0,0,414,280.17c9.62.92,24.73-1.14,30.69-3.66s8-4.58,8-4.58l-2.29-5s-9.39,6.41-20.61,6.87-23.58-3.21-25.64-3.89-6.87-2.52-6.87-2.52Z" style="fill:#fff;stroke:#263238;stroke-linecap:round;stroke-linejoin:round"></path><polygon points="429.84 273.76 430.76 279.25 438.09 278.11 436.94 272.15 429.84 273.76" style="fill:#fff;stroke:#263238;stroke-linecap:round;stroke-linejoin:round"></polygon><path d="M429.84,273.76a104.55,104.55,0,0,0-15.34,4.35c-7.1,2.75-13.51,3.43-9.85,6.87s26.11-5.73,26.11-5.73Z" style="fill:#fff;stroke:#263238;stroke-linecap:round;stroke-linejoin:round"></path><path d="M397.33,267.35s14.65,8.7,30.22,7.55,22.9-8,22.9-8-5.95-33-4.58-42.37,3-28.16,1.84-31.37-33.44-6-38-5-9.16,40.54-11.22,49S397.33,267.35,397.33,267.35Z" style="fill:#b0b0b0;stroke:#263238;stroke-linecap:round;stroke-linejoin:round"></path><ellipse cx="425.95" cy="191.21" rx="10.76" ry="11.34" style="fill:#fff;stroke:#263238;stroke-linecap:round;stroke-linejoin:round"></ellipse><path d="M416.22,186s-5.92,22.7-9.21,38.81-8.55,54.76-10,53.28-3-1.15-5.59-3-.82-5.1-1.81-6.41-5.26-5.27-5.92-7.24,1.32-8.88,1.81-9.37S396,208.73,396,208.73s-12.49-11.19-15-15.79-9.37-12.33-9.37-12.33S360.15,168.77,356,163.5s-16.28-26.31-16.28-26.31a34.74,34.74,0,0,1-6.08-3.12,13.47,13.47,0,0,1-3.29-4.11l3.45-8.06s-2.63-1.48-3.28-1.32-2.31,2.47-3.62,3.13-3.13.16-1.65-1.81,2.8-4.61,4.11-5.26,8.39,2.63,10.36,5.59,11.35,15.62,11.35,15.62,23.68,26.64,26.81,28.78,4.44,1,7.56,5.1,11.35,10,11.35,10,0-2.14,5.09-.83a78.18,78.18,0,0,0,13,1.65A3.74,3.74,0,0,1,416.22,186Z" style="fill:#fff;stroke:#263238;stroke-linecap:round;stroke-linejoin:round"></path><path d="M416.22,186a3.74,3.74,0,0,0-1.31-3.45,78.25,78.25,0,0,1-13-1.65c-5.09-1.31-5.09.83-5.09.83s-8.23-5.92-11.35-10-4.44-3-7.56-5.1c-1.68-1.15-9.28-9.35-16-16.71l-8.53,9.83c1,1.57,1.93,2.88,2.61,3.75,4.12,5.27,15.63,17.11,15.63,17.11s6.9,7.72,9.37,12.33,15,15.79,15,15.79-10,42.91-10.52,43.41-2.47,7.4-1.81,9.37,4.93,5.92,5.92,7.24-.82,4.6,1.81,6.41,4.11,1.48,5.59,3,6.74-37.16,10-53.28S416.22,186,416.22,186Z" style="fill:#7E57C2;stroke:#263238;stroke-linecap:round;stroke-linejoin:round"></path><path d="M330.55,120.58s-4.07,7.06-2.92,8.53,3.62,3.46,4.28,2.8,3.73-6.72,3.73-8S332,119.93,330.55,120.58Z" style="fill:#fff;stroke:#263238;stroke-linecap:round;stroke-linejoin:round"></path><path d="M329.53,122.63s3.53,3,5.56,3.41" style="fill:#fff;stroke:#263238;stroke-linecap:round;stroke-linejoin:round"></path><path d="M327.76,126s2.62,3.34,5.63,3.67" style="fill:#fff;stroke:#263238;stroke-linecap:round;stroke-linejoin:round"></path><path d="M344.36,130.69s-3-7.87-4.15-9.31-3.9-3-4.75-4.83-2.88-2.8-3.13-.6,2.37,5.93,2.63,6.27-.51,4.32,1.6,7.29,4,3.22,4,3.22" style="fill:#fff;stroke:#263238;stroke-linecap:round;stroke-linejoin:round"></path><path d="M413.38,182.23s-6.86,11.91-9.28,15.54-3.23,4.65-1.41,5.25,5.65-3.43,6.45-2,1.62,6.46,1.62,6.46l5.45-19.78S416,181.43,413.38,182.23Z" style="fill:#7E57C2;stroke:#263238;stroke-linecap:round;stroke-linejoin:round"></path><polyline points="399.05 189.7 395.99 208.72 393.2 183.04" style="fill:none;stroke:#263238;stroke-linecap:round;stroke-linejoin:round"></polyline><line x1="386.45" y1="182.35" x2="384.72" y2="177.59" style="fill:none;stroke:#263238;stroke-linecap:round;stroke-linejoin:round"></line><line x1="395.99" y1="208.73" x2="387.57" y2="185.45" style="fill:none;stroke:#263238;stroke-linecap:round;stroke-linejoin:round"></line><line x1="394.72" y1="245.85" x2="395.82" y2="240.96" style="fill:#fff;stroke:#263238;stroke-linecap:round;stroke-linejoin:round"></line><line x1="389.58" y1="268.75" x2="393.5" y2="251.29" style="fill:#fff;stroke:#263238;stroke-linecap:round;stroke-linejoin:round"></line><path d="M435.78,187.28c.2-.81,2,7.67,2.22,18.57s2,37.13,3.63,44.39,11.31,25,11.31,25l16.95-13.73s-8.88-14.73-8.48-26,.2-27.44.2-27.44l27.05-24.22A63.53,63.53,0,0,0,503,168.31c6.46-9.89,20.18-26,20.18-26s5.66,0,7.27-1.42a16.48,16.48,0,0,0,3-4.64s-4-9.28-5.25-9.48-8.27,5.45-9.08,7.46-2.42,5.05-2.42,5.05-29.47,22.2-31.48,25.43-3.84,5.85-3.84,5.85l-14.53,9.89s-1-1-5.25,1-12.31,3.43-12.31,3.43-3.23-2.42-5-2.42-9.08.4-9.08.4Z" style="fill:#fff;stroke:#263238;stroke-linecap:round;stroke-linejoin:round"></path><path d="M485.23,164.68c-2,3.23-3.84,5.85-3.84,5.85l-14.53,9.89s-1-1-5.25,1-12.31,3.43-12.31,3.43-3.23-2.42-5-2.42-9.08.4-9.08.4l.6,4.44c.2-.81,2,7.67,2.22,18.57s2,37.13,3.63,44.39,11.31,25,11.31,25l16.95-13.73s-8.88-14.73-8.48-26,.2-27.44.2-27.44l27.05-24.22A63.53,63.53,0,0,0,503,168.31c1.09-1.67,2.39-3.51,3.79-5.43l-7.68-10.06C492.38,158.11,486.12,163.25,485.23,164.68Z" style="fill:#7E57C2;stroke:#263238;stroke-linecap:round;stroke-linejoin:round"></path><path d="M439.21,183.65s2.83,8.07,5.05,13.52,3.83,9.48,1.41,9.89-4.24-2.83-5-2.63a14.31,14.31,0,0,0-2.63,1.42s-.4-8.48-.4-10.5-2.42-12.51-2.42-12.51Z" style="fill:#7E57C2;stroke:#263238;stroke-linecap:round;stroke-linejoin:round"></path><path d="M453.09,247.85a46.89,46.89,0,0,0-.56,5.42" style="fill:none;stroke:#263238;stroke-linecap:round;stroke-linejoin:round"></path><path d="M465.65,184.05l-4,24s-5.58,22.46-8,36.49" style="fill:none;stroke:#263238;stroke-linecap:round;stroke-linejoin:round"></path><line x1="473.35" y1="184.42" x2="475.34" y2="180.42" style="fill:none;stroke:#263238;stroke-linecap:round;stroke-linejoin:round"></line><line x1="461.61" y1="208.07" x2="471.18" y2="188.79" style="fill:none;stroke:#263238;stroke-linecap:round;stroke-linejoin:round"></line><path d="M531.24,127.34s4.11,8.88,3,10.36-3.62,3.46-4.28,2.8-3.78-8.55-3.78-9.87S529.76,126.68,531.24,127.34Z" style="fill:#fff;stroke:#263238;stroke-linecap:round;stroke-linejoin:round"></path><path d="M532.42,129.91s-4.75,3-5.93,3.14" style="fill:#fff;stroke:#263238;stroke-linecap:round;stroke-linejoin:round"></path><path d="M533.43,132.62s-3.55,2.8-5.59,3" style="fill:#fff;stroke:#263238;stroke-linecap:round;stroke-linejoin:round"></path><path d="M534.11,135.33a10.59,10.59,0,0,1-5.42,3.48" style="fill:#fff;stroke:#263238;stroke-linecap:round;stroke-linejoin:round"></path><path d="M517.43,137.45s3-7.88,4.15-9.32,3.89-3,4.74-4.82,2.88-2.8,3.13-.6-2.37,5.93-2.62,6.27.51,4.32-1.61,7.29-4,3.21-4,3.21" style="fill:#fff;stroke:#263238;stroke-linecap:round;stroke-linejoin:round"></path><path d="M408.66,164.33s-2-2.8-2.64,1.64.17,8.22,1.65,9.21a7.33,7.33,0,0,0,3,1.15s2.3,7.56,3.29,9.37,6.74,9.54,11.34,10.36,7.57-1.31,9.87-4.6,4.28-10.69,4.77-12.17a41.32,41.32,0,0,0,1-4.44s3.78-3.62,3.29-7.89-2.14-3.79-2.14-3.79-2.8,2-4,2.14-6.08-3.29-10.69-3-12,2.8-13.48,3S408.66,164.33,408.66,164.33Z" style="fill:#fff;stroke:#263238;stroke-linecap:round;stroke-linejoin:round"></path><path d="M432,169.42s-2.8,1-2.63,2.47,1,9.21.16,10.85-4.77-.16-4.77-.16" style="fill:none;stroke:#263238;stroke-linecap:round;stroke-linejoin:round"></path><path d="M423,185.37s2.63,3,5.26,2.14a10.64,10.64,0,0,0,4.44-3" style="fill:none;stroke:#263238;stroke-linecap:round;stroke-linejoin:round"></path><path d="M422.14,175.34c0,1.27-.48,2.31-1.07,2.31s-1.07-1-1.07-2.31.48-2.3,1.07-2.3S422.14,174.07,422.14,175.34Z" style="fill:#263238"></path><ellipse cx="432.75" cy="175.01" rx="1.07" ry="2.3" style="fill:#263238"></ellipse><path d="M417.7,170.41s2.14-2.47,5.76-.33" style="fill:none;stroke:#263238;stroke-linecap:round;stroke-linejoin:round"></path><path d="M408.66,164.33s.82,3.28,3.45,4.6,12.17-6.41,16.61-3.78,6.41,3.94,8.88,3.94,4.44-4.93,4.44-5.92,0-11.51-2.47-15.78-9.54-10.2-15.79-8.88-15.95,8.06-16.44,11.67S408.66,164.33,408.66,164.33Z" style="fill:#263238;stroke:#263238;stroke-linecap:round;stroke-linejoin:round"></path><path d="M411,164s5.75-6.25,13.65-6.25S439.74,162,439.74,162" style="fill:none;stroke:#878787;stroke-linecap:round;stroke-linejoin:round"></path></g><g id="freepik--character-2--inject-246"><path d="M319.27,359s-1.71,17.54-3.86,27.57-14.05,51-14.05,51,1.91,7.64,4.78,11.22,4.29,5.73,4.29,8.36,0,5.49-3.34,6.92-10.74,2.15-13.37-1.19-2.15-11.94-2.39-14.8-1.91-7.41-1.43-10,1.67-4.06,2.15-6.45,4.3-30.8,5-38.68a109.34,109.34,0,0,1,2.63-15.28s-3.82-16.95-4.06-18.14S319.27,359,319.27,359Z" style="fill:#fff;stroke:#263238;stroke-linecap:round;stroke-linejoin:round"></path><path d="M293.72,462.82c2.63,3.34,10,2.63,13.37,1.19s3.34-4.29,3.34-6.92-1.43-4.78-4.29-8.36-4.78-11.22-4.78-11.22a63.59,63.59,0,0,1,2.1-7.51,10.74,10.74,0,0,1-10.82-2.3c-.29,2-.5,3.39-.59,3.84-.48,2.39-1.67,3.82-2.15,6.45s1.19,7.16,1.43,10S291.09,459.48,293.72,462.82Z" style="fill:#263238;stroke:#263238;stroke-linecap:round;stroke-linejoin:round"></path><path d="M291.33,448c.24,2.86-.24,11.46,2.39,14.8s10,2.63,13.37,1.19,3.34-4.29,3.34-6.92-1.43-4.78-4.29-8.36-4.78-11.22-4.78-11.22-.95-1.91-2.63-1.19-4.05,1.91-4.05,1.91a60.18,60.18,0,0,1-2.63-6.69c-.48,2.39-1.67,3.82-2.15,6.45S291.09,445.15,291.33,448Z" style="fill:#fff;stroke:#263238;stroke-linecap:round;stroke-linejoin:round"></path><path d="M297.91,460.54c-5-2.05-6.35-10.11-6.35-10.11l-.14.05c.09,3.78.22,9.7,2.3,12.34,2.63,3.34,10,2.63,13.37,1.19s3.34-4.29,3.34-6.92C307.53,460.49,302.88,462.6,297.91,460.54Z" style="fill:#7E57C2;stroke:#263238;stroke-linecap:round;stroke-linejoin:round"></path><path d="M266.5,353.23s2.87,22.44,2.87,31.75-1,15.28,1.91,27,5.49,25.55,5.49,25.55a91,91,0,0,1-5.25,11.22,20.88,20.88,0,0,0-2.87,11.7,5.47,5.47,0,0,0,4.78,5.73c3.82.72,9.55.48,11.93-4.77s1.67-7.41,1.91-12.18a88.61,88.61,0,0,0-.71-13.13c-.24-1.91-.24-30.56-.48-43s.72-33.9.72-33.9Z" style="fill:#fff;stroke:#263238;stroke-linecap:round;stroke-linejoin:round"></path><path d="M274.64,426.94c1.27,6.05,2.13,10.57,2.13,10.57a91,91,0,0,1-5.25,11.22,20.88,20.88,0,0,0-2.87,11.7,5.47,5.47,0,0,0,4.78,5.73c3.82.72,9.55.48,11.93-4.77s1.68-7.41,1.91-12.18a88.61,88.61,0,0,0-.71-13.13c-.08-.63-.13-4.16-.18-9.05C281.81,428.79,277.09,427.74,274.64,426.94Z" style="fill:#263238;stroke:#263238;stroke-linecap:round;stroke-linejoin:round"></path><path d="M284.89,439.9a7.92,7.92,0,0,0-4.3-4.06c-2.39-1-3.82,1.67-3.82,1.67a91,91,0,0,1-5.25,11.22,20.88,20.88,0,0,0-2.87,11.7,5.47,5.47,0,0,0,4.78,5.73c3.82.72,9.55.48,11.93-4.77s1.68-7.41,1.91-12.18a88.61,88.61,0,0,0-.71-13.13C285.12,438,285.36,441.09,284.89,439.9Z" style="fill:#fff;stroke:#263238;stroke-linecap:round;stroke-linejoin:round"></path><path d="M285.36,461.39c2.39-5.26,1.68-7.41,1.91-12.18-2.86,7.4-4.29,9.79-10,11a7.33,7.33,0,0,1-8.12-3.82l-.29,0a26.61,26.61,0,0,0-.19,4.08,5.47,5.47,0,0,0,4.78,5.73C277.25,466.88,283,466.64,285.36,461.39Z" style="fill:#7E57C2;stroke:#263238;stroke-linecap:round;stroke-linejoin:round"></path><path d="M265.07,305.48s-6,19.1-7.4,30.8S254.8,358,254.8,358s6.45,2.15,14.33,4.06,21,.24,21,.24,10.5,2.63,19.82,1.67a164.93,164.93,0,0,0,19.81-3.58s-3.82-34.86-4.53-42.5a69.07,69.07,0,0,0-1.91-11.7Z" style="fill:#263238;stroke:#263238;stroke-linecap:round;stroke-linejoin:round"></path><line x1="290.14" y1="362.3" x2="293.48" y2="326.01" style="fill:none;stroke:#878787;stroke-linecap:round;stroke-linejoin:round"></line><path d="M299,320l-5.49,11.22s7.16,27,6.93,27.94" style="fill:none;stroke:#878787;stroke-linecap:round;stroke-linejoin:round"></path><polyline points="310.67 326.73 312.34 312.4 315.93 324.82" style="fill:none;stroke:#878787;stroke-linecap:round;stroke-linejoin:round"></polyline><path d="M277.25,312.4s-5,36.53-5.26,46.08" style="fill:none;stroke:#878787;stroke-linecap:round;stroke-linejoin:round"></path><path d="M316.64,328.16s1.91,11,1.91,15.76" style="fill:none;stroke:#878787;stroke-linecap:round;stroke-linejoin:round"></path><path d="M266.79,299.79s-3.87,7.36-2.68,8.08,14.09,4.53,30.57,4.53,29.36-2.62,29.6-3.82-2.74-6.56-2.74-6.56l-29.73-3.94Z" style="fill:#7E57C2;stroke:#263238;stroke-linecap:round;stroke-linejoin:round"></path><path d="M301.5,211.26s-1.89,5.17-.76,8.61,4.65,4.75,10.41,4.94,14.47-.75,14.1,6.86-7.24,48.45-7.42,49.38,4.45,16.33,4.64,18.19.37,2.22-.93,2.78-16.7.56-29.88.74-24.69-2.41-24.87-3,1.11-5,1.11-5l3.53-15.59s-10.58,1.3-12.07,1.3-3-11.51-2.41-16.89,3.15-32.85,4.64-34.53,12.44-2.22,17.26-3.89,6.13-2.42,6.13-5.94V207.36l15.77,1.11Z" style="fill:#7E57C2;stroke:#263238;stroke-linecap:round;stroke-linejoin:round"></path><path d="M308.21,225.78c-3.65-.66-5.95-2.12-6.84-4.84-1.2-3.67.8-9.17.8-9.17l-.79-3-16.78-1.19v12.64c0,3.75-1.38,4.54-6.51,6.32,0,0,5.72,9.28,17,9.08C301.87,235.54,306,230.08,308.21,225.78Z" style="fill:#263238;stroke:#263238;stroke-linecap:round;stroke-linejoin:round"></path><path d="M306.89,178.52s4.34,8,4.34,9-.7,4-.18,4.52,6.08,2.26,5.39,3.82-2.26,4.86-2.26,4.86,0,9.55-.7,11.29-11.62,1-14.23.43-10.78-9.29-10.78-9.29l-1.56-10.77s4.86-11.46,8.86-12.15S306.89,178.52,306.89,178.52Z" style="fill:#fff;stroke:#263238;stroke-linecap:round;stroke-linejoin:round"></path><path d="M307.93,200.75a7.12,7.12,0,0,0,4.34,1.74" style="fill:none;stroke:#263238;stroke-linecap:round;stroke-linejoin:round"></path><path d="M311.23,187.55s3.12-.69,3.47-.17,0,4-.87,5.38-2.78-.69-2.78-.69Z" style="fill:#263238;stroke:#263238;stroke-linecap:round;stroke-linejoin:round"></path><path d="M309.84,188.25a9.05,9.05,0,0,0-4.34,1c-2.61,1.21-2.44,2.78-1.57,2.78s.52,3,1.74,3.3,3.82.52,5-1.39S313.14,187.38,309.84,188.25Z" style="fill:#263238;stroke:#263238;stroke-linecap:round;stroke-linejoin:round"></path><polygon points="304.11 190.16 293.69 194.5 303.93 192.07 304.11 190.16" style="fill:#263238;stroke:#263238;stroke-linecap:round;stroke-linejoin:round"></polygon><path d="M304.11,187.55s1.91-2.43,4.51-1.21" style="fill:none;stroke:#263238;stroke-linecap:round;stroke-linejoin:round"></path><path d="M309.05,177.15a5,5,0,0,1-3.82,3.95c-3,.84-6.77,1.65-6.92,5.51-.24,5.87.71,10.11,1.88,10.81s6.35,4.24,3.76,9.17-4.7,5.88-4.7,5.88,7.06,1.65,2.12,8.47-11.53,5.41-14.82,3.05-4.94-3.05-7.76-1.41-12.22.24-13.4-6.11,6.54-8.3,5.37-12.77-2.59-15.75-.47-20.22c1.75-3.7,9.27-9.34,12.78-10.8a22.12,22.12,0,0,1,9.44-2c2.87.13,5.52,1.28,8.39,1.54S309.44,173,309.05,177.15Z" style="fill:#fff;stroke:#263238;stroke-linecap:round;stroke-linejoin:round"></path><path d="M290.59,210.21c-2.56,1-5.19,1.78-6.14,4-1.88,4.43,2.89,10.91,9.2,9.37s3.58-8,1.71-7.84-4.61,1.7-3.58,2.73" style="fill:none;stroke:#263238;stroke-linecap:round;stroke-linejoin:round"></path><path d="M298.77,177.59s-6,3.58-7.16,7.84,6.13,13.13,4.6,19.44a6.46,6.46,0,0,1-3.13,4.14" style="fill:none;stroke:#263238;stroke-linecap:round;stroke-linejoin:round"></path><path d="M274.09,220.89a5.74,5.74,0,0,0,5.07,0" style="fill:none;stroke:#263238;stroke-linecap:round;stroke-linejoin:round"></path><path d="M279.4,182.41a5.15,5.15,0,0,0-.41,2.34c.34,5.46,6,15,4.77,18.58s-13.12,4.78-13.46,10.06a8.28,8.28,0,0,0,2.15,6.28" style="fill:none;stroke:#263238;stroke-linecap:round;stroke-linejoin:round"></path><path d="M287.34,175.72a21.12,21.12,0,0,0-6,3.91" style="fill:none;stroke:#263238;stroke-linecap:round;stroke-linejoin:round"></path><path d="M304.28,260.07a3.91,3.91,0,0,1,3.53-.37c2,.74,7.61,4.64,7.61,4.64s-5,.56-7.06,2.78-6.68.75-6.68.75Z" style="fill:#fff;stroke:#263238;stroke-linecap:round;stroke-linejoin:round"></path><path d="M319.87,225.73a8.14,8.14,0,0,1,8.54,2.6c3.53,4.27.56,41.21.37,47s-1.3,7.43-2.23,8.17-5.75,3.71-23.94.93l-18.19-2.79,1.67-8.35s11.88-3.71,15.59-5.38a10.17,10.17,0,0,1,6.68-.75,2.23,2.23,0,0,1,1.12-2.22,21.59,21.59,0,0,1,3-1.12,22.07,22.07,0,0,0,2.41-.92l5.2-23.21" style="fill:#7E57C2;stroke:#263238;stroke-linecap:round;stroke-linejoin:round"></path><path d="M260.29,233.53a45.43,45.43,0,0,1-1.3,6.12c-.56,1.3-3,24.5-3,29.7s.93,13.55,1.86,14.85,8.55,2.86,12.64,1.93S287.76,279,290.17,277s14.48-10.76,14.48-10.76a5.25,5.25,0,0,0,.74-3.34,4,4,0,0,0-1.11-2.79,3.1,3.1,0,0,0-2.23-.93c-1.11.19-18.56,6.31-20.79,6.87s-8.53.56-8.53.56,1.3-10.58-.19-17.08-2.6-10.58-2.6-10.58" style="fill:#7E57C2;stroke:#263238;stroke-linecap:round;stroke-linejoin:round"></path><path d="M272.73,266.57s-8.17,2.6-10,4.27a9.5,9.5,0,0,0-2.41,3.71" style="fill:none;stroke:#263238;stroke-linecap:round;stroke-linejoin:round"></path><path d="M308.36,267.12a15.19,15.19,0,0,0,9.95,8" style="fill:none;stroke:#263238;stroke-linecap:round;stroke-linejoin:round"></path><path d="M315.42,264.34s4.32,2.22,6.23,2.22" style="fill:none;stroke:#263238;stroke-linecap:round;stroke-linejoin:round"></path><path d="M258.38,271.1s0-2.15,3.35-3.82,7.64-.48,7.64-.48" style="fill:none;stroke:#263238;stroke-linecap:round;stroke-linejoin:round"></path></g><g id="freepik--character-1--inject-246"><path d="M151.39,170.64l-.83,12.85s7.46,8.08,8.29,11.19,4.15,14.52,5,11.82-.42-10.16.2-12.23,2.91-13.48,2.91-13.48a37.54,37.54,0,0,1-8.09-3.31C156,175.61,151.39,170.64,151.39,170.64Z" style="fill:#fff;stroke:#263238;stroke-linecap:round;stroke-linejoin:round"></path><polygon points="165.69 182.15 154.75 185.11 150.56 183.49 151.79 172.99 165.69 182.15" style="fill:#263238;stroke:#263238;stroke-linecap:round;stroke-linejoin:round"></polygon><path d="M148.07,163s1-1.45,0-6.63-4.77-6.43-1.66-12.44,11.2-8.91,11.2-8.91-1.87-3.94-.42-5,4.77,1.66,5.19,2.49-.42-8.09,1.86-8.09,8.5,7,8.5,9.33,2.28-5.39,4.77-3.31,3.52,7.46,2.49,8.91,2.69-1,3.31,1.87a11.55,11.55,0,0,1-2.48,9.33c-2.28,2.9-3.94,3.11-3.94,3.11s-4.36-7-8.92-6.85-9.33.83-9.33,2.91a6.66,6.66,0,0,1-2.07,5.39c-1.86,2.07-2.07,4.76-3.11,7.25s.21,4.36-2.28,3.53A4.84,4.84,0,0,1,148.07,163Z" style="fill:#263238;stroke:#263238;stroke-linecap:round;stroke-linejoin:round"></path><path d="M150.77,162.76s-3.73-7-5.39-2.08.2,6.64,1,7.67a5.61,5.61,0,0,0,2.7,1.46s2.07,6,3.73,7.46,4.56,6.43,12.23,5.8c3.61-.29,7.67-2.48,9.54-8.08s1.86-8.71,2.49-15.55.41-11.82-4.36-14.72-13.68-2.49-15.55.21-.41,3.73-1,5.18-3.94,3.94-4.15,5.39.42,3.73,0,5A8.39,8.39,0,0,1,150.77,162.76Z" style="fill:#fff;stroke:#263238;stroke-linecap:round;stroke-linejoin:round"></path><path d="M170.05,153.43s-1.66.62-1.45,3.52,1,4.77.62,6-4.15.63-4.15.63" style="fill:none;stroke:#263238;stroke-linecap:round;stroke-linejoin:round"></path><path d="M159.27,165.25s6,5.18,12.64,1.24" style="fill:none;stroke:#263238;stroke-linecap:round;stroke-linejoin:round"></path><path d="M163.21,155.4c0,1-.47,1.76-1,1.76s-1-.79-1-1.76.47-1.76,1-1.76S163.21,154.42,163.21,155.4Z" style="fill:#263238"></path><path d="M174,156.75c0,1-.47,1.76-1,1.76s-1-.79-1-1.76.47-1.77,1-1.77S174,155.77,174,156.75Z" style="fill:#263238"></path><path d="M159.06,152s3.11-1.87,6-.21" style="fill:none;stroke:#263238;stroke-linecap:round;stroke-linejoin:round"></path><path d="M171.5,152.6s4.77-2.49,5.39,1" style="fill:none;stroke:#263238;stroke-linecap:round;stroke-linejoin:round"></path><path d="M181.16,209.2s2.21,3.63,4,7.46S201.1,236,201.1,236s2.21-8.26,3.62-13.49,3-15.31,3-15.31-1.2-5-.8-6.65.4-5.64,1.61-6,11.48,4,11.88,5.44.61,4.23-.2,5.64-4.63,6.85-4.63,6.85.2,30-.81,34.64-3.82,8.66-5.64,9.06-29-7-31.41-7.85S181.16,209.2,181.16,209.2Z" style="fill:#fff;stroke:#263238;stroke-linecap:round;stroke-linejoin:round"></path><path d="M209.15,256.13c1.82-.4,4.64-4.43,5.64-9.06a87.72,87.72,0,0,0,.65-10.82c-7.23-.53-11.18-2.49-13.29-4.19L201.1,236s-14.1-15.51-15.91-19.33-4-7.46-4-7.46-5.84,38.27-3.42,39.08S207.34,256.53,209.15,256.13Z" style="fill:#263238;stroke:#263238;stroke-linecap:round;stroke-linejoin:round"></path><path d="M185.38,408.78s2.34,7.21,4,9.55,8.28,7,7.85,8.91-1.48,3-6.37,3.4-7.43-.85-10.82-3-6.37-5.52-10-7-6.79-1.48-6.16-6.15,4-9.34,4-9.34Z" style="fill:#263238;stroke:#263238;stroke-linecap:round;stroke-linejoin:round"></path><path d="M170.1,420.66c3.61,1.49,6.58,4.89,10,7s5.94,3.4,10.82,3,5.95-1.49,6.37-3.4c.26-1.18-2.15-3.41-4.43-5.5-4.12.38-7.67,4.87-7.67,4.87-3.4-1.7-8.28-4.46-11.67-7.86s-9.56-4.24-9.56-4.24C163.31,419.18,166.49,419.18,170.1,420.66Z" style="fill:#fff;stroke:#263238;stroke-linecap:round;stroke-linejoin:round"></path><path d="M179,408.14s4.45,5.52,5.51,7.85,4.89,2.34,4.89,2.34l-4-9.55Z" style="fill:#fff;stroke:#263238;stroke-linecap:round;stroke-linejoin:round"></path><path d="M125.73,409v19.32c0,6.58,3.4,12.31,7.65,12.73s8.7,1.06,9.12-7.85-2.12-18.89-2.12-20S125.73,409,125.73,409Z" style="fill:#263238;stroke:#263238;stroke-linecap:round;stroke-linejoin:round"></path><path d="M142.5,433.19a54.35,54.35,0,0,0-.27-8c-.32,2.79-.79,6.5-.79,6.5a8.65,8.65,0,0,0-6.15-1.48,18.06,18.06,0,0,0-7.22,2.76l-2.34-12.93v8.26c0,6.58,3.4,12.31,7.65,12.73S142.08,442.1,142.5,433.19Z" style="fill:#fff;stroke:#263238;stroke-linecap:round;stroke-linejoin:round"></path><path d="M131.89,412.81s0,10.4,1.06,11.46,4,1.7,4.25-1.48a64,64,0,0,0-.64-9.34Z" style="fill:#fff;stroke:#263238;stroke-linecap:round;stroke-linejoin:round"></path><path d="M125.1,262.41s-3.82,24.09-2.34,34.92,7.64,63.9,7.64,63.9-4.88,29.5-5.3,33.11,1.06,5.52,1.06,6.37-2.12,2.76-2.12,4.88a44.26,44.26,0,0,0,.63,5.73s4,4,9.13,4,7-.64,7.85-2.13,3.4-4.88,3.61-7.21-.85-3.4-.42-5.31a45.28,45.28,0,0,0,1.27-5.94c.43-3.19.85-9.77.85-9.77s8.07-28.23,8.28-31.42-.85-47.12-.85-47.12l26.32,35.24s-4.88,8.91-5.09,16.13-2.34,24.41-2.76,27-1.49,7.43-1.49,7.43-2.76,1.06-2.33,3.61.64,4.67.64,4.67l-2.34,6.15s6.79.85,11.68,1.49a61.34,61.34,0,0,0,6.36.64,69.56,69.56,0,0,0,2.76-6.8c.43-1.7-1.7-3.82-.85-5.52s2.13-2.76,2.13-4.24.21-7.86.21-7.86,7.43-24.41,11-32.9,4.46-14.65,3-20.59S175,282.68,175,282.05s.43-7.22.43-7.22-28.45-3.18-37.58-4.67S125.1,262.41,125.1,262.41Z" style="fill:#b0b0b0;stroke:#263238;stroke-linecap:round;stroke-linejoin:round"></path><line x1="154.39" y1="306.46" x2="163.94" y2="297.33" style="fill:#fff;stroke:#263238;stroke-linecap:round;stroke-linejoin:round"></line><path d="M124.72,257.08s0,8.84.6,9.51,8.19,6.85,26.77,8.4,22.57,2,23.37-.22.8-7.74.8-7.74-22.77-3.54-34.36-6.42A158.07,158.07,0,0,0,124.72,257.08Z" style="fill:#263238;stroke:#263238;stroke-linecap:round;stroke-linejoin:round"></path><path d="M150.56,183.49s-5.39-6.22-6-6.64-11.4-27.57-11.4-27.57l-6.64-27.16s-5.8-25.29-6-28-1.87-12.44-1.87-12.44,3.81-12.08,3.61-14.15-10.75.6-12.61,1.43,1.54,14,1.54,14-.83,35-.21,42.5,5.6,29.44,5.6,29.44,7.88,36.28,8.09,36.9,1.65,14.51,1.65,14.51L126.1,242s-2.7,17.21-.83,19.49,17.83,6,31.09,7.88,18.45,3.11,20.32,1.45,2.7-5.39,2.7-10.16,5.39-35.87,3.11-46.85-5.81-16-10.58-19.49a50.71,50.71,0,0,0-9.66-5.54Z" style="fill:#fff;stroke:#263238;stroke-linecap:round;stroke-linejoin:round"></path><path d="M171.91,194.27a50.71,50.71,0,0,0-9.66-5.54l-11.69-5.24s-5.39-6.22-6-6.64-11.4-27.57-11.4-27.57l-6.64-27.16s-.62-2.68-1.45-6.39a24.31,24.31,0,0,1-14.32,2c0,3.39.09,6.15.22,7.71.62,7.46,5.6,29.44,5.6,29.44s7.88,36.28,8.09,36.9,1.65,14.51,1.65,14.51L126.1,242s-2.7,17.21-.83,19.49,17.83,6,31.09,7.88,18.45,3.11,20.32,1.45,2.7-5.39,2.7-10.16,5.39-35.87,3.11-46.85S176.68,197.79,171.91,194.27Z" style="fill:#7E57C2;stroke:#263238;stroke-linecap:round;stroke-linejoin:round"></path><path d="M137.87,253.64a102.7,102.7,0,0,0,30-20" style="fill:none;stroke:#263238;stroke-linecap:round;stroke-linejoin:round"></path><path d="M129,257s1.35-.4,3.64-1.26" style="fill:none;stroke:#263238;stroke-linecap:round;stroke-linejoin:round"></path><path d="M135.94,263.3s4.95-1.64,12.52-9.88" style="fill:none;stroke:#263238;stroke-linecap:round;stroke-linejoin:round"></path><path d="M116.63,63.22s-8.62,3.31-8.81,5.07S108,73,108.87,73s8.19-3.3,9-4.19S118.07,63.75,116.63,63.22Z" style="fill:#fff;stroke:#263238;stroke-linecap:round;stroke-linejoin:round"></path><path d="M114.14,64.18s1.27,5.13,2,6" style="fill:#fff;stroke:#263238;stroke-linecap:round;stroke-linejoin:round"></path><path d="M111.67,65.35s.57,4.23,1.78,5.74" style="fill:#fff;stroke:#263238;stroke-linecap:round;stroke-linejoin:round"></path><path d="M109.43,66.74a10.07,10.07,0,0,0,1.39,5.92" style="fill:#fff;stroke:#263238;stroke-linecap:round;stroke-linejoin:round"></path><path d="M119.34,79.14s3.17-7.28,3.31-9-.69-4.57,0-6.39-.11-3.79-1.73-2.46-2.29,5.57-2.34,6-3.18,2.59-3.7,6,.58,4.79.58,4.79" style="fill:#fff;stroke:#263238;stroke-linecap:round;stroke-linejoin:round"></path><path d="M212.15,192.29s8.62,3.31,8.81,5.07-.18,4.71-1.06,4.7-8.18-3.31-9.05-4.2S210.71,192.81,212.15,192.29Z" style="fill:#fff;stroke:#263238;stroke-linecap:round;stroke-linejoin:round"></path><path d="M214.63,193.25s-1.26,5.13-1.95,6" style="fill:#fff;stroke:#263238;stroke-linecap:round;stroke-linejoin:round"></path><path d="M217.1,194.42s-.57,4.23-1.78,5.74" style="fill:#fff;stroke:#263238;stroke-linecap:round;stroke-linejoin:round"></path><path d="M219.35,195.81a10,10,0,0,1-1.39,5.91" style="fill:#fff;stroke:#263238;stroke-linecap:round;stroke-linejoin:round"></path><path d="M209.44,208.21s-3.17-7.28-3.32-9,.69-4.57,0-6.39.12-3.78,1.74-2.46,2.29,5.58,2.34,6,3.18,2.6,3.69,6-.58,4.8-.58,4.8" style="fill:#fff;stroke:#263238;stroke-linecap:round;stroke-linejoin:round"></path><path d="M136.65,212.43c6.44-6.45,12.08-23.77,10.07-30.62-.4-1.36-.77-2.67-1.1-3.89a14.06,14.06,0,0,0-1.07-1.07c-.62-.41-11.4-27.57-11.4-27.57l-6.64-27.16s-.62-2.68-1.45-6.39a24.31,24.31,0,0,1-14.32,2c0,3.39.09,6.15.22,7.71.62,7.46,5.6,29.44,5.6,29.44s7.88,36.28,8.09,36.9,1.65,14.51,1.65,14.51l0,9.72C128.56,216.55,132.52,216.55,136.65,212.43Z" style="fill:#263238;stroke:#263238;stroke-linecap:round;stroke-linejoin:round"></path></g></svg>